<?xml version="1.0"?>
<!-- Generated by SVGo -->
<svg width="500" height="500"
     xmlns="http://www.w3.org/2000/svg"
     xmlns:xlink="http://www.w3.org/1999/xlink">
<desc>Generated with https://github.com/marcelmue/konstrukt</desc>
<rect x="0" y="0" width="500" height="500" style="fill:#2c3e50" />
<defs>
<g id="unit">
<polygon points="0,50 0,100 50,100" />
<polygon points="0,45 0,25 25,50 25,70" />
<polygon points="0,20 0,0 25,25 25,45" />
<polygon points="29,52 29,72 50,72" />
<polygon points="29,27 29,47 50,47" />
</g>
<g id="runit">
<g transform="scale(-1,-1)">
<use x="0" y="-45" xlink:href="#unit" />
</g>
</g>
</defs>
<use x="-120" y="-100" xlink:href="#unit" style="fill:#f1c40f" />
<use x="-120" y="-100" xlink:href="#runit" style="fill:#eb2f06" />
<use x="0" y="-100" xlink:href="#unit" style="fill:#eb2f06" />
<use x="0" y="-100" xlink:href="#runit" style="fill:#f1c40f" />
<use x="120" y="-100" xlink:href="#unit" style="fill:#f1c40f" />
<use x="120" y="-100" xlink:href="#runit" style="fill:#eb2f06" />
<use x="240" y="-100" xlink:href="#unit" style="fill:#eb2f06" />
<use x="240" y="-100" xlink:href="#runit" style="fill:#f1c40f" />
<use x="360" y="-100" xlink:href="#unit" style="fill:#f1c40f" />
<use x="360" y="-100" xlink:href="#runit" style="fill:#eb2f06" />
<use x="480" y="-100" xlink:href="#unit" style="fill:#eb2f06" />
<use x="480" y="-100" xlink:href="#runit" style="fill:#f1c40f" />
<use x="600" y="-100" xlink:href="#unit" style="fill:#f1c40f" />
<use x="600" y="-100" xlink:href="#runit" style="fill:#eb2f06" />
<use x="-120" y="55" xlink:href="#unit" style="fill:#eb2f06" />
<use x="-120" y="55" xlink:href="#runit" style="fill:#f1c40f" />
<use x="0" y="55" xlink:href="#unit" style="fill:#f1c40f" />
<use x="0" y="55" xlink:href="#runit" style="fill:#eb2f06" />
<use x="120" y="55" xlink:href="#unit" style="fill:#eb2f06" />
<use x="120" y="55" xlink:href="#runit" style="fill:#f1c40f" />
<use x="240" y="55" xlink:href="#unit" style="fill:#f1c40f" />
<use x="240" y="55" xlink:href="#runit" style="fill:#eb2f06" />
<use x="360" y="55" xlink:href="#unit" style="fill:#eb2f06" />
<use x="360" y="55" xlink:href="#runit" style="fill:#f1c40f" />
<use x="480" y="55" xlink:href="#unit" style="fill:#f1c40f" />
<use x="480" y="55" xlink:href="#runit" style="fill:#eb2f06" />
<use x="600" y="55" xlink:href="#unit" style="fill:#eb2f06" />
<use x="600" y="55" xlink:href="#runit" style="fill:#f1c40f" />
<use x="-120" y="210" xlink:href="#unit" style="fill:#f1c40f" />
<use x="-120" y="210" xlink:href="#runit" style="fill:#eb2f06" />
<use x="0" y="210" xlink:href="#unit" style="fill:#eb2f06" />
<use x="0" y="210" xlink:href="#runit" style="fill:#f1c40f" />
<use x="120" y="210" xlink:href="#unit" style="fill:#f1c40f" />
<use x="120" y="210" xlink:href="#runit" style="fill:#eb2f06" />
<use x="240" y="210" xlink:href="#unit" style="fill:#eb2f06" />
<use x="240" y="210" xlink:href="#runit" style="fill:#f1c40f" />
<use x="360" y="210" xlink:href="#unit" style="fill:#f1c40f" />
<use x="360" y="210" xlink:href="#runit" style="fill:#eb2f06" />
<use x="480" y="210" xlink:href="#unit" style="fill:#eb2f06" />
<use x="480" y="210" xlink:href="#runit" style="fill:#f1c40f" />
<use x="600" y="210" xlink:href="#unit" style="fill:#f1c40f" />
<use x="600" y="210" xlink:href="#runit" style="fill:#eb2f06" />
<use x="-120" y="365" xlink:href="#unit" style="fill:#eb2f06" />
<use x="-120" y="365" xlink:href="#runit" style="fill:#f1c40f" />
<use x="0" y="365" xlink:href="#unit" style="fill:#f1c40f" />
<use x="0" y="365" xlink:href="#runit" style="fill:#eb2f06" />
<use x="120" y="365" xlink:href="#unit" style="fill:#eb2f06" />
<use x="120" y="365" xlink:href="#runit" style="fill:#f1c40f" />
<use x="240" y="365" xlink:href="#unit" style="fill:#f1c40f" />
<use x="240" y="365" xlink:href="#runit" style="fill:#eb2f06" />
<use x="360" y="365" xlink:href="#unit" style="fill:#eb2f06" />
<use x="360" y="365" xlink:href="#runit" style="fill:#f1c40f" />
<use x="480" y="365" xlink:href="#unit" style="fill:#f1c40f" />
<use x="480" y="365" xlink:href="#runit" style="fill:#eb2f06" />
<use x="600" y="365" xlink:href="#unit" style="fill:#eb2f06" />
<use x="600" y="365" xlink:href="#runit" style="fill:#f1c40f" />
<use x="-120" y="520" xlink:href="#unit" style="fill:#f1c40f" />
<use x="-120" y="520" xlink:href="#runit" style="fill:#eb2f06" />
<use x="0" y="520" xlink:href="#unit" style="fill:#eb2f06" />
<use x="0" y="520" xlink:href="#runit" style="fill:#f1c40f" />
<use x="120" y="520" xlink:href="#unit" style="fill:#f1c40f" />
<use x="120" y="520" xlink:href="#runit" style="fill:#eb2f06" />
<use x="240" y="520" xlink:href="#unit" style="fill:#eb2f06" />
<use x="240" y="520" xlink:href="#runit" style="fill:#f1c40f" />
<use x="360" y="520" xlink:href="#unit" style="fill:#f1c40f" />
<use x="360" y="520" xlink:href="#runit" style="fill:#eb2f06" />
<use x="480" y="520" xlink:href="#unit" style="fill:#eb2f06" />
<use x="480" y="520" xlink:href="#runit" style="fill:#f1c40f" />
<use x="600" y="520" xlink:href="#unit" style="fill:#f1c40f" />
<use x="600" y="520" xlink:href="#runit" style="fill:#eb2f06" />
<use x="-120" y="675" xlink:href="#unit" style="fill:#eb2f06" />
<use x="-120" y="675" xlink:href="#runit" style="fill:#f1c40f" />
<use x="0" y="675" xlink:href="#unit" style="fill:#f1c40f" />
<use x="0" y="675" xlink:href="#runit" style="fill:#eb2f06" />
<use x="120" y="675" xlink:href="#unit" style="fill:#eb2f06" />
<use x="120" y="675" xlink:href="#runit" style="fill:#f1c40f" />
<use x="240" y="675" xlink:href="#unit" style="fill:#f1c40f" />
<use x="240" y="675" xlink:href="#runit" style="fill:#eb2f06" />
<use x="360" y="675" xlink:href="#unit" style="fill:#eb2f06" />
<use x="360" y="675" xlink:href="#runit" style="fill:#f1c40f" />
<use x="480" y="675" xlink:href="#unit" style="fill:#f1c40f" />
<use x="480" y="675" xlink:href="#runit" style="fill:#eb2f06" />
<use x="600" y="675" xlink:href="#unit" style="fill:#eb2f06" />
<use x="600" y="675" xlink:href="#runit" style="fill:#f1c40f" />
</svg>
