<?xml version="1.0"?>
<!-- Generated by SVGo -->
<svg width="2000" height="400"
     xmlns="http://www.w3.org/2000/svg"
     xmlns:xlink="http://www.w3.org/1999/xlink">
<desc>Generated with https://github.com/marcelmue/konstrukt</desc>
<rect x="0" y="0" width="2000" height="400" style="fill:#ecf0f1" />
<defs>
<g id="unit">
<polygon points="0,50 0,100 50,100" style="fill:#4a69bd" />
<polygon points="0,45 0,25 25,50 25,70" style="fill:#4a69bd" />
<polygon points="0,20 0,0 25,25 25,45" style="fill:#4a69bd" />
<polygon points="29,52 29,72 50,72" style="fill:#4a69bd" />
<polygon points="29,27 29,47 50,47" style="fill:#4a69bd" />
</g>
<g id="runit">
<g transform="scale(1,-1)">
<use x="0" y="10" xlink:href="#unit" />
</g>
</g>
<g id="r2unit">
<g transform="scale(-1,1)">
<use x="10" y="0" xlink:href="#unit" />
</g>
</g>
<g id="r3unit">
<g transform="scale(-1,1)">
<use x="10" y="0" xlink:href="#runit" />
</g>
</g>
</defs>
<use x="-140" y="-220" xlink:href="#unit" />
<use x="-140" y="-220" xlink:href="#runit" />
<use x="-140" y="-220" xlink:href="#r2unit" />
<use x="-140" y="-220" xlink:href="#r3unit" />
<use x="0" y="-220" xlink:href="#unit" />
<use x="0" y="-220" xlink:href="#runit" />
<use x="0" y="-220" xlink:href="#r2unit" />
<use x="0" y="-220" xlink:href="#r3unit" />
<use x="140" y="-220" xlink:href="#unit" />
<use x="140" y="-220" xlink:href="#runit" />
<use x="140" y="-220" xlink:href="#r2unit" />
<use x="140" y="-220" xlink:href="#r3unit" />
<use x="280" y="-220" xlink:href="#unit" />
<use x="280" y="-220" xlink:href="#runit" />
<use x="280" y="-220" xlink:href="#r2unit" />
<use x="280" y="-220" xlink:href="#r3unit" />
<use x="420" y="-220" xlink:href="#unit" />
<use x="420" y="-220" xlink:href="#runit" />
<use x="420" y="-220" xlink:href="#r2unit" />
<use x="420" y="-220" xlink:href="#r3unit" />
<use x="560" y="-220" xlink:href="#unit" />
<use x="560" y="-220" xlink:href="#runit" />
<use x="560" y="-220" xlink:href="#r2unit" />
<use x="560" y="-220" xlink:href="#r3unit" />
<use x="700" y="-220" xlink:href="#unit" />
<use x="700" y="-220" xlink:href="#runit" />
<use x="700" y="-220" xlink:href="#r2unit" />
<use x="700" y="-220" xlink:href="#r3unit" />
<use x="840" y="-220" xlink:href="#unit" />
<use x="840" y="-220" xlink:href="#runit" />
<use x="840" y="-220" xlink:href="#r2unit" />
<use x="840" y="-220" xlink:href="#r3unit" />
<use x="980" y="-220" xlink:href="#unit" />
<use x="980" y="-220" xlink:href="#runit" />
<use x="980" y="-220" xlink:href="#r2unit" />
<use x="980" y="-220" xlink:href="#r3unit" />
<use x="1120" y="-220" xlink:href="#unit" />
<use x="1120" y="-220" xlink:href="#runit" />
<use x="1120" y="-220" xlink:href="#r2unit" />
<use x="1120" y="-220" xlink:href="#r3unit" />
<use x="1260" y="-220" xlink:href="#unit" />
<use x="1260" y="-220" xlink:href="#runit" />
<use x="1260" y="-220" xlink:href="#r2unit" />
<use x="1260" y="-220" xlink:href="#r3unit" />
<use x="1400" y="-220" xlink:href="#unit" />
<use x="1400" y="-220" xlink:href="#runit" />
<use x="1400" y="-220" xlink:href="#r2unit" />
<use x="1400" y="-220" xlink:href="#r3unit" />
<use x="1540" y="-220" xlink:href="#unit" />
<use x="1540" y="-220" xlink:href="#runit" />
<use x="1540" y="-220" xlink:href="#r2unit" />
<use x="1540" y="-220" xlink:href="#r3unit" />
<use x="1680" y="-220" xlink:href="#unit" />
<use x="1680" y="-220" xlink:href="#runit" />
<use x="1680" y="-220" xlink:href="#r2unit" />
<use x="1680" y="-220" xlink:href="#r3unit" />
<use x="1820" y="-220" xlink:href="#unit" />
<use x="1820" y="-220" xlink:href="#runit" />
<use x="1820" y="-220" xlink:href="#r2unit" />
<use x="1820" y="-220" xlink:href="#r3unit" />
<use x="1960" y="-220" xlink:href="#unit" />
<use x="1960" y="-220" xlink:href="#runit" />
<use x="1960" y="-220" xlink:href="#r2unit" />
<use x="1960" y="-220" xlink:href="#r3unit" />
<use x="2100" y="-220" xlink:href="#unit" />
<use x="2100" y="-220" xlink:href="#runit" />
<use x="2100" y="-220" xlink:href="#r2unit" />
<use x="2100" y="-220" xlink:href="#r3unit" />
<use x="-140" y="0" xlink:href="#unit" />
<use x="-140" y="0" xlink:href="#runit" />
<use x="-140" y="0" xlink:href="#r2unit" />
<use x="-140" y="0" xlink:href="#r3unit" />
<use x="0" y="0" xlink:href="#unit" />
<use x="0" y="0" xlink:href="#runit" />
<use x="0" y="0" xlink:href="#r2unit" />
<use x="0" y="0" xlink:href="#r3unit" />
<use x="140" y="0" xlink:href="#unit" />
<use x="140" y="0" xlink:href="#runit" />
<use x="140" y="0" xlink:href="#r2unit" />
<use x="140" y="0" xlink:href="#r3unit" />
<use x="280" y="0" xlink:href="#unit" />
<use x="280" y="0" xlink:href="#runit" />
<use x="280" y="0" xlink:href="#r2unit" />
<use x="280" y="0" xlink:href="#r3unit" />
<use x="420" y="0" xlink:href="#unit" />
<use x="420" y="0" xlink:href="#runit" />
<use x="420" y="0" xlink:href="#r2unit" />
<use x="420" y="0" xlink:href="#r3unit" />
<use x="560" y="0" xlink:href="#unit" />
<use x="560" y="0" xlink:href="#runit" />
<use x="560" y="0" xlink:href="#r2unit" />
<use x="560" y="0" xlink:href="#r3unit" />
<use x="700" y="0" xlink:href="#unit" />
<use x="700" y="0" xlink:href="#runit" />
<use x="700" y="0" xlink:href="#r2unit" />
<use x="700" y="0" xlink:href="#r3unit" />
<use x="840" y="0" xlink:href="#unit" />
<use x="840" y="0" xlink:href="#runit" />
<use x="840" y="0" xlink:href="#r2unit" />
<use x="840" y="0" xlink:href="#r3unit" />
<use x="980" y="0" xlink:href="#unit" />
<use x="980" y="0" xlink:href="#runit" />
<use x="980" y="0" xlink:href="#r2unit" />
<use x="980" y="0" xlink:href="#r3unit" />
<use x="1120" y="0" xlink:href="#unit" />
<use x="1120" y="0" xlink:href="#runit" />
<use x="1120" y="0" xlink:href="#r2unit" />
<use x="1120" y="0" xlink:href="#r3unit" />
<use x="1260" y="0" xlink:href="#unit" />
<use x="1260" y="0" xlink:href="#runit" />
<use x="1260" y="0" xlink:href="#r2unit" />
<use x="1260" y="0" xlink:href="#r3unit" />
<use x="1400" y="0" xlink:href="#unit" />
<use x="1400" y="0" xlink:href="#runit" />
<use x="1400" y="0" xlink:href="#r2unit" />
<use x="1400" y="0" xlink:href="#r3unit" />
<use x="1540" y="0" xlink:href="#unit" />
<use x="1540" y="0" xlink:href="#runit" />
<use x="1540" y="0" xlink:href="#r2unit" />
<use x="1540" y="0" xlink:href="#r3unit" />
<use x="1680" y="0" xlink:href="#unit" />
<use x="1680" y="0" xlink:href="#runit" />
<use x="1680" y="0" xlink:href="#r2unit" />
<use x="1680" y="0" xlink:href="#r3unit" />
<use x="1820" y="0" xlink:href="#unit" />
<use x="1820" y="0" xlink:href="#runit" />
<use x="1820" y="0" xlink:href="#r2unit" />
<use x="1820" y="0" xlink:href="#r3unit" />
<use x="1960" y="0" xlink:href="#unit" />
<use x="1960" y="0" xlink:href="#runit" />
<use x="1960" y="0" xlink:href="#r2unit" />
<use x="1960" y="0" xlink:href="#r3unit" />
<use x="2100" y="0" xlink:href="#unit" />
<use x="2100" y="0" xlink:href="#runit" />
<use x="2100" y="0" xlink:href="#r2unit" />
<use x="2100" y="0" xlink:href="#r3unit" />
<use x="-140" y="220" xlink:href="#unit" />
<use x="-140" y="220" xlink:href="#runit" />
<use x="-140" y="220" xlink:href="#r2unit" />
<use x="-140" y="220" xlink:href="#r3unit" />
<use x="0" y="220" xlink:href="#unit" />
<use x="0" y="220" xlink:href="#runit" />
<use x="0" y="220" xlink:href="#r2unit" />
<use x="0" y="220" xlink:href="#r3unit" />
<use x="140" y="220" xlink:href="#unit" />
<use x="140" y="220" xlink:href="#runit" />
<use x="140" y="220" xlink:href="#r2unit" />
<use x="140" y="220" xlink:href="#r3unit" />
<use x="280" y="220" xlink:href="#unit" />
<use x="280" y="220" xlink:href="#runit" />
<use x="280" y="220" xlink:href="#r2unit" />
<use x="280" y="220" xlink:href="#r3unit" />
<use x="420" y="220" xlink:href="#unit" />
<use x="420" y="220" xlink:href="#runit" />
<use x="420" y="220" xlink:href="#r2unit" />
<use x="420" y="220" xlink:href="#r3unit" />
<use x="560" y="220" xlink:href="#unit" />
<use x="560" y="220" xlink:href="#runit" />
<use x="560" y="220" xlink:href="#r2unit" />
<use x="560" y="220" xlink:href="#r3unit" />
<use x="700" y="220" xlink:href="#unit" />
<use x="700" y="220" xlink:href="#runit" />
<use x="700" y="220" xlink:href="#r2unit" />
<use x="700" y="220" xlink:href="#r3unit" />
<use x="840" y="220" xlink:href="#unit" />
<use x="840" y="220" xlink:href="#runit" />
<use x="840" y="220" xlink:href="#r2unit" />
<use x="840" y="220" xlink:href="#r3unit" />
<use x="980" y="220" xlink:href="#unit" />
<use x="980" y="220" xlink:href="#runit" />
<use x="980" y="220" xlink:href="#r2unit" />
<use x="980" y="220" xlink:href="#r3unit" />
<use x="1120" y="220" xlink:href="#unit" />
<use x="1120" y="220" xlink:href="#runit" />
<use x="1120" y="220" xlink:href="#r2unit" />
<use x="1120" y="220" xlink:href="#r3unit" />
<use x="1260" y="220" xlink:href="#unit" />
<use x="1260" y="220" xlink:href="#runit" />
<use x="1260" y="220" xlink:href="#r2unit" />
<use x="1260" y="220" xlink:href="#r3unit" />
<use x="1400" y="220" xlink:href="#unit" />
<use x="1400" y="220" xlink:href="#runit" />
<use x="1400" y="220" xlink:href="#r2unit" />
<use x="1400" y="220" xlink:href="#r3unit" />
<use x="1540" y="220" xlink:href="#unit" />
<use x="1540" y="220" xlink:href="#runit" />
<use x="1540" y="220" xlink:href="#r2unit" />
<use x="1540" y="220" xlink:href="#r3unit" />
<use x="1680" y="220" xlink:href="#unit" />
<use x="1680" y="220" xlink:href="#runit" />
<use x="1680" y="220" xlink:href="#r2unit" />
<use x="1680" y="220" xlink:href="#r3unit" />
<use x="1820" y="220" xlink:href="#unit" />
<use x="1820" y="220" xlink:href="#runit" />
<use x="1820" y="220" xlink:href="#r2unit" />
<use x="1820" y="220" xlink:href="#r3unit" />
<use x="1960" y="220" xlink:href="#unit" />
<use x="1960" y="220" xlink:href="#runit" />
<use x="1960" y="220" xlink:href="#r2unit" />
<use x="1960" y="220" xlink:href="#r3unit" />
<use x="2100" y="220" xlink:href="#unit" />
<use x="2100" y="220" xlink:href="#runit" />
<use x="2100" y="220" xlink:href="#r2unit" />
<use x="2100" y="220" xlink:href="#r3unit" />
<use x="-140" y="440" xlink:href="#unit" />
<use x="-140" y="440" xlink:href="#runit" />
<use x="-140" y="440" xlink:href="#r2unit" />
<use x="-140" y="440" xlink:href="#r3unit" />
<use x="0" y="440" xlink:href="#unit" />
<use x="0" y="440" xlink:href="#runit" />
<use x="0" y="440" xlink:href="#r2unit" />
<use x="0" y="440" xlink:href="#r3unit" />
<use x="140" y="440" xlink:href="#unit" />
<use x="140" y="440" xlink:href="#runit" />
<use x="140" y="440" xlink:href="#r2unit" />
<use x="140" y="440" xlink:href="#r3unit" />
<use x="280" y="440" xlink:href="#unit" />
<use x="280" y="440" xlink:href="#runit" />
<use x="280" y="440" xlink:href="#r2unit" />
<use x="280" y="440" xlink:href="#r3unit" />
<use x="420" y="440" xlink:href="#unit" />
<use x="420" y="440" xlink:href="#runit" />
<use x="420" y="440" xlink:href="#r2unit" />
<use x="420" y="440" xlink:href="#r3unit" />
<use x="560" y="440" xlink:href="#unit" />
<use x="560" y="440" xlink:href="#runit" />
<use x="560" y="440" xlink:href="#r2unit" />
<use x="560" y="440" xlink:href="#r3unit" />
<use x="700" y="440" xlink:href="#unit" />
<use x="700" y="440" xlink:href="#runit" />
<use x="700" y="440" xlink:href="#r2unit" />
<use x="700" y="440" xlink:href="#r3unit" />
<use x="840" y="440" xlink:href="#unit" />
<use x="840" y="440" xlink:href="#runit" />
<use x="840" y="440" xlink:href="#r2unit" />
<use x="840" y="440" xlink:href="#r3unit" />
<use x="980" y="440" xlink:href="#unit" />
<use x="980" y="440" xlink:href="#runit" />
<use x="980" y="440" xlink:href="#r2unit" />
<use x="980" y="440" xlink:href="#r3unit" />
<use x="1120" y="440" xlink:href="#unit" />
<use x="1120" y="440" xlink:href="#runit" />
<use x="1120" y="440" xlink:href="#r2unit" />
<use x="1120" y="440" xlink:href="#r3unit" />
<use x="1260" y="440" xlink:href="#unit" />
<use x="1260" y="440" xlink:href="#runit" />
<use x="1260" y="440" xlink:href="#r2unit" />
<use x="1260" y="440" xlink:href="#r3unit" />
<use x="1400" y="440" xlink:href="#unit" />
<use x="1400" y="440" xlink:href="#runit" />
<use x="1400" y="440" xlink:href="#r2unit" />
<use x="1400" y="440" xlink:href="#r3unit" />
<use x="1540" y="440" xlink:href="#unit" />
<use x="1540" y="440" xlink:href="#runit" />
<use x="1540" y="440" xlink:href="#r2unit" />
<use x="1540" y="440" xlink:href="#r3unit" />
<use x="1680" y="440" xlink:href="#unit" />
<use x="1680" y="440" xlink:href="#runit" />
<use x="1680" y="440" xlink:href="#r2unit" />
<use x="1680" y="440" xlink:href="#r3unit" />
<use x="1820" y="440" xlink:href="#unit" />
<use x="1820" y="440" xlink:href="#runit" />
<use x="1820" y="440" xlink:href="#r2unit" />
<use x="1820" y="440" xlink:href="#r3unit" />
<use x="1960" y="440" xlink:href="#unit" />
<use x="1960" y="440" xlink:href="#runit" />
<use x="1960" y="440" xlink:href="#r2unit" />
<use x="1960" y="440" xlink:href="#r3unit" />
<use x="2100" y="440" xlink:href="#unit" />
<use x="2100" y="440" xlink:href="#runit" />
<use x="2100" y="440" xlink:href="#r2unit" />
<use x="2100" y="440" xlink:href="#r3unit" />
</svg>
