<?xml version="1.0"?>
<!-- Generated by SVGo -->
<svg width="2000" height="400"
     xmlns="http://www.w3.org/2000/svg"
     xmlns:xlink="http://www.w3.org/1999/xlink">
<desc>Generated with https://github.com/marcelmue/konstrukt</desc>
<defs>
<g id="blockc1">
<polygon points="0.000000,0.000000 0.000000,80.000000 13.856406,88.000000 13.856406,8.000000 83.138439,-32.000000 69.282032,-40.000000" style="fill:#e67e22" />
<g transform="translate(13.856406,8.000000)">
<polygon points="0.000000,0.000000 0.000000,80.000000 13.856406,88.000000 13.856406,8.000000 83.138439,-32.000000 69.282032,-40.000000" style="fill:#f6b93b" />
</g>
<g transform="translate(27.712813,16.000000)">
<polygon points="0.000000,0.000000 0.000000,80.000000 13.856406,88.000000 13.856406,8.000000 83.138439,-32.000000 69.282032,-40.000000" style="fill:#e58e26" />
</g>
<g transform="translate(41.569219,24.000000)">
<polygon points="0.000000,0.000000 0.000000,80.000000 13.856406,88.000000 13.856406,8.000000 83.138439,-32.000000 69.282032,-40.000000" style="fill:#f6b93b" />
</g>
<g transform="translate(55.425626,32.000000)">
<polygon points="0.000000,0.000000 0.000000,80.000000 13.856406,88.000000 13.856406,8.000000 83.138439,-32.000000 69.282032,-40.000000" style="fill:#e67e22" />
</g>
</g>
<g id="blockc2">
<polygon points="0.000000,0.000000 0.000000,80.000000 13.856406,88.000000 13.856406,8.000000 83.138439,-32.000000 69.282032,-40.000000" style="fill:#7f8c8d" />
<g transform="translate(13.856406,8.000000)">
<polygon points="0.000000,0.000000 0.000000,80.000000 13.856406,88.000000 13.856406,8.000000 83.138439,-32.000000 69.282032,-40.000000" style="fill:#95a5a6" />
</g>
<g transform="translate(27.712813,16.000000)">
<polygon points="0.000000,0.000000 0.000000,80.000000 13.856406,88.000000 13.856406,8.000000 83.138439,-32.000000 69.282032,-40.000000" style="fill:" />
</g>
<g transform="translate(41.569219,24.000000)">
<polygon points="0.000000,0.000000 0.000000,80.000000 13.856406,88.000000 13.856406,8.000000 83.138439,-32.000000 69.282032,-40.000000" style="fill:#95a5a6" />
</g>
<g transform="translate(55.425626,32.000000)">
<polygon points="0.000000,0.000000 0.000000,80.000000 13.856406,88.000000 13.856406,8.000000 83.138439,-32.000000 69.282032,-40.000000" style="fill:#7f8c8d" />
</g>
</g>
<g id="mirrorblockc1">
<g transform="rotate(180)">
<g transform="translate(-138.564065,-80.000000)">
<polygon points="0.000000,0.000000 0.000000,80.000000 13.856406,88.000000 13.856406,8.000000 83.138439,-32.000000 69.282032,-40.000000" style="fill:#e58e26" />
<g transform="translate(13.856406,8.000000)">
<polygon points="0.000000,0.000000 0.000000,80.000000 13.856406,88.000000 13.856406,8.000000 83.138439,-32.000000 69.282032,-40.000000" style="fill:#f6b93b" />
</g>
<g transform="translate(27.712813,16.000000)">
<polygon points="0.000000,0.000000 0.000000,80.000000 13.856406,88.000000 13.856406,8.000000 83.138439,-32.000000 69.282032,-40.000000" style="fill:#e67e22" />
</g>
<g transform="translate(41.569219,24.000000)">
<polygon points="0.000000,0.000000 0.000000,80.000000 13.856406,88.000000 13.856406,8.000000 83.138439,-32.000000 69.282032,-40.000000" style="fill:#f6b93b" />
</g>
<g transform="translate(55.425626,32.000000)">
<polygon points="0.000000,0.000000 0.000000,80.000000 13.856406,88.000000 13.856406,8.000000 83.138439,-32.000000 69.282032,-40.000000" style="fill:#e58e26" />
</g>
</g>
</g>
</g>
<g id="mirrorblockc2">
<g transform="rotate(180)">
<g transform="translate(-138.564065,-80.000000)">
<polygon points="0.000000,0.000000 0.000000,80.000000 13.856406,88.000000 13.856406,8.000000 83.138439,-32.000000 69.282032,-40.000000" style="fill:" />
<g transform="translate(13.856406,8.000000)">
<polygon points="0.000000,0.000000 0.000000,80.000000 13.856406,88.000000 13.856406,8.000000 83.138439,-32.000000 69.282032,-40.000000" style="fill:#95a5a6" />
</g>
<g transform="translate(27.712813,16.000000)">
<polygon points="0.000000,0.000000 0.000000,80.000000 13.856406,88.000000 13.856406,8.000000 83.138439,-32.000000 69.282032,-40.000000" style="fill:#7f8c8d" />
</g>
<g transform="translate(41.569219,24.000000)">
<polygon points="0.000000,0.000000 0.000000,80.000000 13.856406,88.000000 13.856406,8.000000 83.138439,-32.000000 69.282032,-40.000000" style="fill:#95a5a6" />
</g>
<g transform="translate(55.425626,32.000000)">
<polygon points="0.000000,0.000000 0.000000,80.000000 13.856406,88.000000 13.856406,8.000000 83.138439,-32.000000 69.282032,-40.000000" style="fill:" />
</g>
</g>
</g>
</g>
<g id="fullc1">
<use x="0" y="0" xlink:href="#blockc1" />
<use x="0" y="0" xlink:href="#mirrorblockc1" />
</g>
<g id="fullc2">
<use x="0" y="0" xlink:href="#blockc2" />
<use x="0" y="0" xlink:href="#mirrorblockc2" />
</g>
</defs>
<use x="-131" y="-200" xlink:href="#fullc2" />
<use x="7" y="-200" xlink:href="#fullc2" />
<use x="145" y="-200" xlink:href="#fullc2" />
<use x="283" y="-200" xlink:href="#fullc2" />
<use x="421" y="-200" xlink:href="#fullc2" />
<use x="559" y="-200" xlink:href="#fullc2" />
<use x="697" y="-200" xlink:href="#fullc2" />
<use x="835" y="-200" xlink:href="#fullc2" />
<use x="973" y="-200" xlink:href="#fullc2" />
<use x="1111" y="-200" xlink:href="#fullc2" />
<use x="1249" y="-200" xlink:href="#fullc2" />
<use x="1387" y="-200" xlink:href="#fullc2" />
<use x="1525" y="-200" xlink:href="#fullc2" />
<use x="1663" y="-200" xlink:href="#fullc2" />
<use x="1801" y="-200" xlink:href="#fullc2" />
<use x="1939" y="-200" xlink:href="#fullc2" />
<use x="2077" y="-200" xlink:href="#fullc2" />
<use x="2215" y="-200" xlink:href="#fullc2" />
<use x="-200" y="-80" xlink:href="#fullc1" />
<use x="-62" y="-80" xlink:href="#fullc1" />
<use x="76" y="-80" xlink:href="#fullc1" />
<use x="214" y="-80" xlink:href="#fullc1" />
<use x="352" y="-80" xlink:href="#fullc1" />
<use x="490" y="-80" xlink:href="#fullc1" />
<use x="628" y="-80" xlink:href="#fullc1" />
<use x="766" y="-80" xlink:href="#fullc1" />
<use x="904" y="-80" xlink:href="#fullc1" />
<use x="1042" y="-80" xlink:href="#fullc1" />
<use x="1180" y="-80" xlink:href="#fullc1" />
<use x="1318" y="-80" xlink:href="#fullc1" />
<use x="1456" y="-80" xlink:href="#fullc1" />
<use x="1594" y="-80" xlink:href="#fullc1" />
<use x="1732" y="-80" xlink:href="#fullc1" />
<use x="1870" y="-80" xlink:href="#fullc1" />
<use x="2008" y="-80" xlink:href="#fullc1" />
<use x="2146" y="-80" xlink:href="#fullc1" />
<use x="-131" y="40" xlink:href="#fullc2" />
<use x="7" y="40" xlink:href="#fullc2" />
<use x="145" y="40" xlink:href="#fullc2" />
<use x="283" y="40" xlink:href="#fullc2" />
<use x="421" y="40" xlink:href="#fullc2" />
<use x="559" y="40" xlink:href="#fullc2" />
<use x="697" y="40" xlink:href="#fullc2" />
<use x="835" y="40" xlink:href="#fullc2" />
<use x="973" y="40" xlink:href="#fullc2" />
<use x="1111" y="40" xlink:href="#fullc2" />
<use x="1249" y="40" xlink:href="#fullc2" />
<use x="1387" y="40" xlink:href="#fullc2" />
<use x="1525" y="40" xlink:href="#fullc2" />
<use x="1663" y="40" xlink:href="#fullc2" />
<use x="1801" y="40" xlink:href="#fullc2" />
<use x="1939" y="40" xlink:href="#fullc2" />
<use x="2077" y="40" xlink:href="#fullc2" />
<use x="2215" y="40" xlink:href="#fullc2" />
<use x="-200" y="160" xlink:href="#fullc1" />
<use x="-62" y="160" xlink:href="#fullc1" />
<use x="76" y="160" xlink:href="#fullc1" />
<use x="214" y="160" xlink:href="#fullc1" />
<use x="352" y="160" xlink:href="#fullc1" />
<use x="490" y="160" xlink:href="#fullc1" />
<use x="628" y="160" xlink:href="#fullc1" />
<use x="766" y="160" xlink:href="#fullc1" />
<use x="904" y="160" xlink:href="#fullc1" />
<use x="1042" y="160" xlink:href="#fullc1" />
<use x="1180" y="160" xlink:href="#fullc1" />
<use x="1318" y="160" xlink:href="#fullc1" />
<use x="1456" y="160" xlink:href="#fullc1" />
<use x="1594" y="160" xlink:href="#fullc1" />
<use x="1732" y="160" xlink:href="#fullc1" />
<use x="1870" y="160" xlink:href="#fullc1" />
<use x="2008" y="160" xlink:href="#fullc1" />
<use x="2146" y="160" xlink:href="#fullc1" />
<use x="-131" y="280" xlink:href="#fullc2" />
<use x="7" y="280" xlink:href="#fullc2" />
<use x="145" y="280" xlink:href="#fullc2" />
<use x="283" y="280" xlink:href="#fullc2" />
<use x="421" y="280" xlink:href="#fullc2" />
<use x="559" y="280" xlink:href="#fullc2" />
<use x="697" y="280" xlink:href="#fullc2" />
<use x="835" y="280" xlink:href="#fullc2" />
<use x="973" y="280" xlink:href="#fullc2" />
<use x="1111" y="280" xlink:href="#fullc2" />
<use x="1249" y="280" xlink:href="#fullc2" />
<use x="1387" y="280" xlink:href="#fullc2" />
<use x="1525" y="280" xlink:href="#fullc2" />
<use x="1663" y="280" xlink:href="#fullc2" />
<use x="1801" y="280" xlink:href="#fullc2" />
<use x="1939" y="280" xlink:href="#fullc2" />
<use x="2077" y="280" xlink:href="#fullc2" />
<use x="2215" y="280" xlink:href="#fullc2" />
<use x="-200" y="400" xlink:href="#fullc1" />
<use x="-62" y="400" xlink:href="#fullc1" />
<use x="76" y="400" xlink:href="#fullc1" />
<use x="214" y="400" xlink:href="#fullc1" />
<use x="352" y="400" xlink:href="#fullc1" />
<use x="490" y="400" xlink:href="#fullc1" />
<use x="628" y="400" xlink:href="#fullc1" />
<use x="766" y="400" xlink:href="#fullc1" />
<use x="904" y="400" xlink:href="#fullc1" />
<use x="1042" y="400" xlink:href="#fullc1" />
<use x="1180" y="400" xlink:href="#fullc1" />
<use x="1318" y="400" xlink:href="#fullc1" />
<use x="1456" y="400" xlink:href="#fullc1" />
<use x="1594" y="400" xlink:href="#fullc1" />
<use x="1732" y="400" xlink:href="#fullc1" />
<use x="1870" y="400" xlink:href="#fullc1" />
<use x="2008" y="400" xlink:href="#fullc1" />
<use x="2146" y="400" xlink:href="#fullc1" />
<use x="-131" y="520" xlink:href="#fullc2" />
<use x="7" y="520" xlink:href="#fullc2" />
<use x="145" y="520" xlink:href="#fullc2" />
<use x="283" y="520" xlink:href="#fullc2" />
<use x="421" y="520" xlink:href="#fullc2" />
<use x="559" y="520" xlink:href="#fullc2" />
<use x="697" y="520" xlink:href="#fullc2" />
<use x="835" y="520" xlink:href="#fullc2" />
<use x="973" y="520" xlink:href="#fullc2" />
<use x="1111" y="520" xlink:href="#fullc2" />
<use x="1249" y="520" xlink:href="#fullc2" />
<use x="1387" y="520" xlink:href="#fullc2" />
<use x="1525" y="520" xlink:href="#fullc2" />
<use x="1663" y="520" xlink:href="#fullc2" />
<use x="1801" y="520" xlink:href="#fullc2" />
<use x="1939" y="520" xlink:href="#fullc2" />
<use x="2077" y="520" xlink:href="#fullc2" />
<use x="2215" y="520" xlink:href="#fullc2" />
</svg>
