<?xml version="1.0"?>
<!-- Generated by SVGo -->
<svg width="500" height="500"
     xmlns="http://www.w3.org/2000/svg"
     xmlns:xlink="http://www.w3.org/1999/xlink">
<desc>Generated with https://github.com/marcelmue/konstrukt</desc>
<rect x="0" y="0" width="500" height="500" style="fill:#e55039" />
<defs>
<g id="unit">
<polygon points="50,0 25,25 75,75" />
</g>
<g id="runit">
<g transform="scale(-1,1)">
<use x="0" y="0" xlink:href="#unit" />
</g>
</g>
</defs>
<use x="-200" y="-56" xlink:href="#unit" style="fill:#f39c12" />
<use x="-200" y="-56" xlink:href="#runit" style="fill:#f39c12" />
<use x="0" y="-56" xlink:href="#unit" style="fill:#f39c12" />
<use x="0" y="-56" xlink:href="#runit" style="fill:#f39c12" />
<use x="200" y="-56" xlink:href="#unit" style="fill:#f39c12" />
<use x="200" y="-56" xlink:href="#runit" style="fill:#f39c12" />
<use x="400" y="-56" xlink:href="#unit" style="fill:#f39c12" />
<use x="400" y="-56" xlink:href="#runit" style="fill:#f39c12" />
<use x="600" y="-56" xlink:href="#unit" style="fill:#f39c12" />
<use x="600" y="-56" xlink:href="#runit" style="fill:#f39c12" />
<use x="-100" y="0" xlink:href="#unit" style="fill:#f39c12" />
<use x="-100" y="0" xlink:href="#runit" style="fill:#f39c12" />
<use x="100" y="0" xlink:href="#unit" style="fill:#f39c12" />
<use x="100" y="0" xlink:href="#runit" style="fill:#f39c12" />
<use x="300" y="0" xlink:href="#unit" style="fill:#f39c12" />
<use x="300" y="0" xlink:href="#runit" style="fill:#f39c12" />
<use x="500" y="0" xlink:href="#unit" style="fill:#f39c12" />
<use x="500" y="0" xlink:href="#runit" style="fill:#f39c12" />
<use x="700" y="0" xlink:href="#unit" style="fill:#f39c12" />
<use x="700" y="0" xlink:href="#runit" style="fill:#f39c12" />
<use x="-200" y="56" xlink:href="#unit" style="fill:#f39c12" />
<use x="-200" y="56" xlink:href="#runit" style="fill:#f39c12" />
<use x="0" y="56" xlink:href="#unit" style="fill:#f39c12" />
<use x="0" y="56" xlink:href="#runit" style="fill:#f39c12" />
<use x="200" y="56" xlink:href="#unit" style="fill:#f39c12" />
<use x="200" y="56" xlink:href="#runit" style="fill:#f39c12" />
<use x="400" y="56" xlink:href="#unit" style="fill:#f39c12" />
<use x="400" y="56" xlink:href="#runit" style="fill:#f39c12" />
<use x="600" y="56" xlink:href="#unit" style="fill:#f39c12" />
<use x="600" y="56" xlink:href="#runit" style="fill:#f39c12" />
<use x="-100" y="112" xlink:href="#unit" style="fill:#f39c12" />
<use x="-100" y="112" xlink:href="#runit" style="fill:#f39c12" />
<use x="100" y="112" xlink:href="#unit" style="fill:#f39c12" />
<use x="100" y="112" xlink:href="#runit" style="fill:#f39c12" />
<use x="300" y="112" xlink:href="#unit" style="fill:#f39c12" />
<use x="300" y="112" xlink:href="#runit" style="fill:#f39c12" />
<use x="500" y="112" xlink:href="#unit" style="fill:#f39c12" />
<use x="500" y="112" xlink:href="#runit" style="fill:#f39c12" />
<use x="700" y="112" xlink:href="#unit" style="fill:#f39c12" />
<use x="700" y="112" xlink:href="#runit" style="fill:#f39c12" />
<use x="-200" y="168" xlink:href="#unit" style="fill:#f39c12" />
<use x="-200" y="168" xlink:href="#runit" style="fill:#f39c12" />
<use x="0" y="168" xlink:href="#unit" style="fill:#f39c12" />
<use x="0" y="168" xlink:href="#runit" style="fill:#f39c12" />
<use x="200" y="168" xlink:href="#unit" style="fill:#f39c12" />
<use x="200" y="168" xlink:href="#runit" style="fill:#f39c12" />
<use x="400" y="168" xlink:href="#unit" style="fill:#f39c12" />
<use x="400" y="168" xlink:href="#runit" style="fill:#f39c12" />
<use x="600" y="168" xlink:href="#unit" style="fill:#f39c12" />
<use x="600" y="168" xlink:href="#runit" style="fill:#f39c12" />
<use x="-100" y="224" xlink:href="#unit" style="fill:#f39c12" />
<use x="-100" y="224" xlink:href="#runit" style="fill:#f39c12" />
<use x="100" y="224" xlink:href="#unit" style="fill:#f39c12" />
<use x="100" y="224" xlink:href="#runit" style="fill:#f39c12" />
<use x="300" y="224" xlink:href="#unit" style="fill:#f39c12" />
<use x="300" y="224" xlink:href="#runit" style="fill:#f39c12" />
<use x="500" y="224" xlink:href="#unit" style="fill:#f39c12" />
<use x="500" y="224" xlink:href="#runit" style="fill:#f39c12" />
<use x="700" y="224" xlink:href="#unit" style="fill:#f39c12" />
<use x="700" y="224" xlink:href="#runit" style="fill:#f39c12" />
<use x="-200" y="280" xlink:href="#unit" style="fill:#f39c12" />
<use x="-200" y="280" xlink:href="#runit" style="fill:#f39c12" />
<use x="0" y="280" xlink:href="#unit" style="fill:#f39c12" />
<use x="0" y="280" xlink:href="#runit" style="fill:#f39c12" />
<use x="200" y="280" xlink:href="#unit" style="fill:#f39c12" />
<use x="200" y="280" xlink:href="#runit" style="fill:#f39c12" />
<use x="400" y="280" xlink:href="#unit" style="fill:#f39c12" />
<use x="400" y="280" xlink:href="#runit" style="fill:#f39c12" />
<use x="600" y="280" xlink:href="#unit" style="fill:#f39c12" />
<use x="600" y="280" xlink:href="#runit" style="fill:#f39c12" />
<use x="-100" y="336" xlink:href="#unit" style="fill:#f39c12" />
<use x="-100" y="336" xlink:href="#runit" style="fill:#f39c12" />
<use x="100" y="336" xlink:href="#unit" style="fill:#f39c12" />
<use x="100" y="336" xlink:href="#runit" style="fill:#f39c12" />
<use x="300" y="336" xlink:href="#unit" style="fill:#f39c12" />
<use x="300" y="336" xlink:href="#runit" style="fill:#f39c12" />
<use x="500" y="336" xlink:href="#unit" style="fill:#f39c12" />
<use x="500" y="336" xlink:href="#runit" style="fill:#f39c12" />
<use x="700" y="336" xlink:href="#unit" style="fill:#f39c12" />
<use x="700" y="336" xlink:href="#runit" style="fill:#f39c12" />
<use x="-200" y="392" xlink:href="#unit" style="fill:#f39c12" />
<use x="-200" y="392" xlink:href="#runit" style="fill:#f39c12" />
<use x="0" y="392" xlink:href="#unit" style="fill:#f39c12" />
<use x="0" y="392" xlink:href="#runit" style="fill:#f39c12" />
<use x="200" y="392" xlink:href="#unit" style="fill:#f39c12" />
<use x="200" y="392" xlink:href="#runit" style="fill:#f39c12" />
<use x="400" y="392" xlink:href="#unit" style="fill:#f39c12" />
<use x="400" y="392" xlink:href="#runit" style="fill:#f39c12" />
<use x="600" y="392" xlink:href="#unit" style="fill:#f39c12" />
<use x="600" y="392" xlink:href="#runit" style="fill:#f39c12" />
<use x="-100" y="448" xlink:href="#unit" style="fill:#f39c12" />
<use x="-100" y="448" xlink:href="#runit" style="fill:#f39c12" />
<use x="100" y="448" xlink:href="#unit" style="fill:#f39c12" />
<use x="100" y="448" xlink:href="#runit" style="fill:#f39c12" />
<use x="300" y="448" xlink:href="#unit" style="fill:#f39c12" />
<use x="300" y="448" xlink:href="#runit" style="fill:#f39c12" />
<use x="500" y="448" xlink:href="#unit" style="fill:#f39c12" />
<use x="500" y="448" xlink:href="#runit" style="fill:#f39c12" />
<use x="700" y="448" xlink:href="#unit" style="fill:#f39c12" />
<use x="700" y="448" xlink:href="#runit" style="fill:#f39c12" />
<use x="-200" y="504" xlink:href="#unit" style="fill:#f39c12" />
<use x="-200" y="504" xlink:href="#runit" style="fill:#f39c12" />
<use x="0" y="504" xlink:href="#unit" style="fill:#f39c12" />
<use x="0" y="504" xlink:href="#runit" style="fill:#f39c12" />
<use x="200" y="504" xlink:href="#unit" style="fill:#f39c12" />
<use x="200" y="504" xlink:href="#runit" style="fill:#f39c12" />
<use x="400" y="504" xlink:href="#unit" style="fill:#f39c12" />
<use x="400" y="504" xlink:href="#runit" style="fill:#f39c12" />
<use x="600" y="504" xlink:href="#unit" style="fill:#f39c12" />
<use x="600" y="504" xlink:href="#runit" style="fill:#f39c12" />
<use x="-100" y="560" xlink:href="#unit" style="fill:#f39c12" />
<use x="-100" y="560" xlink:href="#runit" style="fill:#f39c12" />
<use x="100" y="560" xlink:href="#unit" style="fill:#f39c12" />
<use x="100" y="560" xlink:href="#runit" style="fill:#f39c12" />
<use x="300" y="560" xlink:href="#unit" style="fill:#f39c12" />
<use x="300" y="560" xlink:href="#runit" style="fill:#f39c12" />
<use x="500" y="560" xlink:href="#unit" style="fill:#f39c12" />
<use x="500" y="560" xlink:href="#runit" style="fill:#f39c12" />
<use x="700" y="560" xlink:href="#unit" style="fill:#f39c12" />
<use x="700" y="560" xlink:href="#runit" style="fill:#f39c12" />
<use x="-200" y="616" xlink:href="#unit" style="fill:#f39c12" />
<use x="-200" y="616" xlink:href="#runit" style="fill:#f39c12" />
<use x="0" y="616" xlink:href="#unit" style="fill:#f39c12" />
<use x="0" y="616" xlink:href="#runit" style="fill:#f39c12" />
<use x="200" y="616" xlink:href="#unit" style="fill:#f39c12" />
<use x="200" y="616" xlink:href="#runit" style="fill:#f39c12" />
<use x="400" y="616" xlink:href="#unit" style="fill:#f39c12" />
<use x="400" y="616" xlink:href="#runit" style="fill:#f39c12" />
<use x="600" y="616" xlink:href="#unit" style="fill:#f39c12" />
<use x="600" y="616" xlink:href="#runit" style="fill:#f39c12" />
<use x="-100" y="672" xlink:href="#unit" style="fill:#f39c12" />
<use x="-100" y="672" xlink:href="#runit" style="fill:#f39c12" />
<use x="100" y="672" xlink:href="#unit" style="fill:#f39c12" />
<use x="100" y="672" xlink:href="#runit" style="fill:#f39c12" />
<use x="300" y="672" xlink:href="#unit" style="fill:#f39c12" />
<use x="300" y="672" xlink:href="#runit" style="fill:#f39c12" />
<use x="500" y="672" xlink:href="#unit" style="fill:#f39c12" />
<use x="500" y="672" xlink:href="#runit" style="fill:#f39c12" />
<use x="700" y="672" xlink:href="#unit" style="fill:#f39c12" />
<use x="700" y="672" xlink:href="#runit" style="fill:#f39c12" />
</svg>
