<?xml version="1.0"?>
<!-- Generated by SVGo -->
<svg width="2000" height="400"
     xmlns="http://www.w3.org/2000/svg"
     xmlns:xlink="http://www.w3.org/1999/xlink">
<desc>Generated with https://github.com/marcelmue/konstrukt</desc>
<rect x="0" y="0" width="2000" height="400" style="fill:#ff3838" />
<defs>
<g id="unit1">
<polygon points="0,80 80,100 100,80 80,0 80,80" />
</g>
<g id="unit2">
<polygon points="0,80 80,80 80,0" />
</g>
</defs>
<use x="0" y="0" xlink:href="#unit1" style="fill:#000000" />
<use x="0" y="0" xlink:href="#unit2" style="fill:#ffffff" />
<use x="0" y="100" xlink:href="#unit1" style="fill:#000000" />
<use x="0" y="100" xlink:href="#unit2" style="fill:#ffffff" />
<use x="0" y="200" xlink:href="#unit1" style="fill:#000000" />
<use x="0" y="200" xlink:href="#unit2" style="fill:#ffffff" />
<use x="0" y="300" xlink:href="#unit1" style="fill:#000000" />
<use x="0" y="300" xlink:href="#unit2" style="fill:#ffffff" />
<use x="100" y="0" xlink:href="#unit1" style="fill:#000000" />
<use x="100" y="0" xlink:href="#unit2" style="fill:#ffffff" />
<use x="100" y="100" xlink:href="#unit1" style="fill:#000000" />
<use x="100" y="100" xlink:href="#unit2" style="fill:#ffffff" />
<use x="100" y="200" xlink:href="#unit1" style="fill:#000000" />
<use x="100" y="200" xlink:href="#unit2" style="fill:#ffffff" />
<use x="100" y="300" xlink:href="#unit1" style="fill:#000000" />
<use x="100" y="300" xlink:href="#unit2" style="fill:#ffffff" />
<use x="200" y="0" xlink:href="#unit1" style="fill:#000000" />
<use x="200" y="0" xlink:href="#unit2" style="fill:#ffffff" />
<use x="200" y="100" xlink:href="#unit1" style="fill:#000000" />
<use x="200" y="100" xlink:href="#unit2" style="fill:#ffffff" />
<use x="200" y="200" xlink:href="#unit1" style="fill:#000000" />
<use x="200" y="200" xlink:href="#unit2" style="fill:#ffffff" />
<use x="200" y="300" xlink:href="#unit1" style="fill:#000000" />
<use x="200" y="300" xlink:href="#unit2" style="fill:#ffffff" />
<use x="300" y="0" xlink:href="#unit1" style="fill:#000000" />
<use x="300" y="0" xlink:href="#unit2" style="fill:#ffffff" />
<use x="300" y="100" xlink:href="#unit1" style="fill:#000000" />
<use x="300" y="100" xlink:href="#unit2" style="fill:#ffffff" />
<use x="300" y="200" xlink:href="#unit1" style="fill:#000000" />
<use x="300" y="200" xlink:href="#unit2" style="fill:#ffffff" />
<use x="300" y="300" xlink:href="#unit1" style="fill:#000000" />
<use x="300" y="300" xlink:href="#unit2" style="fill:#ffffff" />
<use x="400" y="0" xlink:href="#unit1" style="fill:#000000" />
<use x="400" y="0" xlink:href="#unit2" style="fill:#ffffff" />
<use x="400" y="100" xlink:href="#unit1" style="fill:#000000" />
<use x="400" y="100" xlink:href="#unit2" style="fill:#ffffff" />
<use x="400" y="200" xlink:href="#unit1" style="fill:#000000" />
<use x="400" y="200" xlink:href="#unit2" style="fill:#ffffff" />
<use x="400" y="300" xlink:href="#unit1" style="fill:#000000" />
<use x="400" y="300" xlink:href="#unit2" style="fill:#ffffff" />
<use x="500" y="0" xlink:href="#unit1" style="fill:#000000" />
<use x="500" y="0" xlink:href="#unit2" style="fill:#ffffff" />
<use x="500" y="100" xlink:href="#unit1" style="fill:#000000" />
<use x="500" y="100" xlink:href="#unit2" style="fill:#ffffff" />
<use x="500" y="200" xlink:href="#unit1" style="fill:#000000" />
<use x="500" y="200" xlink:href="#unit2" style="fill:#ffffff" />
<use x="500" y="300" xlink:href="#unit1" style="fill:#000000" />
<use x="500" y="300" xlink:href="#unit2" style="fill:#ffffff" />
<use x="600" y="0" xlink:href="#unit1" style="fill:#000000" />
<use x="600" y="0" xlink:href="#unit2" style="fill:#ffffff" />
<use x="600" y="100" xlink:href="#unit1" style="fill:#000000" />
<use x="600" y="100" xlink:href="#unit2" style="fill:#ffffff" />
<use x="600" y="200" xlink:href="#unit1" style="fill:#000000" />
<use x="600" y="200" xlink:href="#unit2" style="fill:#ffffff" />
<use x="600" y="300" xlink:href="#unit1" style="fill:#000000" />
<use x="600" y="300" xlink:href="#unit2" style="fill:#ffffff" />
<use x="700" y="0" xlink:href="#unit1" style="fill:#000000" />
<use x="700" y="0" xlink:href="#unit2" style="fill:#ffffff" />
<use x="700" y="100" xlink:href="#unit1" style="fill:#000000" />
<use x="700" y="100" xlink:href="#unit2" style="fill:#ffffff" />
<use x="700" y="200" xlink:href="#unit1" style="fill:#000000" />
<use x="700" y="200" xlink:href="#unit2" style="fill:#ffffff" />
<use x="700" y="300" xlink:href="#unit1" style="fill:#000000" />
<use x="700" y="300" xlink:href="#unit2" style="fill:#ffffff" />
<use x="800" y="0" xlink:href="#unit1" style="fill:#000000" />
<use x="800" y="0" xlink:href="#unit2" style="fill:#ffffff" />
<use x="800" y="100" xlink:href="#unit1" style="fill:#000000" />
<use x="800" y="100" xlink:href="#unit2" style="fill:#ffffff" />
<use x="800" y="200" xlink:href="#unit1" style="fill:#000000" />
<use x="800" y="200" xlink:href="#unit2" style="fill:#ffffff" />
<use x="800" y="300" xlink:href="#unit1" style="fill:#000000" />
<use x="800" y="300" xlink:href="#unit2" style="fill:#ffffff" />
<use x="900" y="0" xlink:href="#unit1" style="fill:#000000" />
<use x="900" y="0" xlink:href="#unit2" style="fill:#ffffff" />
<use x="900" y="100" xlink:href="#unit1" style="fill:#000000" />
<use x="900" y="100" xlink:href="#unit2" style="fill:#ffffff" />
<use x="900" y="200" xlink:href="#unit1" style="fill:#000000" />
<use x="900" y="200" xlink:href="#unit2" style="fill:#ffffff" />
<use x="900" y="300" xlink:href="#unit1" style="fill:#000000" />
<use x="900" y="300" xlink:href="#unit2" style="fill:#ffffff" />
<use x="1000" y="0" xlink:href="#unit1" style="fill:#000000" />
<use x="1000" y="0" xlink:href="#unit2" style="fill:#ffffff" />
<use x="1000" y="100" xlink:href="#unit1" style="fill:#000000" />
<use x="1000" y="100" xlink:href="#unit2" style="fill:#ffffff" />
<use x="1000" y="200" xlink:href="#unit1" style="fill:#000000" />
<use x="1000" y="200" xlink:href="#unit2" style="fill:#ffffff" />
<use x="1000" y="300" xlink:href="#unit1" style="fill:#000000" />
<use x="1000" y="300" xlink:href="#unit2" style="fill:#ffffff" />
<use x="1100" y="0" xlink:href="#unit1" style="fill:#000000" />
<use x="1100" y="0" xlink:href="#unit2" style="fill:#ffffff" />
<use x="1100" y="100" xlink:href="#unit1" style="fill:#000000" />
<use x="1100" y="100" xlink:href="#unit2" style="fill:#ffffff" />
<use x="1100" y="200" xlink:href="#unit1" style="fill:#000000" />
<use x="1100" y="200" xlink:href="#unit2" style="fill:#ffffff" />
<use x="1100" y="300" xlink:href="#unit1" style="fill:#000000" />
<use x="1100" y="300" xlink:href="#unit2" style="fill:#ffffff" />
<use x="1200" y="0" xlink:href="#unit1" style="fill:#000000" />
<use x="1200" y="0" xlink:href="#unit2" style="fill:#ffffff" />
<use x="1200" y="100" xlink:href="#unit1" style="fill:#000000" />
<use x="1200" y="100" xlink:href="#unit2" style="fill:#ffffff" />
<use x="1200" y="200" xlink:href="#unit1" style="fill:#000000" />
<use x="1200" y="200" xlink:href="#unit2" style="fill:#ffffff" />
<use x="1200" y="300" xlink:href="#unit1" style="fill:#000000" />
<use x="1200" y="300" xlink:href="#unit2" style="fill:#ffffff" />
<use x="1300" y="0" xlink:href="#unit1" style="fill:#000000" />
<use x="1300" y="0" xlink:href="#unit2" style="fill:#ffffff" />
<use x="1300" y="100" xlink:href="#unit1" style="fill:#000000" />
<use x="1300" y="100" xlink:href="#unit2" style="fill:#ffffff" />
<use x="1300" y="200" xlink:href="#unit1" style="fill:#000000" />
<use x="1300" y="200" xlink:href="#unit2" style="fill:#ffffff" />
<use x="1300" y="300" xlink:href="#unit1" style="fill:#000000" />
<use x="1300" y="300" xlink:href="#unit2" style="fill:#ffffff" />
<use x="1400" y="0" xlink:href="#unit1" style="fill:#000000" />
<use x="1400" y="0" xlink:href="#unit2" style="fill:#ffffff" />
<use x="1400" y="100" xlink:href="#unit1" style="fill:#000000" />
<use x="1400" y="100" xlink:href="#unit2" style="fill:#ffffff" />
<use x="1400" y="200" xlink:href="#unit1" style="fill:#000000" />
<use x="1400" y="200" xlink:href="#unit2" style="fill:#ffffff" />
<use x="1400" y="300" xlink:href="#unit1" style="fill:#000000" />
<use x="1400" y="300" xlink:href="#unit2" style="fill:#ffffff" />
<use x="1500" y="0" xlink:href="#unit1" style="fill:#000000" />
<use x="1500" y="0" xlink:href="#unit2" style="fill:#ffffff" />
<use x="1500" y="100" xlink:href="#unit1" style="fill:#000000" />
<use x="1500" y="100" xlink:href="#unit2" style="fill:#ffffff" />
<use x="1500" y="200" xlink:href="#unit1" style="fill:#000000" />
<use x="1500" y="200" xlink:href="#unit2" style="fill:#ffffff" />
<use x="1500" y="300" xlink:href="#unit1" style="fill:#000000" />
<use x="1500" y="300" xlink:href="#unit2" style="fill:#ffffff" />
<use x="1600" y="0" xlink:href="#unit1" style="fill:#000000" />
<use x="1600" y="0" xlink:href="#unit2" style="fill:#ffffff" />
<use x="1600" y="100" xlink:href="#unit1" style="fill:#000000" />
<use x="1600" y="100" xlink:href="#unit2" style="fill:#ffffff" />
<use x="1600" y="200" xlink:href="#unit1" style="fill:#000000" />
<use x="1600" y="200" xlink:href="#unit2" style="fill:#ffffff" />
<use x="1600" y="300" xlink:href="#unit1" style="fill:#000000" />
<use x="1600" y="300" xlink:href="#unit2" style="fill:#ffffff" />
<use x="1700" y="0" xlink:href="#unit1" style="fill:#000000" />
<use x="1700" y="0" xlink:href="#unit2" style="fill:#ffffff" />
<use x="1700" y="100" xlink:href="#unit1" style="fill:#000000" />
<use x="1700" y="100" xlink:href="#unit2" style="fill:#ffffff" />
<use x="1700" y="200" xlink:href="#unit1" style="fill:#000000" />
<use x="1700" y="200" xlink:href="#unit2" style="fill:#ffffff" />
<use x="1700" y="300" xlink:href="#unit1" style="fill:#000000" />
<use x="1700" y="300" xlink:href="#unit2" style="fill:#ffffff" />
<use x="1800" y="0" xlink:href="#unit1" style="fill:#000000" />
<use x="1800" y="0" xlink:href="#unit2" style="fill:#ffffff" />
<use x="1800" y="100" xlink:href="#unit1" style="fill:#000000" />
<use x="1800" y="100" xlink:href="#unit2" style="fill:#ffffff" />
<use x="1800" y="200" xlink:href="#unit1" style="fill:#000000" />
<use x="1800" y="200" xlink:href="#unit2" style="fill:#ffffff" />
<use x="1800" y="300" xlink:href="#unit1" style="fill:#000000" />
<use x="1800" y="300" xlink:href="#unit2" style="fill:#ffffff" />
<use x="1900" y="0" xlink:href="#unit1" style="fill:#000000" />
<use x="1900" y="0" xlink:href="#unit2" style="fill:#ffffff" />
<use x="1900" y="100" xlink:href="#unit1" style="fill:#000000" />
<use x="1900" y="100" xlink:href="#unit2" style="fill:#ffffff" />
<use x="1900" y="200" xlink:href="#unit1" style="fill:#000000" />
<use x="1900" y="200" xlink:href="#unit2" style="fill:#ffffff" />
<use x="1900" y="300" xlink:href="#unit1" style="fill:#000000" />
<use x="1900" y="300" xlink:href="#unit2" style="fill:#ffffff" />
</svg>
