<?xml version="1.0"?>
<!-- Generated by SVGo -->
<svg width="2000" height="400"
     xmlns="http://www.w3.org/2000/svg"
     xmlns:xlink="http://www.w3.org/1999/xlink">
<desc>Generated with https://github.com/marcelmue/konstrukt</desc>
<rect x="0" y="0" width="2000" height="400" style="fill:#fad390" />
<defs>
<g id="block">
<polygon points="0,20 0,100 35,80 35,0" />
</g>
<g id="mirrorblock">
<polygon points="0,20 0,100 -35,80 -35,0" />
</g>
<g id="full">
<use x="0" y="0" xlink:href="#block" style="fill:#3498db" />
<use x="0" y="0" xlink:href="#mirrorblock" style="fill:#0a3d62" />
<g transform="rotate(60) translate(-18,-70)">
<use x="0" y="0" xlink:href="#block" style="fill:#3c6382" />
<use x="0" y="0" xlink:href="#mirrorblock" style="fill:#3498db" />
<g transform="rotate(60) translate(-18,-70)">
<use x="0" y="0" xlink:href="#block" style="fill:#0a3d62" />
<use x="0" y="0" xlink:href="#mirrorblock" style="fill:#3c6382" />
<g transform="rotate(60) translate(-18,-70)">
<use x="0" y="0" xlink:href="#block" style="fill:#3498db" />
<use x="0" y="0" xlink:href="#mirrorblock" style="fill:#0a3d62" />
<g transform="rotate(60) translate(-18,-70)">
<use x="0" y="0" xlink:href="#block" style="fill:#3c6382" />
<use x="0" y="0" xlink:href="#mirrorblock" style="fill:#3498db" />
<g transform="rotate(60) translate(-18,-70)">
<use x="0" y="0" xlink:href="#block" style="fill:#0a3d62" />
<use x="0" y="0" xlink:href="#mirrorblock" style="fill:#3c6382" />
<g transform="rotate(60) translate(-18,-70)">
</g>
</g>
</g>
</g>
</g>
</g>
</g>
</defs>
<use x="-200" y="-79" xlink:href="#full" />
<use x="10" y="-200" xlink:href="#full" />
<use x="220" y="-79" xlink:href="#full" />
<use x="430" y="-200" xlink:href="#full" />
<use x="640" y="-79" xlink:href="#full" />
<use x="850" y="-200" xlink:href="#full" />
<use x="1060" y="-79" xlink:href="#full" />
<use x="1270" y="-200" xlink:href="#full" />
<use x="1480" y="-79" xlink:href="#full" />
<use x="1690" y="-200" xlink:href="#full" />
<use x="1900" y="-79" xlink:href="#full" />
<use x="2110" y="-200" xlink:href="#full" />
<use x="-200" y="164" xlink:href="#full" />
<use x="10" y="43" xlink:href="#full" />
<use x="220" y="164" xlink:href="#full" />
<use x="430" y="43" xlink:href="#full" />
<use x="640" y="164" xlink:href="#full" />
<use x="850" y="43" xlink:href="#full" />
<use x="1060" y="164" xlink:href="#full" />
<use x="1270" y="43" xlink:href="#full" />
<use x="1480" y="164" xlink:href="#full" />
<use x="1690" y="43" xlink:href="#full" />
<use x="1900" y="164" xlink:href="#full" />
<use x="2110" y="43" xlink:href="#full" />
<use x="-200" y="407" xlink:href="#full" />
<use x="10" y="286" xlink:href="#full" />
<use x="220" y="407" xlink:href="#full" />
<use x="430" y="286" xlink:href="#full" />
<use x="640" y="407" xlink:href="#full" />
<use x="850" y="286" xlink:href="#full" />
<use x="1060" y="407" xlink:href="#full" />
<use x="1270" y="286" xlink:href="#full" />
<use x="1480" y="407" xlink:href="#full" />
<use x="1690" y="286" xlink:href="#full" />
<use x="1900" y="407" xlink:href="#full" />
<use x="2110" y="286" xlink:href="#full" />
</svg>
