<?xml version="1.0"?>
<!-- Generated by SVGo -->
<svg width="500" height="500"
     xmlns="http://www.w3.org/2000/svg"
     xmlns:xlink="http://www.w3.org/1999/xlink">
<desc>Generated with https://github.com/marcelmue/konstrukt</desc>
<rect x="0" y="0" width="500" height="500" style="fill:#e74c3c" />
<defs>
<g id="block">
<polygon points="0,20 0,100 35,80 35,0" />
</g>
<g id="mirrorblock">
<polygon points="0,20 0,100 -35,80 -35,0" />
</g>
<g id="full">
<use x="0" y="0" xlink:href="#block" style="fill:#82ccdd" />
<use x="0" y="0" xlink:href="#mirrorblock" style="fill:#1e3799" />
<g transform="rotate(60) translate(-18,-70)">
<use x="0" y="0" xlink:href="#block" style="fill:#ecf0f1" />
<use x="0" y="0" xlink:href="#mirrorblock" style="fill:#82ccdd" />
<g transform="rotate(60) translate(-18,-70)">
<use x="0" y="0" xlink:href="#block" style="fill:#1e3799" />
<use x="0" y="0" xlink:href="#mirrorblock" style="fill:#ecf0f1" />
<g transform="rotate(60) translate(-18,-70)">
<use x="0" y="0" xlink:href="#block" style="fill:#82ccdd" />
<use x="0" y="0" xlink:href="#mirrorblock" style="fill:#1e3799" />
<g transform="rotate(60) translate(-18,-70)">
<use x="0" y="0" xlink:href="#block" style="fill:#ecf0f1" />
<use x="0" y="0" xlink:href="#mirrorblock" style="fill:#82ccdd" />
<g transform="rotate(60) translate(-18,-70)">
<use x="0" y="0" xlink:href="#block" style="fill:#1e3799" />
<use x="0" y="0" xlink:href="#mirrorblock" style="fill:#ecf0f1" />
<g transform="rotate(60) translate(-18,-70)">
</g>
</g>
</g>
</g>
</g>
</g>
</g>
</defs>
<use x="-200" y="-79" xlink:href="#full" />
<use x="10" y="-200" xlink:href="#full" />
<use x="220" y="-79" xlink:href="#full" />
<use x="430" y="-200" xlink:href="#full" />
<use x="640" y="-79" xlink:href="#full" />
<use x="-200" y="164" xlink:href="#full" />
<use x="10" y="43" xlink:href="#full" />
<use x="220" y="164" xlink:href="#full" />
<use x="430" y="43" xlink:href="#full" />
<use x="640" y="164" xlink:href="#full" />
<use x="-200" y="407" xlink:href="#full" />
<use x="10" y="286" xlink:href="#full" />
<use x="220" y="407" xlink:href="#full" />
<use x="430" y="286" xlink:href="#full" />
<use x="640" y="407" xlink:href="#full" />
<use x="-200" y="650" xlink:href="#full" />
<use x="10" y="529" xlink:href="#full" />
<use x="220" y="650" xlink:href="#full" />
<use x="430" y="529" xlink:href="#full" />
<use x="640" y="650" xlink:href="#full" />
</svg>
