<?xml version="1.0"?>
<!-- Generated by SVGo -->
<svg width="2000" height="400"
     xmlns="http://www.w3.org/2000/svg"
     xmlns:xlink="http://www.w3.org/1999/xlink">
<desc>Generated with https://github.com/marcelmue/konstrukt</desc>
<rect x="0" y="0" width="2000" height="400" style="fill:#0a3d62" />
<defs>
<g id="unit">
<polygon points="10,0 0,0 0,40 10,50 50,50 50,40" />
</g>
<g id="runit">
<g transform="scale(-1,-1)">
<use x="0" y="0" xlink:href="#unit" />
</g>
</g>
</defs>
<use x="-110" y="-100" xlink:href="#unit" style="fill:#78e08f" />
<use x="-100" y="-100" xlink:href="#runit" style="fill:#079992" />
<use x="0" y="-100" xlink:href="#unit" style="fill:#78e08f" />
<use x="10" y="-100" xlink:href="#runit" style="fill:#079992" />
<use x="110" y="-100" xlink:href="#unit" style="fill:#78e08f" />
<use x="120" y="-100" xlink:href="#runit" style="fill:#079992" />
<use x="220" y="-100" xlink:href="#unit" style="fill:#78e08f" />
<use x="230" y="-100" xlink:href="#runit" style="fill:#079992" />
<use x="330" y="-100" xlink:href="#unit" style="fill:#78e08f" />
<use x="340" y="-100" xlink:href="#runit" style="fill:#079992" />
<use x="440" y="-100" xlink:href="#unit" style="fill:#78e08f" />
<use x="450" y="-100" xlink:href="#runit" style="fill:#079992" />
<use x="550" y="-100" xlink:href="#unit" style="fill:#78e08f" />
<use x="560" y="-100" xlink:href="#runit" style="fill:#079992" />
<use x="660" y="-100" xlink:href="#unit" style="fill:#78e08f" />
<use x="670" y="-100" xlink:href="#runit" style="fill:#079992" />
<use x="770" y="-100" xlink:href="#unit" style="fill:#78e08f" />
<use x="780" y="-100" xlink:href="#runit" style="fill:#079992" />
<use x="880" y="-100" xlink:href="#unit" style="fill:#78e08f" />
<use x="890" y="-100" xlink:href="#runit" style="fill:#079992" />
<use x="990" y="-100" xlink:href="#unit" style="fill:#78e08f" />
<use x="1000" y="-100" xlink:href="#runit" style="fill:#079992" />
<use x="1100" y="-100" xlink:href="#unit" style="fill:#78e08f" />
<use x="1110" y="-100" xlink:href="#runit" style="fill:#079992" />
<use x="1210" y="-100" xlink:href="#unit" style="fill:#78e08f" />
<use x="1220" y="-100" xlink:href="#runit" style="fill:#079992" />
<use x="1320" y="-100" xlink:href="#unit" style="fill:#78e08f" />
<use x="1330" y="-100" xlink:href="#runit" style="fill:#079992" />
<use x="1430" y="-100" xlink:href="#unit" style="fill:#78e08f" />
<use x="1440" y="-100" xlink:href="#runit" style="fill:#079992" />
<use x="1540" y="-100" xlink:href="#unit" style="fill:#78e08f" />
<use x="1550" y="-100" xlink:href="#runit" style="fill:#079992" />
<use x="1650" y="-100" xlink:href="#unit" style="fill:#78e08f" />
<use x="1660" y="-100" xlink:href="#runit" style="fill:#079992" />
<use x="1760" y="-100" xlink:href="#unit" style="fill:#78e08f" />
<use x="1770" y="-100" xlink:href="#runit" style="fill:#079992" />
<use x="1870" y="-100" xlink:href="#unit" style="fill:#78e08f" />
<use x="1880" y="-100" xlink:href="#runit" style="fill:#079992" />
<use x="1980" y="-100" xlink:href="#unit" style="fill:#78e08f" />
<use x="1990" y="-100" xlink:href="#runit" style="fill:#079992" />
<use x="-120" y="-10" xlink:href="#unit" style="fill:#78e08f" />
<use x="-110" y="-10" xlink:href="#runit" style="fill:#079992" />
<use x="-10" y="-10" xlink:href="#unit" style="fill:#78e08f" />
<use x="0" y="-10" xlink:href="#runit" style="fill:#079992" />
<use x="100" y="-10" xlink:href="#unit" style="fill:#78e08f" />
<use x="110" y="-10" xlink:href="#runit" style="fill:#079992" />
<use x="210" y="-10" xlink:href="#unit" style="fill:#78e08f" />
<use x="220" y="-10" xlink:href="#runit" style="fill:#079992" />
<use x="320" y="-10" xlink:href="#unit" style="fill:#78e08f" />
<use x="330" y="-10" xlink:href="#runit" style="fill:#079992" />
<use x="430" y="-10" xlink:href="#unit" style="fill:#78e08f" />
<use x="440" y="-10" xlink:href="#runit" style="fill:#079992" />
<use x="540" y="-10" xlink:href="#unit" style="fill:#78e08f" />
<use x="550" y="-10" xlink:href="#runit" style="fill:#079992" />
<use x="650" y="-10" xlink:href="#unit" style="fill:#78e08f" />
<use x="660" y="-10" xlink:href="#runit" style="fill:#079992" />
<use x="760" y="-10" xlink:href="#unit" style="fill:#78e08f" />
<use x="770" y="-10" xlink:href="#runit" style="fill:#079992" />
<use x="870" y="-10" xlink:href="#unit" style="fill:#78e08f" />
<use x="880" y="-10" xlink:href="#runit" style="fill:#079992" />
<use x="980" y="-10" xlink:href="#unit" style="fill:#78e08f" />
<use x="990" y="-10" xlink:href="#runit" style="fill:#079992" />
<use x="1090" y="-10" xlink:href="#unit" style="fill:#78e08f" />
<use x="1100" y="-10" xlink:href="#runit" style="fill:#079992" />
<use x="1200" y="-10" xlink:href="#unit" style="fill:#78e08f" />
<use x="1210" y="-10" xlink:href="#runit" style="fill:#079992" />
<use x="1310" y="-10" xlink:href="#unit" style="fill:#78e08f" />
<use x="1320" y="-10" xlink:href="#runit" style="fill:#079992" />
<use x="1420" y="-10" xlink:href="#unit" style="fill:#78e08f" />
<use x="1430" y="-10" xlink:href="#runit" style="fill:#079992" />
<use x="1530" y="-10" xlink:href="#unit" style="fill:#78e08f" />
<use x="1540" y="-10" xlink:href="#runit" style="fill:#079992" />
<use x="1640" y="-10" xlink:href="#unit" style="fill:#78e08f" />
<use x="1650" y="-10" xlink:href="#runit" style="fill:#079992" />
<use x="1750" y="-10" xlink:href="#unit" style="fill:#78e08f" />
<use x="1760" y="-10" xlink:href="#runit" style="fill:#079992" />
<use x="1860" y="-10" xlink:href="#unit" style="fill:#78e08f" />
<use x="1870" y="-10" xlink:href="#runit" style="fill:#079992" />
<use x="1970" y="-10" xlink:href="#unit" style="fill:#78e08f" />
<use x="1980" y="-10" xlink:href="#runit" style="fill:#079992" />
<use x="-130" y="80" xlink:href="#unit" style="fill:#78e08f" />
<use x="-120" y="80" xlink:href="#runit" style="fill:#079992" />
<use x="-20" y="80" xlink:href="#unit" style="fill:#78e08f" />
<use x="-10" y="80" xlink:href="#runit" style="fill:#079992" />
<use x="90" y="80" xlink:href="#unit" style="fill:#78e08f" />
<use x="100" y="80" xlink:href="#runit" style="fill:#079992" />
<use x="200" y="80" xlink:href="#unit" style="fill:#78e08f" />
<use x="210" y="80" xlink:href="#runit" style="fill:#079992" />
<use x="310" y="80" xlink:href="#unit" style="fill:#78e08f" />
<use x="320" y="80" xlink:href="#runit" style="fill:#079992" />
<use x="420" y="80" xlink:href="#unit" style="fill:#78e08f" />
<use x="430" y="80" xlink:href="#runit" style="fill:#079992" />
<use x="530" y="80" xlink:href="#unit" style="fill:#78e08f" />
<use x="540" y="80" xlink:href="#runit" style="fill:#079992" />
<use x="640" y="80" xlink:href="#unit" style="fill:#78e08f" />
<use x="650" y="80" xlink:href="#runit" style="fill:#079992" />
<use x="750" y="80" xlink:href="#unit" style="fill:#78e08f" />
<use x="760" y="80" xlink:href="#runit" style="fill:#079992" />
<use x="860" y="80" xlink:href="#unit" style="fill:#78e08f" />
<use x="870" y="80" xlink:href="#runit" style="fill:#079992" />
<use x="970" y="80" xlink:href="#unit" style="fill:#78e08f" />
<use x="980" y="80" xlink:href="#runit" style="fill:#079992" />
<use x="1080" y="80" xlink:href="#unit" style="fill:#78e08f" />
<use x="1090" y="80" xlink:href="#runit" style="fill:#079992" />
<use x="1190" y="80" xlink:href="#unit" style="fill:#78e08f" />
<use x="1200" y="80" xlink:href="#runit" style="fill:#079992" />
<use x="1300" y="80" xlink:href="#unit" style="fill:#78e08f" />
<use x="1310" y="80" xlink:href="#runit" style="fill:#079992" />
<use x="1410" y="80" xlink:href="#unit" style="fill:#78e08f" />
<use x="1420" y="80" xlink:href="#runit" style="fill:#079992" />
<use x="1520" y="80" xlink:href="#unit" style="fill:#78e08f" />
<use x="1530" y="80" xlink:href="#runit" style="fill:#079992" />
<use x="1630" y="80" xlink:href="#unit" style="fill:#78e08f" />
<use x="1640" y="80" xlink:href="#runit" style="fill:#079992" />
<use x="1740" y="80" xlink:href="#unit" style="fill:#78e08f" />
<use x="1750" y="80" xlink:href="#runit" style="fill:#079992" />
<use x="1850" y="80" xlink:href="#unit" style="fill:#78e08f" />
<use x="1860" y="80" xlink:href="#runit" style="fill:#079992" />
<use x="1960" y="80" xlink:href="#unit" style="fill:#78e08f" />
<use x="1970" y="80" xlink:href="#runit" style="fill:#079992" />
<use x="-140" y="170" xlink:href="#unit" style="fill:#78e08f" />
<use x="-130" y="170" xlink:href="#runit" style="fill:#079992" />
<use x="-30" y="170" xlink:href="#unit" style="fill:#78e08f" />
<use x="-20" y="170" xlink:href="#runit" style="fill:#079992" />
<use x="80" y="170" xlink:href="#unit" style="fill:#78e08f" />
<use x="90" y="170" xlink:href="#runit" style="fill:#079992" />
<use x="190" y="170" xlink:href="#unit" style="fill:#78e08f" />
<use x="200" y="170" xlink:href="#runit" style="fill:#079992" />
<use x="300" y="170" xlink:href="#unit" style="fill:#78e08f" />
<use x="310" y="170" xlink:href="#runit" style="fill:#079992" />
<use x="410" y="170" xlink:href="#unit" style="fill:#78e08f" />
<use x="420" y="170" xlink:href="#runit" style="fill:#079992" />
<use x="520" y="170" xlink:href="#unit" style="fill:#78e08f" />
<use x="530" y="170" xlink:href="#runit" style="fill:#079992" />
<use x="630" y="170" xlink:href="#unit" style="fill:#78e08f" />
<use x="640" y="170" xlink:href="#runit" style="fill:#079992" />
<use x="740" y="170" xlink:href="#unit" style="fill:#78e08f" />
<use x="750" y="170" xlink:href="#runit" style="fill:#079992" />
<use x="850" y="170" xlink:href="#unit" style="fill:#78e08f" />
<use x="860" y="170" xlink:href="#runit" style="fill:#079992" />
<use x="960" y="170" xlink:href="#unit" style="fill:#78e08f" />
<use x="970" y="170" xlink:href="#runit" style="fill:#079992" />
<use x="1070" y="170" xlink:href="#unit" style="fill:#78e08f" />
<use x="1080" y="170" xlink:href="#runit" style="fill:#079992" />
<use x="1180" y="170" xlink:href="#unit" style="fill:#78e08f" />
<use x="1190" y="170" xlink:href="#runit" style="fill:#079992" />
<use x="1290" y="170" xlink:href="#unit" style="fill:#78e08f" />
<use x="1300" y="170" xlink:href="#runit" style="fill:#079992" />
<use x="1400" y="170" xlink:href="#unit" style="fill:#78e08f" />
<use x="1410" y="170" xlink:href="#runit" style="fill:#079992" />
<use x="1510" y="170" xlink:href="#unit" style="fill:#78e08f" />
<use x="1520" y="170" xlink:href="#runit" style="fill:#079992" />
<use x="1620" y="170" xlink:href="#unit" style="fill:#78e08f" />
<use x="1630" y="170" xlink:href="#runit" style="fill:#079992" />
<use x="1730" y="170" xlink:href="#unit" style="fill:#78e08f" />
<use x="1740" y="170" xlink:href="#runit" style="fill:#079992" />
<use x="1840" y="170" xlink:href="#unit" style="fill:#78e08f" />
<use x="1850" y="170" xlink:href="#runit" style="fill:#079992" />
<use x="1950" y="170" xlink:href="#unit" style="fill:#78e08f" />
<use x="1960" y="170" xlink:href="#runit" style="fill:#079992" />
<use x="-150" y="260" xlink:href="#unit" style="fill:#78e08f" />
<use x="-140" y="260" xlink:href="#runit" style="fill:#079992" />
<use x="-40" y="260" xlink:href="#unit" style="fill:#78e08f" />
<use x="-30" y="260" xlink:href="#runit" style="fill:#079992" />
<use x="70" y="260" xlink:href="#unit" style="fill:#78e08f" />
<use x="80" y="260" xlink:href="#runit" style="fill:#079992" />
<use x="180" y="260" xlink:href="#unit" style="fill:#78e08f" />
<use x="190" y="260" xlink:href="#runit" style="fill:#079992" />
<use x="290" y="260" xlink:href="#unit" style="fill:#78e08f" />
<use x="300" y="260" xlink:href="#runit" style="fill:#079992" />
<use x="400" y="260" xlink:href="#unit" style="fill:#78e08f" />
<use x="410" y="260" xlink:href="#runit" style="fill:#079992" />
<use x="510" y="260" xlink:href="#unit" style="fill:#78e08f" />
<use x="520" y="260" xlink:href="#runit" style="fill:#079992" />
<use x="620" y="260" xlink:href="#unit" style="fill:#78e08f" />
<use x="630" y="260" xlink:href="#runit" style="fill:#079992" />
<use x="730" y="260" xlink:href="#unit" style="fill:#78e08f" />
<use x="740" y="260" xlink:href="#runit" style="fill:#079992" />
<use x="840" y="260" xlink:href="#unit" style="fill:#78e08f" />
<use x="850" y="260" xlink:href="#runit" style="fill:#079992" />
<use x="950" y="260" xlink:href="#unit" style="fill:#78e08f" />
<use x="960" y="260" xlink:href="#runit" style="fill:#079992" />
<use x="1060" y="260" xlink:href="#unit" style="fill:#78e08f" />
<use x="1070" y="260" xlink:href="#runit" style="fill:#079992" />
<use x="1170" y="260" xlink:href="#unit" style="fill:#78e08f" />
<use x="1180" y="260" xlink:href="#runit" style="fill:#079992" />
<use x="1280" y="260" xlink:href="#unit" style="fill:#78e08f" />
<use x="1290" y="260" xlink:href="#runit" style="fill:#079992" />
<use x="1390" y="260" xlink:href="#unit" style="fill:#78e08f" />
<use x="1400" y="260" xlink:href="#runit" style="fill:#079992" />
<use x="1500" y="260" xlink:href="#unit" style="fill:#78e08f" />
<use x="1510" y="260" xlink:href="#runit" style="fill:#079992" />
<use x="1610" y="260" xlink:href="#unit" style="fill:#78e08f" />
<use x="1620" y="260" xlink:href="#runit" style="fill:#079992" />
<use x="1720" y="260" xlink:href="#unit" style="fill:#78e08f" />
<use x="1730" y="260" xlink:href="#runit" style="fill:#079992" />
<use x="1830" y="260" xlink:href="#unit" style="fill:#78e08f" />
<use x="1840" y="260" xlink:href="#runit" style="fill:#079992" />
<use x="1940" y="260" xlink:href="#unit" style="fill:#78e08f" />
<use x="1950" y="260" xlink:href="#runit" style="fill:#079992" />
<use x="-160" y="350" xlink:href="#unit" style="fill:#78e08f" />
<use x="-150" y="350" xlink:href="#runit" style="fill:#079992" />
<use x="-50" y="350" xlink:href="#unit" style="fill:#78e08f" />
<use x="-40" y="350" xlink:href="#runit" style="fill:#079992" />
<use x="60" y="350" xlink:href="#unit" style="fill:#78e08f" />
<use x="70" y="350" xlink:href="#runit" style="fill:#079992" />
<use x="170" y="350" xlink:href="#unit" style="fill:#78e08f" />
<use x="180" y="350" xlink:href="#runit" style="fill:#079992" />
<use x="280" y="350" xlink:href="#unit" style="fill:#78e08f" />
<use x="290" y="350" xlink:href="#runit" style="fill:#079992" />
<use x="390" y="350" xlink:href="#unit" style="fill:#78e08f" />
<use x="400" y="350" xlink:href="#runit" style="fill:#079992" />
<use x="500" y="350" xlink:href="#unit" style="fill:#78e08f" />
<use x="510" y="350" xlink:href="#runit" style="fill:#079992" />
<use x="610" y="350" xlink:href="#unit" style="fill:#78e08f" />
<use x="620" y="350" xlink:href="#runit" style="fill:#079992" />
<use x="720" y="350" xlink:href="#unit" style="fill:#78e08f" />
<use x="730" y="350" xlink:href="#runit" style="fill:#079992" />
<use x="830" y="350" xlink:href="#unit" style="fill:#78e08f" />
<use x="840" y="350" xlink:href="#runit" style="fill:#079992" />
<use x="940" y="350" xlink:href="#unit" style="fill:#78e08f" />
<use x="950" y="350" xlink:href="#runit" style="fill:#079992" />
<use x="1050" y="350" xlink:href="#unit" style="fill:#78e08f" />
<use x="1060" y="350" xlink:href="#runit" style="fill:#079992" />
<use x="1160" y="350" xlink:href="#unit" style="fill:#78e08f" />
<use x="1170" y="350" xlink:href="#runit" style="fill:#079992" />
<use x="1270" y="350" xlink:href="#unit" style="fill:#78e08f" />
<use x="1280" y="350" xlink:href="#runit" style="fill:#079992" />
<use x="1380" y="350" xlink:href="#unit" style="fill:#78e08f" />
<use x="1390" y="350" xlink:href="#runit" style="fill:#079992" />
<use x="1490" y="350" xlink:href="#unit" style="fill:#78e08f" />
<use x="1500" y="350" xlink:href="#runit" style="fill:#079992" />
<use x="1600" y="350" xlink:href="#unit" style="fill:#78e08f" />
<use x="1610" y="350" xlink:href="#runit" style="fill:#079992" />
<use x="1710" y="350" xlink:href="#unit" style="fill:#78e08f" />
<use x="1720" y="350" xlink:href="#runit" style="fill:#079992" />
<use x="1820" y="350" xlink:href="#unit" style="fill:#78e08f" />
<use x="1830" y="350" xlink:href="#runit" style="fill:#079992" />
<use x="1930" y="350" xlink:href="#unit" style="fill:#78e08f" />
<use x="1940" y="350" xlink:href="#runit" style="fill:#079992" />
<use x="-170" y="440" xlink:href="#unit" style="fill:#78e08f" />
<use x="-160" y="440" xlink:href="#runit" style="fill:#079992" />
<use x="-60" y="440" xlink:href="#unit" style="fill:#78e08f" />
<use x="-50" y="440" xlink:href="#runit" style="fill:#079992" />
<use x="50" y="440" xlink:href="#unit" style="fill:#78e08f" />
<use x="60" y="440" xlink:href="#runit" style="fill:#079992" />
<use x="160" y="440" xlink:href="#unit" style="fill:#78e08f" />
<use x="170" y="440" xlink:href="#runit" style="fill:#079992" />
<use x="270" y="440" xlink:href="#unit" style="fill:#78e08f" />
<use x="280" y="440" xlink:href="#runit" style="fill:#079992" />
<use x="380" y="440" xlink:href="#unit" style="fill:#78e08f" />
<use x="390" y="440" xlink:href="#runit" style="fill:#079992" />
<use x="490" y="440" xlink:href="#unit" style="fill:#78e08f" />
<use x="500" y="440" xlink:href="#runit" style="fill:#079992" />
<use x="600" y="440" xlink:href="#unit" style="fill:#78e08f" />
<use x="610" y="440" xlink:href="#runit" style="fill:#079992" />
<use x="710" y="440" xlink:href="#unit" style="fill:#78e08f" />
<use x="720" y="440" xlink:href="#runit" style="fill:#079992" />
<use x="820" y="440" xlink:href="#unit" style="fill:#78e08f" />
<use x="830" y="440" xlink:href="#runit" style="fill:#079992" />
<use x="930" y="440" xlink:href="#unit" style="fill:#78e08f" />
<use x="940" y="440" xlink:href="#runit" style="fill:#079992" />
<use x="1040" y="440" xlink:href="#unit" style="fill:#78e08f" />
<use x="1050" y="440" xlink:href="#runit" style="fill:#079992" />
<use x="1150" y="440" xlink:href="#unit" style="fill:#78e08f" />
<use x="1160" y="440" xlink:href="#runit" style="fill:#079992" />
<use x="1260" y="440" xlink:href="#unit" style="fill:#78e08f" />
<use x="1270" y="440" xlink:href="#runit" style="fill:#079992" />
<use x="1370" y="440" xlink:href="#unit" style="fill:#78e08f" />
<use x="1380" y="440" xlink:href="#runit" style="fill:#079992" />
<use x="1480" y="440" xlink:href="#unit" style="fill:#78e08f" />
<use x="1490" y="440" xlink:href="#runit" style="fill:#079992" />
<use x="1590" y="440" xlink:href="#unit" style="fill:#78e08f" />
<use x="1600" y="440" xlink:href="#runit" style="fill:#079992" />
<use x="1700" y="440" xlink:href="#unit" style="fill:#78e08f" />
<use x="1710" y="440" xlink:href="#runit" style="fill:#079992" />
<use x="1810" y="440" xlink:href="#unit" style="fill:#78e08f" />
<use x="1820" y="440" xlink:href="#runit" style="fill:#079992" />
<use x="1920" y="440" xlink:href="#unit" style="fill:#78e08f" />
<use x="1930" y="440" xlink:href="#runit" style="fill:#079992" />
<use x="-180" y="530" xlink:href="#unit" style="fill:#78e08f" />
<use x="-170" y="530" xlink:href="#runit" style="fill:#079992" />
<use x="-70" y="530" xlink:href="#unit" style="fill:#78e08f" />
<use x="-60" y="530" xlink:href="#runit" style="fill:#079992" />
<use x="40" y="530" xlink:href="#unit" style="fill:#78e08f" />
<use x="50" y="530" xlink:href="#runit" style="fill:#079992" />
<use x="150" y="530" xlink:href="#unit" style="fill:#78e08f" />
<use x="160" y="530" xlink:href="#runit" style="fill:#079992" />
<use x="260" y="530" xlink:href="#unit" style="fill:#78e08f" />
<use x="270" y="530" xlink:href="#runit" style="fill:#079992" />
<use x="370" y="530" xlink:href="#unit" style="fill:#78e08f" />
<use x="380" y="530" xlink:href="#runit" style="fill:#079992" />
<use x="480" y="530" xlink:href="#unit" style="fill:#78e08f" />
<use x="490" y="530" xlink:href="#runit" style="fill:#079992" />
<use x="590" y="530" xlink:href="#unit" style="fill:#78e08f" />
<use x="600" y="530" xlink:href="#runit" style="fill:#079992" />
<use x="700" y="530" xlink:href="#unit" style="fill:#78e08f" />
<use x="710" y="530" xlink:href="#runit" style="fill:#079992" />
<use x="810" y="530" xlink:href="#unit" style="fill:#78e08f" />
<use x="820" y="530" xlink:href="#runit" style="fill:#079992" />
<use x="920" y="530" xlink:href="#unit" style="fill:#78e08f" />
<use x="930" y="530" xlink:href="#runit" style="fill:#079992" />
<use x="1030" y="530" xlink:href="#unit" style="fill:#78e08f" />
<use x="1040" y="530" xlink:href="#runit" style="fill:#079992" />
<use x="1140" y="530" xlink:href="#unit" style="fill:#78e08f" />
<use x="1150" y="530" xlink:href="#runit" style="fill:#079992" />
<use x="1250" y="530" xlink:href="#unit" style="fill:#78e08f" />
<use x="1260" y="530" xlink:href="#runit" style="fill:#079992" />
<use x="1360" y="530" xlink:href="#unit" style="fill:#78e08f" />
<use x="1370" y="530" xlink:href="#runit" style="fill:#079992" />
<use x="1470" y="530" xlink:href="#unit" style="fill:#78e08f" />
<use x="1480" y="530" xlink:href="#runit" style="fill:#079992" />
<use x="1580" y="530" xlink:href="#unit" style="fill:#78e08f" />
<use x="1590" y="530" xlink:href="#runit" style="fill:#079992" />
<use x="1690" y="530" xlink:href="#unit" style="fill:#78e08f" />
<use x="1700" y="530" xlink:href="#runit" style="fill:#079992" />
<use x="1800" y="530" xlink:href="#unit" style="fill:#78e08f" />
<use x="1810" y="530" xlink:href="#runit" style="fill:#079992" />
<use x="1910" y="530" xlink:href="#unit" style="fill:#78e08f" />
<use x="1920" y="530" xlink:href="#runit" style="fill:#079992" />
</svg>
