<?xml version="1.0"?>
<!-- Generated by SVGo -->
<svg width="500" height="500"
     xmlns="http://www.w3.org/2000/svg"
     xmlns:xlink="http://www.w3.org/1999/xlink">
<desc>Generated with https://github.com/marcelmue/konstrukt</desc>
<rect x="0" y="0" width="500" height="500" style="fill:#e55039" />
<defs>
<g id="unit">
<polygon points="10,0 0,0 0,40 10,50 50,50 50,40" />
</g>
<g id="runit">
<g transform="scale(-1,-1)">
<use x="0" y="0" xlink:href="#unit" />
</g>
</g>
</defs>
<use x="-110" y="-100" xlink:href="#unit" style="fill:#fa983a" />
<use x="-100" y="-100" xlink:href="#runit" style="fill:#fad390" />
<use x="0" y="-100" xlink:href="#unit" style="fill:#fa983a" />
<use x="10" y="-100" xlink:href="#runit" style="fill:#fad390" />
<use x="110" y="-100" xlink:href="#unit" style="fill:#fa983a" />
<use x="120" y="-100" xlink:href="#runit" style="fill:#fad390" />
<use x="220" y="-100" xlink:href="#unit" style="fill:#fa983a" />
<use x="230" y="-100" xlink:href="#runit" style="fill:#fad390" />
<use x="330" y="-100" xlink:href="#unit" style="fill:#fa983a" />
<use x="340" y="-100" xlink:href="#runit" style="fill:#fad390" />
<use x="440" y="-100" xlink:href="#unit" style="fill:#fa983a" />
<use x="450" y="-100" xlink:href="#runit" style="fill:#fad390" />
<use x="550" y="-100" xlink:href="#unit" style="fill:#fa983a" />
<use x="560" y="-100" xlink:href="#runit" style="fill:#fad390" />
<use x="-120" y="-10" xlink:href="#unit" style="fill:#fa983a" />
<use x="-110" y="-10" xlink:href="#runit" style="fill:#fad390" />
<use x="-10" y="-10" xlink:href="#unit" style="fill:#fa983a" />
<use x="0" y="-10" xlink:href="#runit" style="fill:#fad390" />
<use x="100" y="-10" xlink:href="#unit" style="fill:#fa983a" />
<use x="110" y="-10" xlink:href="#runit" style="fill:#fad390" />
<use x="210" y="-10" xlink:href="#unit" style="fill:#fa983a" />
<use x="220" y="-10" xlink:href="#runit" style="fill:#fad390" />
<use x="320" y="-10" xlink:href="#unit" style="fill:#fa983a" />
<use x="330" y="-10" xlink:href="#runit" style="fill:#fad390" />
<use x="430" y="-10" xlink:href="#unit" style="fill:#fa983a" />
<use x="440" y="-10" xlink:href="#runit" style="fill:#fad390" />
<use x="540" y="-10" xlink:href="#unit" style="fill:#fa983a" />
<use x="550" y="-10" xlink:href="#runit" style="fill:#fad390" />
<use x="-130" y="80" xlink:href="#unit" style="fill:#fa983a" />
<use x="-120" y="80" xlink:href="#runit" style="fill:#fad390" />
<use x="-20" y="80" xlink:href="#unit" style="fill:#fa983a" />
<use x="-10" y="80" xlink:href="#runit" style="fill:#fad390" />
<use x="90" y="80" xlink:href="#unit" style="fill:#fa983a" />
<use x="100" y="80" xlink:href="#runit" style="fill:#fad390" />
<use x="200" y="80" xlink:href="#unit" style="fill:#fa983a" />
<use x="210" y="80" xlink:href="#runit" style="fill:#fad390" />
<use x="310" y="80" xlink:href="#unit" style="fill:#fa983a" />
<use x="320" y="80" xlink:href="#runit" style="fill:#fad390" />
<use x="420" y="80" xlink:href="#unit" style="fill:#fa983a" />
<use x="430" y="80" xlink:href="#runit" style="fill:#fad390" />
<use x="530" y="80" xlink:href="#unit" style="fill:#fa983a" />
<use x="540" y="80" xlink:href="#runit" style="fill:#fad390" />
<use x="-140" y="170" xlink:href="#unit" style="fill:#fa983a" />
<use x="-130" y="170" xlink:href="#runit" style="fill:#fad390" />
<use x="-30" y="170" xlink:href="#unit" style="fill:#fa983a" />
<use x="-20" y="170" xlink:href="#runit" style="fill:#fad390" />
<use x="80" y="170" xlink:href="#unit" style="fill:#fa983a" />
<use x="90" y="170" xlink:href="#runit" style="fill:#fad390" />
<use x="190" y="170" xlink:href="#unit" style="fill:#fa983a" />
<use x="200" y="170" xlink:href="#runit" style="fill:#fad390" />
<use x="300" y="170" xlink:href="#unit" style="fill:#fa983a" />
<use x="310" y="170" xlink:href="#runit" style="fill:#fad390" />
<use x="410" y="170" xlink:href="#unit" style="fill:#fa983a" />
<use x="420" y="170" xlink:href="#runit" style="fill:#fad390" />
<use x="520" y="170" xlink:href="#unit" style="fill:#fa983a" />
<use x="530" y="170" xlink:href="#runit" style="fill:#fad390" />
<use x="-150" y="260" xlink:href="#unit" style="fill:#fa983a" />
<use x="-140" y="260" xlink:href="#runit" style="fill:#fad390" />
<use x="-40" y="260" xlink:href="#unit" style="fill:#fa983a" />
<use x="-30" y="260" xlink:href="#runit" style="fill:#fad390" />
<use x="70" y="260" xlink:href="#unit" style="fill:#fa983a" />
<use x="80" y="260" xlink:href="#runit" style="fill:#fad390" />
<use x="180" y="260" xlink:href="#unit" style="fill:#fa983a" />
<use x="190" y="260" xlink:href="#runit" style="fill:#fad390" />
<use x="290" y="260" xlink:href="#unit" style="fill:#fa983a" />
<use x="300" y="260" xlink:href="#runit" style="fill:#fad390" />
<use x="400" y="260" xlink:href="#unit" style="fill:#fa983a" />
<use x="410" y="260" xlink:href="#runit" style="fill:#fad390" />
<use x="510" y="260" xlink:href="#unit" style="fill:#fa983a" />
<use x="520" y="260" xlink:href="#runit" style="fill:#fad390" />
<use x="-160" y="350" xlink:href="#unit" style="fill:#fa983a" />
<use x="-150" y="350" xlink:href="#runit" style="fill:#fad390" />
<use x="-50" y="350" xlink:href="#unit" style="fill:#fa983a" />
<use x="-40" y="350" xlink:href="#runit" style="fill:#fad390" />
<use x="60" y="350" xlink:href="#unit" style="fill:#fa983a" />
<use x="70" y="350" xlink:href="#runit" style="fill:#fad390" />
<use x="170" y="350" xlink:href="#unit" style="fill:#fa983a" />
<use x="180" y="350" xlink:href="#runit" style="fill:#fad390" />
<use x="280" y="350" xlink:href="#unit" style="fill:#fa983a" />
<use x="290" y="350" xlink:href="#runit" style="fill:#fad390" />
<use x="390" y="350" xlink:href="#unit" style="fill:#fa983a" />
<use x="400" y="350" xlink:href="#runit" style="fill:#fad390" />
<use x="500" y="350" xlink:href="#unit" style="fill:#fa983a" />
<use x="510" y="350" xlink:href="#runit" style="fill:#fad390" />
<use x="-170" y="440" xlink:href="#unit" style="fill:#fa983a" />
<use x="-160" y="440" xlink:href="#runit" style="fill:#fad390" />
<use x="-60" y="440" xlink:href="#unit" style="fill:#fa983a" />
<use x="-50" y="440" xlink:href="#runit" style="fill:#fad390" />
<use x="50" y="440" xlink:href="#unit" style="fill:#fa983a" />
<use x="60" y="440" xlink:href="#runit" style="fill:#fad390" />
<use x="160" y="440" xlink:href="#unit" style="fill:#fa983a" />
<use x="170" y="440" xlink:href="#runit" style="fill:#fad390" />
<use x="270" y="440" xlink:href="#unit" style="fill:#fa983a" />
<use x="280" y="440" xlink:href="#runit" style="fill:#fad390" />
<use x="380" y="440" xlink:href="#unit" style="fill:#fa983a" />
<use x="390" y="440" xlink:href="#runit" style="fill:#fad390" />
<use x="490" y="440" xlink:href="#unit" style="fill:#fa983a" />
<use x="500" y="440" xlink:href="#runit" style="fill:#fad390" />
<use x="-180" y="530" xlink:href="#unit" style="fill:#fa983a" />
<use x="-170" y="530" xlink:href="#runit" style="fill:#fad390" />
<use x="-70" y="530" xlink:href="#unit" style="fill:#fa983a" />
<use x="-60" y="530" xlink:href="#runit" style="fill:#fad390" />
<use x="40" y="530" xlink:href="#unit" style="fill:#fa983a" />
<use x="50" y="530" xlink:href="#runit" style="fill:#fad390" />
<use x="150" y="530" xlink:href="#unit" style="fill:#fa983a" />
<use x="160" y="530" xlink:href="#runit" style="fill:#fad390" />
<use x="260" y="530" xlink:href="#unit" style="fill:#fa983a" />
<use x="270" y="530" xlink:href="#runit" style="fill:#fad390" />
<use x="370" y="530" xlink:href="#unit" style="fill:#fa983a" />
<use x="380" y="530" xlink:href="#runit" style="fill:#fad390" />
<use x="480" y="530" xlink:href="#unit" style="fill:#fa983a" />
<use x="490" y="530" xlink:href="#runit" style="fill:#fad390" />
<use x="-190" y="620" xlink:href="#unit" style="fill:#fa983a" />
<use x="-180" y="620" xlink:href="#runit" style="fill:#fad390" />
<use x="-80" y="620" xlink:href="#unit" style="fill:#fa983a" />
<use x="-70" y="620" xlink:href="#runit" style="fill:#fad390" />
<use x="30" y="620" xlink:href="#unit" style="fill:#fa983a" />
<use x="40" y="620" xlink:href="#runit" style="fill:#fad390" />
<use x="140" y="620" xlink:href="#unit" style="fill:#fa983a" />
<use x="150" y="620" xlink:href="#runit" style="fill:#fad390" />
<use x="250" y="620" xlink:href="#unit" style="fill:#fa983a" />
<use x="260" y="620" xlink:href="#runit" style="fill:#fad390" />
<use x="360" y="620" xlink:href="#unit" style="fill:#fa983a" />
<use x="370" y="620" xlink:href="#runit" style="fill:#fad390" />
<use x="470" y="620" xlink:href="#unit" style="fill:#fa983a" />
<use x="480" y="620" xlink:href="#runit" style="fill:#fad390" />
</svg>
