<?xml version="1.0"?>
<!-- Generated by SVGo -->
<svg width="2000" height="400"
     xmlns="http://www.w3.org/2000/svg"
     xmlns:xlink="http://www.w3.org/1999/xlink">
<rect x="5" y="0" width="5" height="150" style="fill: #e55039" />
<rect x="5" y="160" width="5" height="150" style="fill: #e55039" />
<rect x="5" y="320" width="5" height="150" style="fill: #0a3d62" />
<rect x="20" y="-80" width="5" height="150" style="fill: #e55039" />
<rect x="20" y="80" width="5" height="150" style="fill: #0a3d62" />
<rect x="20" y="240" width="5" height="150" style="fill: #55efc4" />
<rect x="35" y="-75" width="5" height="150" style="fill: #0a3d62" />
<rect x="35" y="85" width="5" height="150" style="fill: #55efc4" />
<rect x="35" y="245" width="5" height="150" style="fill: #55efc4" />
<rect x="50" y="-5" width="5" height="150" style="fill: #55efc4" />
<rect x="50" y="155" width="5" height="150" style="fill: #55efc4" />
<rect x="50" y="315" width="5" height="150" style="fill: #0a3d62" />
<rect x="65" y="-145" width="5" height="150" style="fill: #55efc4" />
<rect x="65" y="15" width="5" height="150" style="fill: #0a3d62" />
<rect x="65" y="175" width="5" height="150" style="fill: #0a3d62" />
<rect x="65" y="335" width="5" height="150" style="fill: #e55039" />
<rect x="80" y="-100" width="5" height="150" style="fill: #0a3d62" />
<rect x="80" y="60" width="5" height="150" style="fill: #0a3d62" />
<rect x="80" y="220" width="5" height="150" style="fill: #e55039" />
<rect x="80" y="380" width="5" height="150" style="fill: #55efc4" />
<rect x="95" y="-50" width="5" height="150" style="fill: #0a3d62" />
<rect x="95" y="110" width="5" height="150" style="fill: #e55039" />
<rect x="95" y="270" width="5" height="150" style="fill: #55efc4" />
<rect x="110" y="-10" width="5" height="150" style="fill: #e55039" />
<rect x="110" y="150" width="5" height="150" style="fill: #55efc4" />
<rect x="110" y="310" width="5" height="150" style="fill: #55efc4" />
<rect x="125" y="-130" width="5" height="150" style="fill: #55efc4" />
<rect x="125" y="30" width="5" height="150" style="fill: #55efc4" />
<rect x="125" y="190" width="5" height="150" style="fill: #0a3d62" />
<rect x="125" y="350" width="5" height="150" style="fill: #e55039" />
<rect x="140" y="-120" width="5" height="150" style="fill: #55efc4" />
<rect x="140" y="40" width="5" height="150" style="fill: #0a3d62" />
<rect x="140" y="200" width="5" height="150" style="fill: #e55039" />
<rect x="140" y="360" width="5" height="150" style="fill: #0a3d62" />
<rect x="155" y="-20" width="5" height="150" style="fill: #0a3d62" />
<rect x="155" y="140" width="5" height="150" style="fill: #e55039" />
<rect x="155" y="300" width="5" height="150" style="fill: #0a3d62" />
<rect x="170" y="0" width="5" height="150" style="fill: #e55039" />
<rect x="170" y="160" width="5" height="150" style="fill: #0a3d62" />
<rect x="170" y="320" width="5" height="150" style="fill: #e55039" />
<rect x="185" y="-80" width="5" height="150" style="fill: #0a3d62" />
<rect x="185" y="80" width="5" height="150" style="fill: #e55039" />
<rect x="185" y="240" width="5" height="150" style="fill: #e55039" />
<rect x="200" y="-75" width="5" height="150" style="fill: #e55039" />
<rect x="200" y="85" width="5" height="150" style="fill: #e55039" />
<rect x="200" y="245" width="5" height="150" style="fill: #0a3d62" />
<rect x="215" y="-5" width="5" height="150" style="fill: #e55039" />
<rect x="215" y="155" width="5" height="150" style="fill: #0a3d62" />
<rect x="215" y="315" width="5" height="150" style="fill: #55efc4" />
<rect x="230" y="-145" width="5" height="150" style="fill: #0a3d62" />
<rect x="230" y="15" width="5" height="150" style="fill: #55efc4" />
<rect x="230" y="175" width="5" height="150" style="fill: #55efc4" />
<rect x="230" y="335" width="5" height="150" style="fill: #0a3d62" />
<rect x="245" y="-100" width="5" height="150" style="fill: #55efc4" />
<rect x="245" y="60" width="5" height="150" style="fill: #55efc4" />
<rect x="245" y="220" width="5" height="150" style="fill: #0a3d62" />
<rect x="245" y="380" width="5" height="150" style="fill: #0a3d62" />
<rect x="260" y="-50" width="5" height="150" style="fill: #55efc4" />
<rect x="260" y="110" width="5" height="150" style="fill: #0a3d62" />
<rect x="260" y="270" width="5" height="150" style="fill: #0a3d62" />
<rect x="275" y="-10" width="5" height="150" style="fill: #0a3d62" />
<rect x="275" y="150" width="5" height="150" style="fill: #0a3d62" />
<rect x="275" y="310" width="5" height="150" style="fill: #e55039" />
<rect x="290" y="-130" width="5" height="150" style="fill: #0a3d62" />
<rect x="290" y="30" width="5" height="150" style="fill: #e55039" />
<rect x="290" y="190" width="5" height="150" style="fill: #55efc4" />
<rect x="290" y="350" width="5" height="150" style="fill: #55efc4" />
<rect x="305" y="-120" width="5" height="150" style="fill: #e55039" />
<rect x="305" y="40" width="5" height="150" style="fill: #55efc4" />
<rect x="305" y="200" width="5" height="150" style="fill: #55efc4" />
<rect x="305" y="360" width="5" height="150" style="fill: #0a3d62" />
<rect x="320" y="-20" width="5" height="150" style="fill: #55efc4" />
<rect x="320" y="140" width="5" height="150" style="fill: #55efc4" />
<rect x="320" y="300" width="5" height="150" style="fill: #0a3d62" />
<rect x="335" y="0" width="5" height="150" style="fill: #55efc4" />
<rect x="335" y="160" width="5" height="150" style="fill: #0a3d62" />
<rect x="335" y="320" width="5" height="150" style="fill: #e55039" />
<rect x="350" y="-80" width="5" height="150" style="fill: #0a3d62" />
<rect x="350" y="80" width="5" height="150" style="fill: #e55039" />
<rect x="350" y="240" width="5" height="150" style="fill: #0a3d62" />
<rect x="365" y="-75" width="5" height="150" style="fill: #e55039" />
<rect x="365" y="85" width="5" height="150" style="fill: #0a3d62" />
<rect x="365" y="245" width="5" height="150" style="fill: #e55039" />
<rect x="380" y="-5" width="5" height="150" style="fill: #0a3d62" />
<rect x="380" y="155" width="5" height="150" style="fill: #e55039" />
<rect x="380" y="315" width="5" height="150" style="fill: #e55039" />
<rect x="395" y="-145" width="5" height="150" style="fill: #e55039" />
<rect x="395" y="15" width="5" height="150" style="fill: #e55039" />
<rect x="395" y="175" width="5" height="150" style="fill: #0a3d62" />
<rect x="395" y="335" width="5" height="150" style="fill: #55efc4" />
<rect x="410" y="-100" width="5" height="150" style="fill: #e55039" />
<rect x="410" y="60" width="5" height="150" style="fill: #0a3d62" />
<rect x="410" y="220" width="5" height="150" style="fill: #55efc4" />
<rect x="410" y="380" width="5" height="150" style="fill: #55efc4" />
<rect x="425" y="-50" width="5" height="150" style="fill: #0a3d62" />
<rect x="425" y="110" width="5" height="150" style="fill: #55efc4" />
<rect x="425" y="270" width="5" height="150" style="fill: #55efc4" />
<rect x="440" y="-10" width="5" height="150" style="fill: #55efc4" />
<rect x="440" y="150" width="5" height="150" style="fill: #55efc4" />
<rect x="440" y="310" width="5" height="150" style="fill: #0a3d62" />
<rect x="455" y="-130" width="5" height="150" style="fill: #55efc4" />
<rect x="455" y="30" width="5" height="150" style="fill: #0a3d62" />
<rect x="455" y="190" width="5" height="150" style="fill: #0a3d62" />
<rect x="455" y="350" width="5" height="150" style="fill: #e55039" />
<rect x="470" y="-120" width="5" height="150" style="fill: #0a3d62" />
<rect x="470" y="40" width="5" height="150" style="fill: #0a3d62" />
<rect x="470" y="200" width="5" height="150" style="fill: #e55039" />
<rect x="470" y="360" width="5" height="150" style="fill: #55efc4" />
<rect x="485" y="-20" width="5" height="150" style="fill: #0a3d62" />
<rect x="485" y="140" width="5" height="150" style="fill: #e55039" />
<rect x="485" y="300" width="5" height="150" style="fill: #55efc4" />
<rect x="500" y="0" width="5" height="150" style="fill: #e55039" />
<rect x="500" y="160" width="5" height="150" style="fill: #55efc4" />
<rect x="500" y="320" width="5" height="150" style="fill: #55efc4" />
<rect x="515" y="-80" width="5" height="150" style="fill: #55efc4" />
<rect x="515" y="80" width="5" height="150" style="fill: #55efc4" />
<rect x="515" y="240" width="5" height="150" style="fill: #0a3d62" />
<rect x="530" y="-75" width="5" height="150" style="fill: #55efc4" />
<rect x="530" y="85" width="5" height="150" style="fill: #0a3d62" />
<rect x="530" y="245" width="5" height="150" style="fill: #e55039" />
<rect x="545" y="-5" width="5" height="150" style="fill: #0a3d62" />
<rect x="545" y="155" width="5" height="150" style="fill: #e55039" />
<rect x="545" y="315" width="5" height="150" style="fill: #0a3d62" />
<rect x="560" y="-145" width="5" height="150" style="fill: #e55039" />
<rect x="560" y="15" width="5" height="150" style="fill: #0a3d62" />
<rect x="560" y="175" width="5" height="150" style="fill: #e55039" />
<rect x="560" y="335" width="5" height="150" style="fill: #e55039" />
<rect x="575" y="-100" width="5" height="150" style="fill: #0a3d62" />
<rect x="575" y="60" width="5" height="150" style="fill: #e55039" />
<rect x="575" y="220" width="5" height="150" style="fill: #e55039" />
<rect x="575" y="380" width="5" height="150" style="fill: #0a3d62" />
<rect x="590" y="-50" width="5" height="150" style="fill: #e55039" />
<rect x="590" y="110" width="5" height="150" style="fill: #e55039" />
<rect x="590" y="270" width="5" height="150" style="fill: #0a3d62" />
<rect x="605" y="-10" width="5" height="150" style="fill: #e55039" />
<rect x="605" y="150" width="5" height="150" style="fill: #0a3d62" />
<rect x="605" y="310" width="5" height="150" style="fill: #55efc4" />
<rect x="620" y="-130" width="5" height="150" style="fill: #0a3d62" />
<rect x="620" y="30" width="5" height="150" style="fill: #55efc4" />
<rect x="620" y="190" width="5" height="150" style="fill: #55efc4" />
<rect x="620" y="350" width="5" height="150" style="fill: #0a3d62" />
<rect x="635" y="-120" width="5" height="150" style="fill: #55efc4" />
<rect x="635" y="40" width="5" height="150" style="fill: #55efc4" />
<rect x="635" y="200" width="5" height="150" style="fill: #0a3d62" />
<rect x="635" y="360" width="5" height="150" style="fill: #0a3d62" />
<rect x="650" y="-20" width="5" height="150" style="fill: #55efc4" />
<rect x="650" y="140" width="5" height="150" style="fill: #0a3d62" />
<rect x="650" y="300" width="5" height="150" style="fill: #0a3d62" />
<rect x="665" y="0" width="5" height="150" style="fill: #0a3d62" />
<rect x="665" y="160" width="5" height="150" style="fill: #0a3d62" />
<rect x="665" y="320" width="5" height="150" style="fill: #e55039" />
<rect x="680" y="-80" width="5" height="150" style="fill: #0a3d62" />
<rect x="680" y="80" width="5" height="150" style="fill: #e55039" />
<rect x="680" y="240" width="5" height="150" style="fill: #55efc4" />
<rect x="695" y="-75" width="5" height="150" style="fill: #e55039" />
<rect x="695" y="85" width="5" height="150" style="fill: #55efc4" />
<rect x="695" y="245" width="5" height="150" style="fill: #55efc4" />
<rect x="710" y="-5" width="5" height="150" style="fill: #55efc4" />
<rect x="710" y="155" width="5" height="150" style="fill: #55efc4" />
<rect x="710" y="315" width="5" height="150" style="fill: #0a3d62" />
<rect x="725" y="-145" width="5" height="150" style="fill: #55efc4" />
<rect x="725" y="15" width="5" height="150" style="fill: #0a3d62" />
<rect x="725" y="175" width="5" height="150" style="fill: #e55039" />
<rect x="725" y="335" width="5" height="150" style="fill: #0a3d62" />
<rect x="740" y="-100" width="5" height="150" style="fill: #0a3d62" />
<rect x="740" y="60" width="5" height="150" style="fill: #e55039" />
<rect x="740" y="220" width="5" height="150" style="fill: #0a3d62" />
<rect x="740" y="380" width="5" height="150" style="fill: #e55039" />
<rect x="755" y="-50" width="5" height="150" style="fill: #e55039" />
<rect x="755" y="110" width="5" height="150" style="fill: #0a3d62" />
<rect x="755" y="270" width="5" height="150" style="fill: #e55039" />
<rect x="770" y="-10" width="5" height="150" style="fill: #0a3d62" />
<rect x="770" y="150" width="5" height="150" style="fill: #e55039" />
<rect x="770" y="310" width="5" height="150" style="fill: #e55039" />
<rect x="785" y="-130" width="5" height="150" style="fill: #e55039" />
<rect x="785" y="30" width="5" height="150" style="fill: #e55039" />
<rect x="785" y="190" width="5" height="150" style="fill: #0a3d62" />
<rect x="785" y="350" width="5" height="150" style="fill: #55efc4" />
<rect x="800" y="-120" width="5" height="150" style="fill: #e55039" />
<rect x="800" y="40" width="5" height="150" style="fill: #0a3d62" />
<rect x="800" y="200" width="5" height="150" style="fill: #55efc4" />
<rect x="800" y="360" width="5" height="150" style="fill: #55efc4" />
<rect x="815" y="-20" width="5" height="150" style="fill: #0a3d62" />
<rect x="815" y="140" width="5" height="150" style="fill: #55efc4" />
<rect x="815" y="300" width="5" height="150" style="fill: #55efc4" />
<rect x="830" y="0" width="5" height="150" style="fill: #55efc4" />
<rect x="830" y="160" width="5" height="150" style="fill: #55efc4" />
<rect x="830" y="320" width="5" height="150" style="fill: #0a3d62" />
<rect x="845" y="-80" width="5" height="150" style="fill: #55efc4" />
<rect x="845" y="80" width="5" height="150" style="fill: #0a3d62" />
<rect x="845" y="240" width="5" height="150" style="fill: #0a3d62" />
<rect x="860" y="-75" width="5" height="150" style="fill: #0a3d62" />
<rect x="860" y="85" width="5" height="150" style="fill: #0a3d62" />
<rect x="860" y="245" width="5" height="150" style="fill: #e55039" />
<rect x="875" y="-5" width="5" height="150" style="fill: #0a3d62" />
<rect x="875" y="155" width="5" height="150" style="fill: #e55039" />
<rect x="875" y="315" width="5" height="150" style="fill: #55efc4" />
<rect x="890" y="-145" width="5" height="150" style="fill: #e55039" />
<rect x="890" y="15" width="5" height="150" style="fill: #55efc4" />
<rect x="890" y="175" width="5" height="150" style="fill: #55efc4" />
<rect x="890" y="335" width="5" height="150" style="fill: #0a3d62" />
<rect x="905" y="-100" width="5" height="150" style="fill: #55efc4" />
<rect x="905" y="60" width="5" height="150" style="fill: #55efc4" />
<rect x="905" y="220" width="5" height="150" style="fill: #0a3d62" />
<rect x="905" y="380" width="5" height="150" style="fill: #e55039" />
<rect x="920" y="-50" width="5" height="150" style="fill: #55efc4" />
<rect x="920" y="110" width="5" height="150" style="fill: #0a3d62" />
<rect x="920" y="270" width="5" height="150" style="fill: #e55039" />
<rect x="935" y="-10" width="5" height="150" style="fill: #0a3d62" />
<rect x="935" y="150" width="5" height="150" style="fill: #e55039" />
<rect x="935" y="310" width="5" height="150" style="fill: #0a3d62" />
<rect x="950" y="-130" width="5" height="150" style="fill: #e55039" />
<rect x="950" y="30" width="5" height="150" style="fill: #0a3d62" />
<rect x="950" y="190" width="5" height="150" style="fill: #e55039" />
<rect x="950" y="350" width="5" height="150" style="fill: #e55039" />
<rect x="965" y="-120" width="5" height="150" style="fill: #0a3d62" />
<rect x="965" y="40" width="5" height="150" style="fill: #e55039" />
<rect x="965" y="200" width="5" height="150" style="fill: #e55039" />
<rect x="965" y="360" width="5" height="150" style="fill: #0a3d62" />
<rect x="980" y="-20" width="5" height="150" style="fill: #e55039" />
<rect x="980" y="140" width="5" height="150" style="fill: #e55039" />
<rect x="980" y="300" width="5" height="150" style="fill: #0a3d62" />
<rect x="995" y="0" width="5" height="150" style="fill: #e55039" />
<rect x="995" y="160" width="5" height="150" style="fill: #0a3d62" />
<rect x="995" y="320" width="5" height="150" style="fill: #55efc4" />
<rect x="1010" y="-80" width="5" height="150" style="fill: #0a3d62" />
<rect x="1010" y="80" width="5" height="150" style="fill: #55efc4" />
<rect x="1010" y="240" width="5" height="150" style="fill: #55efc4" />
<rect x="1025" y="-75" width="5" height="150" style="fill: #55efc4" />
<rect x="1025" y="85" width="5" height="150" style="fill: #55efc4" />
<rect x="1025" y="245" width="5" height="150" style="fill: #0a3d62" />
<rect x="1040" y="-5" width="5" height="150" style="fill: #55efc4" />
<rect x="1040" y="155" width="5" height="150" style="fill: #0a3d62" />
<rect x="1040" y="315" width="5" height="150" style="fill: #0a3d62" />
<rect x="1055" y="-145" width="5" height="150" style="fill: #0a3d62" />
<rect x="1055" y="15" width="5" height="150" style="fill: #0a3d62" />
<rect x="1055" y="175" width="5" height="150" style="fill: #e55039" />
<rect x="1055" y="335" width="5" height="150" style="fill: #55efc4" />
<rect x="1070" y="-100" width="5" height="150" style="fill: #0a3d62" />
<rect x="1070" y="60" width="5" height="150" style="fill: #e55039" />
<rect x="1070" y="220" width="5" height="150" style="fill: #55efc4" />
<rect x="1070" y="380" width="5" height="150" style="fill: #55efc4" />
<rect x="1085" y="-50" width="5" height="150" style="fill: #e55039" />
<rect x="1085" y="110" width="5" height="150" style="fill: #55efc4" />
<rect x="1085" y="270" width="5" height="150" style="fill: #55efc4" />
<rect x="1100" y="-10" width="5" height="150" style="fill: #55efc4" />
<rect x="1100" y="150" width="5" height="150" style="fill: #55efc4" />
<rect x="1100" y="310" width="5" height="150" style="fill: #0a3d62" />
<rect x="1115" y="-130" width="5" height="150" style="fill: #55efc4" />
<rect x="1115" y="30" width="5" height="150" style="fill: #0a3d62" />
<rect x="1115" y="190" width="5" height="150" style="fill: #e55039" />
<rect x="1115" y="350" width="5" height="150" style="fill: #0a3d62" />
<rect x="1130" y="-120" width="5" height="150" style="fill: #0a3d62" />
<rect x="1130" y="40" width="5" height="150" style="fill: #e55039" />
<rect x="1130" y="200" width="5" height="150" style="fill: #0a3d62" />
<rect x="1130" y="360" width="5" height="150" style="fill: #e55039" />
<rect x="1145" y="-20" width="5" height="150" style="fill: #e55039" />
<rect x="1145" y="140" width="5" height="150" style="fill: #0a3d62" />
<rect x="1145" y="300" width="5" height="150" style="fill: #e55039" />
<rect x="1160" y="0" width="5" height="150" style="fill: #0a3d62" />
<rect x="1160" y="160" width="5" height="150" style="fill: #e55039" />
<rect x="1160" y="320" width="5" height="150" style="fill: #e55039" />
<rect x="1175" y="-80" width="5" height="150" style="fill: #e55039" />
<rect x="1175" y="80" width="5" height="150" style="fill: #e55039" />
<rect x="1175" y="240" width="5" height="150" style="fill: #0a3d62" />
<rect x="1190" y="-75" width="5" height="150" style="fill: #e55039" />
<rect x="1190" y="85" width="5" height="150" style="fill: #0a3d62" />
<rect x="1190" y="245" width="5" height="150" style="fill: #55efc4" />
<rect x="1205" y="-5" width="5" height="150" style="fill: #0a3d62" />
<rect x="1205" y="155" width="5" height="150" style="fill: #55efc4" />
<rect x="1205" y="315" width="5" height="150" style="fill: #55efc4" />
<rect x="1220" y="-145" width="5" height="150" style="fill: #55efc4" />
<rect x="1220" y="15" width="5" height="150" style="fill: #55efc4" />
<rect x="1220" y="175" width="5" height="150" style="fill: #0a3d62" />
<rect x="1220" y="335" width="5" height="150" style="fill: #0a3d62" />
<rect x="1235" y="-100" width="5" height="150" style="fill: #55efc4" />
<rect x="1235" y="60" width="5" height="150" style="fill: #0a3d62" />
<rect x="1235" y="220" width="5" height="150" style="fill: #0a3d62" />
<rect x="1235" y="380" width="5" height="150" style="fill: #e55039" />
<rect x="1250" y="-50" width="5" height="150" style="fill: #0a3d62" />
<rect x="1250" y="110" width="5" height="150" style="fill: #0a3d62" />
<rect x="1250" y="270" width="5" height="150" style="fill: #e55039" />
<rect x="1265" y="-10" width="5" height="150" style="fill: #0a3d62" />
<rect x="1265" y="150" width="5" height="150" style="fill: #e55039" />
<rect x="1265" y="310" width="5" height="150" style="fill: #55efc4" />
<rect x="1280" y="-130" width="5" height="150" style="fill: #e55039" />
<rect x="1280" y="30" width="5" height="150" style="fill: #55efc4" />
<rect x="1280" y="190" width="5" height="150" style="fill: #55efc4" />
<rect x="1280" y="350" width="5" height="150" style="fill: #0a3d62" />
<rect x="1295" y="-120" width="5" height="150" style="fill: #55efc4" />
<rect x="1295" y="40" width="5" height="150" style="fill: #55efc4" />
<rect x="1295" y="200" width="5" height="150" style="fill: #0a3d62" />
<rect x="1295" y="360" width="5" height="150" style="fill: #e55039" />
<rect x="1310" y="-20" width="5" height="150" style="fill: #55efc4" />
<rect x="1310" y="140" width="5" height="150" style="fill: #0a3d62" />
<rect x="1310" y="300" width="5" height="150" style="fill: #e55039" />
<rect x="1325" y="0" width="5" height="150" style="fill: #0a3d62" />
<rect x="1325" y="160" width="5" height="150" style="fill: #e55039" />
<rect x="1325" y="320" width="5" height="150" style="fill: #0a3d62" />
<rect x="1340" y="-80" width="5" height="150" style="fill: #e55039" />
<rect x="1340" y="80" width="5" height="150" style="fill: #0a3d62" />
<rect x="1340" y="240" width="5" height="150" style="fill: #e55039" />
<rect x="1355" y="-75" width="5" height="150" style="fill: #0a3d62" />
<rect x="1355" y="85" width="5" height="150" style="fill: #e55039" />
<rect x="1355" y="245" width="5" height="150" style="fill: #e55039" />
<rect x="1370" y="-5" width="5" height="150" style="fill: #e55039" />
<rect x="1370" y="155" width="5" height="150" style="fill: #e55039" />
<rect x="1370" y="315" width="5" height="150" style="fill: #0a3d62" />
<rect x="1385" y="-145" width="5" height="150" style="fill: #e55039" />
<rect x="1385" y="15" width="5" height="150" style="fill: #0a3d62" />
<rect x="1385" y="175" width="5" height="150" style="fill: #55efc4" />
<rect x="1385" y="335" width="5" height="150" style="fill: #55efc4" />
<rect x="1400" y="-100" width="5" height="150" style="fill: #0a3d62" />
<rect x="1400" y="60" width="5" height="150" style="fill: #55efc4" />
<rect x="1400" y="220" width="5" height="150" style="fill: #55efc4" />
<rect x="1400" y="380" width="5" height="150" style="fill: #0a3d62" />
<rect x="1415" y="-50" width="5" height="150" style="fill: #55efc4" />
<rect x="1415" y="110" width="5" height="150" style="fill: #55efc4" />
<rect x="1415" y="270" width="5" height="150" style="fill: #0a3d62" />
<rect x="1430" y="-10" width="5" height="150" style="fill: #55efc4" />
<rect x="1430" y="150" width="5" height="150" style="fill: #0a3d62" />
<rect x="1430" y="310" width="5" height="150" style="fill: #0a3d62" />
<rect x="1445" y="-130" width="5" height="150" style="fill: #0a3d62" />
<rect x="1445" y="30" width="5" height="150" style="fill: #0a3d62" />
<rect x="1445" y="190" width="5" height="150" style="fill: #e55039" />
<rect x="1445" y="350" width="5" height="150" style="fill: #55efc4" />
<rect x="1460" y="-120" width="5" height="150" style="fill: #0a3d62" />
<rect x="1460" y="40" width="5" height="150" style="fill: #e55039" />
<rect x="1460" y="200" width="5" height="150" style="fill: #55efc4" />
<rect x="1460" y="360" width="5" height="150" style="fill: #55efc4" />
<rect x="1475" y="-20" width="5" height="150" style="fill: #e55039" />
<rect x="1475" y="140" width="5" height="150" style="fill: #55efc4" />
<rect x="1475" y="300" width="5" height="150" style="fill: #55efc4" />
<rect x="1490" y="0" width="5" height="150" style="fill: #55efc4" />
<rect x="1490" y="160" width="5" height="150" style="fill: #55efc4" />
<rect x="1490" y="320" width="5" height="150" style="fill: #0a3d62" />
<rect x="1505" y="-80" width="5" height="150" style="fill: #55efc4" />
<rect x="1505" y="80" width="5" height="150" style="fill: #0a3d62" />
<rect x="1505" y="240" width="5" height="150" style="fill: #e55039" />
<rect x="1520" y="-75" width="5" height="150" style="fill: #0a3d62" />
<rect x="1520" y="85" width="5" height="150" style="fill: #e55039" />
<rect x="1520" y="245" width="5" height="150" style="fill: #0a3d62" />
<rect x="1535" y="-5" width="5" height="150" style="fill: #e55039" />
<rect x="1535" y="155" width="5" height="150" style="fill: #0a3d62" />
<rect x="1535" y="315" width="5" height="150" style="fill: #e55039" />
<rect x="1550" y="-145" width="5" height="150" style="fill: #0a3d62" />
<rect x="1550" y="15" width="5" height="150" style="fill: #e55039" />
<rect x="1550" y="175" width="5" height="150" style="fill: #e55039" />
<rect x="1550" y="335" width="5" height="150" style="fill: #0a3d62" />
<rect x="1565" y="-100" width="5" height="150" style="fill: #e55039" />
<rect x="1565" y="60" width="5" height="150" style="fill: #e55039" />
<rect x="1565" y="220" width="5" height="150" style="fill: #0a3d62" />
<rect x="1565" y="380" width="5" height="150" style="fill: #55efc4" />
<rect x="1580" y="-50" width="5" height="150" style="fill: #e55039" />
<rect x="1580" y="110" width="5" height="150" style="fill: #0a3d62" />
<rect x="1580" y="270" width="5" height="150" style="fill: #55efc4" />
<rect x="1595" y="-10" width="5" height="150" style="fill: #0a3d62" />
<rect x="1595" y="150" width="5" height="150" style="fill: #55efc4" />
<rect x="1595" y="310" width="5" height="150" style="fill: #55efc4" />
<rect x="1610" y="-130" width="5" height="150" style="fill: #55efc4" />
<rect x="1610" y="30" width="5" height="150" style="fill: #55efc4" />
<rect x="1610" y="190" width="5" height="150" style="fill: #0a3d62" />
<rect x="1610" y="350" width="5" height="150" style="fill: #0a3d62" />
<rect x="1625" y="-120" width="5" height="150" style="fill: #55efc4" />
<rect x="1625" y="40" width="5" height="150" style="fill: #0a3d62" />
<rect x="1625" y="200" width="5" height="150" style="fill: #0a3d62" />
<rect x="1625" y="360" width="5" height="150" style="fill: #e55039" />
<rect x="1640" y="-20" width="5" height="150" style="fill: #0a3d62" />
<rect x="1640" y="140" width="5" height="150" style="fill: #0a3d62" />
<rect x="1640" y="300" width="5" height="150" style="fill: #e55039" />
<rect x="1655" y="0" width="5" height="150" style="fill: #0a3d62" />
<rect x="1655" y="160" width="5" height="150" style="fill: #e55039" />
<rect x="1655" y="320" width="5" height="150" style="fill: #55efc4" />
<rect x="1670" y="-80" width="5" height="150" style="fill: #e55039" />
<rect x="1670" y="80" width="5" height="150" style="fill: #55efc4" />
<rect x="1670" y="240" width="5" height="150" style="fill: #55efc4" />
<rect x="1685" y="-75" width="5" height="150" style="fill: #55efc4" />
<rect x="1685" y="85" width="5" height="150" style="fill: #55efc4" />
<rect x="1685" y="245" width="5" height="150" style="fill: #0a3d62" />
<rect x="1700" y="-5" width="5" height="150" style="fill: #55efc4" />
<rect x="1700" y="155" width="5" height="150" style="fill: #0a3d62" />
<rect x="1700" y="315" width="5" height="150" style="fill: #e55039" />
<rect x="1715" y="-145" width="5" height="150" style="fill: #0a3d62" />
<rect x="1715" y="15" width="5" height="150" style="fill: #e55039" />
<rect x="1715" y="175" width="5" height="150" style="fill: #0a3d62" />
<rect x="1715" y="335" width="5" height="150" style="fill: #e55039" />
<rect x="1730" y="-100" width="5" height="150" style="fill: #e55039" />
<rect x="1730" y="60" width="5" height="150" style="fill: #0a3d62" />
<rect x="1730" y="220" width="5" height="150" style="fill: #e55039" />
<rect x="1730" y="380" width="5" height="150" style="fill: #e55039" />
<rect x="1745" y="-50" width="5" height="150" style="fill: #0a3d62" />
<rect x="1745" y="110" width="5" height="150" style="fill: #e55039" />
<rect x="1745" y="270" width="5" height="150" style="fill: #e55039" />
<rect x="1760" y="-10" width="5" height="150" style="fill: #e55039" />
<rect x="1760" y="150" width="5" height="150" style="fill: #e55039" />
<rect x="1760" y="310" width="5" height="150" style="fill: #0a3d62" />
<rect x="1775" y="-130" width="5" height="150" style="fill: #e55039" />
<rect x="1775" y="30" width="5" height="150" style="fill: #0a3d62" />
<rect x="1775" y="190" width="5" height="150" style="fill: #55efc4" />
<rect x="1775" y="350" width="5" height="150" style="fill: #55efc4" />
<rect x="1790" y="-120" width="5" height="150" style="fill: #0a3d62" />
<rect x="1790" y="40" width="5" height="150" style="fill: #55efc4" />
<rect x="1790" y="200" width="5" height="150" style="fill: #55efc4" />
<rect x="1790" y="360" width="5" height="150" style="fill: #0a3d62" />
<rect x="1805" y="-20" width="5" height="150" style="fill: #55efc4" />
<rect x="1805" y="140" width="5" height="150" style="fill: #55efc4" />
<rect x="1805" y="300" width="5" height="150" style="fill: #0a3d62" />
<rect x="1820" y="0" width="5" height="150" style="fill: #55efc4" />
<rect x="1820" y="160" width="5" height="150" style="fill: #0a3d62" />
<rect x="1820" y="320" width="5" height="150" style="fill: #0a3d62" />
<rect x="1835" y="-80" width="5" height="150" style="fill: #0a3d62" />
<rect x="1835" y="80" width="5" height="150" style="fill: #0a3d62" />
<rect x="1835" y="240" width="5" height="150" style="fill: #e55039" />
<rect x="1850" y="-75" width="5" height="150" style="fill: #0a3d62" />
<rect x="1850" y="85" width="5" height="150" style="fill: #e55039" />
<rect x="1850" y="245" width="5" height="150" style="fill: #55efc4" />
<rect x="1865" y="-5" width="5" height="150" style="fill: #e55039" />
<rect x="1865" y="155" width="5" height="150" style="fill: #55efc4" />
<rect x="1865" y="315" width="5" height="150" style="fill: #55efc4" />
<rect x="1880" y="-145" width="5" height="150" style="fill: #55efc4" />
<rect x="1880" y="15" width="5" height="150" style="fill: #55efc4" />
<rect x="1880" y="175" width="5" height="150" style="fill: #0a3d62" />
<rect x="1880" y="335" width="5" height="150" style="fill: #e55039" />
<rect x="1895" y="-100" width="5" height="150" style="fill: #55efc4" />
<rect x="1895" y="60" width="5" height="150" style="fill: #0a3d62" />
<rect x="1895" y="220" width="5" height="150" style="fill: #e55039" />
<rect x="1895" y="380" width="5" height="150" style="fill: #0a3d62" />
<rect x="1910" y="-50" width="5" height="150" style="fill: #0a3d62" />
<rect x="1910" y="110" width="5" height="150" style="fill: #e55039" />
<rect x="1910" y="270" width="5" height="150" style="fill: #0a3d62" />
<rect x="1925" y="-10" width="5" height="150" style="fill: #e55039" />
<rect x="1925" y="150" width="5" height="150" style="fill: #0a3d62" />
<rect x="1925" y="310" width="5" height="150" style="fill: #e55039" />
<rect x="1940" y="-130" width="5" height="150" style="fill: #0a3d62" />
<rect x="1940" y="30" width="5" height="150" style="fill: #e55039" />
<rect x="1940" y="190" width="5" height="150" style="fill: #e55039" />
<rect x="1940" y="350" width="5" height="150" style="fill: #0a3d62" />
<rect x="1955" y="-120" width="5" height="150" style="fill: #e55039" />
<rect x="1955" y="40" width="5" height="150" style="fill: #e55039" />
<rect x="1955" y="200" width="5" height="150" style="fill: #0a3d62" />
<rect x="1955" y="360" width="5" height="150" style="fill: #55efc4" />
<rect x="1970" y="-20" width="5" height="150" style="fill: #e55039" />
<rect x="1970" y="140" width="5" height="150" style="fill: #0a3d62" />
<rect x="1970" y="300" width="5" height="150" style="fill: #55efc4" />
<rect x="1985" y="0" width="5" height="150" style="fill: #0a3d62" />
<rect x="1985" y="160" width="5" height="150" style="fill: #55efc4" />
<rect x="1985" y="320" width="5" height="150" style="fill: #55efc4" />
</svg>
