<?xml version="1.0"?>
<!-- Generated by SVGo -->
<svg width="500" height="500"
     xmlns="http://www.w3.org/2000/svg"
     xmlns:xlink="http://www.w3.org/1999/xlink">
<desc>Generated with https://github.com/marcelmue/konstrukt</desc>
<rect x="5" y="0" width="5" height="150" style="fill: #00a8ff" />
<rect x="5" y="160" width="5" height="150" style="fill: #00a8ff" />
<rect x="5" y="320" width="5" height="150" style="fill: #2f3640" />
<rect x="5" y="480" width="5" height="150" style="fill: #fbc531" />
<rect x="20" y="-80" width="5" height="150" style="fill: #00a8ff" />
<rect x="20" y="80" width="5" height="150" style="fill: #2f3640" />
<rect x="20" y="240" width="5" height="150" style="fill: #fbc531" />
<rect x="20" y="400" width="5" height="150" style="fill: #fbc531" />
<rect x="35" y="-75" width="5" height="150" style="fill: #2f3640" />
<rect x="35" y="85" width="5" height="150" style="fill: #fbc531" />
<rect x="35" y="245" width="5" height="150" style="fill: #fbc531" />
<rect x="35" y="405" width="5" height="150" style="fill: #2f3640" />
<rect x="50" y="-5" width="5" height="150" style="fill: #fbc531" />
<rect x="50" y="155" width="5" height="150" style="fill: #fbc531" />
<rect x="50" y="315" width="5" height="150" style="fill: #2f3640" />
<rect x="50" y="475" width="5" height="150" style="fill: #2f3640" />
<rect x="65" y="-145" width="5" height="150" style="fill: #fbc531" />
<rect x="65" y="15" width="5" height="150" style="fill: #2f3640" />
<rect x="65" y="175" width="5" height="150" style="fill: #2f3640" />
<rect x="65" y="335" width="5" height="150" style="fill: #00a8ff" />
<rect x="65" y="495" width="5" height="150" style="fill: #fbc531" />
<rect x="80" y="-100" width="5" height="150" style="fill: #2f3640" />
<rect x="80" y="60" width="5" height="150" style="fill: #2f3640" />
<rect x="80" y="220" width="5" height="150" style="fill: #00a8ff" />
<rect x="80" y="380" width="5" height="150" style="fill: #fbc531" />
<rect x="95" y="-50" width="5" height="150" style="fill: #2f3640" />
<rect x="95" y="110" width="5" height="150" style="fill: #00a8ff" />
<rect x="95" y="270" width="5" height="150" style="fill: #fbc531" />
<rect x="95" y="430" width="5" height="150" style="fill: #fbc531" />
<rect x="110" y="-10" width="5" height="150" style="fill: #00a8ff" />
<rect x="110" y="150" width="5" height="150" style="fill: #fbc531" />
<rect x="110" y="310" width="5" height="150" style="fill: #fbc531" />
<rect x="110" y="470" width="5" height="150" style="fill: #2f3640" />
<rect x="125" y="-130" width="5" height="150" style="fill: #fbc531" />
<rect x="125" y="30" width="5" height="150" style="fill: #fbc531" />
<rect x="125" y="190" width="5" height="150" style="fill: #2f3640" />
<rect x="125" y="350" width="5" height="150" style="fill: #00a8ff" />
<rect x="140" y="-120" width="5" height="150" style="fill: #fbc531" />
<rect x="140" y="40" width="5" height="150" style="fill: #2f3640" />
<rect x="140" y="200" width="5" height="150" style="fill: #00a8ff" />
<rect x="140" y="360" width="5" height="150" style="fill: #2f3640" />
<rect x="155" y="-20" width="5" height="150" style="fill: #2f3640" />
<rect x="155" y="140" width="5" height="150" style="fill: #00a8ff" />
<rect x="155" y="300" width="5" height="150" style="fill: #2f3640" />
<rect x="155" y="460" width="5" height="150" style="fill: #00a8ff" />
<rect x="170" y="0" width="5" height="150" style="fill: #00a8ff" />
<rect x="170" y="160" width="5" height="150" style="fill: #2f3640" />
<rect x="170" y="320" width="5" height="150" style="fill: #00a8ff" />
<rect x="170" y="480" width="5" height="150" style="fill: #00a8ff" />
<rect x="185" y="-80" width="5" height="150" style="fill: #2f3640" />
<rect x="185" y="80" width="5" height="150" style="fill: #00a8ff" />
<rect x="185" y="240" width="5" height="150" style="fill: #00a8ff" />
<rect x="185" y="400" width="5" height="150" style="fill: #2f3640" />
<rect x="200" y="-75" width="5" height="150" style="fill: #00a8ff" />
<rect x="200" y="85" width="5" height="150" style="fill: #00a8ff" />
<rect x="200" y="245" width="5" height="150" style="fill: #2f3640" />
<rect x="200" y="405" width="5" height="150" style="fill: #fbc531" />
<rect x="215" y="-5" width="5" height="150" style="fill: #00a8ff" />
<rect x="215" y="155" width="5" height="150" style="fill: #2f3640" />
<rect x="215" y="315" width="5" height="150" style="fill: #fbc531" />
<rect x="215" y="475" width="5" height="150" style="fill: #fbc531" />
<rect x="230" y="-145" width="5" height="150" style="fill: #2f3640" />
<rect x="230" y="15" width="5" height="150" style="fill: #fbc531" />
<rect x="230" y="175" width="5" height="150" style="fill: #fbc531" />
<rect x="230" y="335" width="5" height="150" style="fill: #2f3640" />
<rect x="230" y="495" width="5" height="150" style="fill: #2f3640" />
<rect x="245" y="-100" width="5" height="150" style="fill: #fbc531" />
<rect x="245" y="60" width="5" height="150" style="fill: #fbc531" />
<rect x="245" y="220" width="5" height="150" style="fill: #2f3640" />
<rect x="245" y="380" width="5" height="150" style="fill: #2f3640" />
<rect x="260" y="-50" width="5" height="150" style="fill: #fbc531" />
<rect x="260" y="110" width="5" height="150" style="fill: #2f3640" />
<rect x="260" y="270" width="5" height="150" style="fill: #2f3640" />
<rect x="260" y="430" width="5" height="150" style="fill: #00a8ff" />
<rect x="275" y="-10" width="5" height="150" style="fill: #2f3640" />
<rect x="275" y="150" width="5" height="150" style="fill: #2f3640" />
<rect x="275" y="310" width="5" height="150" style="fill: #00a8ff" />
<rect x="275" y="470" width="5" height="150" style="fill: #fbc531" />
<rect x="290" y="-130" width="5" height="150" style="fill: #2f3640" />
<rect x="290" y="30" width="5" height="150" style="fill: #00a8ff" />
<rect x="290" y="190" width="5" height="150" style="fill: #fbc531" />
<rect x="290" y="350" width="5" height="150" style="fill: #fbc531" />
<rect x="305" y="-120" width="5" height="150" style="fill: #00a8ff" />
<rect x="305" y="40" width="5" height="150" style="fill: #fbc531" />
<rect x="305" y="200" width="5" height="150" style="fill: #fbc531" />
<rect x="305" y="360" width="5" height="150" style="fill: #2f3640" />
<rect x="320" y="-20" width="5" height="150" style="fill: #fbc531" />
<rect x="320" y="140" width="5" height="150" style="fill: #fbc531" />
<rect x="320" y="300" width="5" height="150" style="fill: #2f3640" />
<rect x="320" y="460" width="5" height="150" style="fill: #00a8ff" />
<rect x="335" y="0" width="5" height="150" style="fill: #fbc531" />
<rect x="335" y="160" width="5" height="150" style="fill: #2f3640" />
<rect x="335" y="320" width="5" height="150" style="fill: #00a8ff" />
<rect x="335" y="480" width="5" height="150" style="fill: #2f3640" />
<rect x="350" y="-80" width="5" height="150" style="fill: #2f3640" />
<rect x="350" y="80" width="5" height="150" style="fill: #00a8ff" />
<rect x="350" y="240" width="5" height="150" style="fill: #2f3640" />
<rect x="350" y="400" width="5" height="150" style="fill: #00a8ff" />
<rect x="365" y="-75" width="5" height="150" style="fill: #00a8ff" />
<rect x="365" y="85" width="5" height="150" style="fill: #2f3640" />
<rect x="365" y="245" width="5" height="150" style="fill: #00a8ff" />
<rect x="365" y="405" width="5" height="150" style="fill: #00a8ff" />
<rect x="380" y="-5" width="5" height="150" style="fill: #2f3640" />
<rect x="380" y="155" width="5" height="150" style="fill: #00a8ff" />
<rect x="380" y="315" width="5" height="150" style="fill: #00a8ff" />
<rect x="380" y="475" width="5" height="150" style="fill: #2f3640" />
<rect x="395" y="-145" width="5" height="150" style="fill: #00a8ff" />
<rect x="395" y="15" width="5" height="150" style="fill: #00a8ff" />
<rect x="395" y="175" width="5" height="150" style="fill: #2f3640" />
<rect x="395" y="335" width="5" height="150" style="fill: #fbc531" />
<rect x="395" y="495" width="5" height="150" style="fill: #fbc531" />
<rect x="410" y="-100" width="5" height="150" style="fill: #00a8ff" />
<rect x="410" y="60" width="5" height="150" style="fill: #2f3640" />
<rect x="410" y="220" width="5" height="150" style="fill: #fbc531" />
<rect x="410" y="380" width="5" height="150" style="fill: #fbc531" />
<rect x="425" y="-50" width="5" height="150" style="fill: #2f3640" />
<rect x="425" y="110" width="5" height="150" style="fill: #fbc531" />
<rect x="425" y="270" width="5" height="150" style="fill: #fbc531" />
<rect x="425" y="430" width="5" height="150" style="fill: #2f3640" />
<rect x="440" y="-10" width="5" height="150" style="fill: #fbc531" />
<rect x="440" y="150" width="5" height="150" style="fill: #fbc531" />
<rect x="440" y="310" width="5" height="150" style="fill: #2f3640" />
<rect x="440" y="470" width="5" height="150" style="fill: #2f3640" />
<rect x="455" y="-130" width="5" height="150" style="fill: #fbc531" />
<rect x="455" y="30" width="5" height="150" style="fill: #2f3640" />
<rect x="455" y="190" width="5" height="150" style="fill: #2f3640" />
<rect x="455" y="350" width="5" height="150" style="fill: #00a8ff" />
<rect x="470" y="-120" width="5" height="150" style="fill: #2f3640" />
<rect x="470" y="40" width="5" height="150" style="fill: #2f3640" />
<rect x="470" y="200" width="5" height="150" style="fill: #00a8ff" />
<rect x="470" y="360" width="5" height="150" style="fill: #fbc531" />
<rect x="485" y="-20" width="5" height="150" style="fill: #2f3640" />
<rect x="485" y="140" width="5" height="150" style="fill: #00a8ff" />
<rect x="485" y="300" width="5" height="150" style="fill: #fbc531" />
<rect x="485" y="460" width="5" height="150" style="fill: #fbc531" />
</svg>
