<?xml version="1.0"?>
<!-- Generated by SVGo -->
<svg width="500" height="500"
     xmlns="http://www.w3.org/2000/svg"
     xmlns:xlink="http://www.w3.org/1999/xlink">
<desc>Generated with https://github.com/marcelmue/konstrukt</desc>
<rect x="0" y="0" width="500" height="500" style="fill:#f7f1e3" />
<defs>
<g id="unit">
<polygon points="0,20 20,0 100,80 60,120 40,100 60,80" />
</g>
<g id="runit">
<g transform="translate(40,160) rotate(180)">
<use x="0" y="0" xlink:href="#unit" />
</g>
</g>
</defs>
<use x="-160" y="-80" xlink:href="#unit" style="fill:#fed330" />
<use x="-160" y="-80" xlink:href="#runit" style="fill:#fed330" />
<use x="0" y="-80" xlink:href="#unit" style="fill:#fed330" />
<use x="0" y="-80" xlink:href="#runit" style="fill:#fed330" />
<use x="160" y="-80" xlink:href="#unit" style="fill:#fed330" />
<use x="160" y="-80" xlink:href="#runit" style="fill:#fed330" />
<use x="320" y="-80" xlink:href="#unit" style="fill:#fed330" />
<use x="320" y="-80" xlink:href="#runit" style="fill:#fed330" />
<use x="480" y="-80" xlink:href="#unit" style="fill:#fed330" />
<use x="480" y="-80" xlink:href="#runit" style="fill:#fed330" />
<use x="640" y="-80" xlink:href="#unit" style="fill:#fed330" />
<use x="640" y="-80" xlink:href="#runit" style="fill:#fed330" />
<use x="-160" y="0" xlink:href="#unit" style="fill:#0fb9b1" />
<use x="-160" y="0" xlink:href="#runit" style="fill:#0fb9b1" />
<use x="0" y="0" xlink:href="#unit" style="fill:#0fb9b1" />
<use x="0" y="0" xlink:href="#runit" style="fill:#0fb9b1" />
<use x="160" y="0" xlink:href="#unit" style="fill:#0fb9b1" />
<use x="160" y="0" xlink:href="#runit" style="fill:#0fb9b1" />
<use x="320" y="0" xlink:href="#unit" style="fill:#0fb9b1" />
<use x="320" y="0" xlink:href="#runit" style="fill:#0fb9b1" />
<use x="480" y="0" xlink:href="#unit" style="fill:#0fb9b1" />
<use x="480" y="0" xlink:href="#runit" style="fill:#0fb9b1" />
<use x="640" y="0" xlink:href="#unit" style="fill:#0fb9b1" />
<use x="640" y="0" xlink:href="#runit" style="fill:#0fb9b1" />
<use x="-160" y="80" xlink:href="#unit" style="fill:#fed330" />
<use x="-160" y="80" xlink:href="#runit" style="fill:#fed330" />
<use x="0" y="80" xlink:href="#unit" style="fill:#fed330" />
<use x="0" y="80" xlink:href="#runit" style="fill:#fed330" />
<use x="160" y="80" xlink:href="#unit" style="fill:#fed330" />
<use x="160" y="80" xlink:href="#runit" style="fill:#fed330" />
<use x="320" y="80" xlink:href="#unit" style="fill:#fed330" />
<use x="320" y="80" xlink:href="#runit" style="fill:#fed330" />
<use x="480" y="80" xlink:href="#unit" style="fill:#fed330" />
<use x="480" y="80" xlink:href="#runit" style="fill:#fed330" />
<use x="640" y="80" xlink:href="#unit" style="fill:#fed330" />
<use x="640" y="80" xlink:href="#runit" style="fill:#fed330" />
<use x="-160" y="160" xlink:href="#unit" style="fill:#0fb9b1" />
<use x="-160" y="160" xlink:href="#runit" style="fill:#0fb9b1" />
<use x="0" y="160" xlink:href="#unit" style="fill:#0fb9b1" />
<use x="0" y="160" xlink:href="#runit" style="fill:#0fb9b1" />
<use x="160" y="160" xlink:href="#unit" style="fill:#0fb9b1" />
<use x="160" y="160" xlink:href="#runit" style="fill:#0fb9b1" />
<use x="320" y="160" xlink:href="#unit" style="fill:#0fb9b1" />
<use x="320" y="160" xlink:href="#runit" style="fill:#0fb9b1" />
<use x="480" y="160" xlink:href="#unit" style="fill:#0fb9b1" />
<use x="480" y="160" xlink:href="#runit" style="fill:#0fb9b1" />
<use x="640" y="160" xlink:href="#unit" style="fill:#0fb9b1" />
<use x="640" y="160" xlink:href="#runit" style="fill:#0fb9b1" />
<use x="-160" y="240" xlink:href="#unit" style="fill:#fed330" />
<use x="-160" y="240" xlink:href="#runit" style="fill:#fed330" />
<use x="0" y="240" xlink:href="#unit" style="fill:#fed330" />
<use x="0" y="240" xlink:href="#runit" style="fill:#fed330" />
<use x="160" y="240" xlink:href="#unit" style="fill:#fed330" />
<use x="160" y="240" xlink:href="#runit" style="fill:#fed330" />
<use x="320" y="240" xlink:href="#unit" style="fill:#fed330" />
<use x="320" y="240" xlink:href="#runit" style="fill:#fed330" />
<use x="480" y="240" xlink:href="#unit" style="fill:#fed330" />
<use x="480" y="240" xlink:href="#runit" style="fill:#fed330" />
<use x="640" y="240" xlink:href="#unit" style="fill:#fed330" />
<use x="640" y="240" xlink:href="#runit" style="fill:#fed330" />
<use x="-160" y="320" xlink:href="#unit" style="fill:#0fb9b1" />
<use x="-160" y="320" xlink:href="#runit" style="fill:#0fb9b1" />
<use x="0" y="320" xlink:href="#unit" style="fill:#0fb9b1" />
<use x="0" y="320" xlink:href="#runit" style="fill:#0fb9b1" />
<use x="160" y="320" xlink:href="#unit" style="fill:#0fb9b1" />
<use x="160" y="320" xlink:href="#runit" style="fill:#0fb9b1" />
<use x="320" y="320" xlink:href="#unit" style="fill:#0fb9b1" />
<use x="320" y="320" xlink:href="#runit" style="fill:#0fb9b1" />
<use x="480" y="320" xlink:href="#unit" style="fill:#0fb9b1" />
<use x="480" y="320" xlink:href="#runit" style="fill:#0fb9b1" />
<use x="640" y="320" xlink:href="#unit" style="fill:#0fb9b1" />
<use x="640" y="320" xlink:href="#runit" style="fill:#0fb9b1" />
<use x="-160" y="400" xlink:href="#unit" style="fill:#fed330" />
<use x="-160" y="400" xlink:href="#runit" style="fill:#fed330" />
<use x="0" y="400" xlink:href="#unit" style="fill:#fed330" />
<use x="0" y="400" xlink:href="#runit" style="fill:#fed330" />
<use x="160" y="400" xlink:href="#unit" style="fill:#fed330" />
<use x="160" y="400" xlink:href="#runit" style="fill:#fed330" />
<use x="320" y="400" xlink:href="#unit" style="fill:#fed330" />
<use x="320" y="400" xlink:href="#runit" style="fill:#fed330" />
<use x="480" y="400" xlink:href="#unit" style="fill:#fed330" />
<use x="480" y="400" xlink:href="#runit" style="fill:#fed330" />
<use x="640" y="400" xlink:href="#unit" style="fill:#fed330" />
<use x="640" y="400" xlink:href="#runit" style="fill:#fed330" />
<use x="-160" y="480" xlink:href="#unit" style="fill:#0fb9b1" />
<use x="-160" y="480" xlink:href="#runit" style="fill:#0fb9b1" />
<use x="0" y="480" xlink:href="#unit" style="fill:#0fb9b1" />
<use x="0" y="480" xlink:href="#runit" style="fill:#0fb9b1" />
<use x="160" y="480" xlink:href="#unit" style="fill:#0fb9b1" />
<use x="160" y="480" xlink:href="#runit" style="fill:#0fb9b1" />
<use x="320" y="480" xlink:href="#unit" style="fill:#0fb9b1" />
<use x="320" y="480" xlink:href="#runit" style="fill:#0fb9b1" />
<use x="480" y="480" xlink:href="#unit" style="fill:#0fb9b1" />
<use x="480" y="480" xlink:href="#runit" style="fill:#0fb9b1" />
<use x="640" y="480" xlink:href="#unit" style="fill:#0fb9b1" />
<use x="640" y="480" xlink:href="#runit" style="fill:#0fb9b1" />
<use x="-160" y="560" xlink:href="#unit" style="fill:#fed330" />
<use x="-160" y="560" xlink:href="#runit" style="fill:#fed330" />
<use x="0" y="560" xlink:href="#unit" style="fill:#fed330" />
<use x="0" y="560" xlink:href="#runit" style="fill:#fed330" />
<use x="160" y="560" xlink:href="#unit" style="fill:#fed330" />
<use x="160" y="560" xlink:href="#runit" style="fill:#fed330" />
<use x="320" y="560" xlink:href="#unit" style="fill:#fed330" />
<use x="320" y="560" xlink:href="#runit" style="fill:#fed330" />
<use x="480" y="560" xlink:href="#unit" style="fill:#fed330" />
<use x="480" y="560" xlink:href="#runit" style="fill:#fed330" />
<use x="640" y="560" xlink:href="#unit" style="fill:#fed330" />
<use x="640" y="560" xlink:href="#runit" style="fill:#fed330" />
</svg>
