<?xml version="1.0"?>
<!-- Generated by SVGo -->
<svg width="2000" height="400"
     xmlns="http://www.w3.org/2000/svg"
     xmlns:xlink="http://www.w3.org/1999/xlink">
<desc>Generated with https://github.com/marcelmue/konstrukt</desc>
<rect x="0" y="0" width="2000" height="400" style="fill:#f7f1e3" />
<defs>
<g id="unit">
<polygon points="0,20 20,0 100,80 60,120 40,100 60,80" />
</g>
<g id="runit">
<g transform="translate(40,160) rotate(180)">
<use x="0" y="0" xlink:href="#unit" />
</g>
</g>
</defs>
<use x="-160" y="-80" xlink:href="#unit" style="fill:#fed330" />
<use x="-160" y="-80" xlink:href="#runit" style="fill:#fed330" />
<use x="0" y="-80" xlink:href="#unit" style="fill:#fed330" />
<use x="0" y="-80" xlink:href="#runit" style="fill:#fed330" />
<use x="160" y="-80" xlink:href="#unit" style="fill:#fed330" />
<use x="160" y="-80" xlink:href="#runit" style="fill:#fed330" />
<use x="320" y="-80" xlink:href="#unit" style="fill:#fed330" />
<use x="320" y="-80" xlink:href="#runit" style="fill:#fed330" />
<use x="480" y="-80" xlink:href="#unit" style="fill:#fed330" />
<use x="480" y="-80" xlink:href="#runit" style="fill:#fed330" />
<use x="640" y="-80" xlink:href="#unit" style="fill:#fed330" />
<use x="640" y="-80" xlink:href="#runit" style="fill:#fed330" />
<use x="800" y="-80" xlink:href="#unit" style="fill:#fed330" />
<use x="800" y="-80" xlink:href="#runit" style="fill:#fed330" />
<use x="960" y="-80" xlink:href="#unit" style="fill:#fed330" />
<use x="960" y="-80" xlink:href="#runit" style="fill:#fed330" />
<use x="1120" y="-80" xlink:href="#unit" style="fill:#fed330" />
<use x="1120" y="-80" xlink:href="#runit" style="fill:#fed330" />
<use x="1280" y="-80" xlink:href="#unit" style="fill:#fed330" />
<use x="1280" y="-80" xlink:href="#runit" style="fill:#fed330" />
<use x="1440" y="-80" xlink:href="#unit" style="fill:#fed330" />
<use x="1440" y="-80" xlink:href="#runit" style="fill:#fed330" />
<use x="1600" y="-80" xlink:href="#unit" style="fill:#fed330" />
<use x="1600" y="-80" xlink:href="#runit" style="fill:#fed330" />
<use x="1760" y="-80" xlink:href="#unit" style="fill:#fed330" />
<use x="1760" y="-80" xlink:href="#runit" style="fill:#fed330" />
<use x="1920" y="-80" xlink:href="#unit" style="fill:#fed330" />
<use x="1920" y="-80" xlink:href="#runit" style="fill:#fed330" />
<use x="2080" y="-80" xlink:href="#unit" style="fill:#fed330" />
<use x="2080" y="-80" xlink:href="#runit" style="fill:#fed330" />
<use x="-160" y="0" xlink:href="#unit" style="fill:#0fb9b1" />
<use x="-160" y="0" xlink:href="#runit" style="fill:#0fb9b1" />
<use x="0" y="0" xlink:href="#unit" style="fill:#0fb9b1" />
<use x="0" y="0" xlink:href="#runit" style="fill:#0fb9b1" />
<use x="160" y="0" xlink:href="#unit" style="fill:#0fb9b1" />
<use x="160" y="0" xlink:href="#runit" style="fill:#0fb9b1" />
<use x="320" y="0" xlink:href="#unit" style="fill:#0fb9b1" />
<use x="320" y="0" xlink:href="#runit" style="fill:#0fb9b1" />
<use x="480" y="0" xlink:href="#unit" style="fill:#0fb9b1" />
<use x="480" y="0" xlink:href="#runit" style="fill:#0fb9b1" />
<use x="640" y="0" xlink:href="#unit" style="fill:#0fb9b1" />
<use x="640" y="0" xlink:href="#runit" style="fill:#0fb9b1" />
<use x="800" y="0" xlink:href="#unit" style="fill:#0fb9b1" />
<use x="800" y="0" xlink:href="#runit" style="fill:#0fb9b1" />
<use x="960" y="0" xlink:href="#unit" style="fill:#0fb9b1" />
<use x="960" y="0" xlink:href="#runit" style="fill:#0fb9b1" />
<use x="1120" y="0" xlink:href="#unit" style="fill:#0fb9b1" />
<use x="1120" y="0" xlink:href="#runit" style="fill:#0fb9b1" />
<use x="1280" y="0" xlink:href="#unit" style="fill:#0fb9b1" />
<use x="1280" y="0" xlink:href="#runit" style="fill:#0fb9b1" />
<use x="1440" y="0" xlink:href="#unit" style="fill:#0fb9b1" />
<use x="1440" y="0" xlink:href="#runit" style="fill:#0fb9b1" />
<use x="1600" y="0" xlink:href="#unit" style="fill:#0fb9b1" />
<use x="1600" y="0" xlink:href="#runit" style="fill:#0fb9b1" />
<use x="1760" y="0" xlink:href="#unit" style="fill:#0fb9b1" />
<use x="1760" y="0" xlink:href="#runit" style="fill:#0fb9b1" />
<use x="1920" y="0" xlink:href="#unit" style="fill:#0fb9b1" />
<use x="1920" y="0" xlink:href="#runit" style="fill:#0fb9b1" />
<use x="2080" y="0" xlink:href="#unit" style="fill:#0fb9b1" />
<use x="2080" y="0" xlink:href="#runit" style="fill:#0fb9b1" />
<use x="-160" y="80" xlink:href="#unit" style="fill:#fed330" />
<use x="-160" y="80" xlink:href="#runit" style="fill:#fed330" />
<use x="0" y="80" xlink:href="#unit" style="fill:#fed330" />
<use x="0" y="80" xlink:href="#runit" style="fill:#fed330" />
<use x="160" y="80" xlink:href="#unit" style="fill:#fed330" />
<use x="160" y="80" xlink:href="#runit" style="fill:#fed330" />
<use x="320" y="80" xlink:href="#unit" style="fill:#fed330" />
<use x="320" y="80" xlink:href="#runit" style="fill:#fed330" />
<use x="480" y="80" xlink:href="#unit" style="fill:#fed330" />
<use x="480" y="80" xlink:href="#runit" style="fill:#fed330" />
<use x="640" y="80" xlink:href="#unit" style="fill:#fed330" />
<use x="640" y="80" xlink:href="#runit" style="fill:#fed330" />
<use x="800" y="80" xlink:href="#unit" style="fill:#fed330" />
<use x="800" y="80" xlink:href="#runit" style="fill:#fed330" />
<use x="960" y="80" xlink:href="#unit" style="fill:#fed330" />
<use x="960" y="80" xlink:href="#runit" style="fill:#fed330" />
<use x="1120" y="80" xlink:href="#unit" style="fill:#fed330" />
<use x="1120" y="80" xlink:href="#runit" style="fill:#fed330" />
<use x="1280" y="80" xlink:href="#unit" style="fill:#fed330" />
<use x="1280" y="80" xlink:href="#runit" style="fill:#fed330" />
<use x="1440" y="80" xlink:href="#unit" style="fill:#fed330" />
<use x="1440" y="80" xlink:href="#runit" style="fill:#fed330" />
<use x="1600" y="80" xlink:href="#unit" style="fill:#fed330" />
<use x="1600" y="80" xlink:href="#runit" style="fill:#fed330" />
<use x="1760" y="80" xlink:href="#unit" style="fill:#fed330" />
<use x="1760" y="80" xlink:href="#runit" style="fill:#fed330" />
<use x="1920" y="80" xlink:href="#unit" style="fill:#fed330" />
<use x="1920" y="80" xlink:href="#runit" style="fill:#fed330" />
<use x="2080" y="80" xlink:href="#unit" style="fill:#fed330" />
<use x="2080" y="80" xlink:href="#runit" style="fill:#fed330" />
<use x="-160" y="160" xlink:href="#unit" style="fill:#0fb9b1" />
<use x="-160" y="160" xlink:href="#runit" style="fill:#0fb9b1" />
<use x="0" y="160" xlink:href="#unit" style="fill:#0fb9b1" />
<use x="0" y="160" xlink:href="#runit" style="fill:#0fb9b1" />
<use x="160" y="160" xlink:href="#unit" style="fill:#0fb9b1" />
<use x="160" y="160" xlink:href="#runit" style="fill:#0fb9b1" />
<use x="320" y="160" xlink:href="#unit" style="fill:#0fb9b1" />
<use x="320" y="160" xlink:href="#runit" style="fill:#0fb9b1" />
<use x="480" y="160" xlink:href="#unit" style="fill:#0fb9b1" />
<use x="480" y="160" xlink:href="#runit" style="fill:#0fb9b1" />
<use x="640" y="160" xlink:href="#unit" style="fill:#0fb9b1" />
<use x="640" y="160" xlink:href="#runit" style="fill:#0fb9b1" />
<use x="800" y="160" xlink:href="#unit" style="fill:#0fb9b1" />
<use x="800" y="160" xlink:href="#runit" style="fill:#0fb9b1" />
<use x="960" y="160" xlink:href="#unit" style="fill:#0fb9b1" />
<use x="960" y="160" xlink:href="#runit" style="fill:#0fb9b1" />
<use x="1120" y="160" xlink:href="#unit" style="fill:#0fb9b1" />
<use x="1120" y="160" xlink:href="#runit" style="fill:#0fb9b1" />
<use x="1280" y="160" xlink:href="#unit" style="fill:#0fb9b1" />
<use x="1280" y="160" xlink:href="#runit" style="fill:#0fb9b1" />
<use x="1440" y="160" xlink:href="#unit" style="fill:#0fb9b1" />
<use x="1440" y="160" xlink:href="#runit" style="fill:#0fb9b1" />
<use x="1600" y="160" xlink:href="#unit" style="fill:#0fb9b1" />
<use x="1600" y="160" xlink:href="#runit" style="fill:#0fb9b1" />
<use x="1760" y="160" xlink:href="#unit" style="fill:#0fb9b1" />
<use x="1760" y="160" xlink:href="#runit" style="fill:#0fb9b1" />
<use x="1920" y="160" xlink:href="#unit" style="fill:#0fb9b1" />
<use x="1920" y="160" xlink:href="#runit" style="fill:#0fb9b1" />
<use x="2080" y="160" xlink:href="#unit" style="fill:#0fb9b1" />
<use x="2080" y="160" xlink:href="#runit" style="fill:#0fb9b1" />
<use x="-160" y="240" xlink:href="#unit" style="fill:#fed330" />
<use x="-160" y="240" xlink:href="#runit" style="fill:#fed330" />
<use x="0" y="240" xlink:href="#unit" style="fill:#fed330" />
<use x="0" y="240" xlink:href="#runit" style="fill:#fed330" />
<use x="160" y="240" xlink:href="#unit" style="fill:#fed330" />
<use x="160" y="240" xlink:href="#runit" style="fill:#fed330" />
<use x="320" y="240" xlink:href="#unit" style="fill:#fed330" />
<use x="320" y="240" xlink:href="#runit" style="fill:#fed330" />
<use x="480" y="240" xlink:href="#unit" style="fill:#fed330" />
<use x="480" y="240" xlink:href="#runit" style="fill:#fed330" />
<use x="640" y="240" xlink:href="#unit" style="fill:#fed330" />
<use x="640" y="240" xlink:href="#runit" style="fill:#fed330" />
<use x="800" y="240" xlink:href="#unit" style="fill:#fed330" />
<use x="800" y="240" xlink:href="#runit" style="fill:#fed330" />
<use x="960" y="240" xlink:href="#unit" style="fill:#fed330" />
<use x="960" y="240" xlink:href="#runit" style="fill:#fed330" />
<use x="1120" y="240" xlink:href="#unit" style="fill:#fed330" />
<use x="1120" y="240" xlink:href="#runit" style="fill:#fed330" />
<use x="1280" y="240" xlink:href="#unit" style="fill:#fed330" />
<use x="1280" y="240" xlink:href="#runit" style="fill:#fed330" />
<use x="1440" y="240" xlink:href="#unit" style="fill:#fed330" />
<use x="1440" y="240" xlink:href="#runit" style="fill:#fed330" />
<use x="1600" y="240" xlink:href="#unit" style="fill:#fed330" />
<use x="1600" y="240" xlink:href="#runit" style="fill:#fed330" />
<use x="1760" y="240" xlink:href="#unit" style="fill:#fed330" />
<use x="1760" y="240" xlink:href="#runit" style="fill:#fed330" />
<use x="1920" y="240" xlink:href="#unit" style="fill:#fed330" />
<use x="1920" y="240" xlink:href="#runit" style="fill:#fed330" />
<use x="2080" y="240" xlink:href="#unit" style="fill:#fed330" />
<use x="2080" y="240" xlink:href="#runit" style="fill:#fed330" />
<use x="-160" y="320" xlink:href="#unit" style="fill:#0fb9b1" />
<use x="-160" y="320" xlink:href="#runit" style="fill:#0fb9b1" />
<use x="0" y="320" xlink:href="#unit" style="fill:#0fb9b1" />
<use x="0" y="320" xlink:href="#runit" style="fill:#0fb9b1" />
<use x="160" y="320" xlink:href="#unit" style="fill:#0fb9b1" />
<use x="160" y="320" xlink:href="#runit" style="fill:#0fb9b1" />
<use x="320" y="320" xlink:href="#unit" style="fill:#0fb9b1" />
<use x="320" y="320" xlink:href="#runit" style="fill:#0fb9b1" />
<use x="480" y="320" xlink:href="#unit" style="fill:#0fb9b1" />
<use x="480" y="320" xlink:href="#runit" style="fill:#0fb9b1" />
<use x="640" y="320" xlink:href="#unit" style="fill:#0fb9b1" />
<use x="640" y="320" xlink:href="#runit" style="fill:#0fb9b1" />
<use x="800" y="320" xlink:href="#unit" style="fill:#0fb9b1" />
<use x="800" y="320" xlink:href="#runit" style="fill:#0fb9b1" />
<use x="960" y="320" xlink:href="#unit" style="fill:#0fb9b1" />
<use x="960" y="320" xlink:href="#runit" style="fill:#0fb9b1" />
<use x="1120" y="320" xlink:href="#unit" style="fill:#0fb9b1" />
<use x="1120" y="320" xlink:href="#runit" style="fill:#0fb9b1" />
<use x="1280" y="320" xlink:href="#unit" style="fill:#0fb9b1" />
<use x="1280" y="320" xlink:href="#runit" style="fill:#0fb9b1" />
<use x="1440" y="320" xlink:href="#unit" style="fill:#0fb9b1" />
<use x="1440" y="320" xlink:href="#runit" style="fill:#0fb9b1" />
<use x="1600" y="320" xlink:href="#unit" style="fill:#0fb9b1" />
<use x="1600" y="320" xlink:href="#runit" style="fill:#0fb9b1" />
<use x="1760" y="320" xlink:href="#unit" style="fill:#0fb9b1" />
<use x="1760" y="320" xlink:href="#runit" style="fill:#0fb9b1" />
<use x="1920" y="320" xlink:href="#unit" style="fill:#0fb9b1" />
<use x="1920" y="320" xlink:href="#runit" style="fill:#0fb9b1" />
<use x="2080" y="320" xlink:href="#unit" style="fill:#0fb9b1" />
<use x="2080" y="320" xlink:href="#runit" style="fill:#0fb9b1" />
<use x="-160" y="400" xlink:href="#unit" style="fill:#fed330" />
<use x="-160" y="400" xlink:href="#runit" style="fill:#fed330" />
<use x="0" y="400" xlink:href="#unit" style="fill:#fed330" />
<use x="0" y="400" xlink:href="#runit" style="fill:#fed330" />
<use x="160" y="400" xlink:href="#unit" style="fill:#fed330" />
<use x="160" y="400" xlink:href="#runit" style="fill:#fed330" />
<use x="320" y="400" xlink:href="#unit" style="fill:#fed330" />
<use x="320" y="400" xlink:href="#runit" style="fill:#fed330" />
<use x="480" y="400" xlink:href="#unit" style="fill:#fed330" />
<use x="480" y="400" xlink:href="#runit" style="fill:#fed330" />
<use x="640" y="400" xlink:href="#unit" style="fill:#fed330" />
<use x="640" y="400" xlink:href="#runit" style="fill:#fed330" />
<use x="800" y="400" xlink:href="#unit" style="fill:#fed330" />
<use x="800" y="400" xlink:href="#runit" style="fill:#fed330" />
<use x="960" y="400" xlink:href="#unit" style="fill:#fed330" />
<use x="960" y="400" xlink:href="#runit" style="fill:#fed330" />
<use x="1120" y="400" xlink:href="#unit" style="fill:#fed330" />
<use x="1120" y="400" xlink:href="#runit" style="fill:#fed330" />
<use x="1280" y="400" xlink:href="#unit" style="fill:#fed330" />
<use x="1280" y="400" xlink:href="#runit" style="fill:#fed330" />
<use x="1440" y="400" xlink:href="#unit" style="fill:#fed330" />
<use x="1440" y="400" xlink:href="#runit" style="fill:#fed330" />
<use x="1600" y="400" xlink:href="#unit" style="fill:#fed330" />
<use x="1600" y="400" xlink:href="#runit" style="fill:#fed330" />
<use x="1760" y="400" xlink:href="#unit" style="fill:#fed330" />
<use x="1760" y="400" xlink:href="#runit" style="fill:#fed330" />
<use x="1920" y="400" xlink:href="#unit" style="fill:#fed330" />
<use x="1920" y="400" xlink:href="#runit" style="fill:#fed330" />
<use x="2080" y="400" xlink:href="#unit" style="fill:#fed330" />
<use x="2080" y="400" xlink:href="#runit" style="fill:#fed330" />
</svg>
