<?xml version="1.0"?>
<!-- Generated by SVGo -->
<svg width="500" height="500"
     xmlns="http://www.w3.org/2000/svg"
     xmlns:xlink="http://www.w3.org/1999/xlink">
<desc>Generated with https://github.com/marcelmue/konstrukt</desc>
<defs>
<g id="unit">
<rect x="0" y="0" width="60" height="20" />
</g>
</defs>
<rect x="-60" y="-40" width="80" height="20" style="fill: #ffa502" />
<use x="-60" y="-40" xlink:href="#unit" style="fill:#ced6e0" />
<rect x="-40" y="-20" width="80" height="20" style="fill: #ced6e0" />
<use x="-40" y="-20" xlink:href="#unit" style="fill:#ffa502" />
<rect x="-20" y="0" width="80" height="20" style="fill: #ffa502" />
<use x="-20" y="0" xlink:href="#unit" style="fill:#ced6e0" />
<rect x="0" y="20" width="80" height="20" style="fill: #ced6e0" />
<use x="0" y="20" xlink:href="#unit" style="fill:#ffa502" />
<rect x="-60" y="40" width="80" height="20" style="fill: #ffa502" />
<use x="-60" y="40" xlink:href="#unit" style="fill:#ced6e0" />
<rect x="-40" y="60" width="80" height="20" style="fill: #ced6e0" />
<use x="-40" y="60" xlink:href="#unit" style="fill:#ffa502" />
<rect x="-20" y="80" width="80" height="20" style="fill: #ffa502" />
<use x="-20" y="80" xlink:href="#unit" style="fill:#ced6e0" />
<rect x="0" y="100" width="80" height="20" style="fill: #ced6e0" />
<use x="0" y="100" xlink:href="#unit" style="fill:#ffa502" />
<rect x="-60" y="120" width="80" height="20" style="fill: #ffa502" />
<use x="-60" y="120" xlink:href="#unit" style="fill:#ced6e0" />
<rect x="-40" y="140" width="80" height="20" style="fill: #ced6e0" />
<use x="-40" y="140" xlink:href="#unit" style="fill:#ffa502" />
<rect x="-20" y="160" width="80" height="20" style="fill: #ffa502" />
<use x="-20" y="160" xlink:href="#unit" style="fill:#ced6e0" />
<rect x="0" y="180" width="80" height="20" style="fill: #ced6e0" />
<use x="0" y="180" xlink:href="#unit" style="fill:#ffa502" />
<rect x="-60" y="200" width="80" height="20" style="fill: #ffa502" />
<use x="-60" y="200" xlink:href="#unit" style="fill:#ced6e0" />
<rect x="-40" y="220" width="80" height="20" style="fill: #ced6e0" />
<use x="-40" y="220" xlink:href="#unit" style="fill:#ffa502" />
<rect x="-20" y="240" width="80" height="20" style="fill: #ffa502" />
<use x="-20" y="240" xlink:href="#unit" style="fill:#ced6e0" />
<rect x="0" y="260" width="80" height="20" style="fill: #ced6e0" />
<use x="0" y="260" xlink:href="#unit" style="fill:#ffa502" />
<rect x="-60" y="280" width="80" height="20" style="fill: #ffa502" />
<use x="-60" y="280" xlink:href="#unit" style="fill:#ced6e0" />
<rect x="-40" y="300" width="80" height="20" style="fill: #ced6e0" />
<use x="-40" y="300" xlink:href="#unit" style="fill:#ffa502" />
<rect x="-20" y="320" width="80" height="20" style="fill: #ffa502" />
<use x="-20" y="320" xlink:href="#unit" style="fill:#ced6e0" />
<rect x="0" y="340" width="80" height="20" style="fill: #ced6e0" />
<use x="0" y="340" xlink:href="#unit" style="fill:#ffa502" />
<rect x="-60" y="360" width="80" height="20" style="fill: #ffa502" />
<use x="-60" y="360" xlink:href="#unit" style="fill:#ced6e0" />
<rect x="-40" y="380" width="80" height="20" style="fill: #ced6e0" />
<use x="-40" y="380" xlink:href="#unit" style="fill:#ffa502" />
<rect x="-20" y="400" width="80" height="20" style="fill: #ffa502" />
<use x="-20" y="400" xlink:href="#unit" style="fill:#ced6e0" />
<rect x="0" y="420" width="80" height="20" style="fill: #ced6e0" />
<use x="0" y="420" xlink:href="#unit" style="fill:#ffa502" />
<rect x="-60" y="440" width="80" height="20" style="fill: #ffa502" />
<use x="-60" y="440" xlink:href="#unit" style="fill:#ced6e0" />
<rect x="-40" y="460" width="80" height="20" style="fill: #ced6e0" />
<use x="-40" y="460" xlink:href="#unit" style="fill:#ffa502" />
<rect x="-20" y="480" width="80" height="20" style="fill: #ffa502" />
<use x="-20" y="480" xlink:href="#unit" style="fill:#ced6e0" />
<rect x="0" y="500" width="80" height="20" style="fill: #ced6e0" />
<use x="0" y="500" xlink:href="#unit" style="fill:#ffa502" />
<rect x="20" y="-40" width="80" height="20" style="fill: #ffa502" />
<use x="20" y="-40" xlink:href="#unit" style="fill:#ced6e0" />
<rect x="40" y="-20" width="80" height="20" style="fill: #ced6e0" />
<use x="40" y="-20" xlink:href="#unit" style="fill:#ffa502" />
<rect x="60" y="0" width="80" height="20" style="fill: #ffa502" />
<use x="60" y="0" xlink:href="#unit" style="fill:#ced6e0" />
<rect x="80" y="20" width="80" height="20" style="fill: #ced6e0" />
<use x="80" y="20" xlink:href="#unit" style="fill:#ffa502" />
<rect x="20" y="40" width="80" height="20" style="fill: #ffa502" />
<use x="20" y="40" xlink:href="#unit" style="fill:#ced6e0" />
<rect x="40" y="60" width="80" height="20" style="fill: #ced6e0" />
<use x="40" y="60" xlink:href="#unit" style="fill:#ffa502" />
<rect x="60" y="80" width="80" height="20" style="fill: #ffa502" />
<use x="60" y="80" xlink:href="#unit" style="fill:#ced6e0" />
<rect x="80" y="100" width="80" height="20" style="fill: #ced6e0" />
<use x="80" y="100" xlink:href="#unit" style="fill:#ffa502" />
<rect x="20" y="120" width="80" height="20" style="fill: #ffa502" />
<use x="20" y="120" xlink:href="#unit" style="fill:#ced6e0" />
<rect x="40" y="140" width="80" height="20" style="fill: #ced6e0" />
<use x="40" y="140" xlink:href="#unit" style="fill:#ffa502" />
<rect x="60" y="160" width="80" height="20" style="fill: #ffa502" />
<use x="60" y="160" xlink:href="#unit" style="fill:#ced6e0" />
<rect x="80" y="180" width="80" height="20" style="fill: #ced6e0" />
<use x="80" y="180" xlink:href="#unit" style="fill:#ffa502" />
<rect x="20" y="200" width="80" height="20" style="fill: #ffa502" />
<use x="20" y="200" xlink:href="#unit" style="fill:#ced6e0" />
<rect x="40" y="220" width="80" height="20" style="fill: #ced6e0" />
<use x="40" y="220" xlink:href="#unit" style="fill:#ffa502" />
<rect x="60" y="240" width="80" height="20" style="fill: #ffa502" />
<use x="60" y="240" xlink:href="#unit" style="fill:#ced6e0" />
<rect x="80" y="260" width="80" height="20" style="fill: #ced6e0" />
<use x="80" y="260" xlink:href="#unit" style="fill:#ffa502" />
<rect x="20" y="280" width="80" height="20" style="fill: #ffa502" />
<use x="20" y="280" xlink:href="#unit" style="fill:#ced6e0" />
<rect x="40" y="300" width="80" height="20" style="fill: #ced6e0" />
<use x="40" y="300" xlink:href="#unit" style="fill:#ffa502" />
<rect x="60" y="320" width="80" height="20" style="fill: #ffa502" />
<use x="60" y="320" xlink:href="#unit" style="fill:#ced6e0" />
<rect x="80" y="340" width="80" height="20" style="fill: #ced6e0" />
<use x="80" y="340" xlink:href="#unit" style="fill:#ffa502" />
<rect x="20" y="360" width="80" height="20" style="fill: #ffa502" />
<use x="20" y="360" xlink:href="#unit" style="fill:#ced6e0" />
<rect x="40" y="380" width="80" height="20" style="fill: #ced6e0" />
<use x="40" y="380" xlink:href="#unit" style="fill:#ffa502" />
<rect x="60" y="400" width="80" height="20" style="fill: #ffa502" />
<use x="60" y="400" xlink:href="#unit" style="fill:#ced6e0" />
<rect x="80" y="420" width="80" height="20" style="fill: #ced6e0" />
<use x="80" y="420" xlink:href="#unit" style="fill:#ffa502" />
<rect x="20" y="440" width="80" height="20" style="fill: #ffa502" />
<use x="20" y="440" xlink:href="#unit" style="fill:#ced6e0" />
<rect x="40" y="460" width="80" height="20" style="fill: #ced6e0" />
<use x="40" y="460" xlink:href="#unit" style="fill:#ffa502" />
<rect x="60" y="480" width="80" height="20" style="fill: #ffa502" />
<use x="60" y="480" xlink:href="#unit" style="fill:#ced6e0" />
<rect x="80" y="500" width="80" height="20" style="fill: #ced6e0" />
<use x="80" y="500" xlink:href="#unit" style="fill:#ffa502" />
<rect x="100" y="-40" width="80" height="20" style="fill: #ffa502" />
<use x="100" y="-40" xlink:href="#unit" style="fill:#ced6e0" />
<rect x="120" y="-20" width="80" height="20" style="fill: #ced6e0" />
<use x="120" y="-20" xlink:href="#unit" style="fill:#ffa502" />
<rect x="140" y="0" width="80" height="20" style="fill: #ffa502" />
<use x="140" y="0" xlink:href="#unit" style="fill:#ced6e0" />
<rect x="160" y="20" width="80" height="20" style="fill: #ced6e0" />
<use x="160" y="20" xlink:href="#unit" style="fill:#ffa502" />
<rect x="100" y="40" width="80" height="20" style="fill: #ffa502" />
<use x="100" y="40" xlink:href="#unit" style="fill:#ced6e0" />
<rect x="120" y="60" width="80" height="20" style="fill: #ced6e0" />
<use x="120" y="60" xlink:href="#unit" style="fill:#ffa502" />
<rect x="140" y="80" width="80" height="20" style="fill: #ffa502" />
<use x="140" y="80" xlink:href="#unit" style="fill:#ced6e0" />
<rect x="160" y="100" width="80" height="20" style="fill: #ced6e0" />
<use x="160" y="100" xlink:href="#unit" style="fill:#ffa502" />
<rect x="100" y="120" width="80" height="20" style="fill: #ffa502" />
<use x="100" y="120" xlink:href="#unit" style="fill:#ced6e0" />
<rect x="120" y="140" width="80" height="20" style="fill: #ced6e0" />
<use x="120" y="140" xlink:href="#unit" style="fill:#ffa502" />
<rect x="140" y="160" width="80" height="20" style="fill: #ffa502" />
<use x="140" y="160" xlink:href="#unit" style="fill:#ced6e0" />
<rect x="160" y="180" width="80" height="20" style="fill: #ced6e0" />
<use x="160" y="180" xlink:href="#unit" style="fill:#ffa502" />
<rect x="100" y="200" width="80" height="20" style="fill: #ffa502" />
<use x="100" y="200" xlink:href="#unit" style="fill:#ced6e0" />
<rect x="120" y="220" width="80" height="20" style="fill: #ced6e0" />
<use x="120" y="220" xlink:href="#unit" style="fill:#ffa502" />
<rect x="140" y="240" width="80" height="20" style="fill: #ffa502" />
<use x="140" y="240" xlink:href="#unit" style="fill:#ced6e0" />
<rect x="160" y="260" width="80" height="20" style="fill: #ced6e0" />
<use x="160" y="260" xlink:href="#unit" style="fill:#ffa502" />
<rect x="100" y="280" width="80" height="20" style="fill: #ffa502" />
<use x="100" y="280" xlink:href="#unit" style="fill:#ced6e0" />
<rect x="120" y="300" width="80" height="20" style="fill: #ced6e0" />
<use x="120" y="300" xlink:href="#unit" style="fill:#ffa502" />
<rect x="140" y="320" width="80" height="20" style="fill: #ffa502" />
<use x="140" y="320" xlink:href="#unit" style="fill:#ced6e0" />
<rect x="160" y="340" width="80" height="20" style="fill: #ced6e0" />
<use x="160" y="340" xlink:href="#unit" style="fill:#ffa502" />
<rect x="100" y="360" width="80" height="20" style="fill: #ffa502" />
<use x="100" y="360" xlink:href="#unit" style="fill:#ced6e0" />
<rect x="120" y="380" width="80" height="20" style="fill: #ced6e0" />
<use x="120" y="380" xlink:href="#unit" style="fill:#ffa502" />
<rect x="140" y="400" width="80" height="20" style="fill: #ffa502" />
<use x="140" y="400" xlink:href="#unit" style="fill:#ced6e0" />
<rect x="160" y="420" width="80" height="20" style="fill: #ced6e0" />
<use x="160" y="420" xlink:href="#unit" style="fill:#ffa502" />
<rect x="100" y="440" width="80" height="20" style="fill: #ffa502" />
<use x="100" y="440" xlink:href="#unit" style="fill:#ced6e0" />
<rect x="120" y="460" width="80" height="20" style="fill: #ced6e0" />
<use x="120" y="460" xlink:href="#unit" style="fill:#ffa502" />
<rect x="140" y="480" width="80" height="20" style="fill: #ffa502" />
<use x="140" y="480" xlink:href="#unit" style="fill:#ced6e0" />
<rect x="160" y="500" width="80" height="20" style="fill: #ced6e0" />
<use x="160" y="500" xlink:href="#unit" style="fill:#ffa502" />
<rect x="180" y="-40" width="80" height="20" style="fill: #ffa502" />
<use x="180" y="-40" xlink:href="#unit" style="fill:#ced6e0" />
<rect x="200" y="-20" width="80" height="20" style="fill: #ced6e0" />
<use x="200" y="-20" xlink:href="#unit" style="fill:#ffa502" />
<rect x="220" y="0" width="80" height="20" style="fill: #ffa502" />
<use x="220" y="0" xlink:href="#unit" style="fill:#ced6e0" />
<rect x="240" y="20" width="80" height="20" style="fill: #ced6e0" />
<use x="240" y="20" xlink:href="#unit" style="fill:#ffa502" />
<rect x="180" y="40" width="80" height="20" style="fill: #ffa502" />
<use x="180" y="40" xlink:href="#unit" style="fill:#ced6e0" />
<rect x="200" y="60" width="80" height="20" style="fill: #ced6e0" />
<use x="200" y="60" xlink:href="#unit" style="fill:#ffa502" />
<rect x="220" y="80" width="80" height="20" style="fill: #ffa502" />
<use x="220" y="80" xlink:href="#unit" style="fill:#ced6e0" />
<rect x="240" y="100" width="80" height="20" style="fill: #ced6e0" />
<use x="240" y="100" xlink:href="#unit" style="fill:#ffa502" />
<rect x="180" y="120" width="80" height="20" style="fill: #ffa502" />
<use x="180" y="120" xlink:href="#unit" style="fill:#ced6e0" />
<rect x="200" y="140" width="80" height="20" style="fill: #ced6e0" />
<use x="200" y="140" xlink:href="#unit" style="fill:#ffa502" />
<rect x="220" y="160" width="80" height="20" style="fill: #ffa502" />
<use x="220" y="160" xlink:href="#unit" style="fill:#ced6e0" />
<rect x="240" y="180" width="80" height="20" style="fill: #ced6e0" />
<use x="240" y="180" xlink:href="#unit" style="fill:#ffa502" />
<rect x="180" y="200" width="80" height="20" style="fill: #ffa502" />
<use x="180" y="200" xlink:href="#unit" style="fill:#ced6e0" />
<rect x="200" y="220" width="80" height="20" style="fill: #ced6e0" />
<use x="200" y="220" xlink:href="#unit" style="fill:#ffa502" />
<rect x="220" y="240" width="80" height="20" style="fill: #ffa502" />
<use x="220" y="240" xlink:href="#unit" style="fill:#ced6e0" />
<rect x="240" y="260" width="80" height="20" style="fill: #ced6e0" />
<use x="240" y="260" xlink:href="#unit" style="fill:#ffa502" />
<rect x="180" y="280" width="80" height="20" style="fill: #ffa502" />
<use x="180" y="280" xlink:href="#unit" style="fill:#ced6e0" />
<rect x="200" y="300" width="80" height="20" style="fill: #ced6e0" />
<use x="200" y="300" xlink:href="#unit" style="fill:#ffa502" />
<rect x="220" y="320" width="80" height="20" style="fill: #ffa502" />
<use x="220" y="320" xlink:href="#unit" style="fill:#ced6e0" />
<rect x="240" y="340" width="80" height="20" style="fill: #ced6e0" />
<use x="240" y="340" xlink:href="#unit" style="fill:#ffa502" />
<rect x="180" y="360" width="80" height="20" style="fill: #ffa502" />
<use x="180" y="360" xlink:href="#unit" style="fill:#ced6e0" />
<rect x="200" y="380" width="80" height="20" style="fill: #ced6e0" />
<use x="200" y="380" xlink:href="#unit" style="fill:#ffa502" />
<rect x="220" y="400" width="80" height="20" style="fill: #ffa502" />
<use x="220" y="400" xlink:href="#unit" style="fill:#ced6e0" />
<rect x="240" y="420" width="80" height="20" style="fill: #ced6e0" />
<use x="240" y="420" xlink:href="#unit" style="fill:#ffa502" />
<rect x="180" y="440" width="80" height="20" style="fill: #ffa502" />
<use x="180" y="440" xlink:href="#unit" style="fill:#ced6e0" />
<rect x="200" y="460" width="80" height="20" style="fill: #ced6e0" />
<use x="200" y="460" xlink:href="#unit" style="fill:#ffa502" />
<rect x="220" y="480" width="80" height="20" style="fill: #ffa502" />
<use x="220" y="480" xlink:href="#unit" style="fill:#ced6e0" />
<rect x="240" y="500" width="80" height="20" style="fill: #ced6e0" />
<use x="240" y="500" xlink:href="#unit" style="fill:#ffa502" />
<rect x="260" y="-40" width="80" height="20" style="fill: #ffa502" />
<use x="260" y="-40" xlink:href="#unit" style="fill:#ced6e0" />
<rect x="280" y="-20" width="80" height="20" style="fill: #ced6e0" />
<use x="280" y="-20" xlink:href="#unit" style="fill:#ffa502" />
<rect x="300" y="0" width="80" height="20" style="fill: #ffa502" />
<use x="300" y="0" xlink:href="#unit" style="fill:#ced6e0" />
<rect x="320" y="20" width="80" height="20" style="fill: #ced6e0" />
<use x="320" y="20" xlink:href="#unit" style="fill:#ffa502" />
<rect x="260" y="40" width="80" height="20" style="fill: #ffa502" />
<use x="260" y="40" xlink:href="#unit" style="fill:#ced6e0" />
<rect x="280" y="60" width="80" height="20" style="fill: #ced6e0" />
<use x="280" y="60" xlink:href="#unit" style="fill:#ffa502" />
<rect x="300" y="80" width="80" height="20" style="fill: #ffa502" />
<use x="300" y="80" xlink:href="#unit" style="fill:#ced6e0" />
<rect x="320" y="100" width="80" height="20" style="fill: #ced6e0" />
<use x="320" y="100" xlink:href="#unit" style="fill:#ffa502" />
<rect x="260" y="120" width="80" height="20" style="fill: #ffa502" />
<use x="260" y="120" xlink:href="#unit" style="fill:#ced6e0" />
<rect x="280" y="140" width="80" height="20" style="fill: #ced6e0" />
<use x="280" y="140" xlink:href="#unit" style="fill:#ffa502" />
<rect x="300" y="160" width="80" height="20" style="fill: #ffa502" />
<use x="300" y="160" xlink:href="#unit" style="fill:#ced6e0" />
<rect x="320" y="180" width="80" height="20" style="fill: #ced6e0" />
<use x="320" y="180" xlink:href="#unit" style="fill:#ffa502" />
<rect x="260" y="200" width="80" height="20" style="fill: #ffa502" />
<use x="260" y="200" xlink:href="#unit" style="fill:#ced6e0" />
<rect x="280" y="220" width="80" height="20" style="fill: #ced6e0" />
<use x="280" y="220" xlink:href="#unit" style="fill:#ffa502" />
<rect x="300" y="240" width="80" height="20" style="fill: #ffa502" />
<use x="300" y="240" xlink:href="#unit" style="fill:#ced6e0" />
<rect x="320" y="260" width="80" height="20" style="fill: #ced6e0" />
<use x="320" y="260" xlink:href="#unit" style="fill:#ffa502" />
<rect x="260" y="280" width="80" height="20" style="fill: #ffa502" />
<use x="260" y="280" xlink:href="#unit" style="fill:#ced6e0" />
<rect x="280" y="300" width="80" height="20" style="fill: #ced6e0" />
<use x="280" y="300" xlink:href="#unit" style="fill:#ffa502" />
<rect x="300" y="320" width="80" height="20" style="fill: #ffa502" />
<use x="300" y="320" xlink:href="#unit" style="fill:#ced6e0" />
<rect x="320" y="340" width="80" height="20" style="fill: #ced6e0" />
<use x="320" y="340" xlink:href="#unit" style="fill:#ffa502" />
<rect x="260" y="360" width="80" height="20" style="fill: #ffa502" />
<use x="260" y="360" xlink:href="#unit" style="fill:#ced6e0" />
<rect x="280" y="380" width="80" height="20" style="fill: #ced6e0" />
<use x="280" y="380" xlink:href="#unit" style="fill:#ffa502" />
<rect x="300" y="400" width="80" height="20" style="fill: #ffa502" />
<use x="300" y="400" xlink:href="#unit" style="fill:#ced6e0" />
<rect x="320" y="420" width="80" height="20" style="fill: #ced6e0" />
<use x="320" y="420" xlink:href="#unit" style="fill:#ffa502" />
<rect x="260" y="440" width="80" height="20" style="fill: #ffa502" />
<use x="260" y="440" xlink:href="#unit" style="fill:#ced6e0" />
<rect x="280" y="460" width="80" height="20" style="fill: #ced6e0" />
<use x="280" y="460" xlink:href="#unit" style="fill:#ffa502" />
<rect x="300" y="480" width="80" height="20" style="fill: #ffa502" />
<use x="300" y="480" xlink:href="#unit" style="fill:#ced6e0" />
<rect x="320" y="500" width="80" height="20" style="fill: #ced6e0" />
<use x="320" y="500" xlink:href="#unit" style="fill:#ffa502" />
<rect x="340" y="-40" width="80" height="20" style="fill: #ffa502" />
<use x="340" y="-40" xlink:href="#unit" style="fill:#ced6e0" />
<rect x="360" y="-20" width="80" height="20" style="fill: #ced6e0" />
<use x="360" y="-20" xlink:href="#unit" style="fill:#ffa502" />
<rect x="380" y="0" width="80" height="20" style="fill: #ffa502" />
<use x="380" y="0" xlink:href="#unit" style="fill:#ced6e0" />
<rect x="400" y="20" width="80" height="20" style="fill: #ced6e0" />
<use x="400" y="20" xlink:href="#unit" style="fill:#ffa502" />
<rect x="340" y="40" width="80" height="20" style="fill: #ffa502" />
<use x="340" y="40" xlink:href="#unit" style="fill:#ced6e0" />
<rect x="360" y="60" width="80" height="20" style="fill: #ced6e0" />
<use x="360" y="60" xlink:href="#unit" style="fill:#ffa502" />
<rect x="380" y="80" width="80" height="20" style="fill: #ffa502" />
<use x="380" y="80" xlink:href="#unit" style="fill:#ced6e0" />
<rect x="400" y="100" width="80" height="20" style="fill: #ced6e0" />
<use x="400" y="100" xlink:href="#unit" style="fill:#ffa502" />
<rect x="340" y="120" width="80" height="20" style="fill: #ffa502" />
<use x="340" y="120" xlink:href="#unit" style="fill:#ced6e0" />
<rect x="360" y="140" width="80" height="20" style="fill: #ced6e0" />
<use x="360" y="140" xlink:href="#unit" style="fill:#ffa502" />
<rect x="380" y="160" width="80" height="20" style="fill: #ffa502" />
<use x="380" y="160" xlink:href="#unit" style="fill:#ced6e0" />
<rect x="400" y="180" width="80" height="20" style="fill: #ced6e0" />
<use x="400" y="180" xlink:href="#unit" style="fill:#ffa502" />
<rect x="340" y="200" width="80" height="20" style="fill: #ffa502" />
<use x="340" y="200" xlink:href="#unit" style="fill:#ced6e0" />
<rect x="360" y="220" width="80" height="20" style="fill: #ced6e0" />
<use x="360" y="220" xlink:href="#unit" style="fill:#ffa502" />
<rect x="380" y="240" width="80" height="20" style="fill: #ffa502" />
<use x="380" y="240" xlink:href="#unit" style="fill:#ced6e0" />
<rect x="400" y="260" width="80" height="20" style="fill: #ced6e0" />
<use x="400" y="260" xlink:href="#unit" style="fill:#ffa502" />
<rect x="340" y="280" width="80" height="20" style="fill: #ffa502" />
<use x="340" y="280" xlink:href="#unit" style="fill:#ced6e0" />
<rect x="360" y="300" width="80" height="20" style="fill: #ced6e0" />
<use x="360" y="300" xlink:href="#unit" style="fill:#ffa502" />
<rect x="380" y="320" width="80" height="20" style="fill: #ffa502" />
<use x="380" y="320" xlink:href="#unit" style="fill:#ced6e0" />
<rect x="400" y="340" width="80" height="20" style="fill: #ced6e0" />
<use x="400" y="340" xlink:href="#unit" style="fill:#ffa502" />
<rect x="340" y="360" width="80" height="20" style="fill: #ffa502" />
<use x="340" y="360" xlink:href="#unit" style="fill:#ced6e0" />
<rect x="360" y="380" width="80" height="20" style="fill: #ced6e0" />
<use x="360" y="380" xlink:href="#unit" style="fill:#ffa502" />
<rect x="380" y="400" width="80" height="20" style="fill: #ffa502" />
<use x="380" y="400" xlink:href="#unit" style="fill:#ced6e0" />
<rect x="400" y="420" width="80" height="20" style="fill: #ced6e0" />
<use x="400" y="420" xlink:href="#unit" style="fill:#ffa502" />
<rect x="340" y="440" width="80" height="20" style="fill: #ffa502" />
<use x="340" y="440" xlink:href="#unit" style="fill:#ced6e0" />
<rect x="360" y="460" width="80" height="20" style="fill: #ced6e0" />
<use x="360" y="460" xlink:href="#unit" style="fill:#ffa502" />
<rect x="380" y="480" width="80" height="20" style="fill: #ffa502" />
<use x="380" y="480" xlink:href="#unit" style="fill:#ced6e0" />
<rect x="400" y="500" width="80" height="20" style="fill: #ced6e0" />
<use x="400" y="500" xlink:href="#unit" style="fill:#ffa502" />
<rect x="420" y="-40" width="80" height="20" style="fill: #ffa502" />
<use x="420" y="-40" xlink:href="#unit" style="fill:#ced6e0" />
<rect x="440" y="-20" width="80" height="20" style="fill: #ced6e0" />
<use x="440" y="-20" xlink:href="#unit" style="fill:#ffa502" />
<rect x="460" y="0" width="80" height="20" style="fill: #ffa502" />
<use x="460" y="0" xlink:href="#unit" style="fill:#ced6e0" />
<rect x="480" y="20" width="80" height="20" style="fill: #ced6e0" />
<use x="480" y="20" xlink:href="#unit" style="fill:#ffa502" />
<rect x="420" y="40" width="80" height="20" style="fill: #ffa502" />
<use x="420" y="40" xlink:href="#unit" style="fill:#ced6e0" />
<rect x="440" y="60" width="80" height="20" style="fill: #ced6e0" />
<use x="440" y="60" xlink:href="#unit" style="fill:#ffa502" />
<rect x="460" y="80" width="80" height="20" style="fill: #ffa502" />
<use x="460" y="80" xlink:href="#unit" style="fill:#ced6e0" />
<rect x="480" y="100" width="80" height="20" style="fill: #ced6e0" />
<use x="480" y="100" xlink:href="#unit" style="fill:#ffa502" />
<rect x="420" y="120" width="80" height="20" style="fill: #ffa502" />
<use x="420" y="120" xlink:href="#unit" style="fill:#ced6e0" />
<rect x="440" y="140" width="80" height="20" style="fill: #ced6e0" />
<use x="440" y="140" xlink:href="#unit" style="fill:#ffa502" />
<rect x="460" y="160" width="80" height="20" style="fill: #ffa502" />
<use x="460" y="160" xlink:href="#unit" style="fill:#ced6e0" />
<rect x="480" y="180" width="80" height="20" style="fill: #ced6e0" />
<use x="480" y="180" xlink:href="#unit" style="fill:#ffa502" />
<rect x="420" y="200" width="80" height="20" style="fill: #ffa502" />
<use x="420" y="200" xlink:href="#unit" style="fill:#ced6e0" />
<rect x="440" y="220" width="80" height="20" style="fill: #ced6e0" />
<use x="440" y="220" xlink:href="#unit" style="fill:#ffa502" />
<rect x="460" y="240" width="80" height="20" style="fill: #ffa502" />
<use x="460" y="240" xlink:href="#unit" style="fill:#ced6e0" />
<rect x="480" y="260" width="80" height="20" style="fill: #ced6e0" />
<use x="480" y="260" xlink:href="#unit" style="fill:#ffa502" />
<rect x="420" y="280" width="80" height="20" style="fill: #ffa502" />
<use x="420" y="280" xlink:href="#unit" style="fill:#ced6e0" />
<rect x="440" y="300" width="80" height="20" style="fill: #ced6e0" />
<use x="440" y="300" xlink:href="#unit" style="fill:#ffa502" />
<rect x="460" y="320" width="80" height="20" style="fill: #ffa502" />
<use x="460" y="320" xlink:href="#unit" style="fill:#ced6e0" />
<rect x="480" y="340" width="80" height="20" style="fill: #ced6e0" />
<use x="480" y="340" xlink:href="#unit" style="fill:#ffa502" />
<rect x="420" y="360" width="80" height="20" style="fill: #ffa502" />
<use x="420" y="360" xlink:href="#unit" style="fill:#ced6e0" />
<rect x="440" y="380" width="80" height="20" style="fill: #ced6e0" />
<use x="440" y="380" xlink:href="#unit" style="fill:#ffa502" />
<rect x="460" y="400" width="80" height="20" style="fill: #ffa502" />
<use x="460" y="400" xlink:href="#unit" style="fill:#ced6e0" />
<rect x="480" y="420" width="80" height="20" style="fill: #ced6e0" />
<use x="480" y="420" xlink:href="#unit" style="fill:#ffa502" />
<rect x="420" y="440" width="80" height="20" style="fill: #ffa502" />
<use x="420" y="440" xlink:href="#unit" style="fill:#ced6e0" />
<rect x="440" y="460" width="80" height="20" style="fill: #ced6e0" />
<use x="440" y="460" xlink:href="#unit" style="fill:#ffa502" />
<rect x="460" y="480" width="80" height="20" style="fill: #ffa502" />
<use x="460" y="480" xlink:href="#unit" style="fill:#ced6e0" />
<rect x="480" y="500" width="80" height="20" style="fill: #ced6e0" />
<use x="480" y="500" xlink:href="#unit" style="fill:#ffa502" />
<rect x="500" y="-40" width="80" height="20" style="fill: #ffa502" />
<use x="500" y="-40" xlink:href="#unit" style="fill:#ced6e0" />
<rect x="520" y="-20" width="80" height="20" style="fill: #ced6e0" />
<use x="520" y="-20" xlink:href="#unit" style="fill:#ffa502" />
<rect x="540" y="0" width="80" height="20" style="fill: #ffa502" />
<use x="540" y="0" xlink:href="#unit" style="fill:#ced6e0" />
<rect x="560" y="20" width="80" height="20" style="fill: #ced6e0" />
<use x="560" y="20" xlink:href="#unit" style="fill:#ffa502" />
<rect x="500" y="40" width="80" height="20" style="fill: #ffa502" />
<use x="500" y="40" xlink:href="#unit" style="fill:#ced6e0" />
<rect x="520" y="60" width="80" height="20" style="fill: #ced6e0" />
<use x="520" y="60" xlink:href="#unit" style="fill:#ffa502" />
<rect x="540" y="80" width="80" height="20" style="fill: #ffa502" />
<use x="540" y="80" xlink:href="#unit" style="fill:#ced6e0" />
<rect x="560" y="100" width="80" height="20" style="fill: #ced6e0" />
<use x="560" y="100" xlink:href="#unit" style="fill:#ffa502" />
<rect x="500" y="120" width="80" height="20" style="fill: #ffa502" />
<use x="500" y="120" xlink:href="#unit" style="fill:#ced6e0" />
<rect x="520" y="140" width="80" height="20" style="fill: #ced6e0" />
<use x="520" y="140" xlink:href="#unit" style="fill:#ffa502" />
<rect x="540" y="160" width="80" height="20" style="fill: #ffa502" />
<use x="540" y="160" xlink:href="#unit" style="fill:#ced6e0" />
<rect x="560" y="180" width="80" height="20" style="fill: #ced6e0" />
<use x="560" y="180" xlink:href="#unit" style="fill:#ffa502" />
<rect x="500" y="200" width="80" height="20" style="fill: #ffa502" />
<use x="500" y="200" xlink:href="#unit" style="fill:#ced6e0" />
<rect x="520" y="220" width="80" height="20" style="fill: #ced6e0" />
<use x="520" y="220" xlink:href="#unit" style="fill:#ffa502" />
<rect x="540" y="240" width="80" height="20" style="fill: #ffa502" />
<use x="540" y="240" xlink:href="#unit" style="fill:#ced6e0" />
<rect x="560" y="260" width="80" height="20" style="fill: #ced6e0" />
<use x="560" y="260" xlink:href="#unit" style="fill:#ffa502" />
<rect x="500" y="280" width="80" height="20" style="fill: #ffa502" />
<use x="500" y="280" xlink:href="#unit" style="fill:#ced6e0" />
<rect x="520" y="300" width="80" height="20" style="fill: #ced6e0" />
<use x="520" y="300" xlink:href="#unit" style="fill:#ffa502" />
<rect x="540" y="320" width="80" height="20" style="fill: #ffa502" />
<use x="540" y="320" xlink:href="#unit" style="fill:#ced6e0" />
<rect x="560" y="340" width="80" height="20" style="fill: #ced6e0" />
<use x="560" y="340" xlink:href="#unit" style="fill:#ffa502" />
<rect x="500" y="360" width="80" height="20" style="fill: #ffa502" />
<use x="500" y="360" xlink:href="#unit" style="fill:#ced6e0" />
<rect x="520" y="380" width="80" height="20" style="fill: #ced6e0" />
<use x="520" y="380" xlink:href="#unit" style="fill:#ffa502" />
<rect x="540" y="400" width="80" height="20" style="fill: #ffa502" />
<use x="540" y="400" xlink:href="#unit" style="fill:#ced6e0" />
<rect x="560" y="420" width="80" height="20" style="fill: #ced6e0" />
<use x="560" y="420" xlink:href="#unit" style="fill:#ffa502" />
<rect x="500" y="440" width="80" height="20" style="fill: #ffa502" />
<use x="500" y="440" xlink:href="#unit" style="fill:#ced6e0" />
<rect x="520" y="460" width="80" height="20" style="fill: #ced6e0" />
<use x="520" y="460" xlink:href="#unit" style="fill:#ffa502" />
<rect x="540" y="480" width="80" height="20" style="fill: #ffa502" />
<use x="540" y="480" xlink:href="#unit" style="fill:#ced6e0" />
<rect x="560" y="500" width="80" height="20" style="fill: #ced6e0" />
<use x="560" y="500" xlink:href="#unit" style="fill:#ffa502" />
</svg>
