<?xml version="1.0"?>
<!-- Generated by SVGo -->
<svg width="500" height="500"
     xmlns="http://www.w3.org/2000/svg"
     xmlns:xlink="http://www.w3.org/1999/xlink">
<desc>Generated with https://github.com/marcelmue/konstrukt</desc>
<rect x="0" y="0" width="500" height="500" style="fill:#ffffff" />
<defs>
<g id="unit1">
<polygon points="50,50 70,50 80,30 60,30" />
</g>
<g id="unit2">
<polygon points="45,30 80,30 85,20 70,20 80,0 60,0" />
</g>
</defs>
<use x="-45" y="0" xlink:href="#unit1" style="fill:#130f40" />
<use x="-45" y="0" xlink:href="#unit2" style="fill:#22a6b3" />
<use x="-45" y="60" xlink:href="#unit1" style="fill:#130f40" />
<use x="-45" y="60" xlink:href="#unit2" style="fill:#22a6b3" />
<use x="-45" y="120" xlink:href="#unit1" style="fill:#130f40" />
<use x="-45" y="120" xlink:href="#unit2" style="fill:#22a6b3" />
<use x="-45" y="180" xlink:href="#unit1" style="fill:#130f40" />
<use x="-45" y="180" xlink:href="#unit2" style="fill:#22a6b3" />
<use x="-45" y="240" xlink:href="#unit1" style="fill:#130f40" />
<use x="-45" y="240" xlink:href="#unit2" style="fill:#22a6b3" />
<use x="-45" y="300" xlink:href="#unit1" style="fill:#130f40" />
<use x="-45" y="300" xlink:href="#unit2" style="fill:#22a6b3" />
<use x="-45" y="360" xlink:href="#unit1" style="fill:#130f40" />
<use x="-45" y="360" xlink:href="#unit2" style="fill:#22a6b3" />
<use x="-45" y="420" xlink:href="#unit1" style="fill:#130f40" />
<use x="-45" y="420" xlink:href="#unit2" style="fill:#22a6b3" />
<use x="-45" y="480" xlink:href="#unit1" style="fill:#130f40" />
<use x="-45" y="480" xlink:href="#unit2" style="fill:#22a6b3" />
<use x="-45" y="540" xlink:href="#unit1" style="fill:#130f40" />
<use x="-45" y="540" xlink:href="#unit2" style="fill:#22a6b3" />
<use x="-10" y="-15" xlink:href="#unit1" style="fill:#130f40" />
<use x="-10" y="-15" xlink:href="#unit2" style="fill:#22a6b3" />
<use x="-10" y="45" xlink:href="#unit1" style="fill:#130f40" />
<use x="-10" y="45" xlink:href="#unit2" style="fill:#22a6b3" />
<use x="-10" y="105" xlink:href="#unit1" style="fill:#130f40" />
<use x="-10" y="105" xlink:href="#unit2" style="fill:#22a6b3" />
<use x="-10" y="165" xlink:href="#unit1" style="fill:#130f40" />
<use x="-10" y="165" xlink:href="#unit2" style="fill:#22a6b3" />
<use x="-10" y="225" xlink:href="#unit1" style="fill:#130f40" />
<use x="-10" y="225" xlink:href="#unit2" style="fill:#22a6b3" />
<use x="-10" y="285" xlink:href="#unit1" style="fill:#130f40" />
<use x="-10" y="285" xlink:href="#unit2" style="fill:#22a6b3" />
<use x="-10" y="345" xlink:href="#unit1" style="fill:#130f40" />
<use x="-10" y="345" xlink:href="#unit2" style="fill:#22a6b3" />
<use x="-10" y="405" xlink:href="#unit1" style="fill:#130f40" />
<use x="-10" y="405" xlink:href="#unit2" style="fill:#22a6b3" />
<use x="-10" y="465" xlink:href="#unit1" style="fill:#130f40" />
<use x="-10" y="465" xlink:href="#unit2" style="fill:#22a6b3" />
<use x="-10" y="525" xlink:href="#unit1" style="fill:#130f40" />
<use x="-10" y="525" xlink:href="#unit2" style="fill:#22a6b3" />
<use x="25" y="-30" xlink:href="#unit1" style="fill:#130f40" />
<use x="25" y="-30" xlink:href="#unit2" style="fill:#22a6b3" />
<use x="25" y="30" xlink:href="#unit1" style="fill:#130f40" />
<use x="25" y="30" xlink:href="#unit2" style="fill:#22a6b3" />
<use x="25" y="90" xlink:href="#unit1" style="fill:#130f40" />
<use x="25" y="90" xlink:href="#unit2" style="fill:#22a6b3" />
<use x="25" y="150" xlink:href="#unit1" style="fill:#130f40" />
<use x="25" y="150" xlink:href="#unit2" style="fill:#22a6b3" />
<use x="25" y="210" xlink:href="#unit1" style="fill:#130f40" />
<use x="25" y="210" xlink:href="#unit2" style="fill:#22a6b3" />
<use x="25" y="270" xlink:href="#unit1" style="fill:#130f40" />
<use x="25" y="270" xlink:href="#unit2" style="fill:#22a6b3" />
<use x="25" y="330" xlink:href="#unit1" style="fill:#130f40" />
<use x="25" y="330" xlink:href="#unit2" style="fill:#22a6b3" />
<use x="25" y="390" xlink:href="#unit1" style="fill:#130f40" />
<use x="25" y="390" xlink:href="#unit2" style="fill:#22a6b3" />
<use x="25" y="450" xlink:href="#unit1" style="fill:#130f40" />
<use x="25" y="450" xlink:href="#unit2" style="fill:#22a6b3" />
<use x="25" y="510" xlink:href="#unit1" style="fill:#130f40" />
<use x="25" y="510" xlink:href="#unit2" style="fill:#22a6b3" />
<use x="60" y="-45" xlink:href="#unit1" style="fill:#130f40" />
<use x="60" y="-45" xlink:href="#unit2" style="fill:#22a6b3" />
<use x="60" y="15" xlink:href="#unit1" style="fill:#130f40" />
<use x="60" y="15" xlink:href="#unit2" style="fill:#22a6b3" />
<use x="60" y="75" xlink:href="#unit1" style="fill:#130f40" />
<use x="60" y="75" xlink:href="#unit2" style="fill:#22a6b3" />
<use x="60" y="135" xlink:href="#unit1" style="fill:#130f40" />
<use x="60" y="135" xlink:href="#unit2" style="fill:#22a6b3" />
<use x="60" y="195" xlink:href="#unit1" style="fill:#130f40" />
<use x="60" y="195" xlink:href="#unit2" style="fill:#22a6b3" />
<use x="60" y="255" xlink:href="#unit1" style="fill:#130f40" />
<use x="60" y="255" xlink:href="#unit2" style="fill:#22a6b3" />
<use x="60" y="315" xlink:href="#unit1" style="fill:#130f40" />
<use x="60" y="315" xlink:href="#unit2" style="fill:#22a6b3" />
<use x="60" y="375" xlink:href="#unit1" style="fill:#130f40" />
<use x="60" y="375" xlink:href="#unit2" style="fill:#22a6b3" />
<use x="60" y="435" xlink:href="#unit1" style="fill:#130f40" />
<use x="60" y="435" xlink:href="#unit2" style="fill:#22a6b3" />
<use x="60" y="495" xlink:href="#unit1" style="fill:#130f40" />
<use x="60" y="495" xlink:href="#unit2" style="fill:#22a6b3" />
<use x="95" y="0" xlink:href="#unit1" style="fill:#130f40" />
<use x="95" y="0" xlink:href="#unit2" style="fill:#22a6b3" />
<use x="95" y="60" xlink:href="#unit1" style="fill:#130f40" />
<use x="95" y="60" xlink:href="#unit2" style="fill:#22a6b3" />
<use x="95" y="120" xlink:href="#unit1" style="fill:#130f40" />
<use x="95" y="120" xlink:href="#unit2" style="fill:#22a6b3" />
<use x="95" y="180" xlink:href="#unit1" style="fill:#130f40" />
<use x="95" y="180" xlink:href="#unit2" style="fill:#22a6b3" />
<use x="95" y="240" xlink:href="#unit1" style="fill:#130f40" />
<use x="95" y="240" xlink:href="#unit2" style="fill:#22a6b3" />
<use x="95" y="300" xlink:href="#unit1" style="fill:#130f40" />
<use x="95" y="300" xlink:href="#unit2" style="fill:#22a6b3" />
<use x="95" y="360" xlink:href="#unit1" style="fill:#130f40" />
<use x="95" y="360" xlink:href="#unit2" style="fill:#22a6b3" />
<use x="95" y="420" xlink:href="#unit1" style="fill:#130f40" />
<use x="95" y="420" xlink:href="#unit2" style="fill:#22a6b3" />
<use x="95" y="480" xlink:href="#unit1" style="fill:#130f40" />
<use x="95" y="480" xlink:href="#unit2" style="fill:#22a6b3" />
<use x="95" y="540" xlink:href="#unit1" style="fill:#130f40" />
<use x="95" y="540" xlink:href="#unit2" style="fill:#22a6b3" />
<use x="130" y="-15" xlink:href="#unit1" style="fill:#130f40" />
<use x="130" y="-15" xlink:href="#unit2" style="fill:#22a6b3" />
<use x="130" y="45" xlink:href="#unit1" style="fill:#130f40" />
<use x="130" y="45" xlink:href="#unit2" style="fill:#22a6b3" />
<use x="130" y="105" xlink:href="#unit1" style="fill:#130f40" />
<use x="130" y="105" xlink:href="#unit2" style="fill:#22a6b3" />
<use x="130" y="165" xlink:href="#unit1" style="fill:#130f40" />
<use x="130" y="165" xlink:href="#unit2" style="fill:#22a6b3" />
<use x="130" y="225" xlink:href="#unit1" style="fill:#130f40" />
<use x="130" y="225" xlink:href="#unit2" style="fill:#22a6b3" />
<use x="130" y="285" xlink:href="#unit1" style="fill:#130f40" />
<use x="130" y="285" xlink:href="#unit2" style="fill:#22a6b3" />
<use x="130" y="345" xlink:href="#unit1" style="fill:#130f40" />
<use x="130" y="345" xlink:href="#unit2" style="fill:#22a6b3" />
<use x="130" y="405" xlink:href="#unit1" style="fill:#130f40" />
<use x="130" y="405" xlink:href="#unit2" style="fill:#22a6b3" />
<use x="130" y="465" xlink:href="#unit1" style="fill:#130f40" />
<use x="130" y="465" xlink:href="#unit2" style="fill:#22a6b3" />
<use x="130" y="525" xlink:href="#unit1" style="fill:#130f40" />
<use x="130" y="525" xlink:href="#unit2" style="fill:#22a6b3" />
<use x="165" y="-30" xlink:href="#unit1" style="fill:#130f40" />
<use x="165" y="-30" xlink:href="#unit2" style="fill:#22a6b3" />
<use x="165" y="30" xlink:href="#unit1" style="fill:#130f40" />
<use x="165" y="30" xlink:href="#unit2" style="fill:#22a6b3" />
<use x="165" y="90" xlink:href="#unit1" style="fill:#130f40" />
<use x="165" y="90" xlink:href="#unit2" style="fill:#22a6b3" />
<use x="165" y="150" xlink:href="#unit1" style="fill:#130f40" />
<use x="165" y="150" xlink:href="#unit2" style="fill:#22a6b3" />
<use x="165" y="210" xlink:href="#unit1" style="fill:#130f40" />
<use x="165" y="210" xlink:href="#unit2" style="fill:#22a6b3" />
<use x="165" y="270" xlink:href="#unit1" style="fill:#130f40" />
<use x="165" y="270" xlink:href="#unit2" style="fill:#22a6b3" />
<use x="165" y="330" xlink:href="#unit1" style="fill:#130f40" />
<use x="165" y="330" xlink:href="#unit2" style="fill:#22a6b3" />
<use x="165" y="390" xlink:href="#unit1" style="fill:#130f40" />
<use x="165" y="390" xlink:href="#unit2" style="fill:#22a6b3" />
<use x="165" y="450" xlink:href="#unit1" style="fill:#130f40" />
<use x="165" y="450" xlink:href="#unit2" style="fill:#22a6b3" />
<use x="165" y="510" xlink:href="#unit1" style="fill:#130f40" />
<use x="165" y="510" xlink:href="#unit2" style="fill:#22a6b3" />
<use x="200" y="-45" xlink:href="#unit1" style="fill:#130f40" />
<use x="200" y="-45" xlink:href="#unit2" style="fill:#22a6b3" />
<use x="200" y="15" xlink:href="#unit1" style="fill:#130f40" />
<use x="200" y="15" xlink:href="#unit2" style="fill:#22a6b3" />
<use x="200" y="75" xlink:href="#unit1" style="fill:#130f40" />
<use x="200" y="75" xlink:href="#unit2" style="fill:#22a6b3" />
<use x="200" y="135" xlink:href="#unit1" style="fill:#130f40" />
<use x="200" y="135" xlink:href="#unit2" style="fill:#22a6b3" />
<use x="200" y="195" xlink:href="#unit1" style="fill:#130f40" />
<use x="200" y="195" xlink:href="#unit2" style="fill:#22a6b3" />
<use x="200" y="255" xlink:href="#unit1" style="fill:#130f40" />
<use x="200" y="255" xlink:href="#unit2" style="fill:#22a6b3" />
<use x="200" y="315" xlink:href="#unit1" style="fill:#130f40" />
<use x="200" y="315" xlink:href="#unit2" style="fill:#22a6b3" />
<use x="200" y="375" xlink:href="#unit1" style="fill:#130f40" />
<use x="200" y="375" xlink:href="#unit2" style="fill:#22a6b3" />
<use x="200" y="435" xlink:href="#unit1" style="fill:#130f40" />
<use x="200" y="435" xlink:href="#unit2" style="fill:#22a6b3" />
<use x="200" y="495" xlink:href="#unit1" style="fill:#130f40" />
<use x="200" y="495" xlink:href="#unit2" style="fill:#22a6b3" />
<use x="235" y="0" xlink:href="#unit1" style="fill:#130f40" />
<use x="235" y="0" xlink:href="#unit2" style="fill:#22a6b3" />
<use x="235" y="60" xlink:href="#unit1" style="fill:#130f40" />
<use x="235" y="60" xlink:href="#unit2" style="fill:#22a6b3" />
<use x="235" y="120" xlink:href="#unit1" style="fill:#130f40" />
<use x="235" y="120" xlink:href="#unit2" style="fill:#22a6b3" />
<use x="235" y="180" xlink:href="#unit1" style="fill:#130f40" />
<use x="235" y="180" xlink:href="#unit2" style="fill:#22a6b3" />
<use x="235" y="240" xlink:href="#unit1" style="fill:#130f40" />
<use x="235" y="240" xlink:href="#unit2" style="fill:#22a6b3" />
<use x="235" y="300" xlink:href="#unit1" style="fill:#130f40" />
<use x="235" y="300" xlink:href="#unit2" style="fill:#22a6b3" />
<use x="235" y="360" xlink:href="#unit1" style="fill:#130f40" />
<use x="235" y="360" xlink:href="#unit2" style="fill:#22a6b3" />
<use x="235" y="420" xlink:href="#unit1" style="fill:#130f40" />
<use x="235" y="420" xlink:href="#unit2" style="fill:#22a6b3" />
<use x="235" y="480" xlink:href="#unit1" style="fill:#130f40" />
<use x="235" y="480" xlink:href="#unit2" style="fill:#22a6b3" />
<use x="235" y="540" xlink:href="#unit1" style="fill:#130f40" />
<use x="235" y="540" xlink:href="#unit2" style="fill:#22a6b3" />
<use x="270" y="-15" xlink:href="#unit1" style="fill:#130f40" />
<use x="270" y="-15" xlink:href="#unit2" style="fill:#22a6b3" />
<use x="270" y="45" xlink:href="#unit1" style="fill:#130f40" />
<use x="270" y="45" xlink:href="#unit2" style="fill:#22a6b3" />
<use x="270" y="105" xlink:href="#unit1" style="fill:#130f40" />
<use x="270" y="105" xlink:href="#unit2" style="fill:#22a6b3" />
<use x="270" y="165" xlink:href="#unit1" style="fill:#130f40" />
<use x="270" y="165" xlink:href="#unit2" style="fill:#22a6b3" />
<use x="270" y="225" xlink:href="#unit1" style="fill:#130f40" />
<use x="270" y="225" xlink:href="#unit2" style="fill:#22a6b3" />
<use x="270" y="285" xlink:href="#unit1" style="fill:#130f40" />
<use x="270" y="285" xlink:href="#unit2" style="fill:#22a6b3" />
<use x="270" y="345" xlink:href="#unit1" style="fill:#130f40" />
<use x="270" y="345" xlink:href="#unit2" style="fill:#22a6b3" />
<use x="270" y="405" xlink:href="#unit1" style="fill:#130f40" />
<use x="270" y="405" xlink:href="#unit2" style="fill:#22a6b3" />
<use x="270" y="465" xlink:href="#unit1" style="fill:#130f40" />
<use x="270" y="465" xlink:href="#unit2" style="fill:#22a6b3" />
<use x="270" y="525" xlink:href="#unit1" style="fill:#130f40" />
<use x="270" y="525" xlink:href="#unit2" style="fill:#22a6b3" />
<use x="305" y="-30" xlink:href="#unit1" style="fill:#130f40" />
<use x="305" y="-30" xlink:href="#unit2" style="fill:#22a6b3" />
<use x="305" y="30" xlink:href="#unit1" style="fill:#130f40" />
<use x="305" y="30" xlink:href="#unit2" style="fill:#22a6b3" />
<use x="305" y="90" xlink:href="#unit1" style="fill:#130f40" />
<use x="305" y="90" xlink:href="#unit2" style="fill:#22a6b3" />
<use x="305" y="150" xlink:href="#unit1" style="fill:#130f40" />
<use x="305" y="150" xlink:href="#unit2" style="fill:#22a6b3" />
<use x="305" y="210" xlink:href="#unit1" style="fill:#130f40" />
<use x="305" y="210" xlink:href="#unit2" style="fill:#22a6b3" />
<use x="305" y="270" xlink:href="#unit1" style="fill:#130f40" />
<use x="305" y="270" xlink:href="#unit2" style="fill:#22a6b3" />
<use x="305" y="330" xlink:href="#unit1" style="fill:#130f40" />
<use x="305" y="330" xlink:href="#unit2" style="fill:#22a6b3" />
<use x="305" y="390" xlink:href="#unit1" style="fill:#130f40" />
<use x="305" y="390" xlink:href="#unit2" style="fill:#22a6b3" />
<use x="305" y="450" xlink:href="#unit1" style="fill:#130f40" />
<use x="305" y="450" xlink:href="#unit2" style="fill:#22a6b3" />
<use x="305" y="510" xlink:href="#unit1" style="fill:#130f40" />
<use x="305" y="510" xlink:href="#unit2" style="fill:#22a6b3" />
<use x="340" y="-45" xlink:href="#unit1" style="fill:#130f40" />
<use x="340" y="-45" xlink:href="#unit2" style="fill:#22a6b3" />
<use x="340" y="15" xlink:href="#unit1" style="fill:#130f40" />
<use x="340" y="15" xlink:href="#unit2" style="fill:#22a6b3" />
<use x="340" y="75" xlink:href="#unit1" style="fill:#130f40" />
<use x="340" y="75" xlink:href="#unit2" style="fill:#22a6b3" />
<use x="340" y="135" xlink:href="#unit1" style="fill:#130f40" />
<use x="340" y="135" xlink:href="#unit2" style="fill:#22a6b3" />
<use x="340" y="195" xlink:href="#unit1" style="fill:#130f40" />
<use x="340" y="195" xlink:href="#unit2" style="fill:#22a6b3" />
<use x="340" y="255" xlink:href="#unit1" style="fill:#130f40" />
<use x="340" y="255" xlink:href="#unit2" style="fill:#22a6b3" />
<use x="340" y="315" xlink:href="#unit1" style="fill:#130f40" />
<use x="340" y="315" xlink:href="#unit2" style="fill:#22a6b3" />
<use x="340" y="375" xlink:href="#unit1" style="fill:#130f40" />
<use x="340" y="375" xlink:href="#unit2" style="fill:#22a6b3" />
<use x="340" y="435" xlink:href="#unit1" style="fill:#130f40" />
<use x="340" y="435" xlink:href="#unit2" style="fill:#22a6b3" />
<use x="340" y="495" xlink:href="#unit1" style="fill:#130f40" />
<use x="340" y="495" xlink:href="#unit2" style="fill:#22a6b3" />
<use x="375" y="0" xlink:href="#unit1" style="fill:#130f40" />
<use x="375" y="0" xlink:href="#unit2" style="fill:#22a6b3" />
<use x="375" y="60" xlink:href="#unit1" style="fill:#130f40" />
<use x="375" y="60" xlink:href="#unit2" style="fill:#22a6b3" />
<use x="375" y="120" xlink:href="#unit1" style="fill:#130f40" />
<use x="375" y="120" xlink:href="#unit2" style="fill:#22a6b3" />
<use x="375" y="180" xlink:href="#unit1" style="fill:#130f40" />
<use x="375" y="180" xlink:href="#unit2" style="fill:#22a6b3" />
<use x="375" y="240" xlink:href="#unit1" style="fill:#130f40" />
<use x="375" y="240" xlink:href="#unit2" style="fill:#22a6b3" />
<use x="375" y="300" xlink:href="#unit1" style="fill:#130f40" />
<use x="375" y="300" xlink:href="#unit2" style="fill:#22a6b3" />
<use x="375" y="360" xlink:href="#unit1" style="fill:#130f40" />
<use x="375" y="360" xlink:href="#unit2" style="fill:#22a6b3" />
<use x="375" y="420" xlink:href="#unit1" style="fill:#130f40" />
<use x="375" y="420" xlink:href="#unit2" style="fill:#22a6b3" />
<use x="375" y="480" xlink:href="#unit1" style="fill:#130f40" />
<use x="375" y="480" xlink:href="#unit2" style="fill:#22a6b3" />
<use x="375" y="540" xlink:href="#unit1" style="fill:#130f40" />
<use x="375" y="540" xlink:href="#unit2" style="fill:#22a6b3" />
<use x="410" y="-15" xlink:href="#unit1" style="fill:#130f40" />
<use x="410" y="-15" xlink:href="#unit2" style="fill:#22a6b3" />
<use x="410" y="45" xlink:href="#unit1" style="fill:#130f40" />
<use x="410" y="45" xlink:href="#unit2" style="fill:#22a6b3" />
<use x="410" y="105" xlink:href="#unit1" style="fill:#130f40" />
<use x="410" y="105" xlink:href="#unit2" style="fill:#22a6b3" />
<use x="410" y="165" xlink:href="#unit1" style="fill:#130f40" />
<use x="410" y="165" xlink:href="#unit2" style="fill:#22a6b3" />
<use x="410" y="225" xlink:href="#unit1" style="fill:#130f40" />
<use x="410" y="225" xlink:href="#unit2" style="fill:#22a6b3" />
<use x="410" y="285" xlink:href="#unit1" style="fill:#130f40" />
<use x="410" y="285" xlink:href="#unit2" style="fill:#22a6b3" />
<use x="410" y="345" xlink:href="#unit1" style="fill:#130f40" />
<use x="410" y="345" xlink:href="#unit2" style="fill:#22a6b3" />
<use x="410" y="405" xlink:href="#unit1" style="fill:#130f40" />
<use x="410" y="405" xlink:href="#unit2" style="fill:#22a6b3" />
<use x="410" y="465" xlink:href="#unit1" style="fill:#130f40" />
<use x="410" y="465" xlink:href="#unit2" style="fill:#22a6b3" />
<use x="410" y="525" xlink:href="#unit1" style="fill:#130f40" />
<use x="410" y="525" xlink:href="#unit2" style="fill:#22a6b3" />
<use x="445" y="-30" xlink:href="#unit1" style="fill:#130f40" />
<use x="445" y="-30" xlink:href="#unit2" style="fill:#22a6b3" />
<use x="445" y="30" xlink:href="#unit1" style="fill:#130f40" />
<use x="445" y="30" xlink:href="#unit2" style="fill:#22a6b3" />
<use x="445" y="90" xlink:href="#unit1" style="fill:#130f40" />
<use x="445" y="90" xlink:href="#unit2" style="fill:#22a6b3" />
<use x="445" y="150" xlink:href="#unit1" style="fill:#130f40" />
<use x="445" y="150" xlink:href="#unit2" style="fill:#22a6b3" />
<use x="445" y="210" xlink:href="#unit1" style="fill:#130f40" />
<use x="445" y="210" xlink:href="#unit2" style="fill:#22a6b3" />
<use x="445" y="270" xlink:href="#unit1" style="fill:#130f40" />
<use x="445" y="270" xlink:href="#unit2" style="fill:#22a6b3" />
<use x="445" y="330" xlink:href="#unit1" style="fill:#130f40" />
<use x="445" y="330" xlink:href="#unit2" style="fill:#22a6b3" />
<use x="445" y="390" xlink:href="#unit1" style="fill:#130f40" />
<use x="445" y="390" xlink:href="#unit2" style="fill:#22a6b3" />
<use x="445" y="450" xlink:href="#unit1" style="fill:#130f40" />
<use x="445" y="450" xlink:href="#unit2" style="fill:#22a6b3" />
<use x="445" y="510" xlink:href="#unit1" style="fill:#130f40" />
<use x="445" y="510" xlink:href="#unit2" style="fill:#22a6b3" />
<use x="480" y="-45" xlink:href="#unit1" style="fill:#130f40" />
<use x="480" y="-45" xlink:href="#unit2" style="fill:#22a6b3" />
<use x="480" y="15" xlink:href="#unit1" style="fill:#130f40" />
<use x="480" y="15" xlink:href="#unit2" style="fill:#22a6b3" />
<use x="480" y="75" xlink:href="#unit1" style="fill:#130f40" />
<use x="480" y="75" xlink:href="#unit2" style="fill:#22a6b3" />
<use x="480" y="135" xlink:href="#unit1" style="fill:#130f40" />
<use x="480" y="135" xlink:href="#unit2" style="fill:#22a6b3" />
<use x="480" y="195" xlink:href="#unit1" style="fill:#130f40" />
<use x="480" y="195" xlink:href="#unit2" style="fill:#22a6b3" />
<use x="480" y="255" xlink:href="#unit1" style="fill:#130f40" />
<use x="480" y="255" xlink:href="#unit2" style="fill:#22a6b3" />
<use x="480" y="315" xlink:href="#unit1" style="fill:#130f40" />
<use x="480" y="315" xlink:href="#unit2" style="fill:#22a6b3" />
<use x="480" y="375" xlink:href="#unit1" style="fill:#130f40" />
<use x="480" y="375" xlink:href="#unit2" style="fill:#22a6b3" />
<use x="480" y="435" xlink:href="#unit1" style="fill:#130f40" />
<use x="480" y="435" xlink:href="#unit2" style="fill:#22a6b3" />
<use x="480" y="495" xlink:href="#unit1" style="fill:#130f40" />
<use x="480" y="495" xlink:href="#unit2" style="fill:#22a6b3" />
</svg>
