<?xml version="1.0"?>
<!-- Generated by SVGo -->
<svg width="500" height="500"
     xmlns="http://www.w3.org/2000/svg"
     xmlns:xlink="http://www.w3.org/1999/xlink">
<desc>Generated with https://github.com/marcelmue/konstrukt</desc>
<rect x="0" y="0" width="500" height="500" style="fill:#1abc9c" />
<defs>
<g id="unit">
<polygon points="0,10 10,0 50,40 30,60 20,50 30,40" />
</g>
<g id="runit">
<g transform="translate(30,90) rotate(180)">
<use x="0" y="0" xlink:href="#unit" />
</g>
</g>
</defs>
<use x="-120" y="-100" xlink:href="#unit" style="fill:#34495e" />
<use x="-120" y="-100" xlink:href="#runit" style="fill:#34495e" />
<use x="-20" y="-100" xlink:href="#unit" style="fill:#34495e" />
<use x="-20" y="-100" xlink:href="#runit" style="fill:#34495e" />
<use x="80" y="-100" xlink:href="#unit" style="fill:#34495e" />
<use x="80" y="-100" xlink:href="#runit" style="fill:#34495e" />
<use x="180" y="-100" xlink:href="#unit" style="fill:#34495e" />
<use x="180" y="-100" xlink:href="#runit" style="fill:#34495e" />
<use x="280" y="-100" xlink:href="#unit" style="fill:#34495e" />
<use x="280" y="-100" xlink:href="#runit" style="fill:#34495e" />
<use x="380" y="-100" xlink:href="#unit" style="fill:#34495e" />
<use x="380" y="-100" xlink:href="#runit" style="fill:#34495e" />
<use x="480" y="-100" xlink:href="#unit" style="fill:#34495e" />
<use x="480" y="-100" xlink:href="#runit" style="fill:#34495e" />
<use x="580" y="-100" xlink:href="#unit" style="fill:#34495e" />
<use x="580" y="-100" xlink:href="#runit" style="fill:#34495e" />
<use x="680" y="-100" xlink:href="#unit" style="fill:#34495e" />
<use x="680" y="-100" xlink:href="#runit" style="fill:#34495e" />
<use x="-70" y="-50" xlink:href="#unit" style="fill:#e74c3c" />
<use x="-70" y="-50" xlink:href="#runit" style="fill:#e74c3c" />
<use x="30" y="-50" xlink:href="#unit" style="fill:#e74c3c" />
<use x="30" y="-50" xlink:href="#runit" style="fill:#e74c3c" />
<use x="130" y="-50" xlink:href="#unit" style="fill:#e74c3c" />
<use x="130" y="-50" xlink:href="#runit" style="fill:#e74c3c" />
<use x="230" y="-50" xlink:href="#unit" style="fill:#e74c3c" />
<use x="230" y="-50" xlink:href="#runit" style="fill:#e74c3c" />
<use x="330" y="-50" xlink:href="#unit" style="fill:#e74c3c" />
<use x="330" y="-50" xlink:href="#runit" style="fill:#e74c3c" />
<use x="430" y="-50" xlink:href="#unit" style="fill:#e74c3c" />
<use x="430" y="-50" xlink:href="#runit" style="fill:#e74c3c" />
<use x="530" y="-50" xlink:href="#unit" style="fill:#e74c3c" />
<use x="530" y="-50" xlink:href="#runit" style="fill:#e74c3c" />
<use x="630" y="-50" xlink:href="#unit" style="fill:#e74c3c" />
<use x="630" y="-50" xlink:href="#runit" style="fill:#e74c3c" />
<use x="730" y="-50" xlink:href="#unit" style="fill:#e74c3c" />
<use x="730" y="-50" xlink:href="#runit" style="fill:#e74c3c" />
<use x="-120" y="0" xlink:href="#unit" style="fill:#34495e" />
<use x="-120" y="0" xlink:href="#runit" style="fill:#34495e" />
<use x="-20" y="0" xlink:href="#unit" style="fill:#34495e" />
<use x="-20" y="0" xlink:href="#runit" style="fill:#34495e" />
<use x="80" y="0" xlink:href="#unit" style="fill:#34495e" />
<use x="80" y="0" xlink:href="#runit" style="fill:#34495e" />
<use x="180" y="0" xlink:href="#unit" style="fill:#34495e" />
<use x="180" y="0" xlink:href="#runit" style="fill:#34495e" />
<use x="280" y="0" xlink:href="#unit" style="fill:#34495e" />
<use x="280" y="0" xlink:href="#runit" style="fill:#34495e" />
<use x="380" y="0" xlink:href="#unit" style="fill:#34495e" />
<use x="380" y="0" xlink:href="#runit" style="fill:#34495e" />
<use x="480" y="0" xlink:href="#unit" style="fill:#34495e" />
<use x="480" y="0" xlink:href="#runit" style="fill:#34495e" />
<use x="580" y="0" xlink:href="#unit" style="fill:#34495e" />
<use x="580" y="0" xlink:href="#runit" style="fill:#34495e" />
<use x="680" y="0" xlink:href="#unit" style="fill:#34495e" />
<use x="680" y="0" xlink:href="#runit" style="fill:#34495e" />
<use x="-70" y="50" xlink:href="#unit" style="fill:#e74c3c" />
<use x="-70" y="50" xlink:href="#runit" style="fill:#e74c3c" />
<use x="30" y="50" xlink:href="#unit" style="fill:#e74c3c" />
<use x="30" y="50" xlink:href="#runit" style="fill:#e74c3c" />
<use x="130" y="50" xlink:href="#unit" style="fill:#e74c3c" />
<use x="130" y="50" xlink:href="#runit" style="fill:#e74c3c" />
<use x="230" y="50" xlink:href="#unit" style="fill:#e74c3c" />
<use x="230" y="50" xlink:href="#runit" style="fill:#e74c3c" />
<use x="330" y="50" xlink:href="#unit" style="fill:#e74c3c" />
<use x="330" y="50" xlink:href="#runit" style="fill:#e74c3c" />
<use x="430" y="50" xlink:href="#unit" style="fill:#e74c3c" />
<use x="430" y="50" xlink:href="#runit" style="fill:#e74c3c" />
<use x="530" y="50" xlink:href="#unit" style="fill:#e74c3c" />
<use x="530" y="50" xlink:href="#runit" style="fill:#e74c3c" />
<use x="630" y="50" xlink:href="#unit" style="fill:#e74c3c" />
<use x="630" y="50" xlink:href="#runit" style="fill:#e74c3c" />
<use x="730" y="50" xlink:href="#unit" style="fill:#e74c3c" />
<use x="730" y="50" xlink:href="#runit" style="fill:#e74c3c" />
<use x="-120" y="100" xlink:href="#unit" style="fill:#34495e" />
<use x="-120" y="100" xlink:href="#runit" style="fill:#34495e" />
<use x="-20" y="100" xlink:href="#unit" style="fill:#34495e" />
<use x="-20" y="100" xlink:href="#runit" style="fill:#34495e" />
<use x="80" y="100" xlink:href="#unit" style="fill:#34495e" />
<use x="80" y="100" xlink:href="#runit" style="fill:#34495e" />
<use x="180" y="100" xlink:href="#unit" style="fill:#34495e" />
<use x="180" y="100" xlink:href="#runit" style="fill:#34495e" />
<use x="280" y="100" xlink:href="#unit" style="fill:#34495e" />
<use x="280" y="100" xlink:href="#runit" style="fill:#34495e" />
<use x="380" y="100" xlink:href="#unit" style="fill:#34495e" />
<use x="380" y="100" xlink:href="#runit" style="fill:#34495e" />
<use x="480" y="100" xlink:href="#unit" style="fill:#34495e" />
<use x="480" y="100" xlink:href="#runit" style="fill:#34495e" />
<use x="580" y="100" xlink:href="#unit" style="fill:#34495e" />
<use x="580" y="100" xlink:href="#runit" style="fill:#34495e" />
<use x="680" y="100" xlink:href="#unit" style="fill:#34495e" />
<use x="680" y="100" xlink:href="#runit" style="fill:#34495e" />
<use x="-70" y="150" xlink:href="#unit" style="fill:#e74c3c" />
<use x="-70" y="150" xlink:href="#runit" style="fill:#e74c3c" />
<use x="30" y="150" xlink:href="#unit" style="fill:#e74c3c" />
<use x="30" y="150" xlink:href="#runit" style="fill:#e74c3c" />
<use x="130" y="150" xlink:href="#unit" style="fill:#e74c3c" />
<use x="130" y="150" xlink:href="#runit" style="fill:#e74c3c" />
<use x="230" y="150" xlink:href="#unit" style="fill:#e74c3c" />
<use x="230" y="150" xlink:href="#runit" style="fill:#e74c3c" />
<use x="330" y="150" xlink:href="#unit" style="fill:#e74c3c" />
<use x="330" y="150" xlink:href="#runit" style="fill:#e74c3c" />
<use x="430" y="150" xlink:href="#unit" style="fill:#e74c3c" />
<use x="430" y="150" xlink:href="#runit" style="fill:#e74c3c" />
<use x="530" y="150" xlink:href="#unit" style="fill:#e74c3c" />
<use x="530" y="150" xlink:href="#runit" style="fill:#e74c3c" />
<use x="630" y="150" xlink:href="#unit" style="fill:#e74c3c" />
<use x="630" y="150" xlink:href="#runit" style="fill:#e74c3c" />
<use x="730" y="150" xlink:href="#unit" style="fill:#e74c3c" />
<use x="730" y="150" xlink:href="#runit" style="fill:#e74c3c" />
<use x="-120" y="200" xlink:href="#unit" style="fill:#34495e" />
<use x="-120" y="200" xlink:href="#runit" style="fill:#34495e" />
<use x="-20" y="200" xlink:href="#unit" style="fill:#34495e" />
<use x="-20" y="200" xlink:href="#runit" style="fill:#34495e" />
<use x="80" y="200" xlink:href="#unit" style="fill:#34495e" />
<use x="80" y="200" xlink:href="#runit" style="fill:#34495e" />
<use x="180" y="200" xlink:href="#unit" style="fill:#34495e" />
<use x="180" y="200" xlink:href="#runit" style="fill:#34495e" />
<use x="280" y="200" xlink:href="#unit" style="fill:#34495e" />
<use x="280" y="200" xlink:href="#runit" style="fill:#34495e" />
<use x="380" y="200" xlink:href="#unit" style="fill:#34495e" />
<use x="380" y="200" xlink:href="#runit" style="fill:#34495e" />
<use x="480" y="200" xlink:href="#unit" style="fill:#34495e" />
<use x="480" y="200" xlink:href="#runit" style="fill:#34495e" />
<use x="580" y="200" xlink:href="#unit" style="fill:#34495e" />
<use x="580" y="200" xlink:href="#runit" style="fill:#34495e" />
<use x="680" y="200" xlink:href="#unit" style="fill:#34495e" />
<use x="680" y="200" xlink:href="#runit" style="fill:#34495e" />
<use x="-70" y="250" xlink:href="#unit" style="fill:#e74c3c" />
<use x="-70" y="250" xlink:href="#runit" style="fill:#e74c3c" />
<use x="30" y="250" xlink:href="#unit" style="fill:#e74c3c" />
<use x="30" y="250" xlink:href="#runit" style="fill:#e74c3c" />
<use x="130" y="250" xlink:href="#unit" style="fill:#e74c3c" />
<use x="130" y="250" xlink:href="#runit" style="fill:#e74c3c" />
<use x="230" y="250" xlink:href="#unit" style="fill:#e74c3c" />
<use x="230" y="250" xlink:href="#runit" style="fill:#e74c3c" />
<use x="330" y="250" xlink:href="#unit" style="fill:#e74c3c" />
<use x="330" y="250" xlink:href="#runit" style="fill:#e74c3c" />
<use x="430" y="250" xlink:href="#unit" style="fill:#e74c3c" />
<use x="430" y="250" xlink:href="#runit" style="fill:#e74c3c" />
<use x="530" y="250" xlink:href="#unit" style="fill:#e74c3c" />
<use x="530" y="250" xlink:href="#runit" style="fill:#e74c3c" />
<use x="630" y="250" xlink:href="#unit" style="fill:#e74c3c" />
<use x="630" y="250" xlink:href="#runit" style="fill:#e74c3c" />
<use x="730" y="250" xlink:href="#unit" style="fill:#e74c3c" />
<use x="730" y="250" xlink:href="#runit" style="fill:#e74c3c" />
<use x="-120" y="300" xlink:href="#unit" style="fill:#34495e" />
<use x="-120" y="300" xlink:href="#runit" style="fill:#34495e" />
<use x="-20" y="300" xlink:href="#unit" style="fill:#34495e" />
<use x="-20" y="300" xlink:href="#runit" style="fill:#34495e" />
<use x="80" y="300" xlink:href="#unit" style="fill:#34495e" />
<use x="80" y="300" xlink:href="#runit" style="fill:#34495e" />
<use x="180" y="300" xlink:href="#unit" style="fill:#34495e" />
<use x="180" y="300" xlink:href="#runit" style="fill:#34495e" />
<use x="280" y="300" xlink:href="#unit" style="fill:#34495e" />
<use x="280" y="300" xlink:href="#runit" style="fill:#34495e" />
<use x="380" y="300" xlink:href="#unit" style="fill:#34495e" />
<use x="380" y="300" xlink:href="#runit" style="fill:#34495e" />
<use x="480" y="300" xlink:href="#unit" style="fill:#34495e" />
<use x="480" y="300" xlink:href="#runit" style="fill:#34495e" />
<use x="580" y="300" xlink:href="#unit" style="fill:#34495e" />
<use x="580" y="300" xlink:href="#runit" style="fill:#34495e" />
<use x="680" y="300" xlink:href="#unit" style="fill:#34495e" />
<use x="680" y="300" xlink:href="#runit" style="fill:#34495e" />
<use x="-70" y="350" xlink:href="#unit" style="fill:#e74c3c" />
<use x="-70" y="350" xlink:href="#runit" style="fill:#e74c3c" />
<use x="30" y="350" xlink:href="#unit" style="fill:#e74c3c" />
<use x="30" y="350" xlink:href="#runit" style="fill:#e74c3c" />
<use x="130" y="350" xlink:href="#unit" style="fill:#e74c3c" />
<use x="130" y="350" xlink:href="#runit" style="fill:#e74c3c" />
<use x="230" y="350" xlink:href="#unit" style="fill:#e74c3c" />
<use x="230" y="350" xlink:href="#runit" style="fill:#e74c3c" />
<use x="330" y="350" xlink:href="#unit" style="fill:#e74c3c" />
<use x="330" y="350" xlink:href="#runit" style="fill:#e74c3c" />
<use x="430" y="350" xlink:href="#unit" style="fill:#e74c3c" />
<use x="430" y="350" xlink:href="#runit" style="fill:#e74c3c" />
<use x="530" y="350" xlink:href="#unit" style="fill:#e74c3c" />
<use x="530" y="350" xlink:href="#runit" style="fill:#e74c3c" />
<use x="630" y="350" xlink:href="#unit" style="fill:#e74c3c" />
<use x="630" y="350" xlink:href="#runit" style="fill:#e74c3c" />
<use x="730" y="350" xlink:href="#unit" style="fill:#e74c3c" />
<use x="730" y="350" xlink:href="#runit" style="fill:#e74c3c" />
<use x="-120" y="400" xlink:href="#unit" style="fill:#34495e" />
<use x="-120" y="400" xlink:href="#runit" style="fill:#34495e" />
<use x="-20" y="400" xlink:href="#unit" style="fill:#34495e" />
<use x="-20" y="400" xlink:href="#runit" style="fill:#34495e" />
<use x="80" y="400" xlink:href="#unit" style="fill:#34495e" />
<use x="80" y="400" xlink:href="#runit" style="fill:#34495e" />
<use x="180" y="400" xlink:href="#unit" style="fill:#34495e" />
<use x="180" y="400" xlink:href="#runit" style="fill:#34495e" />
<use x="280" y="400" xlink:href="#unit" style="fill:#34495e" />
<use x="280" y="400" xlink:href="#runit" style="fill:#34495e" />
<use x="380" y="400" xlink:href="#unit" style="fill:#34495e" />
<use x="380" y="400" xlink:href="#runit" style="fill:#34495e" />
<use x="480" y="400" xlink:href="#unit" style="fill:#34495e" />
<use x="480" y="400" xlink:href="#runit" style="fill:#34495e" />
<use x="580" y="400" xlink:href="#unit" style="fill:#34495e" />
<use x="580" y="400" xlink:href="#runit" style="fill:#34495e" />
<use x="680" y="400" xlink:href="#unit" style="fill:#34495e" />
<use x="680" y="400" xlink:href="#runit" style="fill:#34495e" />
<use x="-70" y="450" xlink:href="#unit" style="fill:#e74c3c" />
<use x="-70" y="450" xlink:href="#runit" style="fill:#e74c3c" />
<use x="30" y="450" xlink:href="#unit" style="fill:#e74c3c" />
<use x="30" y="450" xlink:href="#runit" style="fill:#e74c3c" />
<use x="130" y="450" xlink:href="#unit" style="fill:#e74c3c" />
<use x="130" y="450" xlink:href="#runit" style="fill:#e74c3c" />
<use x="230" y="450" xlink:href="#unit" style="fill:#e74c3c" />
<use x="230" y="450" xlink:href="#runit" style="fill:#e74c3c" />
<use x="330" y="450" xlink:href="#unit" style="fill:#e74c3c" />
<use x="330" y="450" xlink:href="#runit" style="fill:#e74c3c" />
<use x="430" y="450" xlink:href="#unit" style="fill:#e74c3c" />
<use x="430" y="450" xlink:href="#runit" style="fill:#e74c3c" />
<use x="530" y="450" xlink:href="#unit" style="fill:#e74c3c" />
<use x="530" y="450" xlink:href="#runit" style="fill:#e74c3c" />
<use x="630" y="450" xlink:href="#unit" style="fill:#e74c3c" />
<use x="630" y="450" xlink:href="#runit" style="fill:#e74c3c" />
<use x="730" y="450" xlink:href="#unit" style="fill:#e74c3c" />
<use x="730" y="450" xlink:href="#runit" style="fill:#e74c3c" />
<use x="-120" y="500" xlink:href="#unit" style="fill:#34495e" />
<use x="-120" y="500" xlink:href="#runit" style="fill:#34495e" />
<use x="-20" y="500" xlink:href="#unit" style="fill:#34495e" />
<use x="-20" y="500" xlink:href="#runit" style="fill:#34495e" />
<use x="80" y="500" xlink:href="#unit" style="fill:#34495e" />
<use x="80" y="500" xlink:href="#runit" style="fill:#34495e" />
<use x="180" y="500" xlink:href="#unit" style="fill:#34495e" />
<use x="180" y="500" xlink:href="#runit" style="fill:#34495e" />
<use x="280" y="500" xlink:href="#unit" style="fill:#34495e" />
<use x="280" y="500" xlink:href="#runit" style="fill:#34495e" />
<use x="380" y="500" xlink:href="#unit" style="fill:#34495e" />
<use x="380" y="500" xlink:href="#runit" style="fill:#34495e" />
<use x="480" y="500" xlink:href="#unit" style="fill:#34495e" />
<use x="480" y="500" xlink:href="#runit" style="fill:#34495e" />
<use x="580" y="500" xlink:href="#unit" style="fill:#34495e" />
<use x="580" y="500" xlink:href="#runit" style="fill:#34495e" />
<use x="680" y="500" xlink:href="#unit" style="fill:#34495e" />
<use x="680" y="500" xlink:href="#runit" style="fill:#34495e" />
<use x="-70" y="550" xlink:href="#unit" style="fill:#e74c3c" />
<use x="-70" y="550" xlink:href="#runit" style="fill:#e74c3c" />
<use x="30" y="550" xlink:href="#unit" style="fill:#e74c3c" />
<use x="30" y="550" xlink:href="#runit" style="fill:#e74c3c" />
<use x="130" y="550" xlink:href="#unit" style="fill:#e74c3c" />
<use x="130" y="550" xlink:href="#runit" style="fill:#e74c3c" />
<use x="230" y="550" xlink:href="#unit" style="fill:#e74c3c" />
<use x="230" y="550" xlink:href="#runit" style="fill:#e74c3c" />
<use x="330" y="550" xlink:href="#unit" style="fill:#e74c3c" />
<use x="330" y="550" xlink:href="#runit" style="fill:#e74c3c" />
<use x="430" y="550" xlink:href="#unit" style="fill:#e74c3c" />
<use x="430" y="550" xlink:href="#runit" style="fill:#e74c3c" />
<use x="530" y="550" xlink:href="#unit" style="fill:#e74c3c" />
<use x="530" y="550" xlink:href="#runit" style="fill:#e74c3c" />
<use x="630" y="550" xlink:href="#unit" style="fill:#e74c3c" />
<use x="630" y="550" xlink:href="#runit" style="fill:#e74c3c" />
<use x="730" y="550" xlink:href="#unit" style="fill:#e74c3c" />
<use x="730" y="550" xlink:href="#runit" style="fill:#e74c3c" />
<use x="-120" y="600" xlink:href="#unit" style="fill:#34495e" />
<use x="-120" y="600" xlink:href="#runit" style="fill:#34495e" />
<use x="-20" y="600" xlink:href="#unit" style="fill:#34495e" />
<use x="-20" y="600" xlink:href="#runit" style="fill:#34495e" />
<use x="80" y="600" xlink:href="#unit" style="fill:#34495e" />
<use x="80" y="600" xlink:href="#runit" style="fill:#34495e" />
<use x="180" y="600" xlink:href="#unit" style="fill:#34495e" />
<use x="180" y="600" xlink:href="#runit" style="fill:#34495e" />
<use x="280" y="600" xlink:href="#unit" style="fill:#34495e" />
<use x="280" y="600" xlink:href="#runit" style="fill:#34495e" />
<use x="380" y="600" xlink:href="#unit" style="fill:#34495e" />
<use x="380" y="600" xlink:href="#runit" style="fill:#34495e" />
<use x="480" y="600" xlink:href="#unit" style="fill:#34495e" />
<use x="480" y="600" xlink:href="#runit" style="fill:#34495e" />
<use x="580" y="600" xlink:href="#unit" style="fill:#34495e" />
<use x="580" y="600" xlink:href="#runit" style="fill:#34495e" />
<use x="680" y="600" xlink:href="#unit" style="fill:#34495e" />
<use x="680" y="600" xlink:href="#runit" style="fill:#34495e" />
<use x="-70" y="650" xlink:href="#unit" style="fill:#e74c3c" />
<use x="-70" y="650" xlink:href="#runit" style="fill:#e74c3c" />
<use x="30" y="650" xlink:href="#unit" style="fill:#e74c3c" />
<use x="30" y="650" xlink:href="#runit" style="fill:#e74c3c" />
<use x="130" y="650" xlink:href="#unit" style="fill:#e74c3c" />
<use x="130" y="650" xlink:href="#runit" style="fill:#e74c3c" />
<use x="230" y="650" xlink:href="#unit" style="fill:#e74c3c" />
<use x="230" y="650" xlink:href="#runit" style="fill:#e74c3c" />
<use x="330" y="650" xlink:href="#unit" style="fill:#e74c3c" />
<use x="330" y="650" xlink:href="#runit" style="fill:#e74c3c" />
<use x="430" y="650" xlink:href="#unit" style="fill:#e74c3c" />
<use x="430" y="650" xlink:href="#runit" style="fill:#e74c3c" />
<use x="530" y="650" xlink:href="#unit" style="fill:#e74c3c" />
<use x="530" y="650" xlink:href="#runit" style="fill:#e74c3c" />
<use x="630" y="650" xlink:href="#unit" style="fill:#e74c3c" />
<use x="630" y="650" xlink:href="#runit" style="fill:#e74c3c" />
<use x="730" y="650" xlink:href="#unit" style="fill:#e74c3c" />
<use x="730" y="650" xlink:href="#runit" style="fill:#e74c3c" />
</svg>
