<?xml version="1.0"?>
<!-- Generated by SVGo -->
<svg width="500" height="500"
     xmlns="http://www.w3.org/2000/svg"
     xmlns:xlink="http://www.w3.org/1999/xlink">
<desc>Generated with https://github.com/marcelmue/konstrukt</desc>
<rect x="0" y="0" width="500" height="500" style="fill:#1abc9c" />
<defs>
<g id="unit">
<polyline points="20,0 40,0 60,20 60,40 40,60 20,60 0,40 0,20 20,0 30,0" style="stroke:#b8e994;stroke-width:5;fill:none" />
<polyline points="60,60 100,100" style="stroke:#ecf0f1;stroke-width:5;fill:none" />
<polyline points="60,100 100,60" style="stroke:#ecf0f1;stroke-width:5;fill:none" />
</g>
</defs>
<use x="-80" y="-80" xlink:href="#unit" />
<use x="20" y="-80" xlink:href="#unit" />
<use x="120" y="-80" xlink:href="#unit" />
<use x="220" y="-80" xlink:href="#unit" />
<use x="320" y="-80" xlink:href="#unit" />
<use x="420" y="-80" xlink:href="#unit" />
<use x="520" y="-80" xlink:href="#unit" />
<use x="620" y="-80" xlink:href="#unit" />
<use x="-80" y="20" xlink:href="#unit" />
<use x="20" y="20" xlink:href="#unit" />
<use x="120" y="20" xlink:href="#unit" />
<use x="220" y="20" xlink:href="#unit" />
<use x="320" y="20" xlink:href="#unit" />
<use x="420" y="20" xlink:href="#unit" />
<use x="520" y="20" xlink:href="#unit" />
<use x="620" y="20" xlink:href="#unit" />
<use x="-80" y="120" xlink:href="#unit" />
<use x="20" y="120" xlink:href="#unit" />
<use x="120" y="120" xlink:href="#unit" />
<use x="220" y="120" xlink:href="#unit" />
<use x="320" y="120" xlink:href="#unit" />
<use x="420" y="120" xlink:href="#unit" />
<use x="520" y="120" xlink:href="#unit" />
<use x="620" y="120" xlink:href="#unit" />
<use x="-80" y="220" xlink:href="#unit" />
<use x="20" y="220" xlink:href="#unit" />
<use x="120" y="220" xlink:href="#unit" />
<use x="220" y="220" xlink:href="#unit" />
<use x="320" y="220" xlink:href="#unit" />
<use x="420" y="220" xlink:href="#unit" />
<use x="520" y="220" xlink:href="#unit" />
<use x="620" y="220" xlink:href="#unit" />
<use x="-80" y="320" xlink:href="#unit" />
<use x="20" y="320" xlink:href="#unit" />
<use x="120" y="320" xlink:href="#unit" />
<use x="220" y="320" xlink:href="#unit" />
<use x="320" y="320" xlink:href="#unit" />
<use x="420" y="320" xlink:href="#unit" />
<use x="520" y="320" xlink:href="#unit" />
<use x="620" y="320" xlink:href="#unit" />
<use x="-80" y="420" xlink:href="#unit" />
<use x="20" y="420" xlink:href="#unit" />
<use x="120" y="420" xlink:href="#unit" />
<use x="220" y="420" xlink:href="#unit" />
<use x="320" y="420" xlink:href="#unit" />
<use x="420" y="420" xlink:href="#unit" />
<use x="520" y="420" xlink:href="#unit" />
<use x="620" y="420" xlink:href="#unit" />
<use x="-80" y="520" xlink:href="#unit" />
<use x="20" y="520" xlink:href="#unit" />
<use x="120" y="520" xlink:href="#unit" />
<use x="220" y="520" xlink:href="#unit" />
<use x="320" y="520" xlink:href="#unit" />
<use x="420" y="520" xlink:href="#unit" />
<use x="520" y="520" xlink:href="#unit" />
<use x="620" y="520" xlink:href="#unit" />
<use x="-80" y="620" xlink:href="#unit" />
<use x="20" y="620" xlink:href="#unit" />
<use x="120" y="620" xlink:href="#unit" />
<use x="220" y="620" xlink:href="#unit" />
<use x="320" y="620" xlink:href="#unit" />
<use x="420" y="620" xlink:href="#unit" />
<use x="520" y="620" xlink:href="#unit" />
<use x="620" y="620" xlink:href="#unit" />
</svg>
