<?xml version="1.0"?>
<!-- Generated by SVGo -->
<svg width="2000" height="400"
     xmlns="http://www.w3.org/2000/svg"
     xmlns:xlink="http://www.w3.org/1999/xlink">
<desc>Generated with https://github.com/marcelmue/konstrukt</desc>
<rect x="0" y="0" width="2000" height="400" style="fill:#ecf0f1" />
<defs>
<g id="unit">
<polygon points="0,0 0,50 50,50 50,0" style="fill:#e67e22" />
<polygon points="5,5 5,45 45,45 45,5" style="fill:#ecf0f1" />
<polygon points="10,10 10,40 40,40 40,10" style="fill:#e67e22" />
<polygon points="15,15 15,45 45,45 45,15" style="fill:#ecf0f1" />
</g>
</defs>
<use x="-50" y="-50" xlink:href="#unit" />
<use x="10" y="-50" xlink:href="#unit" />
<use x="70" y="-50" xlink:href="#unit" />
<use x="130" y="-50" xlink:href="#unit" />
<use x="190" y="-50" xlink:href="#unit" />
<use x="250" y="-50" xlink:href="#unit" />
<use x="310" y="-50" xlink:href="#unit" />
<use x="370" y="-50" xlink:href="#unit" />
<use x="430" y="-50" xlink:href="#unit" />
<use x="490" y="-50" xlink:href="#unit" />
<use x="550" y="-50" xlink:href="#unit" />
<use x="610" y="-50" xlink:href="#unit" />
<use x="670" y="-50" xlink:href="#unit" />
<use x="730" y="-50" xlink:href="#unit" />
<use x="790" y="-50" xlink:href="#unit" />
<use x="850" y="-50" xlink:href="#unit" />
<use x="910" y="-50" xlink:href="#unit" />
<use x="970" y="-50" xlink:href="#unit" />
<use x="1030" y="-50" xlink:href="#unit" />
<use x="1090" y="-50" xlink:href="#unit" />
<use x="1150" y="-50" xlink:href="#unit" />
<use x="1210" y="-50" xlink:href="#unit" />
<use x="1270" y="-50" xlink:href="#unit" />
<use x="1330" y="-50" xlink:href="#unit" />
<use x="1390" y="-50" xlink:href="#unit" />
<use x="1450" y="-50" xlink:href="#unit" />
<use x="1510" y="-50" xlink:href="#unit" />
<use x="1570" y="-50" xlink:href="#unit" />
<use x="1630" y="-50" xlink:href="#unit" />
<use x="1690" y="-50" xlink:href="#unit" />
<use x="1750" y="-50" xlink:href="#unit" />
<use x="1810" y="-50" xlink:href="#unit" />
<use x="1870" y="-50" xlink:href="#unit" />
<use x="1930" y="-50" xlink:href="#unit" />
<use x="1990" y="-50" xlink:href="#unit" />
<use x="2050" y="-50" xlink:href="#unit" />
<use x="2110" y="-50" xlink:href="#unit" />
<use x="2170" y="-50" xlink:href="#unit" />
<use x="-50" y="10" xlink:href="#unit" />
<use x="10" y="10" xlink:href="#unit" />
<use x="70" y="10" xlink:href="#unit" />
<use x="130" y="10" xlink:href="#unit" />
<use x="190" y="10" xlink:href="#unit" />
<use x="250" y="10" xlink:href="#unit" />
<use x="310" y="10" xlink:href="#unit" />
<use x="370" y="10" xlink:href="#unit" />
<use x="430" y="10" xlink:href="#unit" />
<use x="490" y="10" xlink:href="#unit" />
<use x="550" y="10" xlink:href="#unit" />
<use x="610" y="10" xlink:href="#unit" />
<use x="670" y="10" xlink:href="#unit" />
<use x="730" y="10" xlink:href="#unit" />
<use x="790" y="10" xlink:href="#unit" />
<use x="850" y="10" xlink:href="#unit" />
<use x="910" y="10" xlink:href="#unit" />
<use x="970" y="10" xlink:href="#unit" />
<use x="1030" y="10" xlink:href="#unit" />
<use x="1090" y="10" xlink:href="#unit" />
<use x="1150" y="10" xlink:href="#unit" />
<use x="1210" y="10" xlink:href="#unit" />
<use x="1270" y="10" xlink:href="#unit" />
<use x="1330" y="10" xlink:href="#unit" />
<use x="1390" y="10" xlink:href="#unit" />
<use x="1450" y="10" xlink:href="#unit" />
<use x="1510" y="10" xlink:href="#unit" />
<use x="1570" y="10" xlink:href="#unit" />
<use x="1630" y="10" xlink:href="#unit" />
<use x="1690" y="10" xlink:href="#unit" />
<use x="1750" y="10" xlink:href="#unit" />
<use x="1810" y="10" xlink:href="#unit" />
<use x="1870" y="10" xlink:href="#unit" />
<use x="1930" y="10" xlink:href="#unit" />
<use x="1990" y="10" xlink:href="#unit" />
<use x="2050" y="10" xlink:href="#unit" />
<use x="2110" y="10" xlink:href="#unit" />
<use x="2170" y="10" xlink:href="#unit" />
<use x="-50" y="70" xlink:href="#unit" />
<use x="10" y="70" xlink:href="#unit" />
<use x="70" y="70" xlink:href="#unit" />
<use x="130" y="70" xlink:href="#unit" />
<use x="190" y="70" xlink:href="#unit" />
<use x="250" y="70" xlink:href="#unit" />
<use x="310" y="70" xlink:href="#unit" />
<use x="370" y="70" xlink:href="#unit" />
<use x="430" y="70" xlink:href="#unit" />
<use x="490" y="70" xlink:href="#unit" />
<use x="550" y="70" xlink:href="#unit" />
<use x="610" y="70" xlink:href="#unit" />
<use x="670" y="70" xlink:href="#unit" />
<use x="730" y="70" xlink:href="#unit" />
<use x="790" y="70" xlink:href="#unit" />
<use x="850" y="70" xlink:href="#unit" />
<use x="910" y="70" xlink:href="#unit" />
<use x="970" y="70" xlink:href="#unit" />
<use x="1030" y="70" xlink:href="#unit" />
<use x="1090" y="70" xlink:href="#unit" />
<use x="1150" y="70" xlink:href="#unit" />
<use x="1210" y="70" xlink:href="#unit" />
<use x="1270" y="70" xlink:href="#unit" />
<use x="1330" y="70" xlink:href="#unit" />
<use x="1390" y="70" xlink:href="#unit" />
<use x="1450" y="70" xlink:href="#unit" />
<use x="1510" y="70" xlink:href="#unit" />
<use x="1570" y="70" xlink:href="#unit" />
<use x="1630" y="70" xlink:href="#unit" />
<use x="1690" y="70" xlink:href="#unit" />
<use x="1750" y="70" xlink:href="#unit" />
<use x="1810" y="70" xlink:href="#unit" />
<use x="1870" y="70" xlink:href="#unit" />
<use x="1930" y="70" xlink:href="#unit" />
<use x="1990" y="70" xlink:href="#unit" />
<use x="2050" y="70" xlink:href="#unit" />
<use x="2110" y="70" xlink:href="#unit" />
<use x="2170" y="70" xlink:href="#unit" />
<use x="-50" y="130" xlink:href="#unit" />
<use x="10" y="130" xlink:href="#unit" />
<use x="70" y="130" xlink:href="#unit" />
<use x="130" y="130" xlink:href="#unit" />
<use x="190" y="130" xlink:href="#unit" />
<use x="250" y="130" xlink:href="#unit" />
<use x="310" y="130" xlink:href="#unit" />
<use x="370" y="130" xlink:href="#unit" />
<use x="430" y="130" xlink:href="#unit" />
<use x="490" y="130" xlink:href="#unit" />
<use x="550" y="130" xlink:href="#unit" />
<use x="610" y="130" xlink:href="#unit" />
<use x="670" y="130" xlink:href="#unit" />
<use x="730" y="130" xlink:href="#unit" />
<use x="790" y="130" xlink:href="#unit" />
<use x="850" y="130" xlink:href="#unit" />
<use x="910" y="130" xlink:href="#unit" />
<use x="970" y="130" xlink:href="#unit" />
<use x="1030" y="130" xlink:href="#unit" />
<use x="1090" y="130" xlink:href="#unit" />
<use x="1150" y="130" xlink:href="#unit" />
<use x="1210" y="130" xlink:href="#unit" />
<use x="1270" y="130" xlink:href="#unit" />
<use x="1330" y="130" xlink:href="#unit" />
<use x="1390" y="130" xlink:href="#unit" />
<use x="1450" y="130" xlink:href="#unit" />
<use x="1510" y="130" xlink:href="#unit" />
<use x="1570" y="130" xlink:href="#unit" />
<use x="1630" y="130" xlink:href="#unit" />
<use x="1690" y="130" xlink:href="#unit" />
<use x="1750" y="130" xlink:href="#unit" />
<use x="1810" y="130" xlink:href="#unit" />
<use x="1870" y="130" xlink:href="#unit" />
<use x="1930" y="130" xlink:href="#unit" />
<use x="1990" y="130" xlink:href="#unit" />
<use x="2050" y="130" xlink:href="#unit" />
<use x="2110" y="130" xlink:href="#unit" />
<use x="2170" y="130" xlink:href="#unit" />
<use x="-50" y="190" xlink:href="#unit" />
<use x="10" y="190" xlink:href="#unit" />
<use x="70" y="190" xlink:href="#unit" />
<use x="130" y="190" xlink:href="#unit" />
<use x="190" y="190" xlink:href="#unit" />
<use x="250" y="190" xlink:href="#unit" />
<use x="310" y="190" xlink:href="#unit" />
<use x="370" y="190" xlink:href="#unit" />
<use x="430" y="190" xlink:href="#unit" />
<use x="490" y="190" xlink:href="#unit" />
<use x="550" y="190" xlink:href="#unit" />
<use x="610" y="190" xlink:href="#unit" />
<use x="670" y="190" xlink:href="#unit" />
<use x="730" y="190" xlink:href="#unit" />
<use x="790" y="190" xlink:href="#unit" />
<use x="850" y="190" xlink:href="#unit" />
<use x="910" y="190" xlink:href="#unit" />
<use x="970" y="190" xlink:href="#unit" />
<use x="1030" y="190" xlink:href="#unit" />
<use x="1090" y="190" xlink:href="#unit" />
<use x="1150" y="190" xlink:href="#unit" />
<use x="1210" y="190" xlink:href="#unit" />
<use x="1270" y="190" xlink:href="#unit" />
<use x="1330" y="190" xlink:href="#unit" />
<use x="1390" y="190" xlink:href="#unit" />
<use x="1450" y="190" xlink:href="#unit" />
<use x="1510" y="190" xlink:href="#unit" />
<use x="1570" y="190" xlink:href="#unit" />
<use x="1630" y="190" xlink:href="#unit" />
<use x="1690" y="190" xlink:href="#unit" />
<use x="1750" y="190" xlink:href="#unit" />
<use x="1810" y="190" xlink:href="#unit" />
<use x="1870" y="190" xlink:href="#unit" />
<use x="1930" y="190" xlink:href="#unit" />
<use x="1990" y="190" xlink:href="#unit" />
<use x="2050" y="190" xlink:href="#unit" />
<use x="2110" y="190" xlink:href="#unit" />
<use x="2170" y="190" xlink:href="#unit" />
<use x="-50" y="250" xlink:href="#unit" />
<use x="10" y="250" xlink:href="#unit" />
<use x="70" y="250" xlink:href="#unit" />
<use x="130" y="250" xlink:href="#unit" />
<use x="190" y="250" xlink:href="#unit" />
<use x="250" y="250" xlink:href="#unit" />
<use x="310" y="250" xlink:href="#unit" />
<use x="370" y="250" xlink:href="#unit" />
<use x="430" y="250" xlink:href="#unit" />
<use x="490" y="250" xlink:href="#unit" />
<use x="550" y="250" xlink:href="#unit" />
<use x="610" y="250" xlink:href="#unit" />
<use x="670" y="250" xlink:href="#unit" />
<use x="730" y="250" xlink:href="#unit" />
<use x="790" y="250" xlink:href="#unit" />
<use x="850" y="250" xlink:href="#unit" />
<use x="910" y="250" xlink:href="#unit" />
<use x="970" y="250" xlink:href="#unit" />
<use x="1030" y="250" xlink:href="#unit" />
<use x="1090" y="250" xlink:href="#unit" />
<use x="1150" y="250" xlink:href="#unit" />
<use x="1210" y="250" xlink:href="#unit" />
<use x="1270" y="250" xlink:href="#unit" />
<use x="1330" y="250" xlink:href="#unit" />
<use x="1390" y="250" xlink:href="#unit" />
<use x="1450" y="250" xlink:href="#unit" />
<use x="1510" y="250" xlink:href="#unit" />
<use x="1570" y="250" xlink:href="#unit" />
<use x="1630" y="250" xlink:href="#unit" />
<use x="1690" y="250" xlink:href="#unit" />
<use x="1750" y="250" xlink:href="#unit" />
<use x="1810" y="250" xlink:href="#unit" />
<use x="1870" y="250" xlink:href="#unit" />
<use x="1930" y="250" xlink:href="#unit" />
<use x="1990" y="250" xlink:href="#unit" />
<use x="2050" y="250" xlink:href="#unit" />
<use x="2110" y="250" xlink:href="#unit" />
<use x="2170" y="250" xlink:href="#unit" />
<use x="-50" y="310" xlink:href="#unit" />
<use x="10" y="310" xlink:href="#unit" />
<use x="70" y="310" xlink:href="#unit" />
<use x="130" y="310" xlink:href="#unit" />
<use x="190" y="310" xlink:href="#unit" />
<use x="250" y="310" xlink:href="#unit" />
<use x="310" y="310" xlink:href="#unit" />
<use x="370" y="310" xlink:href="#unit" />
<use x="430" y="310" xlink:href="#unit" />
<use x="490" y="310" xlink:href="#unit" />
<use x="550" y="310" xlink:href="#unit" />
<use x="610" y="310" xlink:href="#unit" />
<use x="670" y="310" xlink:href="#unit" />
<use x="730" y="310" xlink:href="#unit" />
<use x="790" y="310" xlink:href="#unit" />
<use x="850" y="310" xlink:href="#unit" />
<use x="910" y="310" xlink:href="#unit" />
<use x="970" y="310" xlink:href="#unit" />
<use x="1030" y="310" xlink:href="#unit" />
<use x="1090" y="310" xlink:href="#unit" />
<use x="1150" y="310" xlink:href="#unit" />
<use x="1210" y="310" xlink:href="#unit" />
<use x="1270" y="310" xlink:href="#unit" />
<use x="1330" y="310" xlink:href="#unit" />
<use x="1390" y="310" xlink:href="#unit" />
<use x="1450" y="310" xlink:href="#unit" />
<use x="1510" y="310" xlink:href="#unit" />
<use x="1570" y="310" xlink:href="#unit" />
<use x="1630" y="310" xlink:href="#unit" />
<use x="1690" y="310" xlink:href="#unit" />
<use x="1750" y="310" xlink:href="#unit" />
<use x="1810" y="310" xlink:href="#unit" />
<use x="1870" y="310" xlink:href="#unit" />
<use x="1930" y="310" xlink:href="#unit" />
<use x="1990" y="310" xlink:href="#unit" />
<use x="2050" y="310" xlink:href="#unit" />
<use x="2110" y="310" xlink:href="#unit" />
<use x="2170" y="310" xlink:href="#unit" />
<use x="-50" y="370" xlink:href="#unit" />
<use x="10" y="370" xlink:href="#unit" />
<use x="70" y="370" xlink:href="#unit" />
<use x="130" y="370" xlink:href="#unit" />
<use x="190" y="370" xlink:href="#unit" />
<use x="250" y="370" xlink:href="#unit" />
<use x="310" y="370" xlink:href="#unit" />
<use x="370" y="370" xlink:href="#unit" />
<use x="430" y="370" xlink:href="#unit" />
<use x="490" y="370" xlink:href="#unit" />
<use x="550" y="370" xlink:href="#unit" />
<use x="610" y="370" xlink:href="#unit" />
<use x="670" y="370" xlink:href="#unit" />
<use x="730" y="370" xlink:href="#unit" />
<use x="790" y="370" xlink:href="#unit" />
<use x="850" y="370" xlink:href="#unit" />
<use x="910" y="370" xlink:href="#unit" />
<use x="970" y="370" xlink:href="#unit" />
<use x="1030" y="370" xlink:href="#unit" />
<use x="1090" y="370" xlink:href="#unit" />
<use x="1150" y="370" xlink:href="#unit" />
<use x="1210" y="370" xlink:href="#unit" />
<use x="1270" y="370" xlink:href="#unit" />
<use x="1330" y="370" xlink:href="#unit" />
<use x="1390" y="370" xlink:href="#unit" />
<use x="1450" y="370" xlink:href="#unit" />
<use x="1510" y="370" xlink:href="#unit" />
<use x="1570" y="370" xlink:href="#unit" />
<use x="1630" y="370" xlink:href="#unit" />
<use x="1690" y="370" xlink:href="#unit" />
<use x="1750" y="370" xlink:href="#unit" />
<use x="1810" y="370" xlink:href="#unit" />
<use x="1870" y="370" xlink:href="#unit" />
<use x="1930" y="370" xlink:href="#unit" />
<use x="1990" y="370" xlink:href="#unit" />
<use x="2050" y="370" xlink:href="#unit" />
<use x="2110" y="370" xlink:href="#unit" />
<use x="2170" y="370" xlink:href="#unit" />
<use x="-50" y="430" xlink:href="#unit" />
<use x="10" y="430" xlink:href="#unit" />
<use x="70" y="430" xlink:href="#unit" />
<use x="130" y="430" xlink:href="#unit" />
<use x="190" y="430" xlink:href="#unit" />
<use x="250" y="430" xlink:href="#unit" />
<use x="310" y="430" xlink:href="#unit" />
<use x="370" y="430" xlink:href="#unit" />
<use x="430" y="430" xlink:href="#unit" />
<use x="490" y="430" xlink:href="#unit" />
<use x="550" y="430" xlink:href="#unit" />
<use x="610" y="430" xlink:href="#unit" />
<use x="670" y="430" xlink:href="#unit" />
<use x="730" y="430" xlink:href="#unit" />
<use x="790" y="430" xlink:href="#unit" />
<use x="850" y="430" xlink:href="#unit" />
<use x="910" y="430" xlink:href="#unit" />
<use x="970" y="430" xlink:href="#unit" />
<use x="1030" y="430" xlink:href="#unit" />
<use x="1090" y="430" xlink:href="#unit" />
<use x="1150" y="430" xlink:href="#unit" />
<use x="1210" y="430" xlink:href="#unit" />
<use x="1270" y="430" xlink:href="#unit" />
<use x="1330" y="430" xlink:href="#unit" />
<use x="1390" y="430" xlink:href="#unit" />
<use x="1450" y="430" xlink:href="#unit" />
<use x="1510" y="430" xlink:href="#unit" />
<use x="1570" y="430" xlink:href="#unit" />
<use x="1630" y="430" xlink:href="#unit" />
<use x="1690" y="430" xlink:href="#unit" />
<use x="1750" y="430" xlink:href="#unit" />
<use x="1810" y="430" xlink:href="#unit" />
<use x="1870" y="430" xlink:href="#unit" />
<use x="1930" y="430" xlink:href="#unit" />
<use x="1990" y="430" xlink:href="#unit" />
<use x="2050" y="430" xlink:href="#unit" />
<use x="2110" y="430" xlink:href="#unit" />
<use x="2170" y="430" xlink:href="#unit" />
<use x="-50" y="490" xlink:href="#unit" />
<use x="10" y="490" xlink:href="#unit" />
<use x="70" y="490" xlink:href="#unit" />
<use x="130" y="490" xlink:href="#unit" />
<use x="190" y="490" xlink:href="#unit" />
<use x="250" y="490" xlink:href="#unit" />
<use x="310" y="490" xlink:href="#unit" />
<use x="370" y="490" xlink:href="#unit" />
<use x="430" y="490" xlink:href="#unit" />
<use x="490" y="490" xlink:href="#unit" />
<use x="550" y="490" xlink:href="#unit" />
<use x="610" y="490" xlink:href="#unit" />
<use x="670" y="490" xlink:href="#unit" />
<use x="730" y="490" xlink:href="#unit" />
<use x="790" y="490" xlink:href="#unit" />
<use x="850" y="490" xlink:href="#unit" />
<use x="910" y="490" xlink:href="#unit" />
<use x="970" y="490" xlink:href="#unit" />
<use x="1030" y="490" xlink:href="#unit" />
<use x="1090" y="490" xlink:href="#unit" />
<use x="1150" y="490" xlink:href="#unit" />
<use x="1210" y="490" xlink:href="#unit" />
<use x="1270" y="490" xlink:href="#unit" />
<use x="1330" y="490" xlink:href="#unit" />
<use x="1390" y="490" xlink:href="#unit" />
<use x="1450" y="490" xlink:href="#unit" />
<use x="1510" y="490" xlink:href="#unit" />
<use x="1570" y="490" xlink:href="#unit" />
<use x="1630" y="490" xlink:href="#unit" />
<use x="1690" y="490" xlink:href="#unit" />
<use x="1750" y="490" xlink:href="#unit" />
<use x="1810" y="490" xlink:href="#unit" />
<use x="1870" y="490" xlink:href="#unit" />
<use x="1930" y="490" xlink:href="#unit" />
<use x="1990" y="490" xlink:href="#unit" />
<use x="2050" y="490" xlink:href="#unit" />
<use x="2110" y="490" xlink:href="#unit" />
<use x="2170" y="490" xlink:href="#unit" />
<use x="-50" y="550" xlink:href="#unit" />
<use x="10" y="550" xlink:href="#unit" />
<use x="70" y="550" xlink:href="#unit" />
<use x="130" y="550" xlink:href="#unit" />
<use x="190" y="550" xlink:href="#unit" />
<use x="250" y="550" xlink:href="#unit" />
<use x="310" y="550" xlink:href="#unit" />
<use x="370" y="550" xlink:href="#unit" />
<use x="430" y="550" xlink:href="#unit" />
<use x="490" y="550" xlink:href="#unit" />
<use x="550" y="550" xlink:href="#unit" />
<use x="610" y="550" xlink:href="#unit" />
<use x="670" y="550" xlink:href="#unit" />
<use x="730" y="550" xlink:href="#unit" />
<use x="790" y="550" xlink:href="#unit" />
<use x="850" y="550" xlink:href="#unit" />
<use x="910" y="550" xlink:href="#unit" />
<use x="970" y="550" xlink:href="#unit" />
<use x="1030" y="550" xlink:href="#unit" />
<use x="1090" y="550" xlink:href="#unit" />
<use x="1150" y="550" xlink:href="#unit" />
<use x="1210" y="550" xlink:href="#unit" />
<use x="1270" y="550" xlink:href="#unit" />
<use x="1330" y="550" xlink:href="#unit" />
<use x="1390" y="550" xlink:href="#unit" />
<use x="1450" y="550" xlink:href="#unit" />
<use x="1510" y="550" xlink:href="#unit" />
<use x="1570" y="550" xlink:href="#unit" />
<use x="1630" y="550" xlink:href="#unit" />
<use x="1690" y="550" xlink:href="#unit" />
<use x="1750" y="550" xlink:href="#unit" />
<use x="1810" y="550" xlink:href="#unit" />
<use x="1870" y="550" xlink:href="#unit" />
<use x="1930" y="550" xlink:href="#unit" />
<use x="1990" y="550" xlink:href="#unit" />
<use x="2050" y="550" xlink:href="#unit" />
<use x="2110" y="550" xlink:href="#unit" />
<use x="2170" y="550" xlink:href="#unit" />
</svg>
