<?xml version="1.0"?>
<!-- Generated by SVGo -->
<svg width="500" height="500"
     xmlns="http://www.w3.org/2000/svg"
     xmlns:xlink="http://www.w3.org/1999/xlink">
<desc>Generated with https://github.com/marcelmue/konstrukt</desc>
<rect x="0" y="0" width="500" height="500" style="fill:#ecf0f1" />
<defs>
<g id="unit">
<polygon points="0,0 0,50 50,50 50,0" style="fill:#e67e22" />
<polygon points="5,5 5,45 45,45 45,5" style="fill:#ecf0f1" />
<polygon points="10,10 10,40 40,40 40,10" style="fill:#e67e22" />
<polygon points="15,15 15,45 45,45 45,15" style="fill:#ecf0f1" />
</g>
</defs>
<use x="-50" y="-50" xlink:href="#unit" />
<use x="10" y="-50" xlink:href="#unit" />
<use x="70" y="-50" xlink:href="#unit" />
<use x="130" y="-50" xlink:href="#unit" />
<use x="190" y="-50" xlink:href="#unit" />
<use x="250" y="-50" xlink:href="#unit" />
<use x="310" y="-50" xlink:href="#unit" />
<use x="370" y="-50" xlink:href="#unit" />
<use x="430" y="-50" xlink:href="#unit" />
<use x="490" y="-50" xlink:href="#unit" />
<use x="550" y="-50" xlink:href="#unit" />
<use x="610" y="-50" xlink:href="#unit" />
<use x="670" y="-50" xlink:href="#unit" />
<use x="-50" y="10" xlink:href="#unit" />
<use x="10" y="10" xlink:href="#unit" />
<use x="70" y="10" xlink:href="#unit" />
<use x="130" y="10" xlink:href="#unit" />
<use x="190" y="10" xlink:href="#unit" />
<use x="250" y="10" xlink:href="#unit" />
<use x="310" y="10" xlink:href="#unit" />
<use x="370" y="10" xlink:href="#unit" />
<use x="430" y="10" xlink:href="#unit" />
<use x="490" y="10" xlink:href="#unit" />
<use x="550" y="10" xlink:href="#unit" />
<use x="610" y="10" xlink:href="#unit" />
<use x="670" y="10" xlink:href="#unit" />
<use x="-50" y="70" xlink:href="#unit" />
<use x="10" y="70" xlink:href="#unit" />
<use x="70" y="70" xlink:href="#unit" />
<use x="130" y="70" xlink:href="#unit" />
<use x="190" y="70" xlink:href="#unit" />
<use x="250" y="70" xlink:href="#unit" />
<use x="310" y="70" xlink:href="#unit" />
<use x="370" y="70" xlink:href="#unit" />
<use x="430" y="70" xlink:href="#unit" />
<use x="490" y="70" xlink:href="#unit" />
<use x="550" y="70" xlink:href="#unit" />
<use x="610" y="70" xlink:href="#unit" />
<use x="670" y="70" xlink:href="#unit" />
<use x="-50" y="130" xlink:href="#unit" />
<use x="10" y="130" xlink:href="#unit" />
<use x="70" y="130" xlink:href="#unit" />
<use x="130" y="130" xlink:href="#unit" />
<use x="190" y="130" xlink:href="#unit" />
<use x="250" y="130" xlink:href="#unit" />
<use x="310" y="130" xlink:href="#unit" />
<use x="370" y="130" xlink:href="#unit" />
<use x="430" y="130" xlink:href="#unit" />
<use x="490" y="130" xlink:href="#unit" />
<use x="550" y="130" xlink:href="#unit" />
<use x="610" y="130" xlink:href="#unit" />
<use x="670" y="130" xlink:href="#unit" />
<use x="-50" y="190" xlink:href="#unit" />
<use x="10" y="190" xlink:href="#unit" />
<use x="70" y="190" xlink:href="#unit" />
<use x="130" y="190" xlink:href="#unit" />
<use x="190" y="190" xlink:href="#unit" />
<use x="250" y="190" xlink:href="#unit" />
<use x="310" y="190" xlink:href="#unit" />
<use x="370" y="190" xlink:href="#unit" />
<use x="430" y="190" xlink:href="#unit" />
<use x="490" y="190" xlink:href="#unit" />
<use x="550" y="190" xlink:href="#unit" />
<use x="610" y="190" xlink:href="#unit" />
<use x="670" y="190" xlink:href="#unit" />
<use x="-50" y="250" xlink:href="#unit" />
<use x="10" y="250" xlink:href="#unit" />
<use x="70" y="250" xlink:href="#unit" />
<use x="130" y="250" xlink:href="#unit" />
<use x="190" y="250" xlink:href="#unit" />
<use x="250" y="250" xlink:href="#unit" />
<use x="310" y="250" xlink:href="#unit" />
<use x="370" y="250" xlink:href="#unit" />
<use x="430" y="250" xlink:href="#unit" />
<use x="490" y="250" xlink:href="#unit" />
<use x="550" y="250" xlink:href="#unit" />
<use x="610" y="250" xlink:href="#unit" />
<use x="670" y="250" xlink:href="#unit" />
<use x="-50" y="310" xlink:href="#unit" />
<use x="10" y="310" xlink:href="#unit" />
<use x="70" y="310" xlink:href="#unit" />
<use x="130" y="310" xlink:href="#unit" />
<use x="190" y="310" xlink:href="#unit" />
<use x="250" y="310" xlink:href="#unit" />
<use x="310" y="310" xlink:href="#unit" />
<use x="370" y="310" xlink:href="#unit" />
<use x="430" y="310" xlink:href="#unit" />
<use x="490" y="310" xlink:href="#unit" />
<use x="550" y="310" xlink:href="#unit" />
<use x="610" y="310" xlink:href="#unit" />
<use x="670" y="310" xlink:href="#unit" />
<use x="-50" y="370" xlink:href="#unit" />
<use x="10" y="370" xlink:href="#unit" />
<use x="70" y="370" xlink:href="#unit" />
<use x="130" y="370" xlink:href="#unit" />
<use x="190" y="370" xlink:href="#unit" />
<use x="250" y="370" xlink:href="#unit" />
<use x="310" y="370" xlink:href="#unit" />
<use x="370" y="370" xlink:href="#unit" />
<use x="430" y="370" xlink:href="#unit" />
<use x="490" y="370" xlink:href="#unit" />
<use x="550" y="370" xlink:href="#unit" />
<use x="610" y="370" xlink:href="#unit" />
<use x="670" y="370" xlink:href="#unit" />
<use x="-50" y="430" xlink:href="#unit" />
<use x="10" y="430" xlink:href="#unit" />
<use x="70" y="430" xlink:href="#unit" />
<use x="130" y="430" xlink:href="#unit" />
<use x="190" y="430" xlink:href="#unit" />
<use x="250" y="430" xlink:href="#unit" />
<use x="310" y="430" xlink:href="#unit" />
<use x="370" y="430" xlink:href="#unit" />
<use x="430" y="430" xlink:href="#unit" />
<use x="490" y="430" xlink:href="#unit" />
<use x="550" y="430" xlink:href="#unit" />
<use x="610" y="430" xlink:href="#unit" />
<use x="670" y="430" xlink:href="#unit" />
<use x="-50" y="490" xlink:href="#unit" />
<use x="10" y="490" xlink:href="#unit" />
<use x="70" y="490" xlink:href="#unit" />
<use x="130" y="490" xlink:href="#unit" />
<use x="190" y="490" xlink:href="#unit" />
<use x="250" y="490" xlink:href="#unit" />
<use x="310" y="490" xlink:href="#unit" />
<use x="370" y="490" xlink:href="#unit" />
<use x="430" y="490" xlink:href="#unit" />
<use x="490" y="490" xlink:href="#unit" />
<use x="550" y="490" xlink:href="#unit" />
<use x="610" y="490" xlink:href="#unit" />
<use x="670" y="490" xlink:href="#unit" />
<use x="-50" y="550" xlink:href="#unit" />
<use x="10" y="550" xlink:href="#unit" />
<use x="70" y="550" xlink:href="#unit" />
<use x="130" y="550" xlink:href="#unit" />
<use x="190" y="550" xlink:href="#unit" />
<use x="250" y="550" xlink:href="#unit" />
<use x="310" y="550" xlink:href="#unit" />
<use x="370" y="550" xlink:href="#unit" />
<use x="430" y="550" xlink:href="#unit" />
<use x="490" y="550" xlink:href="#unit" />
<use x="550" y="550" xlink:href="#unit" />
<use x="610" y="550" xlink:href="#unit" />
<use x="670" y="550" xlink:href="#unit" />
<use x="-50" y="610" xlink:href="#unit" />
<use x="10" y="610" xlink:href="#unit" />
<use x="70" y="610" xlink:href="#unit" />
<use x="130" y="610" xlink:href="#unit" />
<use x="190" y="610" xlink:href="#unit" />
<use x="250" y="610" xlink:href="#unit" />
<use x="310" y="610" xlink:href="#unit" />
<use x="370" y="610" xlink:href="#unit" />
<use x="430" y="610" xlink:href="#unit" />
<use x="490" y="610" xlink:href="#unit" />
<use x="550" y="610" xlink:href="#unit" />
<use x="610" y="610" xlink:href="#unit" />
<use x="670" y="610" xlink:href="#unit" />
<use x="-50" y="670" xlink:href="#unit" />
<use x="10" y="670" xlink:href="#unit" />
<use x="70" y="670" xlink:href="#unit" />
<use x="130" y="670" xlink:href="#unit" />
<use x="190" y="670" xlink:href="#unit" />
<use x="250" y="670" xlink:href="#unit" />
<use x="310" y="670" xlink:href="#unit" />
<use x="370" y="670" xlink:href="#unit" />
<use x="430" y="670" xlink:href="#unit" />
<use x="490" y="670" xlink:href="#unit" />
<use x="550" y="670" xlink:href="#unit" />
<use x="610" y="670" xlink:href="#unit" />
<use x="670" y="670" xlink:href="#unit" />
</svg>
