<?xml version="1.0"?>
<!-- Generated by SVGo -->
<svg width="2000" height="400"
     xmlns="http://www.w3.org/2000/svg"
     xmlns:xlink="http://www.w3.org/1999/xlink">
<desc>Generated with https://github.com/marcelmue/konstrukt</desc>
<defs>
<g id="left">
<polygon points="0,18 0,54 36,36 36,0" />
</g>
</defs>
<defs>
<g id="right">
<polygon points="0,0 0,36 36,54 36,18" />
</g>
</defs>
<rect x="0" y="0" width="2000" height="400" style="fill:#5040ef" />
<use x="-36" y="0" xlink:href="#left" style="fill:#304040" />
<use x="0" y="0" xlink:href="#right" style="fill:#50af9f" />
<use x="0" y="54" xlink:href="#left" style="fill:#304040" />
<use x="36" y="54" xlink:href="#right" style="fill:#50af9f" />
<use x="36" y="0" xlink:href="#left" style="fill:#304040" />
<use x="72" y="0" xlink:href="#right" style="fill:#50af9f" />
<use x="72" y="54" xlink:href="#left" style="fill:#304040" />
<use x="108" y="54" xlink:href="#right" style="fill:#50af9f" />
<use x="108" y="0" xlink:href="#left" style="fill:#304040" />
<use x="144" y="0" xlink:href="#right" style="fill:#50af9f" />
<use x="144" y="54" xlink:href="#left" style="fill:#304040" />
<use x="180" y="54" xlink:href="#right" style="fill:#50af9f" />
<use x="180" y="0" xlink:href="#left" style="fill:#304040" />
<use x="216" y="0" xlink:href="#right" style="fill:#50af9f" />
<use x="216" y="54" xlink:href="#left" style="fill:#304040" />
<use x="252" y="54" xlink:href="#right" style="fill:#50af9f" />
<use x="252" y="0" xlink:href="#left" style="fill:#304040" />
<use x="288" y="0" xlink:href="#right" style="fill:#50af9f" />
<use x="288" y="54" xlink:href="#left" style="fill:#304040" />
<use x="324" y="54" xlink:href="#right" style="fill:#50af9f" />
<use x="324" y="0" xlink:href="#left" style="fill:#304040" />
<use x="360" y="0" xlink:href="#right" style="fill:#50af9f" />
<use x="360" y="54" xlink:href="#left" style="fill:#304040" />
<use x="396" y="54" xlink:href="#right" style="fill:#50af9f" />
<use x="396" y="0" xlink:href="#left" style="fill:#304040" />
<use x="432" y="0" xlink:href="#right" style="fill:#50af9f" />
<use x="432" y="54" xlink:href="#left" style="fill:#304040" />
<use x="468" y="54" xlink:href="#right" style="fill:#50af9f" />
<use x="468" y="0" xlink:href="#left" style="fill:#304040" />
<use x="504" y="0" xlink:href="#right" style="fill:#50af9f" />
<use x="504" y="54" xlink:href="#left" style="fill:#304040" />
<use x="540" y="54" xlink:href="#right" style="fill:#50af9f" />
<use x="540" y="0" xlink:href="#left" style="fill:#304040" />
<use x="576" y="0" xlink:href="#right" style="fill:#50af9f" />
<use x="576" y="54" xlink:href="#left" style="fill:#304040" />
<use x="612" y="54" xlink:href="#right" style="fill:#50af9f" />
<use x="612" y="0" xlink:href="#left" style="fill:#304040" />
<use x="648" y="0" xlink:href="#right" style="fill:#50af9f" />
<use x="648" y="54" xlink:href="#left" style="fill:#304040" />
<use x="684" y="54" xlink:href="#right" style="fill:#50af9f" />
<use x="684" y="0" xlink:href="#left" style="fill:#304040" />
<use x="720" y="0" xlink:href="#right" style="fill:#50af9f" />
<use x="720" y="54" xlink:href="#left" style="fill:#304040" />
<use x="756" y="54" xlink:href="#right" style="fill:#50af9f" />
<use x="756" y="0" xlink:href="#left" style="fill:#304040" />
<use x="792" y="0" xlink:href="#right" style="fill:#50af9f" />
<use x="792" y="54" xlink:href="#left" style="fill:#304040" />
<use x="828" y="54" xlink:href="#right" style="fill:#50af9f" />
<use x="828" y="0" xlink:href="#left" style="fill:#304040" />
<use x="864" y="0" xlink:href="#right" style="fill:#50af9f" />
<use x="864" y="54" xlink:href="#left" style="fill:#304040" />
<use x="900" y="54" xlink:href="#right" style="fill:#50af9f" />
<use x="900" y="0" xlink:href="#left" style="fill:#304040" />
<use x="936" y="0" xlink:href="#right" style="fill:#50af9f" />
<use x="936" y="54" xlink:href="#left" style="fill:#304040" />
<use x="972" y="54" xlink:href="#right" style="fill:#50af9f" />
<use x="972" y="0" xlink:href="#left" style="fill:#304040" />
<use x="1008" y="0" xlink:href="#right" style="fill:#50af9f" />
<use x="1008" y="54" xlink:href="#left" style="fill:#304040" />
<use x="1044" y="54" xlink:href="#right" style="fill:#50af9f" />
<use x="1044" y="0" xlink:href="#left" style="fill:#304040" />
<use x="1080" y="0" xlink:href="#right" style="fill:#50af9f" />
<use x="1080" y="54" xlink:href="#left" style="fill:#304040" />
<use x="1116" y="54" xlink:href="#right" style="fill:#50af9f" />
<use x="1116" y="0" xlink:href="#left" style="fill:#304040" />
<use x="1152" y="0" xlink:href="#right" style="fill:#50af9f" />
<use x="1152" y="54" xlink:href="#left" style="fill:#304040" />
<use x="1188" y="54" xlink:href="#right" style="fill:#50af9f" />
<use x="1188" y="0" xlink:href="#left" style="fill:#304040" />
<use x="1224" y="0" xlink:href="#right" style="fill:#50af9f" />
<use x="1224" y="54" xlink:href="#left" style="fill:#304040" />
<use x="1260" y="54" xlink:href="#right" style="fill:#50af9f" />
<use x="1260" y="0" xlink:href="#left" style="fill:#304040" />
<use x="1296" y="0" xlink:href="#right" style="fill:#50af9f" />
<use x="1296" y="54" xlink:href="#left" style="fill:#304040" />
<use x="1332" y="54" xlink:href="#right" style="fill:#50af9f" />
<use x="1332" y="0" xlink:href="#left" style="fill:#304040" />
<use x="1368" y="0" xlink:href="#right" style="fill:#50af9f" />
<use x="1368" y="54" xlink:href="#left" style="fill:#304040" />
<use x="1404" y="54" xlink:href="#right" style="fill:#50af9f" />
<use x="1404" y="0" xlink:href="#left" style="fill:#304040" />
<use x="1440" y="0" xlink:href="#right" style="fill:#50af9f" />
<use x="1440" y="54" xlink:href="#left" style="fill:#304040" />
<use x="1476" y="54" xlink:href="#right" style="fill:#50af9f" />
<use x="1476" y="0" xlink:href="#left" style="fill:#304040" />
<use x="1512" y="0" xlink:href="#right" style="fill:#50af9f" />
<use x="1512" y="54" xlink:href="#left" style="fill:#304040" />
<use x="1548" y="54" xlink:href="#right" style="fill:#50af9f" />
<use x="1548" y="0" xlink:href="#left" style="fill:#304040" />
<use x="1584" y="0" xlink:href="#right" style="fill:#50af9f" />
<use x="1584" y="54" xlink:href="#left" style="fill:#304040" />
<use x="1620" y="54" xlink:href="#right" style="fill:#50af9f" />
<use x="1620" y="0" xlink:href="#left" style="fill:#304040" />
<use x="1656" y="0" xlink:href="#right" style="fill:#50af9f" />
<use x="1656" y="54" xlink:href="#left" style="fill:#304040" />
<use x="1692" y="54" xlink:href="#right" style="fill:#50af9f" />
<use x="1692" y="0" xlink:href="#left" style="fill:#304040" />
<use x="1728" y="0" xlink:href="#right" style="fill:#50af9f" />
<use x="1728" y="54" xlink:href="#left" style="fill:#304040" />
<use x="1764" y="54" xlink:href="#right" style="fill:#50af9f" />
<use x="1764" y="0" xlink:href="#left" style="fill:#304040" />
<use x="1800" y="0" xlink:href="#right" style="fill:#50af9f" />
<use x="1800" y="54" xlink:href="#left" style="fill:#304040" />
<use x="1836" y="54" xlink:href="#right" style="fill:#50af9f" />
<use x="1836" y="0" xlink:href="#left" style="fill:#304040" />
<use x="1872" y="0" xlink:href="#right" style="fill:#50af9f" />
<use x="1872" y="54" xlink:href="#left" style="fill:#304040" />
<use x="1908" y="54" xlink:href="#right" style="fill:#50af9f" />
<use x="1908" y="0" xlink:href="#left" style="fill:#304040" />
<use x="1944" y="0" xlink:href="#right" style="fill:#50af9f" />
<use x="1944" y="54" xlink:href="#left" style="fill:#304040" />
<use x="1980" y="54" xlink:href="#right" style="fill:#50af9f" />
<use x="1980" y="0" xlink:href="#left" style="fill:#304040" />
<use x="2016" y="0" xlink:href="#right" style="fill:#50af9f" />
<use x="2016" y="54" xlink:href="#left" style="fill:#304040" />
<use x="2052" y="54" xlink:href="#right" style="fill:#50af9f" />
<use x="-36" y="108" xlink:href="#left" style="fill:#304040" />
<use x="0" y="108" xlink:href="#right" style="fill:#50af9f" />
<use x="0" y="162" xlink:href="#left" style="fill:#304040" />
<use x="36" y="162" xlink:href="#right" style="fill:#50af9f" />
<use x="36" y="108" xlink:href="#left" style="fill:#304040" />
<use x="72" y="108" xlink:href="#right" style="fill:#50af9f" />
<use x="72" y="162" xlink:href="#left" style="fill:#304040" />
<use x="108" y="162" xlink:href="#right" style="fill:#50af9f" />
<use x="108" y="108" xlink:href="#left" style="fill:#304040" />
<use x="144" y="108" xlink:href="#right" style="fill:#50af9f" />
<use x="144" y="162" xlink:href="#left" style="fill:#304040" />
<use x="180" y="162" xlink:href="#right" style="fill:#50af9f" />
<use x="180" y="108" xlink:href="#left" style="fill:#304040" />
<use x="216" y="108" xlink:href="#right" style="fill:#50af9f" />
<use x="216" y="162" xlink:href="#left" style="fill:#304040" />
<use x="252" y="162" xlink:href="#right" style="fill:#50af9f" />
<use x="252" y="108" xlink:href="#left" style="fill:#304040" />
<use x="288" y="108" xlink:href="#right" style="fill:#50af9f" />
<use x="288" y="162" xlink:href="#left" style="fill:#304040" />
<use x="324" y="162" xlink:href="#right" style="fill:#50af9f" />
<use x="324" y="108" xlink:href="#left" style="fill:#304040" />
<use x="360" y="108" xlink:href="#right" style="fill:#50af9f" />
<use x="360" y="162" xlink:href="#left" style="fill:#304040" />
<use x="396" y="162" xlink:href="#right" style="fill:#50af9f" />
<use x="396" y="108" xlink:href="#left" style="fill:#304040" />
<use x="432" y="108" xlink:href="#right" style="fill:#50af9f" />
<use x="432" y="162" xlink:href="#left" style="fill:#304040" />
<use x="468" y="162" xlink:href="#right" style="fill:#50af9f" />
<use x="468" y="108" xlink:href="#left" style="fill:#304040" />
<use x="504" y="108" xlink:href="#right" style="fill:#50af9f" />
<use x="504" y="162" xlink:href="#left" style="fill:#304040" />
<use x="540" y="162" xlink:href="#right" style="fill:#50af9f" />
<use x="540" y="108" xlink:href="#left" style="fill:#304040" />
<use x="576" y="108" xlink:href="#right" style="fill:#50af9f" />
<use x="576" y="162" xlink:href="#left" style="fill:#304040" />
<use x="612" y="162" xlink:href="#right" style="fill:#50af9f" />
<use x="612" y="108" xlink:href="#left" style="fill:#304040" />
<use x="648" y="108" xlink:href="#right" style="fill:#50af9f" />
<use x="648" y="162" xlink:href="#left" style="fill:#304040" />
<use x="684" y="162" xlink:href="#right" style="fill:#50af9f" />
<use x="684" y="108" xlink:href="#left" style="fill:#304040" />
<use x="720" y="108" xlink:href="#right" style="fill:#50af9f" />
<use x="720" y="162" xlink:href="#left" style="fill:#304040" />
<use x="756" y="162" xlink:href="#right" style="fill:#50af9f" />
<use x="756" y="108" xlink:href="#left" style="fill:#304040" />
<use x="792" y="108" xlink:href="#right" style="fill:#50af9f" />
<use x="792" y="162" xlink:href="#left" style="fill:#304040" />
<use x="828" y="162" xlink:href="#right" style="fill:#50af9f" />
<use x="828" y="108" xlink:href="#left" style="fill:#304040" />
<use x="864" y="108" xlink:href="#right" style="fill:#50af9f" />
<use x="864" y="162" xlink:href="#left" style="fill:#304040" />
<use x="900" y="162" xlink:href="#right" style="fill:#50af9f" />
<use x="900" y="108" xlink:href="#left" style="fill:#304040" />
<use x="936" y="108" xlink:href="#right" style="fill:#50af9f" />
<use x="936" y="162" xlink:href="#left" style="fill:#304040" />
<use x="972" y="162" xlink:href="#right" style="fill:#50af9f" />
<use x="972" y="108" xlink:href="#left" style="fill:#304040" />
<use x="1008" y="108" xlink:href="#right" style="fill:#50af9f" />
<use x="1008" y="162" xlink:href="#left" style="fill:#304040" />
<use x="1044" y="162" xlink:href="#right" style="fill:#50af9f" />
<use x="1044" y="108" xlink:href="#left" style="fill:#304040" />
<use x="1080" y="108" xlink:href="#right" style="fill:#50af9f" />
<use x="1080" y="162" xlink:href="#left" style="fill:#304040" />
<use x="1116" y="162" xlink:href="#right" style="fill:#50af9f" />
<use x="1116" y="108" xlink:href="#left" style="fill:#304040" />
<use x="1152" y="108" xlink:href="#right" style="fill:#50af9f" />
<use x="1152" y="162" xlink:href="#left" style="fill:#304040" />
<use x="1188" y="162" xlink:href="#right" style="fill:#50af9f" />
<use x="1188" y="108" xlink:href="#left" style="fill:#304040" />
<use x="1224" y="108" xlink:href="#right" style="fill:#50af9f" />
<use x="1224" y="162" xlink:href="#left" style="fill:#304040" />
<use x="1260" y="162" xlink:href="#right" style="fill:#50af9f" />
<use x="1260" y="108" xlink:href="#left" style="fill:#304040" />
<use x="1296" y="108" xlink:href="#right" style="fill:#50af9f" />
<use x="1296" y="162" xlink:href="#left" style="fill:#304040" />
<use x="1332" y="162" xlink:href="#right" style="fill:#50af9f" />
<use x="1332" y="108" xlink:href="#left" style="fill:#304040" />
<use x="1368" y="108" xlink:href="#right" style="fill:#50af9f" />
<use x="1368" y="162" xlink:href="#left" style="fill:#304040" />
<use x="1404" y="162" xlink:href="#right" style="fill:#50af9f" />
<use x="1404" y="108" xlink:href="#left" style="fill:#304040" />
<use x="1440" y="108" xlink:href="#right" style="fill:#50af9f" />
<use x="1440" y="162" xlink:href="#left" style="fill:#304040" />
<use x="1476" y="162" xlink:href="#right" style="fill:#50af9f" />
<use x="1476" y="108" xlink:href="#left" style="fill:#304040" />
<use x="1512" y="108" xlink:href="#right" style="fill:#50af9f" />
<use x="1512" y="162" xlink:href="#left" style="fill:#304040" />
<use x="1548" y="162" xlink:href="#right" style="fill:#50af9f" />
<use x="1548" y="108" xlink:href="#left" style="fill:#304040" />
<use x="1584" y="108" xlink:href="#right" style="fill:#50af9f" />
<use x="1584" y="162" xlink:href="#left" style="fill:#304040" />
<use x="1620" y="162" xlink:href="#right" style="fill:#50af9f" />
<use x="1620" y="108" xlink:href="#left" style="fill:#304040" />
<use x="1656" y="108" xlink:href="#right" style="fill:#50af9f" />
<use x="1656" y="162" xlink:href="#left" style="fill:#304040" />
<use x="1692" y="162" xlink:href="#right" style="fill:#50af9f" />
<use x="1692" y="108" xlink:href="#left" style="fill:#304040" />
<use x="1728" y="108" xlink:href="#right" style="fill:#50af9f" />
<use x="1728" y="162" xlink:href="#left" style="fill:#304040" />
<use x="1764" y="162" xlink:href="#right" style="fill:#50af9f" />
<use x="1764" y="108" xlink:href="#left" style="fill:#304040" />
<use x="1800" y="108" xlink:href="#right" style="fill:#50af9f" />
<use x="1800" y="162" xlink:href="#left" style="fill:#304040" />
<use x="1836" y="162" xlink:href="#right" style="fill:#50af9f" />
<use x="1836" y="108" xlink:href="#left" style="fill:#304040" />
<use x="1872" y="108" xlink:href="#right" style="fill:#50af9f" />
<use x="1872" y="162" xlink:href="#left" style="fill:#304040" />
<use x="1908" y="162" xlink:href="#right" style="fill:#50af9f" />
<use x="1908" y="108" xlink:href="#left" style="fill:#304040" />
<use x="1944" y="108" xlink:href="#right" style="fill:#50af9f" />
<use x="1944" y="162" xlink:href="#left" style="fill:#304040" />
<use x="1980" y="162" xlink:href="#right" style="fill:#50af9f" />
<use x="1980" y="108" xlink:href="#left" style="fill:#304040" />
<use x="2016" y="108" xlink:href="#right" style="fill:#50af9f" />
<use x="2016" y="162" xlink:href="#left" style="fill:#304040" />
<use x="2052" y="162" xlink:href="#right" style="fill:#50af9f" />
<use x="-36" y="216" xlink:href="#left" style="fill:#304040" />
<use x="0" y="216" xlink:href="#right" style="fill:#50af9f" />
<use x="0" y="270" xlink:href="#left" style="fill:#304040" />
<use x="36" y="270" xlink:href="#right" style="fill:#50af9f" />
<use x="36" y="216" xlink:href="#left" style="fill:#304040" />
<use x="72" y="216" xlink:href="#right" style="fill:#50af9f" />
<use x="72" y="270" xlink:href="#left" style="fill:#304040" />
<use x="108" y="270" xlink:href="#right" style="fill:#50af9f" />
<use x="108" y="216" xlink:href="#left" style="fill:#304040" />
<use x="144" y="216" xlink:href="#right" style="fill:#50af9f" />
<use x="144" y="270" xlink:href="#left" style="fill:#304040" />
<use x="180" y="270" xlink:href="#right" style="fill:#50af9f" />
<use x="180" y="216" xlink:href="#left" style="fill:#304040" />
<use x="216" y="216" xlink:href="#right" style="fill:#50af9f" />
<use x="216" y="270" xlink:href="#left" style="fill:#304040" />
<use x="252" y="270" xlink:href="#right" style="fill:#50af9f" />
<use x="252" y="216" xlink:href="#left" style="fill:#304040" />
<use x="288" y="216" xlink:href="#right" style="fill:#50af9f" />
<use x="288" y="270" xlink:href="#left" style="fill:#304040" />
<use x="324" y="270" xlink:href="#right" style="fill:#50af9f" />
<use x="324" y="216" xlink:href="#left" style="fill:#304040" />
<use x="360" y="216" xlink:href="#right" style="fill:#50af9f" />
<use x="360" y="270" xlink:href="#left" style="fill:#304040" />
<use x="396" y="270" xlink:href="#right" style="fill:#50af9f" />
<use x="396" y="216" xlink:href="#left" style="fill:#304040" />
<use x="432" y="216" xlink:href="#right" style="fill:#50af9f" />
<use x="432" y="270" xlink:href="#left" style="fill:#304040" />
<use x="468" y="270" xlink:href="#right" style="fill:#50af9f" />
<use x="468" y="216" xlink:href="#left" style="fill:#304040" />
<use x="504" y="216" xlink:href="#right" style="fill:#50af9f" />
<use x="504" y="270" xlink:href="#left" style="fill:#304040" />
<use x="540" y="270" xlink:href="#right" style="fill:#50af9f" />
<use x="540" y="216" xlink:href="#left" style="fill:#304040" />
<use x="576" y="216" xlink:href="#right" style="fill:#50af9f" />
<use x="576" y="270" xlink:href="#left" style="fill:#304040" />
<use x="612" y="270" xlink:href="#right" style="fill:#50af9f" />
<use x="612" y="216" xlink:href="#left" style="fill:#304040" />
<use x="648" y="216" xlink:href="#right" style="fill:#50af9f" />
<use x="648" y="270" xlink:href="#left" style="fill:#304040" />
<use x="684" y="270" xlink:href="#right" style="fill:#50af9f" />
<use x="684" y="216" xlink:href="#left" style="fill:#304040" />
<use x="720" y="216" xlink:href="#right" style="fill:#50af9f" />
<use x="720" y="270" xlink:href="#left" style="fill:#304040" />
<use x="756" y="270" xlink:href="#right" style="fill:#50af9f" />
<use x="756" y="216" xlink:href="#left" style="fill:#304040" />
<use x="792" y="216" xlink:href="#right" style="fill:#50af9f" />
<use x="792" y="270" xlink:href="#left" style="fill:#304040" />
<use x="828" y="270" xlink:href="#right" style="fill:#50af9f" />
<use x="828" y="216" xlink:href="#left" style="fill:#304040" />
<use x="864" y="216" xlink:href="#right" style="fill:#50af9f" />
<use x="864" y="270" xlink:href="#left" style="fill:#304040" />
<use x="900" y="270" xlink:href="#right" style="fill:#50af9f" />
<use x="900" y="216" xlink:href="#left" style="fill:#304040" />
<use x="936" y="216" xlink:href="#right" style="fill:#50af9f" />
<use x="936" y="270" xlink:href="#left" style="fill:#304040" />
<use x="972" y="270" xlink:href="#right" style="fill:#50af9f" />
<use x="972" y="216" xlink:href="#left" style="fill:#304040" />
<use x="1008" y="216" xlink:href="#right" style="fill:#50af9f" />
<use x="1008" y="270" xlink:href="#left" style="fill:#304040" />
<use x="1044" y="270" xlink:href="#right" style="fill:#50af9f" />
<use x="1044" y="216" xlink:href="#left" style="fill:#304040" />
<use x="1080" y="216" xlink:href="#right" style="fill:#50af9f" />
<use x="1080" y="270" xlink:href="#left" style="fill:#304040" />
<use x="1116" y="270" xlink:href="#right" style="fill:#50af9f" />
<use x="1116" y="216" xlink:href="#left" style="fill:#304040" />
<use x="1152" y="216" xlink:href="#right" style="fill:#50af9f" />
<use x="1152" y="270" xlink:href="#left" style="fill:#304040" />
<use x="1188" y="270" xlink:href="#right" style="fill:#50af9f" />
<use x="1188" y="216" xlink:href="#left" style="fill:#304040" />
<use x="1224" y="216" xlink:href="#right" style="fill:#50af9f" />
<use x="1224" y="270" xlink:href="#left" style="fill:#304040" />
<use x="1260" y="270" xlink:href="#right" style="fill:#50af9f" />
<use x="1260" y="216" xlink:href="#left" style="fill:#304040" />
<use x="1296" y="216" xlink:href="#right" style="fill:#50af9f" />
<use x="1296" y="270" xlink:href="#left" style="fill:#304040" />
<use x="1332" y="270" xlink:href="#right" style="fill:#50af9f" />
<use x="1332" y="216" xlink:href="#left" style="fill:#304040" />
<use x="1368" y="216" xlink:href="#right" style="fill:#50af9f" />
<use x="1368" y="270" xlink:href="#left" style="fill:#304040" />
<use x="1404" y="270" xlink:href="#right" style="fill:#50af9f" />
<use x="1404" y="216" xlink:href="#left" style="fill:#304040" />
<use x="1440" y="216" xlink:href="#right" style="fill:#50af9f" />
<use x="1440" y="270" xlink:href="#left" style="fill:#304040" />
<use x="1476" y="270" xlink:href="#right" style="fill:#50af9f" />
<use x="1476" y="216" xlink:href="#left" style="fill:#304040" />
<use x="1512" y="216" xlink:href="#right" style="fill:#50af9f" />
<use x="1512" y="270" xlink:href="#left" style="fill:#304040" />
<use x="1548" y="270" xlink:href="#right" style="fill:#50af9f" />
<use x="1548" y="216" xlink:href="#left" style="fill:#304040" />
<use x="1584" y="216" xlink:href="#right" style="fill:#50af9f" />
<use x="1584" y="270" xlink:href="#left" style="fill:#304040" />
<use x="1620" y="270" xlink:href="#right" style="fill:#50af9f" />
<use x="1620" y="216" xlink:href="#left" style="fill:#304040" />
<use x="1656" y="216" xlink:href="#right" style="fill:#50af9f" />
<use x="1656" y="270" xlink:href="#left" style="fill:#304040" />
<use x="1692" y="270" xlink:href="#right" style="fill:#50af9f" />
<use x="1692" y="216" xlink:href="#left" style="fill:#304040" />
<use x="1728" y="216" xlink:href="#right" style="fill:#50af9f" />
<use x="1728" y="270" xlink:href="#left" style="fill:#304040" />
<use x="1764" y="270" xlink:href="#right" style="fill:#50af9f" />
<use x="1764" y="216" xlink:href="#left" style="fill:#304040" />
<use x="1800" y="216" xlink:href="#right" style="fill:#50af9f" />
<use x="1800" y="270" xlink:href="#left" style="fill:#304040" />
<use x="1836" y="270" xlink:href="#right" style="fill:#50af9f" />
<use x="1836" y="216" xlink:href="#left" style="fill:#304040" />
<use x="1872" y="216" xlink:href="#right" style="fill:#50af9f" />
<use x="1872" y="270" xlink:href="#left" style="fill:#304040" />
<use x="1908" y="270" xlink:href="#right" style="fill:#50af9f" />
<use x="1908" y="216" xlink:href="#left" style="fill:#304040" />
<use x="1944" y="216" xlink:href="#right" style="fill:#50af9f" />
<use x="1944" y="270" xlink:href="#left" style="fill:#304040" />
<use x="1980" y="270" xlink:href="#right" style="fill:#50af9f" />
<use x="1980" y="216" xlink:href="#left" style="fill:#304040" />
<use x="2016" y="216" xlink:href="#right" style="fill:#50af9f" />
<use x="2016" y="270" xlink:href="#left" style="fill:#304040" />
<use x="2052" y="270" xlink:href="#right" style="fill:#50af9f" />
<use x="-36" y="324" xlink:href="#left" style="fill:#304040" />
<use x="0" y="324" xlink:href="#right" style="fill:#50af9f" />
<use x="0" y="378" xlink:href="#left" style="fill:#304040" />
<use x="36" y="378" xlink:href="#right" style="fill:#50af9f" />
<use x="36" y="324" xlink:href="#left" style="fill:#304040" />
<use x="72" y="324" xlink:href="#right" style="fill:#50af9f" />
<use x="72" y="378" xlink:href="#left" style="fill:#304040" />
<use x="108" y="378" xlink:href="#right" style="fill:#50af9f" />
<use x="108" y="324" xlink:href="#left" style="fill:#304040" />
<use x="144" y="324" xlink:href="#right" style="fill:#50af9f" />
<use x="144" y="378" xlink:href="#left" style="fill:#304040" />
<use x="180" y="378" xlink:href="#right" style="fill:#50af9f" />
<use x="180" y="324" xlink:href="#left" style="fill:#304040" />
<use x="216" y="324" xlink:href="#right" style="fill:#50af9f" />
<use x="216" y="378" xlink:href="#left" style="fill:#304040" />
<use x="252" y="378" xlink:href="#right" style="fill:#50af9f" />
<use x="252" y="324" xlink:href="#left" style="fill:#304040" />
<use x="288" y="324" xlink:href="#right" style="fill:#50af9f" />
<use x="288" y="378" xlink:href="#left" style="fill:#304040" />
<use x="324" y="378" xlink:href="#right" style="fill:#50af9f" />
<use x="324" y="324" xlink:href="#left" style="fill:#304040" />
<use x="360" y="324" xlink:href="#right" style="fill:#50af9f" />
<use x="360" y="378" xlink:href="#left" style="fill:#304040" />
<use x="396" y="378" xlink:href="#right" style="fill:#50af9f" />
<use x="396" y="324" xlink:href="#left" style="fill:#304040" />
<use x="432" y="324" xlink:href="#right" style="fill:#50af9f" />
<use x="432" y="378" xlink:href="#left" style="fill:#304040" />
<use x="468" y="378" xlink:href="#right" style="fill:#50af9f" />
<use x="468" y="324" xlink:href="#left" style="fill:#304040" />
<use x="504" y="324" xlink:href="#right" style="fill:#50af9f" />
<use x="504" y="378" xlink:href="#left" style="fill:#304040" />
<use x="540" y="378" xlink:href="#right" style="fill:#50af9f" />
<use x="540" y="324" xlink:href="#left" style="fill:#304040" />
<use x="576" y="324" xlink:href="#right" style="fill:#50af9f" />
<use x="576" y="378" xlink:href="#left" style="fill:#304040" />
<use x="612" y="378" xlink:href="#right" style="fill:#50af9f" />
<use x="612" y="324" xlink:href="#left" style="fill:#304040" />
<use x="648" y="324" xlink:href="#right" style="fill:#50af9f" />
<use x="648" y="378" xlink:href="#left" style="fill:#304040" />
<use x="684" y="378" xlink:href="#right" style="fill:#50af9f" />
<use x="684" y="324" xlink:href="#left" style="fill:#304040" />
<use x="720" y="324" xlink:href="#right" style="fill:#50af9f" />
<use x="720" y="378" xlink:href="#left" style="fill:#304040" />
<use x="756" y="378" xlink:href="#right" style="fill:#50af9f" />
<use x="756" y="324" xlink:href="#left" style="fill:#304040" />
<use x="792" y="324" xlink:href="#right" style="fill:#50af9f" />
<use x="792" y="378" xlink:href="#left" style="fill:#304040" />
<use x="828" y="378" xlink:href="#right" style="fill:#50af9f" />
<use x="828" y="324" xlink:href="#left" style="fill:#304040" />
<use x="864" y="324" xlink:href="#right" style="fill:#50af9f" />
<use x="864" y="378" xlink:href="#left" style="fill:#304040" />
<use x="900" y="378" xlink:href="#right" style="fill:#50af9f" />
<use x="900" y="324" xlink:href="#left" style="fill:#304040" />
<use x="936" y="324" xlink:href="#right" style="fill:#50af9f" />
<use x="936" y="378" xlink:href="#left" style="fill:#304040" />
<use x="972" y="378" xlink:href="#right" style="fill:#50af9f" />
<use x="972" y="324" xlink:href="#left" style="fill:#304040" />
<use x="1008" y="324" xlink:href="#right" style="fill:#50af9f" />
<use x="1008" y="378" xlink:href="#left" style="fill:#304040" />
<use x="1044" y="378" xlink:href="#right" style="fill:#50af9f" />
<use x="1044" y="324" xlink:href="#left" style="fill:#304040" />
<use x="1080" y="324" xlink:href="#right" style="fill:#50af9f" />
<use x="1080" y="378" xlink:href="#left" style="fill:#304040" />
<use x="1116" y="378" xlink:href="#right" style="fill:#50af9f" />
<use x="1116" y="324" xlink:href="#left" style="fill:#304040" />
<use x="1152" y="324" xlink:href="#right" style="fill:#50af9f" />
<use x="1152" y="378" xlink:href="#left" style="fill:#304040" />
<use x="1188" y="378" xlink:href="#right" style="fill:#50af9f" />
<use x="1188" y="324" xlink:href="#left" style="fill:#304040" />
<use x="1224" y="324" xlink:href="#right" style="fill:#50af9f" />
<use x="1224" y="378" xlink:href="#left" style="fill:#304040" />
<use x="1260" y="378" xlink:href="#right" style="fill:#50af9f" />
<use x="1260" y="324" xlink:href="#left" style="fill:#304040" />
<use x="1296" y="324" xlink:href="#right" style="fill:#50af9f" />
<use x="1296" y="378" xlink:href="#left" style="fill:#304040" />
<use x="1332" y="378" xlink:href="#right" style="fill:#50af9f" />
<use x="1332" y="324" xlink:href="#left" style="fill:#304040" />
<use x="1368" y="324" xlink:href="#right" style="fill:#50af9f" />
<use x="1368" y="378" xlink:href="#left" style="fill:#304040" />
<use x="1404" y="378" xlink:href="#right" style="fill:#50af9f" />
<use x="1404" y="324" xlink:href="#left" style="fill:#304040" />
<use x="1440" y="324" xlink:href="#right" style="fill:#50af9f" />
<use x="1440" y="378" xlink:href="#left" style="fill:#304040" />
<use x="1476" y="378" xlink:href="#right" style="fill:#50af9f" />
<use x="1476" y="324" xlink:href="#left" style="fill:#304040" />
<use x="1512" y="324" xlink:href="#right" style="fill:#50af9f" />
<use x="1512" y="378" xlink:href="#left" style="fill:#304040" />
<use x="1548" y="378" xlink:href="#right" style="fill:#50af9f" />
<use x="1548" y="324" xlink:href="#left" style="fill:#304040" />
<use x="1584" y="324" xlink:href="#right" style="fill:#50af9f" />
<use x="1584" y="378" xlink:href="#left" style="fill:#304040" />
<use x="1620" y="378" xlink:href="#right" style="fill:#50af9f" />
<use x="1620" y="324" xlink:href="#left" style="fill:#304040" />
<use x="1656" y="324" xlink:href="#right" style="fill:#50af9f" />
<use x="1656" y="378" xlink:href="#left" style="fill:#304040" />
<use x="1692" y="378" xlink:href="#right" style="fill:#50af9f" />
<use x="1692" y="324" xlink:href="#left" style="fill:#304040" />
<use x="1728" y="324" xlink:href="#right" style="fill:#50af9f" />
<use x="1728" y="378" xlink:href="#left" style="fill:#304040" />
<use x="1764" y="378" xlink:href="#right" style="fill:#50af9f" />
<use x="1764" y="324" xlink:href="#left" style="fill:#304040" />
<use x="1800" y="324" xlink:href="#right" style="fill:#50af9f" />
<use x="1800" y="378" xlink:href="#left" style="fill:#304040" />
<use x="1836" y="378" xlink:href="#right" style="fill:#50af9f" />
<use x="1836" y="324" xlink:href="#left" style="fill:#304040" />
<use x="1872" y="324" xlink:href="#right" style="fill:#50af9f" />
<use x="1872" y="378" xlink:href="#left" style="fill:#304040" />
<use x="1908" y="378" xlink:href="#right" style="fill:#50af9f" />
<use x="1908" y="324" xlink:href="#left" style="fill:#304040" />
<use x="1944" y="324" xlink:href="#right" style="fill:#50af9f" />
<use x="1944" y="378" xlink:href="#left" style="fill:#304040" />
<use x="1980" y="378" xlink:href="#right" style="fill:#50af9f" />
<use x="1980" y="324" xlink:href="#left" style="fill:#304040" />
<use x="2016" y="324" xlink:href="#right" style="fill:#50af9f" />
<use x="2016" y="378" xlink:href="#left" style="fill:#304040" />
<use x="2052" y="378" xlink:href="#right" style="fill:#50af9f" />
</svg>
