<?xml version="1.0"?>
<!-- Generated by SVGo -->
<svg width="2000" height="400"
     xmlns="http://www.w3.org/2000/svg"
     xmlns:xlink="http://www.w3.org/1999/xlink">
<defs>
<g id="unit">
<polygon points="0,50 25,50 0,25" />
<polygon points="50,50 25,25 50,25" />
<polygon points="25,25 25,0 0,0" />
</g>
</defs>
<rect x="0" y="0" width="50" height="50" style="fill: #000000" />
<use x="0" y="0" xlink:href="#unit" style="fill:#00a8ff" />
<rect x="0" y="50" width="50" height="50" style="fill: #00a8ff" />
<use x="0" y="50" xlink:href="#unit" style="fill:#000000" />
<rect x="0" y="100" width="50" height="50" style="fill: #000000" />
<use x="0" y="100" xlink:href="#unit" style="fill:#00a8ff" />
<rect x="0" y="150" width="50" height="50" style="fill: #00a8ff" />
<use x="0" y="150" xlink:href="#unit" style="fill:#000000" />
<rect x="0" y="200" width="50" height="50" style="fill: #000000" />
<use x="0" y="200" xlink:href="#unit" style="fill:#00a8ff" />
<rect x="0" y="250" width="50" height="50" style="fill: #00a8ff" />
<use x="0" y="250" xlink:href="#unit" style="fill:#000000" />
<rect x="0" y="300" width="50" height="50" style="fill: #000000" />
<use x="0" y="300" xlink:href="#unit" style="fill:#00a8ff" />
<rect x="0" y="350" width="50" height="50" style="fill: #00a8ff" />
<use x="0" y="350" xlink:href="#unit" style="fill:#000000" />
<rect x="50" y="0" width="50" height="50" style="fill: #00a8ff" />
<use x="50" y="0" xlink:href="#unit" style="fill:#000000" />
<rect x="50" y="50" width="50" height="50" style="fill: #000000" />
<use x="50" y="50" xlink:href="#unit" style="fill:#00a8ff" />
<rect x="50" y="100" width="50" height="50" style="fill: #00a8ff" />
<use x="50" y="100" xlink:href="#unit" style="fill:#000000" />
<rect x="50" y="150" width="50" height="50" style="fill: #000000" />
<use x="50" y="150" xlink:href="#unit" style="fill:#00a8ff" />
<rect x="50" y="200" width="50" height="50" style="fill: #00a8ff" />
<use x="50" y="200" xlink:href="#unit" style="fill:#000000" />
<rect x="50" y="250" width="50" height="50" style="fill: #000000" />
<use x="50" y="250" xlink:href="#unit" style="fill:#00a8ff" />
<rect x="50" y="300" width="50" height="50" style="fill: #00a8ff" />
<use x="50" y="300" xlink:href="#unit" style="fill:#000000" />
<rect x="50" y="350" width="50" height="50" style="fill: #000000" />
<use x="50" y="350" xlink:href="#unit" style="fill:#00a8ff" />
<rect x="100" y="0" width="50" height="50" style="fill: #000000" />
<use x="100" y="0" xlink:href="#unit" style="fill:#00a8ff" />
<rect x="100" y="50" width="50" height="50" style="fill: #00a8ff" />
<use x="100" y="50" xlink:href="#unit" style="fill:#000000" />
<rect x="100" y="100" width="50" height="50" style="fill: #000000" />
<use x="100" y="100" xlink:href="#unit" style="fill:#00a8ff" />
<rect x="100" y="150" width="50" height="50" style="fill: #00a8ff" />
<use x="100" y="150" xlink:href="#unit" style="fill:#000000" />
<rect x="100" y="200" width="50" height="50" style="fill: #000000" />
<use x="100" y="200" xlink:href="#unit" style="fill:#00a8ff" />
<rect x="100" y="250" width="50" height="50" style="fill: #00a8ff" />
<use x="100" y="250" xlink:href="#unit" style="fill:#000000" />
<rect x="100" y="300" width="50" height="50" style="fill: #000000" />
<use x="100" y="300" xlink:href="#unit" style="fill:#00a8ff" />
<rect x="100" y="350" width="50" height="50" style="fill: #00a8ff" />
<use x="100" y="350" xlink:href="#unit" style="fill:#000000" />
<rect x="150" y="0" width="50" height="50" style="fill: #00a8ff" />
<use x="150" y="0" xlink:href="#unit" style="fill:#000000" />
<rect x="150" y="50" width="50" height="50" style="fill: #000000" />
<use x="150" y="50" xlink:href="#unit" style="fill:#00a8ff" />
<rect x="150" y="100" width="50" height="50" style="fill: #00a8ff" />
<use x="150" y="100" xlink:href="#unit" style="fill:#000000" />
<rect x="150" y="150" width="50" height="50" style="fill: #000000" />
<use x="150" y="150" xlink:href="#unit" style="fill:#00a8ff" />
<rect x="150" y="200" width="50" height="50" style="fill: #00a8ff" />
<use x="150" y="200" xlink:href="#unit" style="fill:#000000" />
<rect x="150" y="250" width="50" height="50" style="fill: #000000" />
<use x="150" y="250" xlink:href="#unit" style="fill:#00a8ff" />
<rect x="150" y="300" width="50" height="50" style="fill: #00a8ff" />
<use x="150" y="300" xlink:href="#unit" style="fill:#000000" />
<rect x="150" y="350" width="50" height="50" style="fill: #000000" />
<use x="150" y="350" xlink:href="#unit" style="fill:#00a8ff" />
<rect x="200" y="0" width="50" height="50" style="fill: #000000" />
<use x="200" y="0" xlink:href="#unit" style="fill:#00a8ff" />
<rect x="200" y="50" width="50" height="50" style="fill: #00a8ff" />
<use x="200" y="50" xlink:href="#unit" style="fill:#000000" />
<rect x="200" y="100" width="50" height="50" style="fill: #000000" />
<use x="200" y="100" xlink:href="#unit" style="fill:#00a8ff" />
<rect x="200" y="150" width="50" height="50" style="fill: #00a8ff" />
<use x="200" y="150" xlink:href="#unit" style="fill:#000000" />
<rect x="200" y="200" width="50" height="50" style="fill: #000000" />
<use x="200" y="200" xlink:href="#unit" style="fill:#00a8ff" />
<rect x="200" y="250" width="50" height="50" style="fill: #00a8ff" />
<use x="200" y="250" xlink:href="#unit" style="fill:#000000" />
<rect x="200" y="300" width="50" height="50" style="fill: #000000" />
<use x="200" y="300" xlink:href="#unit" style="fill:#00a8ff" />
<rect x="200" y="350" width="50" height="50" style="fill: #00a8ff" />
<use x="200" y="350" xlink:href="#unit" style="fill:#000000" />
<rect x="250" y="0" width="50" height="50" style="fill: #00a8ff" />
<use x="250" y="0" xlink:href="#unit" style="fill:#000000" />
<rect x="250" y="50" width="50" height="50" style="fill: #000000" />
<use x="250" y="50" xlink:href="#unit" style="fill:#00a8ff" />
<rect x="250" y="100" width="50" height="50" style="fill: #00a8ff" />
<use x="250" y="100" xlink:href="#unit" style="fill:#000000" />
<rect x="250" y="150" width="50" height="50" style="fill: #000000" />
<use x="250" y="150" xlink:href="#unit" style="fill:#00a8ff" />
<rect x="250" y="200" width="50" height="50" style="fill: #00a8ff" />
<use x="250" y="200" xlink:href="#unit" style="fill:#000000" />
<rect x="250" y="250" width="50" height="50" style="fill: #000000" />
<use x="250" y="250" xlink:href="#unit" style="fill:#00a8ff" />
<rect x="250" y="300" width="50" height="50" style="fill: #00a8ff" />
<use x="250" y="300" xlink:href="#unit" style="fill:#000000" />
<rect x="250" y="350" width="50" height="50" style="fill: #000000" />
<use x="250" y="350" xlink:href="#unit" style="fill:#00a8ff" />
<rect x="300" y="0" width="50" height="50" style="fill: #000000" />
<use x="300" y="0" xlink:href="#unit" style="fill:#00a8ff" />
<rect x="300" y="50" width="50" height="50" style="fill: #00a8ff" />
<use x="300" y="50" xlink:href="#unit" style="fill:#000000" />
<rect x="300" y="100" width="50" height="50" style="fill: #000000" />
<use x="300" y="100" xlink:href="#unit" style="fill:#00a8ff" />
<rect x="300" y="150" width="50" height="50" style="fill: #00a8ff" />
<use x="300" y="150" xlink:href="#unit" style="fill:#000000" />
<rect x="300" y="200" width="50" height="50" style="fill: #000000" />
<use x="300" y="200" xlink:href="#unit" style="fill:#00a8ff" />
<rect x="300" y="250" width="50" height="50" style="fill: #00a8ff" />
<use x="300" y="250" xlink:href="#unit" style="fill:#000000" />
<rect x="300" y="300" width="50" height="50" style="fill: #000000" />
<use x="300" y="300" xlink:href="#unit" style="fill:#00a8ff" />
<rect x="300" y="350" width="50" height="50" style="fill: #00a8ff" />
<use x="300" y="350" xlink:href="#unit" style="fill:#000000" />
<rect x="350" y="0" width="50" height="50" style="fill: #00a8ff" />
<use x="350" y="0" xlink:href="#unit" style="fill:#000000" />
<rect x="350" y="50" width="50" height="50" style="fill: #000000" />
<use x="350" y="50" xlink:href="#unit" style="fill:#00a8ff" />
<rect x="350" y="100" width="50" height="50" style="fill: #00a8ff" />
<use x="350" y="100" xlink:href="#unit" style="fill:#000000" />
<rect x="350" y="150" width="50" height="50" style="fill: #000000" />
<use x="350" y="150" xlink:href="#unit" style="fill:#00a8ff" />
<rect x="350" y="200" width="50" height="50" style="fill: #00a8ff" />
<use x="350" y="200" xlink:href="#unit" style="fill:#000000" />
<rect x="350" y="250" width="50" height="50" style="fill: #000000" />
<use x="350" y="250" xlink:href="#unit" style="fill:#00a8ff" />
<rect x="350" y="300" width="50" height="50" style="fill: #00a8ff" />
<use x="350" y="300" xlink:href="#unit" style="fill:#000000" />
<rect x="350" y="350" width="50" height="50" style="fill: #000000" />
<use x="350" y="350" xlink:href="#unit" style="fill:#00a8ff" />
<rect x="400" y="0" width="50" height="50" style="fill: #000000" />
<use x="400" y="0" xlink:href="#unit" style="fill:#00a8ff" />
<rect x="400" y="50" width="50" height="50" style="fill: #00a8ff" />
<use x="400" y="50" xlink:href="#unit" style="fill:#000000" />
<rect x="400" y="100" width="50" height="50" style="fill: #000000" />
<use x="400" y="100" xlink:href="#unit" style="fill:#00a8ff" />
<rect x="400" y="150" width="50" height="50" style="fill: #00a8ff" />
<use x="400" y="150" xlink:href="#unit" style="fill:#000000" />
<rect x="400" y="200" width="50" height="50" style="fill: #000000" />
<use x="400" y="200" xlink:href="#unit" style="fill:#00a8ff" />
<rect x="400" y="250" width="50" height="50" style="fill: #00a8ff" />
<use x="400" y="250" xlink:href="#unit" style="fill:#000000" />
<rect x="400" y="300" width="50" height="50" style="fill: #000000" />
<use x="400" y="300" xlink:href="#unit" style="fill:#00a8ff" />
<rect x="400" y="350" width="50" height="50" style="fill: #00a8ff" />
<use x="400" y="350" xlink:href="#unit" style="fill:#000000" />
<rect x="450" y="0" width="50" height="50" style="fill: #00a8ff" />
<use x="450" y="0" xlink:href="#unit" style="fill:#000000" />
<rect x="450" y="50" width="50" height="50" style="fill: #000000" />
<use x="450" y="50" xlink:href="#unit" style="fill:#00a8ff" />
<rect x="450" y="100" width="50" height="50" style="fill: #00a8ff" />
<use x="450" y="100" xlink:href="#unit" style="fill:#000000" />
<rect x="450" y="150" width="50" height="50" style="fill: #000000" />
<use x="450" y="150" xlink:href="#unit" style="fill:#00a8ff" />
<rect x="450" y="200" width="50" height="50" style="fill: #00a8ff" />
<use x="450" y="200" xlink:href="#unit" style="fill:#000000" />
<rect x="450" y="250" width="50" height="50" style="fill: #000000" />
<use x="450" y="250" xlink:href="#unit" style="fill:#00a8ff" />
<rect x="450" y="300" width="50" height="50" style="fill: #00a8ff" />
<use x="450" y="300" xlink:href="#unit" style="fill:#000000" />
<rect x="450" y="350" width="50" height="50" style="fill: #000000" />
<use x="450" y="350" xlink:href="#unit" style="fill:#00a8ff" />
<rect x="500" y="0" width="50" height="50" style="fill: #000000" />
<use x="500" y="0" xlink:href="#unit" style="fill:#00a8ff" />
<rect x="500" y="50" width="50" height="50" style="fill: #00a8ff" />
<use x="500" y="50" xlink:href="#unit" style="fill:#000000" />
<rect x="500" y="100" width="50" height="50" style="fill: #000000" />
<use x="500" y="100" xlink:href="#unit" style="fill:#00a8ff" />
<rect x="500" y="150" width="50" height="50" style="fill: #00a8ff" />
<use x="500" y="150" xlink:href="#unit" style="fill:#000000" />
<rect x="500" y="200" width="50" height="50" style="fill: #000000" />
<use x="500" y="200" xlink:href="#unit" style="fill:#00a8ff" />
<rect x="500" y="250" width="50" height="50" style="fill: #00a8ff" />
<use x="500" y="250" xlink:href="#unit" style="fill:#000000" />
<rect x="500" y="300" width="50" height="50" style="fill: #000000" />
<use x="500" y="300" xlink:href="#unit" style="fill:#00a8ff" />
<rect x="500" y="350" width="50" height="50" style="fill: #00a8ff" />
<use x="500" y="350" xlink:href="#unit" style="fill:#000000" />
<rect x="550" y="0" width="50" height="50" style="fill: #00a8ff" />
<use x="550" y="0" xlink:href="#unit" style="fill:#000000" />
<rect x="550" y="50" width="50" height="50" style="fill: #000000" />
<use x="550" y="50" xlink:href="#unit" style="fill:#00a8ff" />
<rect x="550" y="100" width="50" height="50" style="fill: #00a8ff" />
<use x="550" y="100" xlink:href="#unit" style="fill:#000000" />
<rect x="550" y="150" width="50" height="50" style="fill: #000000" />
<use x="550" y="150" xlink:href="#unit" style="fill:#00a8ff" />
<rect x="550" y="200" width="50" height="50" style="fill: #00a8ff" />
<use x="550" y="200" xlink:href="#unit" style="fill:#000000" />
<rect x="550" y="250" width="50" height="50" style="fill: #000000" />
<use x="550" y="250" xlink:href="#unit" style="fill:#00a8ff" />
<rect x="550" y="300" width="50" height="50" style="fill: #00a8ff" />
<use x="550" y="300" xlink:href="#unit" style="fill:#000000" />
<rect x="550" y="350" width="50" height="50" style="fill: #000000" />
<use x="550" y="350" xlink:href="#unit" style="fill:#00a8ff" />
<rect x="600" y="0" width="50" height="50" style="fill: #000000" />
<use x="600" y="0" xlink:href="#unit" style="fill:#00a8ff" />
<rect x="600" y="50" width="50" height="50" style="fill: #00a8ff" />
<use x="600" y="50" xlink:href="#unit" style="fill:#000000" />
<rect x="600" y="100" width="50" height="50" style="fill: #000000" />
<use x="600" y="100" xlink:href="#unit" style="fill:#00a8ff" />
<rect x="600" y="150" width="50" height="50" style="fill: #00a8ff" />
<use x="600" y="150" xlink:href="#unit" style="fill:#000000" />
<rect x="600" y="200" width="50" height="50" style="fill: #000000" />
<use x="600" y="200" xlink:href="#unit" style="fill:#00a8ff" />
<rect x="600" y="250" width="50" height="50" style="fill: #00a8ff" />
<use x="600" y="250" xlink:href="#unit" style="fill:#000000" />
<rect x="600" y="300" width="50" height="50" style="fill: #000000" />
<use x="600" y="300" xlink:href="#unit" style="fill:#00a8ff" />
<rect x="600" y="350" width="50" height="50" style="fill: #00a8ff" />
<use x="600" y="350" xlink:href="#unit" style="fill:#000000" />
<rect x="650" y="0" width="50" height="50" style="fill: #00a8ff" />
<use x="650" y="0" xlink:href="#unit" style="fill:#000000" />
<rect x="650" y="50" width="50" height="50" style="fill: #000000" />
<use x="650" y="50" xlink:href="#unit" style="fill:#00a8ff" />
<rect x="650" y="100" width="50" height="50" style="fill: #00a8ff" />
<use x="650" y="100" xlink:href="#unit" style="fill:#000000" />
<rect x="650" y="150" width="50" height="50" style="fill: #000000" />
<use x="650" y="150" xlink:href="#unit" style="fill:#00a8ff" />
<rect x="650" y="200" width="50" height="50" style="fill: #00a8ff" />
<use x="650" y="200" xlink:href="#unit" style="fill:#000000" />
<rect x="650" y="250" width="50" height="50" style="fill: #000000" />
<use x="650" y="250" xlink:href="#unit" style="fill:#00a8ff" />
<rect x="650" y="300" width="50" height="50" style="fill: #00a8ff" />
<use x="650" y="300" xlink:href="#unit" style="fill:#000000" />
<rect x="650" y="350" width="50" height="50" style="fill: #000000" />
<use x="650" y="350" xlink:href="#unit" style="fill:#00a8ff" />
<rect x="700" y="0" width="50" height="50" style="fill: #000000" />
<use x="700" y="0" xlink:href="#unit" style="fill:#00a8ff" />
<rect x="700" y="50" width="50" height="50" style="fill: #00a8ff" />
<use x="700" y="50" xlink:href="#unit" style="fill:#000000" />
<rect x="700" y="100" width="50" height="50" style="fill: #000000" />
<use x="700" y="100" xlink:href="#unit" style="fill:#00a8ff" />
<rect x="700" y="150" width="50" height="50" style="fill: #00a8ff" />
<use x="700" y="150" xlink:href="#unit" style="fill:#000000" />
<rect x="700" y="200" width="50" height="50" style="fill: #000000" />
<use x="700" y="200" xlink:href="#unit" style="fill:#00a8ff" />
<rect x="700" y="250" width="50" height="50" style="fill: #00a8ff" />
<use x="700" y="250" xlink:href="#unit" style="fill:#000000" />
<rect x="700" y="300" width="50" height="50" style="fill: #000000" />
<use x="700" y="300" xlink:href="#unit" style="fill:#00a8ff" />
<rect x="700" y="350" width="50" height="50" style="fill: #00a8ff" />
<use x="700" y="350" xlink:href="#unit" style="fill:#000000" />
<rect x="750" y="0" width="50" height="50" style="fill: #00a8ff" />
<use x="750" y="0" xlink:href="#unit" style="fill:#000000" />
<rect x="750" y="50" width="50" height="50" style="fill: #000000" />
<use x="750" y="50" xlink:href="#unit" style="fill:#00a8ff" />
<rect x="750" y="100" width="50" height="50" style="fill: #00a8ff" />
<use x="750" y="100" xlink:href="#unit" style="fill:#000000" />
<rect x="750" y="150" width="50" height="50" style="fill: #000000" />
<use x="750" y="150" xlink:href="#unit" style="fill:#00a8ff" />
<rect x="750" y="200" width="50" height="50" style="fill: #00a8ff" />
<use x="750" y="200" xlink:href="#unit" style="fill:#000000" />
<rect x="750" y="250" width="50" height="50" style="fill: #000000" />
<use x="750" y="250" xlink:href="#unit" style="fill:#00a8ff" />
<rect x="750" y="300" width="50" height="50" style="fill: #00a8ff" />
<use x="750" y="300" xlink:href="#unit" style="fill:#000000" />
<rect x="750" y="350" width="50" height="50" style="fill: #000000" />
<use x="750" y="350" xlink:href="#unit" style="fill:#00a8ff" />
<rect x="800" y="0" width="50" height="50" style="fill: #000000" />
<use x="800" y="0" xlink:href="#unit" style="fill:#00a8ff" />
<rect x="800" y="50" width="50" height="50" style="fill: #00a8ff" />
<use x="800" y="50" xlink:href="#unit" style="fill:#000000" />
<rect x="800" y="100" width="50" height="50" style="fill: #000000" />
<use x="800" y="100" xlink:href="#unit" style="fill:#00a8ff" />
<rect x="800" y="150" width="50" height="50" style="fill: #00a8ff" />
<use x="800" y="150" xlink:href="#unit" style="fill:#000000" />
<rect x="800" y="200" width="50" height="50" style="fill: #000000" />
<use x="800" y="200" xlink:href="#unit" style="fill:#00a8ff" />
<rect x="800" y="250" width="50" height="50" style="fill: #00a8ff" />
<use x="800" y="250" xlink:href="#unit" style="fill:#000000" />
<rect x="800" y="300" width="50" height="50" style="fill: #000000" />
<use x="800" y="300" xlink:href="#unit" style="fill:#00a8ff" />
<rect x="800" y="350" width="50" height="50" style="fill: #00a8ff" />
<use x="800" y="350" xlink:href="#unit" style="fill:#000000" />
<rect x="850" y="0" width="50" height="50" style="fill: #00a8ff" />
<use x="850" y="0" xlink:href="#unit" style="fill:#000000" />
<rect x="850" y="50" width="50" height="50" style="fill: #000000" />
<use x="850" y="50" xlink:href="#unit" style="fill:#00a8ff" />
<rect x="850" y="100" width="50" height="50" style="fill: #00a8ff" />
<use x="850" y="100" xlink:href="#unit" style="fill:#000000" />
<rect x="850" y="150" width="50" height="50" style="fill: #000000" />
<use x="850" y="150" xlink:href="#unit" style="fill:#00a8ff" />
<rect x="850" y="200" width="50" height="50" style="fill: #00a8ff" />
<use x="850" y="200" xlink:href="#unit" style="fill:#000000" />
<rect x="850" y="250" width="50" height="50" style="fill: #000000" />
<use x="850" y="250" xlink:href="#unit" style="fill:#00a8ff" />
<rect x="850" y="300" width="50" height="50" style="fill: #00a8ff" />
<use x="850" y="300" xlink:href="#unit" style="fill:#000000" />
<rect x="850" y="350" width="50" height="50" style="fill: #000000" />
<use x="850" y="350" xlink:href="#unit" style="fill:#00a8ff" />
<rect x="900" y="0" width="50" height="50" style="fill: #000000" />
<use x="900" y="0" xlink:href="#unit" style="fill:#00a8ff" />
<rect x="900" y="50" width="50" height="50" style="fill: #00a8ff" />
<use x="900" y="50" xlink:href="#unit" style="fill:#000000" />
<rect x="900" y="100" width="50" height="50" style="fill: #000000" />
<use x="900" y="100" xlink:href="#unit" style="fill:#00a8ff" />
<rect x="900" y="150" width="50" height="50" style="fill: #00a8ff" />
<use x="900" y="150" xlink:href="#unit" style="fill:#000000" />
<rect x="900" y="200" width="50" height="50" style="fill: #000000" />
<use x="900" y="200" xlink:href="#unit" style="fill:#00a8ff" />
<rect x="900" y="250" width="50" height="50" style="fill: #00a8ff" />
<use x="900" y="250" xlink:href="#unit" style="fill:#000000" />
<rect x="900" y="300" width="50" height="50" style="fill: #000000" />
<use x="900" y="300" xlink:href="#unit" style="fill:#00a8ff" />
<rect x="900" y="350" width="50" height="50" style="fill: #00a8ff" />
<use x="900" y="350" xlink:href="#unit" style="fill:#000000" />
<rect x="950" y="0" width="50" height="50" style="fill: #00a8ff" />
<use x="950" y="0" xlink:href="#unit" style="fill:#000000" />
<rect x="950" y="50" width="50" height="50" style="fill: #000000" />
<use x="950" y="50" xlink:href="#unit" style="fill:#00a8ff" />
<rect x="950" y="100" width="50" height="50" style="fill: #00a8ff" />
<use x="950" y="100" xlink:href="#unit" style="fill:#000000" />
<rect x="950" y="150" width="50" height="50" style="fill: #000000" />
<use x="950" y="150" xlink:href="#unit" style="fill:#00a8ff" />
<rect x="950" y="200" width="50" height="50" style="fill: #00a8ff" />
<use x="950" y="200" xlink:href="#unit" style="fill:#000000" />
<rect x="950" y="250" width="50" height="50" style="fill: #000000" />
<use x="950" y="250" xlink:href="#unit" style="fill:#00a8ff" />
<rect x="950" y="300" width="50" height="50" style="fill: #00a8ff" />
<use x="950" y="300" xlink:href="#unit" style="fill:#000000" />
<rect x="950" y="350" width="50" height="50" style="fill: #000000" />
<use x="950" y="350" xlink:href="#unit" style="fill:#00a8ff" />
<rect x="1000" y="0" width="50" height="50" style="fill: #000000" />
<use x="1000" y="0" xlink:href="#unit" style="fill:#00a8ff" />
<rect x="1000" y="50" width="50" height="50" style="fill: #00a8ff" />
<use x="1000" y="50" xlink:href="#unit" style="fill:#000000" />
<rect x="1000" y="100" width="50" height="50" style="fill: #000000" />
<use x="1000" y="100" xlink:href="#unit" style="fill:#00a8ff" />
<rect x="1000" y="150" width="50" height="50" style="fill: #00a8ff" />
<use x="1000" y="150" xlink:href="#unit" style="fill:#000000" />
<rect x="1000" y="200" width="50" height="50" style="fill: #000000" />
<use x="1000" y="200" xlink:href="#unit" style="fill:#00a8ff" />
<rect x="1000" y="250" width="50" height="50" style="fill: #00a8ff" />
<use x="1000" y="250" xlink:href="#unit" style="fill:#000000" />
<rect x="1000" y="300" width="50" height="50" style="fill: #000000" />
<use x="1000" y="300" xlink:href="#unit" style="fill:#00a8ff" />
<rect x="1000" y="350" width="50" height="50" style="fill: #00a8ff" />
<use x="1000" y="350" xlink:href="#unit" style="fill:#000000" />
<rect x="1050" y="0" width="50" height="50" style="fill: #00a8ff" />
<use x="1050" y="0" xlink:href="#unit" style="fill:#000000" />
<rect x="1050" y="50" width="50" height="50" style="fill: #000000" />
<use x="1050" y="50" xlink:href="#unit" style="fill:#00a8ff" />
<rect x="1050" y="100" width="50" height="50" style="fill: #00a8ff" />
<use x="1050" y="100" xlink:href="#unit" style="fill:#000000" />
<rect x="1050" y="150" width="50" height="50" style="fill: #000000" />
<use x="1050" y="150" xlink:href="#unit" style="fill:#00a8ff" />
<rect x="1050" y="200" width="50" height="50" style="fill: #00a8ff" />
<use x="1050" y="200" xlink:href="#unit" style="fill:#000000" />
<rect x="1050" y="250" width="50" height="50" style="fill: #000000" />
<use x="1050" y="250" xlink:href="#unit" style="fill:#00a8ff" />
<rect x="1050" y="300" width="50" height="50" style="fill: #00a8ff" />
<use x="1050" y="300" xlink:href="#unit" style="fill:#000000" />
<rect x="1050" y="350" width="50" height="50" style="fill: #000000" />
<use x="1050" y="350" xlink:href="#unit" style="fill:#00a8ff" />
<rect x="1100" y="0" width="50" height="50" style="fill: #000000" />
<use x="1100" y="0" xlink:href="#unit" style="fill:#00a8ff" />
<rect x="1100" y="50" width="50" height="50" style="fill: #00a8ff" />
<use x="1100" y="50" xlink:href="#unit" style="fill:#000000" />
<rect x="1100" y="100" width="50" height="50" style="fill: #000000" />
<use x="1100" y="100" xlink:href="#unit" style="fill:#00a8ff" />
<rect x="1100" y="150" width="50" height="50" style="fill: #00a8ff" />
<use x="1100" y="150" xlink:href="#unit" style="fill:#000000" />
<rect x="1100" y="200" width="50" height="50" style="fill: #000000" />
<use x="1100" y="200" xlink:href="#unit" style="fill:#00a8ff" />
<rect x="1100" y="250" width="50" height="50" style="fill: #00a8ff" />
<use x="1100" y="250" xlink:href="#unit" style="fill:#000000" />
<rect x="1100" y="300" width="50" height="50" style="fill: #000000" />
<use x="1100" y="300" xlink:href="#unit" style="fill:#00a8ff" />
<rect x="1100" y="350" width="50" height="50" style="fill: #00a8ff" />
<use x="1100" y="350" xlink:href="#unit" style="fill:#000000" />
<rect x="1150" y="0" width="50" height="50" style="fill: #00a8ff" />
<use x="1150" y="0" xlink:href="#unit" style="fill:#000000" />
<rect x="1150" y="50" width="50" height="50" style="fill: #000000" />
<use x="1150" y="50" xlink:href="#unit" style="fill:#00a8ff" />
<rect x="1150" y="100" width="50" height="50" style="fill: #00a8ff" />
<use x="1150" y="100" xlink:href="#unit" style="fill:#000000" />
<rect x="1150" y="150" width="50" height="50" style="fill: #000000" />
<use x="1150" y="150" xlink:href="#unit" style="fill:#00a8ff" />
<rect x="1150" y="200" width="50" height="50" style="fill: #00a8ff" />
<use x="1150" y="200" xlink:href="#unit" style="fill:#000000" />
<rect x="1150" y="250" width="50" height="50" style="fill: #000000" />
<use x="1150" y="250" xlink:href="#unit" style="fill:#00a8ff" />
<rect x="1150" y="300" width="50" height="50" style="fill: #00a8ff" />
<use x="1150" y="300" xlink:href="#unit" style="fill:#000000" />
<rect x="1150" y="350" width="50" height="50" style="fill: #000000" />
<use x="1150" y="350" xlink:href="#unit" style="fill:#00a8ff" />
<rect x="1200" y="0" width="50" height="50" style="fill: #000000" />
<use x="1200" y="0" xlink:href="#unit" style="fill:#00a8ff" />
<rect x="1200" y="50" width="50" height="50" style="fill: #00a8ff" />
<use x="1200" y="50" xlink:href="#unit" style="fill:#000000" />
<rect x="1200" y="100" width="50" height="50" style="fill: #000000" />
<use x="1200" y="100" xlink:href="#unit" style="fill:#00a8ff" />
<rect x="1200" y="150" width="50" height="50" style="fill: #00a8ff" />
<use x="1200" y="150" xlink:href="#unit" style="fill:#000000" />
<rect x="1200" y="200" width="50" height="50" style="fill: #000000" />
<use x="1200" y="200" xlink:href="#unit" style="fill:#00a8ff" />
<rect x="1200" y="250" width="50" height="50" style="fill: #00a8ff" />
<use x="1200" y="250" xlink:href="#unit" style="fill:#000000" />
<rect x="1200" y="300" width="50" height="50" style="fill: #000000" />
<use x="1200" y="300" xlink:href="#unit" style="fill:#00a8ff" />
<rect x="1200" y="350" width="50" height="50" style="fill: #00a8ff" />
<use x="1200" y="350" xlink:href="#unit" style="fill:#000000" />
<rect x="1250" y="0" width="50" height="50" style="fill: #00a8ff" />
<use x="1250" y="0" xlink:href="#unit" style="fill:#000000" />
<rect x="1250" y="50" width="50" height="50" style="fill: #000000" />
<use x="1250" y="50" xlink:href="#unit" style="fill:#00a8ff" />
<rect x="1250" y="100" width="50" height="50" style="fill: #00a8ff" />
<use x="1250" y="100" xlink:href="#unit" style="fill:#000000" />
<rect x="1250" y="150" width="50" height="50" style="fill: #000000" />
<use x="1250" y="150" xlink:href="#unit" style="fill:#00a8ff" />
<rect x="1250" y="200" width="50" height="50" style="fill: #00a8ff" />
<use x="1250" y="200" xlink:href="#unit" style="fill:#000000" />
<rect x="1250" y="250" width="50" height="50" style="fill: #000000" />
<use x="1250" y="250" xlink:href="#unit" style="fill:#00a8ff" />
<rect x="1250" y="300" width="50" height="50" style="fill: #00a8ff" />
<use x="1250" y="300" xlink:href="#unit" style="fill:#000000" />
<rect x="1250" y="350" width="50" height="50" style="fill: #000000" />
<use x="1250" y="350" xlink:href="#unit" style="fill:#00a8ff" />
<rect x="1300" y="0" width="50" height="50" style="fill: #000000" />
<use x="1300" y="0" xlink:href="#unit" style="fill:#00a8ff" />
<rect x="1300" y="50" width="50" height="50" style="fill: #00a8ff" />
<use x="1300" y="50" xlink:href="#unit" style="fill:#000000" />
<rect x="1300" y="100" width="50" height="50" style="fill: #000000" />
<use x="1300" y="100" xlink:href="#unit" style="fill:#00a8ff" />
<rect x="1300" y="150" width="50" height="50" style="fill: #00a8ff" />
<use x="1300" y="150" xlink:href="#unit" style="fill:#000000" />
<rect x="1300" y="200" width="50" height="50" style="fill: #000000" />
<use x="1300" y="200" xlink:href="#unit" style="fill:#00a8ff" />
<rect x="1300" y="250" width="50" height="50" style="fill: #00a8ff" />
<use x="1300" y="250" xlink:href="#unit" style="fill:#000000" />
<rect x="1300" y="300" width="50" height="50" style="fill: #000000" />
<use x="1300" y="300" xlink:href="#unit" style="fill:#00a8ff" />
<rect x="1300" y="350" width="50" height="50" style="fill: #00a8ff" />
<use x="1300" y="350" xlink:href="#unit" style="fill:#000000" />
<rect x="1350" y="0" width="50" height="50" style="fill: #00a8ff" />
<use x="1350" y="0" xlink:href="#unit" style="fill:#000000" />
<rect x="1350" y="50" width="50" height="50" style="fill: #000000" />
<use x="1350" y="50" xlink:href="#unit" style="fill:#00a8ff" />
<rect x="1350" y="100" width="50" height="50" style="fill: #00a8ff" />
<use x="1350" y="100" xlink:href="#unit" style="fill:#000000" />
<rect x="1350" y="150" width="50" height="50" style="fill: #000000" />
<use x="1350" y="150" xlink:href="#unit" style="fill:#00a8ff" />
<rect x="1350" y="200" width="50" height="50" style="fill: #00a8ff" />
<use x="1350" y="200" xlink:href="#unit" style="fill:#000000" />
<rect x="1350" y="250" width="50" height="50" style="fill: #000000" />
<use x="1350" y="250" xlink:href="#unit" style="fill:#00a8ff" />
<rect x="1350" y="300" width="50" height="50" style="fill: #00a8ff" />
<use x="1350" y="300" xlink:href="#unit" style="fill:#000000" />
<rect x="1350" y="350" width="50" height="50" style="fill: #000000" />
<use x="1350" y="350" xlink:href="#unit" style="fill:#00a8ff" />
<rect x="1400" y="0" width="50" height="50" style="fill: #000000" />
<use x="1400" y="0" xlink:href="#unit" style="fill:#00a8ff" />
<rect x="1400" y="50" width="50" height="50" style="fill: #00a8ff" />
<use x="1400" y="50" xlink:href="#unit" style="fill:#000000" />
<rect x="1400" y="100" width="50" height="50" style="fill: #000000" />
<use x="1400" y="100" xlink:href="#unit" style="fill:#00a8ff" />
<rect x="1400" y="150" width="50" height="50" style="fill: #00a8ff" />
<use x="1400" y="150" xlink:href="#unit" style="fill:#000000" />
<rect x="1400" y="200" width="50" height="50" style="fill: #000000" />
<use x="1400" y="200" xlink:href="#unit" style="fill:#00a8ff" />
<rect x="1400" y="250" width="50" height="50" style="fill: #00a8ff" />
<use x="1400" y="250" xlink:href="#unit" style="fill:#000000" />
<rect x="1400" y="300" width="50" height="50" style="fill: #000000" />
<use x="1400" y="300" xlink:href="#unit" style="fill:#00a8ff" />
<rect x="1400" y="350" width="50" height="50" style="fill: #00a8ff" />
<use x="1400" y="350" xlink:href="#unit" style="fill:#000000" />
<rect x="1450" y="0" width="50" height="50" style="fill: #00a8ff" />
<use x="1450" y="0" xlink:href="#unit" style="fill:#000000" />
<rect x="1450" y="50" width="50" height="50" style="fill: #000000" />
<use x="1450" y="50" xlink:href="#unit" style="fill:#00a8ff" />
<rect x="1450" y="100" width="50" height="50" style="fill: #00a8ff" />
<use x="1450" y="100" xlink:href="#unit" style="fill:#000000" />
<rect x="1450" y="150" width="50" height="50" style="fill: #000000" />
<use x="1450" y="150" xlink:href="#unit" style="fill:#00a8ff" />
<rect x="1450" y="200" width="50" height="50" style="fill: #00a8ff" />
<use x="1450" y="200" xlink:href="#unit" style="fill:#000000" />
<rect x="1450" y="250" width="50" height="50" style="fill: #000000" />
<use x="1450" y="250" xlink:href="#unit" style="fill:#00a8ff" />
<rect x="1450" y="300" width="50" height="50" style="fill: #00a8ff" />
<use x="1450" y="300" xlink:href="#unit" style="fill:#000000" />
<rect x="1450" y="350" width="50" height="50" style="fill: #000000" />
<use x="1450" y="350" xlink:href="#unit" style="fill:#00a8ff" />
<rect x="1500" y="0" width="50" height="50" style="fill: #000000" />
<use x="1500" y="0" xlink:href="#unit" style="fill:#00a8ff" />
<rect x="1500" y="50" width="50" height="50" style="fill: #00a8ff" />
<use x="1500" y="50" xlink:href="#unit" style="fill:#000000" />
<rect x="1500" y="100" width="50" height="50" style="fill: #000000" />
<use x="1500" y="100" xlink:href="#unit" style="fill:#00a8ff" />
<rect x="1500" y="150" width="50" height="50" style="fill: #00a8ff" />
<use x="1500" y="150" xlink:href="#unit" style="fill:#000000" />
<rect x="1500" y="200" width="50" height="50" style="fill: #000000" />
<use x="1500" y="200" xlink:href="#unit" style="fill:#00a8ff" />
<rect x="1500" y="250" width="50" height="50" style="fill: #00a8ff" />
<use x="1500" y="250" xlink:href="#unit" style="fill:#000000" />
<rect x="1500" y="300" width="50" height="50" style="fill: #000000" />
<use x="1500" y="300" xlink:href="#unit" style="fill:#00a8ff" />
<rect x="1500" y="350" width="50" height="50" style="fill: #00a8ff" />
<use x="1500" y="350" xlink:href="#unit" style="fill:#000000" />
<rect x="1550" y="0" width="50" height="50" style="fill: #00a8ff" />
<use x="1550" y="0" xlink:href="#unit" style="fill:#000000" />
<rect x="1550" y="50" width="50" height="50" style="fill: #000000" />
<use x="1550" y="50" xlink:href="#unit" style="fill:#00a8ff" />
<rect x="1550" y="100" width="50" height="50" style="fill: #00a8ff" />
<use x="1550" y="100" xlink:href="#unit" style="fill:#000000" />
<rect x="1550" y="150" width="50" height="50" style="fill: #000000" />
<use x="1550" y="150" xlink:href="#unit" style="fill:#00a8ff" />
<rect x="1550" y="200" width="50" height="50" style="fill: #00a8ff" />
<use x="1550" y="200" xlink:href="#unit" style="fill:#000000" />
<rect x="1550" y="250" width="50" height="50" style="fill: #000000" />
<use x="1550" y="250" xlink:href="#unit" style="fill:#00a8ff" />
<rect x="1550" y="300" width="50" height="50" style="fill: #00a8ff" />
<use x="1550" y="300" xlink:href="#unit" style="fill:#000000" />
<rect x="1550" y="350" width="50" height="50" style="fill: #000000" />
<use x="1550" y="350" xlink:href="#unit" style="fill:#00a8ff" />
<rect x="1600" y="0" width="50" height="50" style="fill: #000000" />
<use x="1600" y="0" xlink:href="#unit" style="fill:#00a8ff" />
<rect x="1600" y="50" width="50" height="50" style="fill: #00a8ff" />
<use x="1600" y="50" xlink:href="#unit" style="fill:#000000" />
<rect x="1600" y="100" width="50" height="50" style="fill: #000000" />
<use x="1600" y="100" xlink:href="#unit" style="fill:#00a8ff" />
<rect x="1600" y="150" width="50" height="50" style="fill: #00a8ff" />
<use x="1600" y="150" xlink:href="#unit" style="fill:#000000" />
<rect x="1600" y="200" width="50" height="50" style="fill: #000000" />
<use x="1600" y="200" xlink:href="#unit" style="fill:#00a8ff" />
<rect x="1600" y="250" width="50" height="50" style="fill: #00a8ff" />
<use x="1600" y="250" xlink:href="#unit" style="fill:#000000" />
<rect x="1600" y="300" width="50" height="50" style="fill: #000000" />
<use x="1600" y="300" xlink:href="#unit" style="fill:#00a8ff" />
<rect x="1600" y="350" width="50" height="50" style="fill: #00a8ff" />
<use x="1600" y="350" xlink:href="#unit" style="fill:#000000" />
<rect x="1650" y="0" width="50" height="50" style="fill: #00a8ff" />
<use x="1650" y="0" xlink:href="#unit" style="fill:#000000" />
<rect x="1650" y="50" width="50" height="50" style="fill: #000000" />
<use x="1650" y="50" xlink:href="#unit" style="fill:#00a8ff" />
<rect x="1650" y="100" width="50" height="50" style="fill: #00a8ff" />
<use x="1650" y="100" xlink:href="#unit" style="fill:#000000" />
<rect x="1650" y="150" width="50" height="50" style="fill: #000000" />
<use x="1650" y="150" xlink:href="#unit" style="fill:#00a8ff" />
<rect x="1650" y="200" width="50" height="50" style="fill: #00a8ff" />
<use x="1650" y="200" xlink:href="#unit" style="fill:#000000" />
<rect x="1650" y="250" width="50" height="50" style="fill: #000000" />
<use x="1650" y="250" xlink:href="#unit" style="fill:#00a8ff" />
<rect x="1650" y="300" width="50" height="50" style="fill: #00a8ff" />
<use x="1650" y="300" xlink:href="#unit" style="fill:#000000" />
<rect x="1650" y="350" width="50" height="50" style="fill: #000000" />
<use x="1650" y="350" xlink:href="#unit" style="fill:#00a8ff" />
<rect x="1700" y="0" width="50" height="50" style="fill: #000000" />
<use x="1700" y="0" xlink:href="#unit" style="fill:#00a8ff" />
<rect x="1700" y="50" width="50" height="50" style="fill: #00a8ff" />
<use x="1700" y="50" xlink:href="#unit" style="fill:#000000" />
<rect x="1700" y="100" width="50" height="50" style="fill: #000000" />
<use x="1700" y="100" xlink:href="#unit" style="fill:#00a8ff" />
<rect x="1700" y="150" width="50" height="50" style="fill: #00a8ff" />
<use x="1700" y="150" xlink:href="#unit" style="fill:#000000" />
<rect x="1700" y="200" width="50" height="50" style="fill: #000000" />
<use x="1700" y="200" xlink:href="#unit" style="fill:#00a8ff" />
<rect x="1700" y="250" width="50" height="50" style="fill: #00a8ff" />
<use x="1700" y="250" xlink:href="#unit" style="fill:#000000" />
<rect x="1700" y="300" width="50" height="50" style="fill: #000000" />
<use x="1700" y="300" xlink:href="#unit" style="fill:#00a8ff" />
<rect x="1700" y="350" width="50" height="50" style="fill: #00a8ff" />
<use x="1700" y="350" xlink:href="#unit" style="fill:#000000" />
<rect x="1750" y="0" width="50" height="50" style="fill: #00a8ff" />
<use x="1750" y="0" xlink:href="#unit" style="fill:#000000" />
<rect x="1750" y="50" width="50" height="50" style="fill: #000000" />
<use x="1750" y="50" xlink:href="#unit" style="fill:#00a8ff" />
<rect x="1750" y="100" width="50" height="50" style="fill: #00a8ff" />
<use x="1750" y="100" xlink:href="#unit" style="fill:#000000" />
<rect x="1750" y="150" width="50" height="50" style="fill: #000000" />
<use x="1750" y="150" xlink:href="#unit" style="fill:#00a8ff" />
<rect x="1750" y="200" width="50" height="50" style="fill: #00a8ff" />
<use x="1750" y="200" xlink:href="#unit" style="fill:#000000" />
<rect x="1750" y="250" width="50" height="50" style="fill: #000000" />
<use x="1750" y="250" xlink:href="#unit" style="fill:#00a8ff" />
<rect x="1750" y="300" width="50" height="50" style="fill: #00a8ff" />
<use x="1750" y="300" xlink:href="#unit" style="fill:#000000" />
<rect x="1750" y="350" width="50" height="50" style="fill: #000000" />
<use x="1750" y="350" xlink:href="#unit" style="fill:#00a8ff" />
<rect x="1800" y="0" width="50" height="50" style="fill: #000000" />
<use x="1800" y="0" xlink:href="#unit" style="fill:#00a8ff" />
<rect x="1800" y="50" width="50" height="50" style="fill: #00a8ff" />
<use x="1800" y="50" xlink:href="#unit" style="fill:#000000" />
<rect x="1800" y="100" width="50" height="50" style="fill: #000000" />
<use x="1800" y="100" xlink:href="#unit" style="fill:#00a8ff" />
<rect x="1800" y="150" width="50" height="50" style="fill: #00a8ff" />
<use x="1800" y="150" xlink:href="#unit" style="fill:#000000" />
<rect x="1800" y="200" width="50" height="50" style="fill: #000000" />
<use x="1800" y="200" xlink:href="#unit" style="fill:#00a8ff" />
<rect x="1800" y="250" width="50" height="50" style="fill: #00a8ff" />
<use x="1800" y="250" xlink:href="#unit" style="fill:#000000" />
<rect x="1800" y="300" width="50" height="50" style="fill: #000000" />
<use x="1800" y="300" xlink:href="#unit" style="fill:#00a8ff" />
<rect x="1800" y="350" width="50" height="50" style="fill: #00a8ff" />
<use x="1800" y="350" xlink:href="#unit" style="fill:#000000" />
<rect x="1850" y="0" width="50" height="50" style="fill: #00a8ff" />
<use x="1850" y="0" xlink:href="#unit" style="fill:#000000" />
<rect x="1850" y="50" width="50" height="50" style="fill: #000000" />
<use x="1850" y="50" xlink:href="#unit" style="fill:#00a8ff" />
<rect x="1850" y="100" width="50" height="50" style="fill: #00a8ff" />
<use x="1850" y="100" xlink:href="#unit" style="fill:#000000" />
<rect x="1850" y="150" width="50" height="50" style="fill: #000000" />
<use x="1850" y="150" xlink:href="#unit" style="fill:#00a8ff" />
<rect x="1850" y="200" width="50" height="50" style="fill: #00a8ff" />
<use x="1850" y="200" xlink:href="#unit" style="fill:#000000" />
<rect x="1850" y="250" width="50" height="50" style="fill: #000000" />
<use x="1850" y="250" xlink:href="#unit" style="fill:#00a8ff" />
<rect x="1850" y="300" width="50" height="50" style="fill: #00a8ff" />
<use x="1850" y="300" xlink:href="#unit" style="fill:#000000" />
<rect x="1850" y="350" width="50" height="50" style="fill: #000000" />
<use x="1850" y="350" xlink:href="#unit" style="fill:#00a8ff" />
<rect x="1900" y="0" width="50" height="50" style="fill: #000000" />
<use x="1900" y="0" xlink:href="#unit" style="fill:#00a8ff" />
<rect x="1900" y="50" width="50" height="50" style="fill: #00a8ff" />
<use x="1900" y="50" xlink:href="#unit" style="fill:#000000" />
<rect x="1900" y="100" width="50" height="50" style="fill: #000000" />
<use x="1900" y="100" xlink:href="#unit" style="fill:#00a8ff" />
<rect x="1900" y="150" width="50" height="50" style="fill: #00a8ff" />
<use x="1900" y="150" xlink:href="#unit" style="fill:#000000" />
<rect x="1900" y="200" width="50" height="50" style="fill: #000000" />
<use x="1900" y="200" xlink:href="#unit" style="fill:#00a8ff" />
<rect x="1900" y="250" width="50" height="50" style="fill: #00a8ff" />
<use x="1900" y="250" xlink:href="#unit" style="fill:#000000" />
<rect x="1900" y="300" width="50" height="50" style="fill: #000000" />
<use x="1900" y="300" xlink:href="#unit" style="fill:#00a8ff" />
<rect x="1900" y="350" width="50" height="50" style="fill: #00a8ff" />
<use x="1900" y="350" xlink:href="#unit" style="fill:#000000" />
<rect x="1950" y="0" width="50" height="50" style="fill: #00a8ff" />
<use x="1950" y="0" xlink:href="#unit" style="fill:#000000" />
<rect x="1950" y="50" width="50" height="50" style="fill: #000000" />
<use x="1950" y="50" xlink:href="#unit" style="fill:#00a8ff" />
<rect x="1950" y="100" width="50" height="50" style="fill: #00a8ff" />
<use x="1950" y="100" xlink:href="#unit" style="fill:#000000" />
<rect x="1950" y="150" width="50" height="50" style="fill: #000000" />
<use x="1950" y="150" xlink:href="#unit" style="fill:#00a8ff" />
<rect x="1950" y="200" width="50" height="50" style="fill: #00a8ff" />
<use x="1950" y="200" xlink:href="#unit" style="fill:#000000" />
<rect x="1950" y="250" width="50" height="50" style="fill: #000000" />
<use x="1950" y="250" xlink:href="#unit" style="fill:#00a8ff" />
<rect x="1950" y="300" width="50" height="50" style="fill: #00a8ff" />
<use x="1950" y="300" xlink:href="#unit" style="fill:#000000" />
<rect x="1950" y="350" width="50" height="50" style="fill: #000000" />
<use x="1950" y="350" xlink:href="#unit" style="fill:#00a8ff" />
</svg>
