<?xml version="1.0"?>
<!-- Generated by SVGo -->
<svg width="500" height="500"
     xmlns="http://www.w3.org/2000/svg"
     xmlns:xlink="http://www.w3.org/1999/xlink">
<defs>
<g id="unit">
<polygon points="0,50 25,50 0,25" />
<polygon points="50,50 25,25 50,25" />
<polygon points="25,25 25,0 0,0" />
</g>
</defs>
<rect x="0" y="0" width="50" height="50" style="fill: #38ada9" />
<use x="0" y="0" xlink:href="#unit" style="fill:#f6b93b" />
<rect x="0" y="50" width="50" height="50" style="fill: #f6b93b" />
<use x="0" y="50" xlink:href="#unit" style="fill:#38ada9" />
<rect x="0" y="100" width="50" height="50" style="fill: #38ada9" />
<use x="0" y="100" xlink:href="#unit" style="fill:#f6b93b" />
<rect x="0" y="150" width="50" height="50" style="fill: #f6b93b" />
<use x="0" y="150" xlink:href="#unit" style="fill:#38ada9" />
<rect x="0" y="200" width="50" height="50" style="fill: #38ada9" />
<use x="0" y="200" xlink:href="#unit" style="fill:#f6b93b" />
<rect x="0" y="250" width="50" height="50" style="fill: #f6b93b" />
<use x="0" y="250" xlink:href="#unit" style="fill:#38ada9" />
<rect x="0" y="300" width="50" height="50" style="fill: #38ada9" />
<use x="0" y="300" xlink:href="#unit" style="fill:#f6b93b" />
<rect x="0" y="350" width="50" height="50" style="fill: #f6b93b" />
<use x="0" y="350" xlink:href="#unit" style="fill:#38ada9" />
<rect x="0" y="400" width="50" height="50" style="fill: #38ada9" />
<use x="0" y="400" xlink:href="#unit" style="fill:#f6b93b" />
<rect x="0" y="450" width="50" height="50" style="fill: #f6b93b" />
<use x="0" y="450" xlink:href="#unit" style="fill:#38ada9" />
<rect x="50" y="0" width="50" height="50" style="fill: #f6b93b" />
<use x="50" y="0" xlink:href="#unit" style="fill:#38ada9" />
<rect x="50" y="50" width="50" height="50" style="fill: #38ada9" />
<use x="50" y="50" xlink:href="#unit" style="fill:#f6b93b" />
<rect x="50" y="100" width="50" height="50" style="fill: #f6b93b" />
<use x="50" y="100" xlink:href="#unit" style="fill:#38ada9" />
<rect x="50" y="150" width="50" height="50" style="fill: #38ada9" />
<use x="50" y="150" xlink:href="#unit" style="fill:#f6b93b" />
<rect x="50" y="200" width="50" height="50" style="fill: #f6b93b" />
<use x="50" y="200" xlink:href="#unit" style="fill:#38ada9" />
<rect x="50" y="250" width="50" height="50" style="fill: #38ada9" />
<use x="50" y="250" xlink:href="#unit" style="fill:#f6b93b" />
<rect x="50" y="300" width="50" height="50" style="fill: #f6b93b" />
<use x="50" y="300" xlink:href="#unit" style="fill:#38ada9" />
<rect x="50" y="350" width="50" height="50" style="fill: #38ada9" />
<use x="50" y="350" xlink:href="#unit" style="fill:#f6b93b" />
<rect x="50" y="400" width="50" height="50" style="fill: #f6b93b" />
<use x="50" y="400" xlink:href="#unit" style="fill:#38ada9" />
<rect x="50" y="450" width="50" height="50" style="fill: #38ada9" />
<use x="50" y="450" xlink:href="#unit" style="fill:#f6b93b" />
<rect x="100" y="0" width="50" height="50" style="fill: #38ada9" />
<use x="100" y="0" xlink:href="#unit" style="fill:#f6b93b" />
<rect x="100" y="50" width="50" height="50" style="fill: #f6b93b" />
<use x="100" y="50" xlink:href="#unit" style="fill:#38ada9" />
<rect x="100" y="100" width="50" height="50" style="fill: #38ada9" />
<use x="100" y="100" xlink:href="#unit" style="fill:#f6b93b" />
<rect x="100" y="150" width="50" height="50" style="fill: #f6b93b" />
<use x="100" y="150" xlink:href="#unit" style="fill:#38ada9" />
<rect x="100" y="200" width="50" height="50" style="fill: #38ada9" />
<use x="100" y="200" xlink:href="#unit" style="fill:#f6b93b" />
<rect x="100" y="250" width="50" height="50" style="fill: #f6b93b" />
<use x="100" y="250" xlink:href="#unit" style="fill:#38ada9" />
<rect x="100" y="300" width="50" height="50" style="fill: #38ada9" />
<use x="100" y="300" xlink:href="#unit" style="fill:#f6b93b" />
<rect x="100" y="350" width="50" height="50" style="fill: #f6b93b" />
<use x="100" y="350" xlink:href="#unit" style="fill:#38ada9" />
<rect x="100" y="400" width="50" height="50" style="fill: #38ada9" />
<use x="100" y="400" xlink:href="#unit" style="fill:#f6b93b" />
<rect x="100" y="450" width="50" height="50" style="fill: #f6b93b" />
<use x="100" y="450" xlink:href="#unit" style="fill:#38ada9" />
<rect x="150" y="0" width="50" height="50" style="fill: #f6b93b" />
<use x="150" y="0" xlink:href="#unit" style="fill:#38ada9" />
<rect x="150" y="50" width="50" height="50" style="fill: #38ada9" />
<use x="150" y="50" xlink:href="#unit" style="fill:#f6b93b" />
<rect x="150" y="100" width="50" height="50" style="fill: #f6b93b" />
<use x="150" y="100" xlink:href="#unit" style="fill:#38ada9" />
<rect x="150" y="150" width="50" height="50" style="fill: #38ada9" />
<use x="150" y="150" xlink:href="#unit" style="fill:#f6b93b" />
<rect x="150" y="200" width="50" height="50" style="fill: #f6b93b" />
<use x="150" y="200" xlink:href="#unit" style="fill:#38ada9" />
<rect x="150" y="250" width="50" height="50" style="fill: #38ada9" />
<use x="150" y="250" xlink:href="#unit" style="fill:#f6b93b" />
<rect x="150" y="300" width="50" height="50" style="fill: #f6b93b" />
<use x="150" y="300" xlink:href="#unit" style="fill:#38ada9" />
<rect x="150" y="350" width="50" height="50" style="fill: #38ada9" />
<use x="150" y="350" xlink:href="#unit" style="fill:#f6b93b" />
<rect x="150" y="400" width="50" height="50" style="fill: #f6b93b" />
<use x="150" y="400" xlink:href="#unit" style="fill:#38ada9" />
<rect x="150" y="450" width="50" height="50" style="fill: #38ada9" />
<use x="150" y="450" xlink:href="#unit" style="fill:#f6b93b" />
<rect x="200" y="0" width="50" height="50" style="fill: #38ada9" />
<use x="200" y="0" xlink:href="#unit" style="fill:#f6b93b" />
<rect x="200" y="50" width="50" height="50" style="fill: #f6b93b" />
<use x="200" y="50" xlink:href="#unit" style="fill:#38ada9" />
<rect x="200" y="100" width="50" height="50" style="fill: #38ada9" />
<use x="200" y="100" xlink:href="#unit" style="fill:#f6b93b" />
<rect x="200" y="150" width="50" height="50" style="fill: #f6b93b" />
<use x="200" y="150" xlink:href="#unit" style="fill:#38ada9" />
<rect x="200" y="200" width="50" height="50" style="fill: #38ada9" />
<use x="200" y="200" xlink:href="#unit" style="fill:#f6b93b" />
<rect x="200" y="250" width="50" height="50" style="fill: #f6b93b" />
<use x="200" y="250" xlink:href="#unit" style="fill:#38ada9" />
<rect x="200" y="300" width="50" height="50" style="fill: #38ada9" />
<use x="200" y="300" xlink:href="#unit" style="fill:#f6b93b" />
<rect x="200" y="350" width="50" height="50" style="fill: #f6b93b" />
<use x="200" y="350" xlink:href="#unit" style="fill:#38ada9" />
<rect x="200" y="400" width="50" height="50" style="fill: #38ada9" />
<use x="200" y="400" xlink:href="#unit" style="fill:#f6b93b" />
<rect x="200" y="450" width="50" height="50" style="fill: #f6b93b" />
<use x="200" y="450" xlink:href="#unit" style="fill:#38ada9" />
<rect x="250" y="0" width="50" height="50" style="fill: #f6b93b" />
<use x="250" y="0" xlink:href="#unit" style="fill:#38ada9" />
<rect x="250" y="50" width="50" height="50" style="fill: #38ada9" />
<use x="250" y="50" xlink:href="#unit" style="fill:#f6b93b" />
<rect x="250" y="100" width="50" height="50" style="fill: #f6b93b" />
<use x="250" y="100" xlink:href="#unit" style="fill:#38ada9" />
<rect x="250" y="150" width="50" height="50" style="fill: #38ada9" />
<use x="250" y="150" xlink:href="#unit" style="fill:#f6b93b" />
<rect x="250" y="200" width="50" height="50" style="fill: #f6b93b" />
<use x="250" y="200" xlink:href="#unit" style="fill:#38ada9" />
<rect x="250" y="250" width="50" height="50" style="fill: #38ada9" />
<use x="250" y="250" xlink:href="#unit" style="fill:#f6b93b" />
<rect x="250" y="300" width="50" height="50" style="fill: #f6b93b" />
<use x="250" y="300" xlink:href="#unit" style="fill:#38ada9" />
<rect x="250" y="350" width="50" height="50" style="fill: #38ada9" />
<use x="250" y="350" xlink:href="#unit" style="fill:#f6b93b" />
<rect x="250" y="400" width="50" height="50" style="fill: #f6b93b" />
<use x="250" y="400" xlink:href="#unit" style="fill:#38ada9" />
<rect x="250" y="450" width="50" height="50" style="fill: #38ada9" />
<use x="250" y="450" xlink:href="#unit" style="fill:#f6b93b" />
<rect x="300" y="0" width="50" height="50" style="fill: #38ada9" />
<use x="300" y="0" xlink:href="#unit" style="fill:#f6b93b" />
<rect x="300" y="50" width="50" height="50" style="fill: #f6b93b" />
<use x="300" y="50" xlink:href="#unit" style="fill:#38ada9" />
<rect x="300" y="100" width="50" height="50" style="fill: #38ada9" />
<use x="300" y="100" xlink:href="#unit" style="fill:#f6b93b" />
<rect x="300" y="150" width="50" height="50" style="fill: #f6b93b" />
<use x="300" y="150" xlink:href="#unit" style="fill:#38ada9" />
<rect x="300" y="200" width="50" height="50" style="fill: #38ada9" />
<use x="300" y="200" xlink:href="#unit" style="fill:#f6b93b" />
<rect x="300" y="250" width="50" height="50" style="fill: #f6b93b" />
<use x="300" y="250" xlink:href="#unit" style="fill:#38ada9" />
<rect x="300" y="300" width="50" height="50" style="fill: #38ada9" />
<use x="300" y="300" xlink:href="#unit" style="fill:#f6b93b" />
<rect x="300" y="350" width="50" height="50" style="fill: #f6b93b" />
<use x="300" y="350" xlink:href="#unit" style="fill:#38ada9" />
<rect x="300" y="400" width="50" height="50" style="fill: #38ada9" />
<use x="300" y="400" xlink:href="#unit" style="fill:#f6b93b" />
<rect x="300" y="450" width="50" height="50" style="fill: #f6b93b" />
<use x="300" y="450" xlink:href="#unit" style="fill:#38ada9" />
<rect x="350" y="0" width="50" height="50" style="fill: #f6b93b" />
<use x="350" y="0" xlink:href="#unit" style="fill:#38ada9" />
<rect x="350" y="50" width="50" height="50" style="fill: #38ada9" />
<use x="350" y="50" xlink:href="#unit" style="fill:#f6b93b" />
<rect x="350" y="100" width="50" height="50" style="fill: #f6b93b" />
<use x="350" y="100" xlink:href="#unit" style="fill:#38ada9" />
<rect x="350" y="150" width="50" height="50" style="fill: #38ada9" />
<use x="350" y="150" xlink:href="#unit" style="fill:#f6b93b" />
<rect x="350" y="200" width="50" height="50" style="fill: #f6b93b" />
<use x="350" y="200" xlink:href="#unit" style="fill:#38ada9" />
<rect x="350" y="250" width="50" height="50" style="fill: #38ada9" />
<use x="350" y="250" xlink:href="#unit" style="fill:#f6b93b" />
<rect x="350" y="300" width="50" height="50" style="fill: #f6b93b" />
<use x="350" y="300" xlink:href="#unit" style="fill:#38ada9" />
<rect x="350" y="350" width="50" height="50" style="fill: #38ada9" />
<use x="350" y="350" xlink:href="#unit" style="fill:#f6b93b" />
<rect x="350" y="400" width="50" height="50" style="fill: #f6b93b" />
<use x="350" y="400" xlink:href="#unit" style="fill:#38ada9" />
<rect x="350" y="450" width="50" height="50" style="fill: #38ada9" />
<use x="350" y="450" xlink:href="#unit" style="fill:#f6b93b" />
<rect x="400" y="0" width="50" height="50" style="fill: #38ada9" />
<use x="400" y="0" xlink:href="#unit" style="fill:#f6b93b" />
<rect x="400" y="50" width="50" height="50" style="fill: #f6b93b" />
<use x="400" y="50" xlink:href="#unit" style="fill:#38ada9" />
<rect x="400" y="100" width="50" height="50" style="fill: #38ada9" />
<use x="400" y="100" xlink:href="#unit" style="fill:#f6b93b" />
<rect x="400" y="150" width="50" height="50" style="fill: #f6b93b" />
<use x="400" y="150" xlink:href="#unit" style="fill:#38ada9" />
<rect x="400" y="200" width="50" height="50" style="fill: #38ada9" />
<use x="400" y="200" xlink:href="#unit" style="fill:#f6b93b" />
<rect x="400" y="250" width="50" height="50" style="fill: #f6b93b" />
<use x="400" y="250" xlink:href="#unit" style="fill:#38ada9" />
<rect x="400" y="300" width="50" height="50" style="fill: #38ada9" />
<use x="400" y="300" xlink:href="#unit" style="fill:#f6b93b" />
<rect x="400" y="350" width="50" height="50" style="fill: #f6b93b" />
<use x="400" y="350" xlink:href="#unit" style="fill:#38ada9" />
<rect x="400" y="400" width="50" height="50" style="fill: #38ada9" />
<use x="400" y="400" xlink:href="#unit" style="fill:#f6b93b" />
<rect x="400" y="450" width="50" height="50" style="fill: #f6b93b" />
<use x="400" y="450" xlink:href="#unit" style="fill:#38ada9" />
<rect x="450" y="0" width="50" height="50" style="fill: #f6b93b" />
<use x="450" y="0" xlink:href="#unit" style="fill:#38ada9" />
<rect x="450" y="50" width="50" height="50" style="fill: #38ada9" />
<use x="450" y="50" xlink:href="#unit" style="fill:#f6b93b" />
<rect x="450" y="100" width="50" height="50" style="fill: #f6b93b" />
<use x="450" y="100" xlink:href="#unit" style="fill:#38ada9" />
<rect x="450" y="150" width="50" height="50" style="fill: #38ada9" />
<use x="450" y="150" xlink:href="#unit" style="fill:#f6b93b" />
<rect x="450" y="200" width="50" height="50" style="fill: #f6b93b" />
<use x="450" y="200" xlink:href="#unit" style="fill:#38ada9" />
<rect x="450" y="250" width="50" height="50" style="fill: #38ada9" />
<use x="450" y="250" xlink:href="#unit" style="fill:#f6b93b" />
<rect x="450" y="300" width="50" height="50" style="fill: #f6b93b" />
<use x="450" y="300" xlink:href="#unit" style="fill:#38ada9" />
<rect x="450" y="350" width="50" height="50" style="fill: #38ada9" />
<use x="450" y="350" xlink:href="#unit" style="fill:#f6b93b" />
<rect x="450" y="400" width="50" height="50" style="fill: #f6b93b" />
<use x="450" y="400" xlink:href="#unit" style="fill:#38ada9" />
<rect x="450" y="450" width="50" height="50" style="fill: #38ada9" />
<use x="450" y="450" xlink:href="#unit" style="fill:#f6b93b" />
</svg>
