<?xml version="1.0"?>
<!-- Generated by SVGo -->
<svg width="2000" height="400"
     xmlns="http://www.w3.org/2000/svg"
     xmlns:xlink="http://www.w3.org/1999/xlink">
<desc>Generated with https://github.com/marcelmue/konstrukt</desc>
<rect x="0" y="0" width="2000" height="400" style="fill:#34495e" />
<defs>
<g id="unit">
<polyline points="40,20 40,40 60,70 80,40 80,20 60,-10 40,20" style="fill:#e67e22" />
<polyline points="60,-50 20,30 60,110" style="stroke:#e55039;stroke-width:15;fill:none" />
</g>
</defs>
<use x="-120" y="-100" xlink:href="#unit" />
<use x="-40" y="-100" xlink:href="#unit" />
<use x="40" y="-100" xlink:href="#unit" />
<use x="120" y="-100" xlink:href="#unit" />
<use x="200" y="-100" xlink:href="#unit" />
<use x="280" y="-100" xlink:href="#unit" />
<use x="360" y="-100" xlink:href="#unit" />
<use x="440" y="-100" xlink:href="#unit" />
<use x="520" y="-100" xlink:href="#unit" />
<use x="600" y="-100" xlink:href="#unit" />
<use x="680" y="-100" xlink:href="#unit" />
<use x="760" y="-100" xlink:href="#unit" />
<use x="840" y="-100" xlink:href="#unit" />
<use x="920" y="-100" xlink:href="#unit" />
<use x="1000" y="-100" xlink:href="#unit" />
<use x="1080" y="-100" xlink:href="#unit" />
<use x="1160" y="-100" xlink:href="#unit" />
<use x="1240" y="-100" xlink:href="#unit" />
<use x="1320" y="-100" xlink:href="#unit" />
<use x="1400" y="-100" xlink:href="#unit" />
<use x="1480" y="-100" xlink:href="#unit" />
<use x="1560" y="-100" xlink:href="#unit" />
<use x="1640" y="-100" xlink:href="#unit" />
<use x="1720" y="-100" xlink:href="#unit" />
<use x="1800" y="-100" xlink:href="#unit" />
<use x="1880" y="-100" xlink:href="#unit" />
<use x="1960" y="-100" xlink:href="#unit" />
<use x="2040" y="-100" xlink:href="#unit" />
<use x="2120" y="-100" xlink:href="#unit" />
<use x="-80" y="-20" xlink:href="#unit" />
<use x="0" y="-20" xlink:href="#unit" />
<use x="80" y="-20" xlink:href="#unit" />
<use x="160" y="-20" xlink:href="#unit" />
<use x="240" y="-20" xlink:href="#unit" />
<use x="320" y="-20" xlink:href="#unit" />
<use x="400" y="-20" xlink:href="#unit" />
<use x="480" y="-20" xlink:href="#unit" />
<use x="560" y="-20" xlink:href="#unit" />
<use x="640" y="-20" xlink:href="#unit" />
<use x="720" y="-20" xlink:href="#unit" />
<use x="800" y="-20" xlink:href="#unit" />
<use x="880" y="-20" xlink:href="#unit" />
<use x="960" y="-20" xlink:href="#unit" />
<use x="1040" y="-20" xlink:href="#unit" />
<use x="1120" y="-20" xlink:href="#unit" />
<use x="1200" y="-20" xlink:href="#unit" />
<use x="1280" y="-20" xlink:href="#unit" />
<use x="1360" y="-20" xlink:href="#unit" />
<use x="1440" y="-20" xlink:href="#unit" />
<use x="1520" y="-20" xlink:href="#unit" />
<use x="1600" y="-20" xlink:href="#unit" />
<use x="1680" y="-20" xlink:href="#unit" />
<use x="1760" y="-20" xlink:href="#unit" />
<use x="1840" y="-20" xlink:href="#unit" />
<use x="1920" y="-20" xlink:href="#unit" />
<use x="2000" y="-20" xlink:href="#unit" />
<use x="2080" y="-20" xlink:href="#unit" />
<use x="2160" y="-20" xlink:href="#unit" />
<use x="-120" y="60" xlink:href="#unit" />
<use x="-40" y="60" xlink:href="#unit" />
<use x="40" y="60" xlink:href="#unit" />
<use x="120" y="60" xlink:href="#unit" />
<use x="200" y="60" xlink:href="#unit" />
<use x="280" y="60" xlink:href="#unit" />
<use x="360" y="60" xlink:href="#unit" />
<use x="440" y="60" xlink:href="#unit" />
<use x="520" y="60" xlink:href="#unit" />
<use x="600" y="60" xlink:href="#unit" />
<use x="680" y="60" xlink:href="#unit" />
<use x="760" y="60" xlink:href="#unit" />
<use x="840" y="60" xlink:href="#unit" />
<use x="920" y="60" xlink:href="#unit" />
<use x="1000" y="60" xlink:href="#unit" />
<use x="1080" y="60" xlink:href="#unit" />
<use x="1160" y="60" xlink:href="#unit" />
<use x="1240" y="60" xlink:href="#unit" />
<use x="1320" y="60" xlink:href="#unit" />
<use x="1400" y="60" xlink:href="#unit" />
<use x="1480" y="60" xlink:href="#unit" />
<use x="1560" y="60" xlink:href="#unit" />
<use x="1640" y="60" xlink:href="#unit" />
<use x="1720" y="60" xlink:href="#unit" />
<use x="1800" y="60" xlink:href="#unit" />
<use x="1880" y="60" xlink:href="#unit" />
<use x="1960" y="60" xlink:href="#unit" />
<use x="2040" y="60" xlink:href="#unit" />
<use x="2120" y="60" xlink:href="#unit" />
<use x="-80" y="140" xlink:href="#unit" />
<use x="0" y="140" xlink:href="#unit" />
<use x="80" y="140" xlink:href="#unit" />
<use x="160" y="140" xlink:href="#unit" />
<use x="240" y="140" xlink:href="#unit" />
<use x="320" y="140" xlink:href="#unit" />
<use x="400" y="140" xlink:href="#unit" />
<use x="480" y="140" xlink:href="#unit" />
<use x="560" y="140" xlink:href="#unit" />
<use x="640" y="140" xlink:href="#unit" />
<use x="720" y="140" xlink:href="#unit" />
<use x="800" y="140" xlink:href="#unit" />
<use x="880" y="140" xlink:href="#unit" />
<use x="960" y="140" xlink:href="#unit" />
<use x="1040" y="140" xlink:href="#unit" />
<use x="1120" y="140" xlink:href="#unit" />
<use x="1200" y="140" xlink:href="#unit" />
<use x="1280" y="140" xlink:href="#unit" />
<use x="1360" y="140" xlink:href="#unit" />
<use x="1440" y="140" xlink:href="#unit" />
<use x="1520" y="140" xlink:href="#unit" />
<use x="1600" y="140" xlink:href="#unit" />
<use x="1680" y="140" xlink:href="#unit" />
<use x="1760" y="140" xlink:href="#unit" />
<use x="1840" y="140" xlink:href="#unit" />
<use x="1920" y="140" xlink:href="#unit" />
<use x="2000" y="140" xlink:href="#unit" />
<use x="2080" y="140" xlink:href="#unit" />
<use x="2160" y="140" xlink:href="#unit" />
<use x="-120" y="220" xlink:href="#unit" />
<use x="-40" y="220" xlink:href="#unit" />
<use x="40" y="220" xlink:href="#unit" />
<use x="120" y="220" xlink:href="#unit" />
<use x="200" y="220" xlink:href="#unit" />
<use x="280" y="220" xlink:href="#unit" />
<use x="360" y="220" xlink:href="#unit" />
<use x="440" y="220" xlink:href="#unit" />
<use x="520" y="220" xlink:href="#unit" />
<use x="600" y="220" xlink:href="#unit" />
<use x="680" y="220" xlink:href="#unit" />
<use x="760" y="220" xlink:href="#unit" />
<use x="840" y="220" xlink:href="#unit" />
<use x="920" y="220" xlink:href="#unit" />
<use x="1000" y="220" xlink:href="#unit" />
<use x="1080" y="220" xlink:href="#unit" />
<use x="1160" y="220" xlink:href="#unit" />
<use x="1240" y="220" xlink:href="#unit" />
<use x="1320" y="220" xlink:href="#unit" />
<use x="1400" y="220" xlink:href="#unit" />
<use x="1480" y="220" xlink:href="#unit" />
<use x="1560" y="220" xlink:href="#unit" />
<use x="1640" y="220" xlink:href="#unit" />
<use x="1720" y="220" xlink:href="#unit" />
<use x="1800" y="220" xlink:href="#unit" />
<use x="1880" y="220" xlink:href="#unit" />
<use x="1960" y="220" xlink:href="#unit" />
<use x="2040" y="220" xlink:href="#unit" />
<use x="2120" y="220" xlink:href="#unit" />
<use x="-80" y="300" xlink:href="#unit" />
<use x="0" y="300" xlink:href="#unit" />
<use x="80" y="300" xlink:href="#unit" />
<use x="160" y="300" xlink:href="#unit" />
<use x="240" y="300" xlink:href="#unit" />
<use x="320" y="300" xlink:href="#unit" />
<use x="400" y="300" xlink:href="#unit" />
<use x="480" y="300" xlink:href="#unit" />
<use x="560" y="300" xlink:href="#unit" />
<use x="640" y="300" xlink:href="#unit" />
<use x="720" y="300" xlink:href="#unit" />
<use x="800" y="300" xlink:href="#unit" />
<use x="880" y="300" xlink:href="#unit" />
<use x="960" y="300" xlink:href="#unit" />
<use x="1040" y="300" xlink:href="#unit" />
<use x="1120" y="300" xlink:href="#unit" />
<use x="1200" y="300" xlink:href="#unit" />
<use x="1280" y="300" xlink:href="#unit" />
<use x="1360" y="300" xlink:href="#unit" />
<use x="1440" y="300" xlink:href="#unit" />
<use x="1520" y="300" xlink:href="#unit" />
<use x="1600" y="300" xlink:href="#unit" />
<use x="1680" y="300" xlink:href="#unit" />
<use x="1760" y="300" xlink:href="#unit" />
<use x="1840" y="300" xlink:href="#unit" />
<use x="1920" y="300" xlink:href="#unit" />
<use x="2000" y="300" xlink:href="#unit" />
<use x="2080" y="300" xlink:href="#unit" />
<use x="2160" y="300" xlink:href="#unit" />
<use x="-120" y="380" xlink:href="#unit" />
<use x="-40" y="380" xlink:href="#unit" />
<use x="40" y="380" xlink:href="#unit" />
<use x="120" y="380" xlink:href="#unit" />
<use x="200" y="380" xlink:href="#unit" />
<use x="280" y="380" xlink:href="#unit" />
<use x="360" y="380" xlink:href="#unit" />
<use x="440" y="380" xlink:href="#unit" />
<use x="520" y="380" xlink:href="#unit" />
<use x="600" y="380" xlink:href="#unit" />
<use x="680" y="380" xlink:href="#unit" />
<use x="760" y="380" xlink:href="#unit" />
<use x="840" y="380" xlink:href="#unit" />
<use x="920" y="380" xlink:href="#unit" />
<use x="1000" y="380" xlink:href="#unit" />
<use x="1080" y="380" xlink:href="#unit" />
<use x="1160" y="380" xlink:href="#unit" />
<use x="1240" y="380" xlink:href="#unit" />
<use x="1320" y="380" xlink:href="#unit" />
<use x="1400" y="380" xlink:href="#unit" />
<use x="1480" y="380" xlink:href="#unit" />
<use x="1560" y="380" xlink:href="#unit" />
<use x="1640" y="380" xlink:href="#unit" />
<use x="1720" y="380" xlink:href="#unit" />
<use x="1800" y="380" xlink:href="#unit" />
<use x="1880" y="380" xlink:href="#unit" />
<use x="1960" y="380" xlink:href="#unit" />
<use x="2040" y="380" xlink:href="#unit" />
<use x="2120" y="380" xlink:href="#unit" />
<use x="-80" y="460" xlink:href="#unit" />
<use x="0" y="460" xlink:href="#unit" />
<use x="80" y="460" xlink:href="#unit" />
<use x="160" y="460" xlink:href="#unit" />
<use x="240" y="460" xlink:href="#unit" />
<use x="320" y="460" xlink:href="#unit" />
<use x="400" y="460" xlink:href="#unit" />
<use x="480" y="460" xlink:href="#unit" />
<use x="560" y="460" xlink:href="#unit" />
<use x="640" y="460" xlink:href="#unit" />
<use x="720" y="460" xlink:href="#unit" />
<use x="800" y="460" xlink:href="#unit" />
<use x="880" y="460" xlink:href="#unit" />
<use x="960" y="460" xlink:href="#unit" />
<use x="1040" y="460" xlink:href="#unit" />
<use x="1120" y="460" xlink:href="#unit" />
<use x="1200" y="460" xlink:href="#unit" />
<use x="1280" y="460" xlink:href="#unit" />
<use x="1360" y="460" xlink:href="#unit" />
<use x="1440" y="460" xlink:href="#unit" />
<use x="1520" y="460" xlink:href="#unit" />
<use x="1600" y="460" xlink:href="#unit" />
<use x="1680" y="460" xlink:href="#unit" />
<use x="1760" y="460" xlink:href="#unit" />
<use x="1840" y="460" xlink:href="#unit" />
<use x="1920" y="460" xlink:href="#unit" />
<use x="2000" y="460" xlink:href="#unit" />
<use x="2080" y="460" xlink:href="#unit" />
<use x="2160" y="460" xlink:href="#unit" />
<use x="-120" y="540" xlink:href="#unit" />
<use x="-40" y="540" xlink:href="#unit" />
<use x="40" y="540" xlink:href="#unit" />
<use x="120" y="540" xlink:href="#unit" />
<use x="200" y="540" xlink:href="#unit" />
<use x="280" y="540" xlink:href="#unit" />
<use x="360" y="540" xlink:href="#unit" />
<use x="440" y="540" xlink:href="#unit" />
<use x="520" y="540" xlink:href="#unit" />
<use x="600" y="540" xlink:href="#unit" />
<use x="680" y="540" xlink:href="#unit" />
<use x="760" y="540" xlink:href="#unit" />
<use x="840" y="540" xlink:href="#unit" />
<use x="920" y="540" xlink:href="#unit" />
<use x="1000" y="540" xlink:href="#unit" />
<use x="1080" y="540" xlink:href="#unit" />
<use x="1160" y="540" xlink:href="#unit" />
<use x="1240" y="540" xlink:href="#unit" />
<use x="1320" y="540" xlink:href="#unit" />
<use x="1400" y="540" xlink:href="#unit" />
<use x="1480" y="540" xlink:href="#unit" />
<use x="1560" y="540" xlink:href="#unit" />
<use x="1640" y="540" xlink:href="#unit" />
<use x="1720" y="540" xlink:href="#unit" />
<use x="1800" y="540" xlink:href="#unit" />
<use x="1880" y="540" xlink:href="#unit" />
<use x="1960" y="540" xlink:href="#unit" />
<use x="2040" y="540" xlink:href="#unit" />
<use x="2120" y="540" xlink:href="#unit" />
</svg>
