<?xml version="1.0"?>
<!-- Generated by SVGo -->
<svg width="500" height="500"
     xmlns="http://www.w3.org/2000/svg"
     xmlns:xlink="http://www.w3.org/1999/xlink">
<desc>Generated with https://github.com/marcelmue/konstrukt</desc>
<rect x="0" y="0" width="500" height="500" style="fill:#34495e" />
<defs>
<g id="unit">
<polyline points="40,20 40,40 60,70 80,40 80,20 60,-10 40,20" style="fill:#e67e22" />
<polyline points="60,-50 20,30 60,110" style="stroke:#e55039;stroke-width:15;fill:none" />
</g>
</defs>
<use x="-120" y="-100" xlink:href="#unit" />
<use x="-40" y="-100" xlink:href="#unit" />
<use x="40" y="-100" xlink:href="#unit" />
<use x="120" y="-100" xlink:href="#unit" />
<use x="200" y="-100" xlink:href="#unit" />
<use x="280" y="-100" xlink:href="#unit" />
<use x="360" y="-100" xlink:href="#unit" />
<use x="440" y="-100" xlink:href="#unit" />
<use x="520" y="-100" xlink:href="#unit" />
<use x="600" y="-100" xlink:href="#unit" />
<use x="680" y="-100" xlink:href="#unit" />
<use x="-80" y="-20" xlink:href="#unit" />
<use x="0" y="-20" xlink:href="#unit" />
<use x="80" y="-20" xlink:href="#unit" />
<use x="160" y="-20" xlink:href="#unit" />
<use x="240" y="-20" xlink:href="#unit" />
<use x="320" y="-20" xlink:href="#unit" />
<use x="400" y="-20" xlink:href="#unit" />
<use x="480" y="-20" xlink:href="#unit" />
<use x="560" y="-20" xlink:href="#unit" />
<use x="640" y="-20" xlink:href="#unit" />
<use x="720" y="-20" xlink:href="#unit" />
<use x="-120" y="60" xlink:href="#unit" />
<use x="-40" y="60" xlink:href="#unit" />
<use x="40" y="60" xlink:href="#unit" />
<use x="120" y="60" xlink:href="#unit" />
<use x="200" y="60" xlink:href="#unit" />
<use x="280" y="60" xlink:href="#unit" />
<use x="360" y="60" xlink:href="#unit" />
<use x="440" y="60" xlink:href="#unit" />
<use x="520" y="60" xlink:href="#unit" />
<use x="600" y="60" xlink:href="#unit" />
<use x="680" y="60" xlink:href="#unit" />
<use x="-80" y="140" xlink:href="#unit" />
<use x="0" y="140" xlink:href="#unit" />
<use x="80" y="140" xlink:href="#unit" />
<use x="160" y="140" xlink:href="#unit" />
<use x="240" y="140" xlink:href="#unit" />
<use x="320" y="140" xlink:href="#unit" />
<use x="400" y="140" xlink:href="#unit" />
<use x="480" y="140" xlink:href="#unit" />
<use x="560" y="140" xlink:href="#unit" />
<use x="640" y="140" xlink:href="#unit" />
<use x="720" y="140" xlink:href="#unit" />
<use x="-120" y="220" xlink:href="#unit" />
<use x="-40" y="220" xlink:href="#unit" />
<use x="40" y="220" xlink:href="#unit" />
<use x="120" y="220" xlink:href="#unit" />
<use x="200" y="220" xlink:href="#unit" />
<use x="280" y="220" xlink:href="#unit" />
<use x="360" y="220" xlink:href="#unit" />
<use x="440" y="220" xlink:href="#unit" />
<use x="520" y="220" xlink:href="#unit" />
<use x="600" y="220" xlink:href="#unit" />
<use x="680" y="220" xlink:href="#unit" />
<use x="-80" y="300" xlink:href="#unit" />
<use x="0" y="300" xlink:href="#unit" />
<use x="80" y="300" xlink:href="#unit" />
<use x="160" y="300" xlink:href="#unit" />
<use x="240" y="300" xlink:href="#unit" />
<use x="320" y="300" xlink:href="#unit" />
<use x="400" y="300" xlink:href="#unit" />
<use x="480" y="300" xlink:href="#unit" />
<use x="560" y="300" xlink:href="#unit" />
<use x="640" y="300" xlink:href="#unit" />
<use x="720" y="300" xlink:href="#unit" />
<use x="-120" y="380" xlink:href="#unit" />
<use x="-40" y="380" xlink:href="#unit" />
<use x="40" y="380" xlink:href="#unit" />
<use x="120" y="380" xlink:href="#unit" />
<use x="200" y="380" xlink:href="#unit" />
<use x="280" y="380" xlink:href="#unit" />
<use x="360" y="380" xlink:href="#unit" />
<use x="440" y="380" xlink:href="#unit" />
<use x="520" y="380" xlink:href="#unit" />
<use x="600" y="380" xlink:href="#unit" />
<use x="680" y="380" xlink:href="#unit" />
<use x="-80" y="460" xlink:href="#unit" />
<use x="0" y="460" xlink:href="#unit" />
<use x="80" y="460" xlink:href="#unit" />
<use x="160" y="460" xlink:href="#unit" />
<use x="240" y="460" xlink:href="#unit" />
<use x="320" y="460" xlink:href="#unit" />
<use x="400" y="460" xlink:href="#unit" />
<use x="480" y="460" xlink:href="#unit" />
<use x="560" y="460" xlink:href="#unit" />
<use x="640" y="460" xlink:href="#unit" />
<use x="720" y="460" xlink:href="#unit" />
<use x="-120" y="540" xlink:href="#unit" />
<use x="-40" y="540" xlink:href="#unit" />
<use x="40" y="540" xlink:href="#unit" />
<use x="120" y="540" xlink:href="#unit" />
<use x="200" y="540" xlink:href="#unit" />
<use x="280" y="540" xlink:href="#unit" />
<use x="360" y="540" xlink:href="#unit" />
<use x="440" y="540" xlink:href="#unit" />
<use x="520" y="540" xlink:href="#unit" />
<use x="600" y="540" xlink:href="#unit" />
<use x="680" y="540" xlink:href="#unit" />
<use x="-80" y="620" xlink:href="#unit" />
<use x="0" y="620" xlink:href="#unit" />
<use x="80" y="620" xlink:href="#unit" />
<use x="160" y="620" xlink:href="#unit" />
<use x="240" y="620" xlink:href="#unit" />
<use x="320" y="620" xlink:href="#unit" />
<use x="400" y="620" xlink:href="#unit" />
<use x="480" y="620" xlink:href="#unit" />
<use x="560" y="620" xlink:href="#unit" />
<use x="640" y="620" xlink:href="#unit" />
<use x="720" y="620" xlink:href="#unit" />
</svg>
