<?xml version="1.0"?>
<!-- Generated by SVGo -->
<svg width="500" height="500"
     xmlns="http://www.w3.org/2000/svg"
     xmlns:xlink="http://www.w3.org/1999/xlink">
<desc>Generated with https://github.com/marcelmue/konstrukt</desc>
<rect x="0" y="0" width="500" height="500" style="fill:#000000" />
<defs>
<g id="unit">
<polygon points="0,0 0,50 40,90 60,60" />
</g>
<g id="runit">
<g transform="scale(-1,1)">
<use x="0" y="0" xlink:href="#unit" />
</g>
</g>
</defs>
<use x="-120" y="-60" xlink:href="#unit" style="fill:#d63031" />
<use x="-120" y="-60" xlink:href="#runit" style="fill:#ffeaa7" />
<use x="0" y="-60" xlink:href="#unit" style="fill:#d63031" />
<use x="0" y="-60" xlink:href="#runit" style="fill:#ffeaa7" />
<use x="120" y="-60" xlink:href="#unit" style="fill:#d63031" />
<use x="120" y="-60" xlink:href="#runit" style="fill:#ffeaa7" />
<use x="240" y="-60" xlink:href="#unit" style="fill:#d63031" />
<use x="240" y="-60" xlink:href="#runit" style="fill:#ffeaa7" />
<use x="360" y="-60" xlink:href="#unit" style="fill:#d63031" />
<use x="360" y="-60" xlink:href="#runit" style="fill:#ffeaa7" />
<use x="480" y="-60" xlink:href="#unit" style="fill:#d63031" />
<use x="480" y="-60" xlink:href="#runit" style="fill:#ffeaa7" />
<use x="-60" y="0" xlink:href="#unit" style="fill:#d63031" />
<use x="-60" y="0" xlink:href="#runit" style="fill:#ffeaa7" />
<use x="60" y="0" xlink:href="#unit" style="fill:#d63031" />
<use x="60" y="0" xlink:href="#runit" style="fill:#ffeaa7" />
<use x="180" y="0" xlink:href="#unit" style="fill:#d63031" />
<use x="180" y="0" xlink:href="#runit" style="fill:#ffeaa7" />
<use x="300" y="0" xlink:href="#unit" style="fill:#d63031" />
<use x="300" y="0" xlink:href="#runit" style="fill:#ffeaa7" />
<use x="420" y="0" xlink:href="#unit" style="fill:#d63031" />
<use x="420" y="0" xlink:href="#runit" style="fill:#ffeaa7" />
<use x="540" y="0" xlink:href="#unit" style="fill:#d63031" />
<use x="540" y="0" xlink:href="#runit" style="fill:#ffeaa7" />
<use x="-120" y="60" xlink:href="#unit" style="fill:#d63031" />
<use x="-120" y="60" xlink:href="#runit" style="fill:#ffeaa7" />
<use x="0" y="60" xlink:href="#unit" style="fill:#d63031" />
<use x="0" y="60" xlink:href="#runit" style="fill:#ffeaa7" />
<use x="120" y="60" xlink:href="#unit" style="fill:#d63031" />
<use x="120" y="60" xlink:href="#runit" style="fill:#ffeaa7" />
<use x="240" y="60" xlink:href="#unit" style="fill:#d63031" />
<use x="240" y="60" xlink:href="#runit" style="fill:#ffeaa7" />
<use x="360" y="60" xlink:href="#unit" style="fill:#d63031" />
<use x="360" y="60" xlink:href="#runit" style="fill:#ffeaa7" />
<use x="480" y="60" xlink:href="#unit" style="fill:#d63031" />
<use x="480" y="60" xlink:href="#runit" style="fill:#ffeaa7" />
<use x="-60" y="120" xlink:href="#unit" style="fill:#d63031" />
<use x="-60" y="120" xlink:href="#runit" style="fill:#ffeaa7" />
<use x="60" y="120" xlink:href="#unit" style="fill:#d63031" />
<use x="60" y="120" xlink:href="#runit" style="fill:#ffeaa7" />
<use x="180" y="120" xlink:href="#unit" style="fill:#d63031" />
<use x="180" y="120" xlink:href="#runit" style="fill:#ffeaa7" />
<use x="300" y="120" xlink:href="#unit" style="fill:#d63031" />
<use x="300" y="120" xlink:href="#runit" style="fill:#ffeaa7" />
<use x="420" y="120" xlink:href="#unit" style="fill:#d63031" />
<use x="420" y="120" xlink:href="#runit" style="fill:#ffeaa7" />
<use x="540" y="120" xlink:href="#unit" style="fill:#d63031" />
<use x="540" y="120" xlink:href="#runit" style="fill:#ffeaa7" />
<use x="-120" y="180" xlink:href="#unit" style="fill:#d63031" />
<use x="-120" y="180" xlink:href="#runit" style="fill:#ffeaa7" />
<use x="0" y="180" xlink:href="#unit" style="fill:#d63031" />
<use x="0" y="180" xlink:href="#runit" style="fill:#ffeaa7" />
<use x="120" y="180" xlink:href="#unit" style="fill:#d63031" />
<use x="120" y="180" xlink:href="#runit" style="fill:#ffeaa7" />
<use x="240" y="180" xlink:href="#unit" style="fill:#d63031" />
<use x="240" y="180" xlink:href="#runit" style="fill:#ffeaa7" />
<use x="360" y="180" xlink:href="#unit" style="fill:#d63031" />
<use x="360" y="180" xlink:href="#runit" style="fill:#ffeaa7" />
<use x="480" y="180" xlink:href="#unit" style="fill:#d63031" />
<use x="480" y="180" xlink:href="#runit" style="fill:#ffeaa7" />
<use x="-60" y="240" xlink:href="#unit" style="fill:#d63031" />
<use x="-60" y="240" xlink:href="#runit" style="fill:#ffeaa7" />
<use x="60" y="240" xlink:href="#unit" style="fill:#d63031" />
<use x="60" y="240" xlink:href="#runit" style="fill:#ffeaa7" />
<use x="180" y="240" xlink:href="#unit" style="fill:#d63031" />
<use x="180" y="240" xlink:href="#runit" style="fill:#ffeaa7" />
<use x="300" y="240" xlink:href="#unit" style="fill:#d63031" />
<use x="300" y="240" xlink:href="#runit" style="fill:#ffeaa7" />
<use x="420" y="240" xlink:href="#unit" style="fill:#d63031" />
<use x="420" y="240" xlink:href="#runit" style="fill:#ffeaa7" />
<use x="540" y="240" xlink:href="#unit" style="fill:#d63031" />
<use x="540" y="240" xlink:href="#runit" style="fill:#ffeaa7" />
<use x="-120" y="300" xlink:href="#unit" style="fill:#d63031" />
<use x="-120" y="300" xlink:href="#runit" style="fill:#ffeaa7" />
<use x="0" y="300" xlink:href="#unit" style="fill:#d63031" />
<use x="0" y="300" xlink:href="#runit" style="fill:#ffeaa7" />
<use x="120" y="300" xlink:href="#unit" style="fill:#d63031" />
<use x="120" y="300" xlink:href="#runit" style="fill:#ffeaa7" />
<use x="240" y="300" xlink:href="#unit" style="fill:#d63031" />
<use x="240" y="300" xlink:href="#runit" style="fill:#ffeaa7" />
<use x="360" y="300" xlink:href="#unit" style="fill:#d63031" />
<use x="360" y="300" xlink:href="#runit" style="fill:#ffeaa7" />
<use x="480" y="300" xlink:href="#unit" style="fill:#d63031" />
<use x="480" y="300" xlink:href="#runit" style="fill:#ffeaa7" />
<use x="-60" y="360" xlink:href="#unit" style="fill:#d63031" />
<use x="-60" y="360" xlink:href="#runit" style="fill:#ffeaa7" />
<use x="60" y="360" xlink:href="#unit" style="fill:#d63031" />
<use x="60" y="360" xlink:href="#runit" style="fill:#ffeaa7" />
<use x="180" y="360" xlink:href="#unit" style="fill:#d63031" />
<use x="180" y="360" xlink:href="#runit" style="fill:#ffeaa7" />
<use x="300" y="360" xlink:href="#unit" style="fill:#d63031" />
<use x="300" y="360" xlink:href="#runit" style="fill:#ffeaa7" />
<use x="420" y="360" xlink:href="#unit" style="fill:#d63031" />
<use x="420" y="360" xlink:href="#runit" style="fill:#ffeaa7" />
<use x="540" y="360" xlink:href="#unit" style="fill:#d63031" />
<use x="540" y="360" xlink:href="#runit" style="fill:#ffeaa7" />
<use x="-120" y="420" xlink:href="#unit" style="fill:#d63031" />
<use x="-120" y="420" xlink:href="#runit" style="fill:#ffeaa7" />
<use x="0" y="420" xlink:href="#unit" style="fill:#d63031" />
<use x="0" y="420" xlink:href="#runit" style="fill:#ffeaa7" />
<use x="120" y="420" xlink:href="#unit" style="fill:#d63031" />
<use x="120" y="420" xlink:href="#runit" style="fill:#ffeaa7" />
<use x="240" y="420" xlink:href="#unit" style="fill:#d63031" />
<use x="240" y="420" xlink:href="#runit" style="fill:#ffeaa7" />
<use x="360" y="420" xlink:href="#unit" style="fill:#d63031" />
<use x="360" y="420" xlink:href="#runit" style="fill:#ffeaa7" />
<use x="480" y="420" xlink:href="#unit" style="fill:#d63031" />
<use x="480" y="420" xlink:href="#runit" style="fill:#ffeaa7" />
<use x="-60" y="480" xlink:href="#unit" style="fill:#d63031" />
<use x="-60" y="480" xlink:href="#runit" style="fill:#ffeaa7" />
<use x="60" y="480" xlink:href="#unit" style="fill:#d63031" />
<use x="60" y="480" xlink:href="#runit" style="fill:#ffeaa7" />
<use x="180" y="480" xlink:href="#unit" style="fill:#d63031" />
<use x="180" y="480" xlink:href="#runit" style="fill:#ffeaa7" />
<use x="300" y="480" xlink:href="#unit" style="fill:#d63031" />
<use x="300" y="480" xlink:href="#runit" style="fill:#ffeaa7" />
<use x="420" y="480" xlink:href="#unit" style="fill:#d63031" />
<use x="420" y="480" xlink:href="#runit" style="fill:#ffeaa7" />
<use x="540" y="480" xlink:href="#unit" style="fill:#d63031" />
<use x="540" y="480" xlink:href="#runit" style="fill:#ffeaa7" />
</svg>
