<?xml version="1.0"?>
<!-- Generated by SVGo -->
<svg width="2000" height="400"
     xmlns="http://www.w3.org/2000/svg"
     xmlns:xlink="http://www.w3.org/1999/xlink">
<desc>Generated with https://github.com/marcelmue/konstrukt</desc>
<rect x="0" y="0" width="2000" height="400" style="fill:#2c3e50" />
<defs>
<g id="unit">
<polygon points="0,50 0,100 50,100" />
<polygon points="0,-50 0,-100 -50,-100" />
</g>
<g id="background">
<polygon points="0,0 0,100 100,100 100,0" />
</g>
</defs>
<use x="0" y="-100" xlink:href="#background" style="fill:#38ada9" />
<use x="200" y="-100" xlink:href="#background" style="fill:#38ada9" />
<use x="400" y="-100" xlink:href="#background" style="fill:#38ada9" />
<use x="600" y="-100" xlink:href="#background" style="fill:#38ada9" />
<use x="800" y="-100" xlink:href="#background" style="fill:#38ada9" />
<use x="1000" y="-100" xlink:href="#background" style="fill:#38ada9" />
<use x="1200" y="-100" xlink:href="#background" style="fill:#38ada9" />
<use x="1400" y="-100" xlink:href="#background" style="fill:#38ada9" />
<use x="1600" y="-100" xlink:href="#background" style="fill:#38ada9" />
<use x="1800" y="-100" xlink:href="#background" style="fill:#38ada9" />
<use x="2000" y="-100" xlink:href="#background" style="fill:#38ada9" />
<use x="-100" y="0" xlink:href="#background" style="fill:#38ada9" />
<use x="100" y="0" xlink:href="#background" style="fill:#38ada9" />
<use x="300" y="0" xlink:href="#background" style="fill:#38ada9" />
<use x="500" y="0" xlink:href="#background" style="fill:#38ada9" />
<use x="700" y="0" xlink:href="#background" style="fill:#38ada9" />
<use x="900" y="0" xlink:href="#background" style="fill:#38ada9" />
<use x="1100" y="0" xlink:href="#background" style="fill:#38ada9" />
<use x="1300" y="0" xlink:href="#background" style="fill:#38ada9" />
<use x="1500" y="0" xlink:href="#background" style="fill:#38ada9" />
<use x="1700" y="0" xlink:href="#background" style="fill:#38ada9" />
<use x="1900" y="0" xlink:href="#background" style="fill:#38ada9" />
<use x="2100" y="0" xlink:href="#background" style="fill:#38ada9" />
<use x="0" y="100" xlink:href="#background" style="fill:#38ada9" />
<use x="200" y="100" xlink:href="#background" style="fill:#38ada9" />
<use x="400" y="100" xlink:href="#background" style="fill:#38ada9" />
<use x="600" y="100" xlink:href="#background" style="fill:#38ada9" />
<use x="800" y="100" xlink:href="#background" style="fill:#38ada9" />
<use x="1000" y="100" xlink:href="#background" style="fill:#38ada9" />
<use x="1200" y="100" xlink:href="#background" style="fill:#38ada9" />
<use x="1400" y="100" xlink:href="#background" style="fill:#38ada9" />
<use x="1600" y="100" xlink:href="#background" style="fill:#38ada9" />
<use x="1800" y="100" xlink:href="#background" style="fill:#38ada9" />
<use x="2000" y="100" xlink:href="#background" style="fill:#38ada9" />
<use x="-100" y="200" xlink:href="#background" style="fill:#38ada9" />
<use x="100" y="200" xlink:href="#background" style="fill:#38ada9" />
<use x="300" y="200" xlink:href="#background" style="fill:#38ada9" />
<use x="500" y="200" xlink:href="#background" style="fill:#38ada9" />
<use x="700" y="200" xlink:href="#background" style="fill:#38ada9" />
<use x="900" y="200" xlink:href="#background" style="fill:#38ada9" />
<use x="1100" y="200" xlink:href="#background" style="fill:#38ada9" />
<use x="1300" y="200" xlink:href="#background" style="fill:#38ada9" />
<use x="1500" y="200" xlink:href="#background" style="fill:#38ada9" />
<use x="1700" y="200" xlink:href="#background" style="fill:#38ada9" />
<use x="1900" y="200" xlink:href="#background" style="fill:#38ada9" />
<use x="2100" y="200" xlink:href="#background" style="fill:#38ada9" />
<use x="0" y="300" xlink:href="#background" style="fill:#38ada9" />
<use x="200" y="300" xlink:href="#background" style="fill:#38ada9" />
<use x="400" y="300" xlink:href="#background" style="fill:#38ada9" />
<use x="600" y="300" xlink:href="#background" style="fill:#38ada9" />
<use x="800" y="300" xlink:href="#background" style="fill:#38ada9" />
<use x="1000" y="300" xlink:href="#background" style="fill:#38ada9" />
<use x="1200" y="300" xlink:href="#background" style="fill:#38ada9" />
<use x="1400" y="300" xlink:href="#background" style="fill:#38ada9" />
<use x="1600" y="300" xlink:href="#background" style="fill:#38ada9" />
<use x="1800" y="300" xlink:href="#background" style="fill:#38ada9" />
<use x="2000" y="300" xlink:href="#background" style="fill:#38ada9" />
<use x="-100" y="400" xlink:href="#background" style="fill:#38ada9" />
<use x="100" y="400" xlink:href="#background" style="fill:#38ada9" />
<use x="300" y="400" xlink:href="#background" style="fill:#38ada9" />
<use x="500" y="400" xlink:href="#background" style="fill:#38ada9" />
<use x="700" y="400" xlink:href="#background" style="fill:#38ada9" />
<use x="900" y="400" xlink:href="#background" style="fill:#38ada9" />
<use x="1100" y="400" xlink:href="#background" style="fill:#38ada9" />
<use x="1300" y="400" xlink:href="#background" style="fill:#38ada9" />
<use x="1500" y="400" xlink:href="#background" style="fill:#38ada9" />
<use x="1700" y="400" xlink:href="#background" style="fill:#38ada9" />
<use x="1900" y="400" xlink:href="#background" style="fill:#38ada9" />
<use x="2100" y="400" xlink:href="#background" style="fill:#38ada9" />
<use x="0" y="500" xlink:href="#background" style="fill:#38ada9" />
<use x="200" y="500" xlink:href="#background" style="fill:#38ada9" />
<use x="400" y="500" xlink:href="#background" style="fill:#38ada9" />
<use x="600" y="500" xlink:href="#background" style="fill:#38ada9" />
<use x="800" y="500" xlink:href="#background" style="fill:#38ada9" />
<use x="1000" y="500" xlink:href="#background" style="fill:#38ada9" />
<use x="1200" y="500" xlink:href="#background" style="fill:#38ada9" />
<use x="1400" y="500" xlink:href="#background" style="fill:#38ada9" />
<use x="1600" y="500" xlink:href="#background" style="fill:#38ada9" />
<use x="1800" y="500" xlink:href="#background" style="fill:#38ada9" />
<use x="2000" y="500" xlink:href="#background" style="fill:#38ada9" />
<use x="-100" y="-100" xlink:href="#unit" style="fill:#ecf0f1" />
<use x="0" y="-100" xlink:href="#unit" style="fill:#ecf0f1" />
<use x="100" y="-100" xlink:href="#unit" style="fill:#ecf0f1" />
<use x="200" y="-100" xlink:href="#unit" style="fill:#ecf0f1" />
<use x="300" y="-100" xlink:href="#unit" style="fill:#ecf0f1" />
<use x="400" y="-100" xlink:href="#unit" style="fill:#ecf0f1" />
<use x="500" y="-100" xlink:href="#unit" style="fill:#ecf0f1" />
<use x="600" y="-100" xlink:href="#unit" style="fill:#ecf0f1" />
<use x="700" y="-100" xlink:href="#unit" style="fill:#ecf0f1" />
<use x="800" y="-100" xlink:href="#unit" style="fill:#ecf0f1" />
<use x="900" y="-100" xlink:href="#unit" style="fill:#ecf0f1" />
<use x="1000" y="-100" xlink:href="#unit" style="fill:#ecf0f1" />
<use x="1100" y="-100" xlink:href="#unit" style="fill:#ecf0f1" />
<use x="1200" y="-100" xlink:href="#unit" style="fill:#ecf0f1" />
<use x="1300" y="-100" xlink:href="#unit" style="fill:#ecf0f1" />
<use x="1400" y="-100" xlink:href="#unit" style="fill:#ecf0f1" />
<use x="1500" y="-100" xlink:href="#unit" style="fill:#ecf0f1" />
<use x="1600" y="-100" xlink:href="#unit" style="fill:#ecf0f1" />
<use x="1700" y="-100" xlink:href="#unit" style="fill:#ecf0f1" />
<use x="1800" y="-100" xlink:href="#unit" style="fill:#ecf0f1" />
<use x="1900" y="-100" xlink:href="#unit" style="fill:#ecf0f1" />
<use x="2000" y="-100" xlink:href="#unit" style="fill:#ecf0f1" />
<use x="2100" y="-100" xlink:href="#unit" style="fill:#ecf0f1" />
<use x="-100" y="0" xlink:href="#unit" style="fill:#e67e22" />
<use x="0" y="0" xlink:href="#unit" style="fill:#e67e22" />
<use x="100" y="0" xlink:href="#unit" style="fill:#e67e22" />
<use x="200" y="0" xlink:href="#unit" style="fill:#e67e22" />
<use x="300" y="0" xlink:href="#unit" style="fill:#e67e22" />
<use x="400" y="0" xlink:href="#unit" style="fill:#e67e22" />
<use x="500" y="0" xlink:href="#unit" style="fill:#e67e22" />
<use x="600" y="0" xlink:href="#unit" style="fill:#e67e22" />
<use x="700" y="0" xlink:href="#unit" style="fill:#e67e22" />
<use x="800" y="0" xlink:href="#unit" style="fill:#e67e22" />
<use x="900" y="0" xlink:href="#unit" style="fill:#e67e22" />
<use x="1000" y="0" xlink:href="#unit" style="fill:#e67e22" />
<use x="1100" y="0" xlink:href="#unit" style="fill:#e67e22" />
<use x="1200" y="0" xlink:href="#unit" style="fill:#e67e22" />
<use x="1300" y="0" xlink:href="#unit" style="fill:#e67e22" />
<use x="1400" y="0" xlink:href="#unit" style="fill:#e67e22" />
<use x="1500" y="0" xlink:href="#unit" style="fill:#e67e22" />
<use x="1600" y="0" xlink:href="#unit" style="fill:#e67e22" />
<use x="1700" y="0" xlink:href="#unit" style="fill:#e67e22" />
<use x="1800" y="0" xlink:href="#unit" style="fill:#e67e22" />
<use x="1900" y="0" xlink:href="#unit" style="fill:#e67e22" />
<use x="2000" y="0" xlink:href="#unit" style="fill:#e67e22" />
<use x="2100" y="0" xlink:href="#unit" style="fill:#e67e22" />
<use x="-100" y="100" xlink:href="#unit" style="fill:#ecf0f1" />
<use x="0" y="100" xlink:href="#unit" style="fill:#ecf0f1" />
<use x="100" y="100" xlink:href="#unit" style="fill:#ecf0f1" />
<use x="200" y="100" xlink:href="#unit" style="fill:#ecf0f1" />
<use x="300" y="100" xlink:href="#unit" style="fill:#ecf0f1" />
<use x="400" y="100" xlink:href="#unit" style="fill:#ecf0f1" />
<use x="500" y="100" xlink:href="#unit" style="fill:#ecf0f1" />
<use x="600" y="100" xlink:href="#unit" style="fill:#ecf0f1" />
<use x="700" y="100" xlink:href="#unit" style="fill:#ecf0f1" />
<use x="800" y="100" xlink:href="#unit" style="fill:#ecf0f1" />
<use x="900" y="100" xlink:href="#unit" style="fill:#ecf0f1" />
<use x="1000" y="100" xlink:href="#unit" style="fill:#ecf0f1" />
<use x="1100" y="100" xlink:href="#unit" style="fill:#ecf0f1" />
<use x="1200" y="100" xlink:href="#unit" style="fill:#ecf0f1" />
<use x="1300" y="100" xlink:href="#unit" style="fill:#ecf0f1" />
<use x="1400" y="100" xlink:href="#unit" style="fill:#ecf0f1" />
<use x="1500" y="100" xlink:href="#unit" style="fill:#ecf0f1" />
<use x="1600" y="100" xlink:href="#unit" style="fill:#ecf0f1" />
<use x="1700" y="100" xlink:href="#unit" style="fill:#ecf0f1" />
<use x="1800" y="100" xlink:href="#unit" style="fill:#ecf0f1" />
<use x="1900" y="100" xlink:href="#unit" style="fill:#ecf0f1" />
<use x="2000" y="100" xlink:href="#unit" style="fill:#ecf0f1" />
<use x="2100" y="100" xlink:href="#unit" style="fill:#ecf0f1" />
<use x="-100" y="200" xlink:href="#unit" style="fill:#e67e22" />
<use x="0" y="200" xlink:href="#unit" style="fill:#e67e22" />
<use x="100" y="200" xlink:href="#unit" style="fill:#e67e22" />
<use x="200" y="200" xlink:href="#unit" style="fill:#e67e22" />
<use x="300" y="200" xlink:href="#unit" style="fill:#e67e22" />
<use x="400" y="200" xlink:href="#unit" style="fill:#e67e22" />
<use x="500" y="200" xlink:href="#unit" style="fill:#e67e22" />
<use x="600" y="200" xlink:href="#unit" style="fill:#e67e22" />
<use x="700" y="200" xlink:href="#unit" style="fill:#e67e22" />
<use x="800" y="200" xlink:href="#unit" style="fill:#e67e22" />
<use x="900" y="200" xlink:href="#unit" style="fill:#e67e22" />
<use x="1000" y="200" xlink:href="#unit" style="fill:#e67e22" />
<use x="1100" y="200" xlink:href="#unit" style="fill:#e67e22" />
<use x="1200" y="200" xlink:href="#unit" style="fill:#e67e22" />
<use x="1300" y="200" xlink:href="#unit" style="fill:#e67e22" />
<use x="1400" y="200" xlink:href="#unit" style="fill:#e67e22" />
<use x="1500" y="200" xlink:href="#unit" style="fill:#e67e22" />
<use x="1600" y="200" xlink:href="#unit" style="fill:#e67e22" />
<use x="1700" y="200" xlink:href="#unit" style="fill:#e67e22" />
<use x="1800" y="200" xlink:href="#unit" style="fill:#e67e22" />
<use x="1900" y="200" xlink:href="#unit" style="fill:#e67e22" />
<use x="2000" y="200" xlink:href="#unit" style="fill:#e67e22" />
<use x="2100" y="200" xlink:href="#unit" style="fill:#e67e22" />
<use x="-100" y="300" xlink:href="#unit" style="fill:#ecf0f1" />
<use x="0" y="300" xlink:href="#unit" style="fill:#ecf0f1" />
<use x="100" y="300" xlink:href="#unit" style="fill:#ecf0f1" />
<use x="200" y="300" xlink:href="#unit" style="fill:#ecf0f1" />
<use x="300" y="300" xlink:href="#unit" style="fill:#ecf0f1" />
<use x="400" y="300" xlink:href="#unit" style="fill:#ecf0f1" />
<use x="500" y="300" xlink:href="#unit" style="fill:#ecf0f1" />
<use x="600" y="300" xlink:href="#unit" style="fill:#ecf0f1" />
<use x="700" y="300" xlink:href="#unit" style="fill:#ecf0f1" />
<use x="800" y="300" xlink:href="#unit" style="fill:#ecf0f1" />
<use x="900" y="300" xlink:href="#unit" style="fill:#ecf0f1" />
<use x="1000" y="300" xlink:href="#unit" style="fill:#ecf0f1" />
<use x="1100" y="300" xlink:href="#unit" style="fill:#ecf0f1" />
<use x="1200" y="300" xlink:href="#unit" style="fill:#ecf0f1" />
<use x="1300" y="300" xlink:href="#unit" style="fill:#ecf0f1" />
<use x="1400" y="300" xlink:href="#unit" style="fill:#ecf0f1" />
<use x="1500" y="300" xlink:href="#unit" style="fill:#ecf0f1" />
<use x="1600" y="300" xlink:href="#unit" style="fill:#ecf0f1" />
<use x="1700" y="300" xlink:href="#unit" style="fill:#ecf0f1" />
<use x="1800" y="300" xlink:href="#unit" style="fill:#ecf0f1" />
<use x="1900" y="300" xlink:href="#unit" style="fill:#ecf0f1" />
<use x="2000" y="300" xlink:href="#unit" style="fill:#ecf0f1" />
<use x="2100" y="300" xlink:href="#unit" style="fill:#ecf0f1" />
<use x="-100" y="400" xlink:href="#unit" style="fill:#e67e22" />
<use x="0" y="400" xlink:href="#unit" style="fill:#e67e22" />
<use x="100" y="400" xlink:href="#unit" style="fill:#e67e22" />
<use x="200" y="400" xlink:href="#unit" style="fill:#e67e22" />
<use x="300" y="400" xlink:href="#unit" style="fill:#e67e22" />
<use x="400" y="400" xlink:href="#unit" style="fill:#e67e22" />
<use x="500" y="400" xlink:href="#unit" style="fill:#e67e22" />
<use x="600" y="400" xlink:href="#unit" style="fill:#e67e22" />
<use x="700" y="400" xlink:href="#unit" style="fill:#e67e22" />
<use x="800" y="400" xlink:href="#unit" style="fill:#e67e22" />
<use x="900" y="400" xlink:href="#unit" style="fill:#e67e22" />
<use x="1000" y="400" xlink:href="#unit" style="fill:#e67e22" />
<use x="1100" y="400" xlink:href="#unit" style="fill:#e67e22" />
<use x="1200" y="400" xlink:href="#unit" style="fill:#e67e22" />
<use x="1300" y="400" xlink:href="#unit" style="fill:#e67e22" />
<use x="1400" y="400" xlink:href="#unit" style="fill:#e67e22" />
<use x="1500" y="400" xlink:href="#unit" style="fill:#e67e22" />
<use x="1600" y="400" xlink:href="#unit" style="fill:#e67e22" />
<use x="1700" y="400" xlink:href="#unit" style="fill:#e67e22" />
<use x="1800" y="400" xlink:href="#unit" style="fill:#e67e22" />
<use x="1900" y="400" xlink:href="#unit" style="fill:#e67e22" />
<use x="2000" y="400" xlink:href="#unit" style="fill:#e67e22" />
<use x="2100" y="400" xlink:href="#unit" style="fill:#e67e22" />
<use x="-100" y="500" xlink:href="#unit" style="fill:#ecf0f1" />
<use x="0" y="500" xlink:href="#unit" style="fill:#ecf0f1" />
<use x="100" y="500" xlink:href="#unit" style="fill:#ecf0f1" />
<use x="200" y="500" xlink:href="#unit" style="fill:#ecf0f1" />
<use x="300" y="500" xlink:href="#unit" style="fill:#ecf0f1" />
<use x="400" y="500" xlink:href="#unit" style="fill:#ecf0f1" />
<use x="500" y="500" xlink:href="#unit" style="fill:#ecf0f1" />
<use x="600" y="500" xlink:href="#unit" style="fill:#ecf0f1" />
<use x="700" y="500" xlink:href="#unit" style="fill:#ecf0f1" />
<use x="800" y="500" xlink:href="#unit" style="fill:#ecf0f1" />
<use x="900" y="500" xlink:href="#unit" style="fill:#ecf0f1" />
<use x="1000" y="500" xlink:href="#unit" style="fill:#ecf0f1" />
<use x="1100" y="500" xlink:href="#unit" style="fill:#ecf0f1" />
<use x="1200" y="500" xlink:href="#unit" style="fill:#ecf0f1" />
<use x="1300" y="500" xlink:href="#unit" style="fill:#ecf0f1" />
<use x="1400" y="500" xlink:href="#unit" style="fill:#ecf0f1" />
<use x="1500" y="500" xlink:href="#unit" style="fill:#ecf0f1" />
<use x="1600" y="500" xlink:href="#unit" style="fill:#ecf0f1" />
<use x="1700" y="500" xlink:href="#unit" style="fill:#ecf0f1" />
<use x="1800" y="500" xlink:href="#unit" style="fill:#ecf0f1" />
<use x="1900" y="500" xlink:href="#unit" style="fill:#ecf0f1" />
<use x="2000" y="500" xlink:href="#unit" style="fill:#ecf0f1" />
<use x="2100" y="500" xlink:href="#unit" style="fill:#ecf0f1" />
</svg>
