<?xml version="1.0"?>
<!-- Generated by SVGo -->
<svg width="500" height="500"
     xmlns="http://www.w3.org/2000/svg"
     xmlns:xlink="http://www.w3.org/1999/xlink">
<desc>Generated with https://github.com/marcelmue/konstrukt</desc>
<rect x="0" y="0" width="500" height="500" style="fill:#e55039" />
<defs>
<g id="unit">
<polygon points="0,0 0,20 20,50 20,80 30,80 30,50 30,40" />
</g>
<g id="runit">
<g transform="scale(-1,-1)">
<use x="0" y="0" xlink:href="#unit" />
</g>
</g>
</defs>
<use x="-120" y="-100" xlink:href="#unit" style="fill:#ecf0f1" />
<use x="-120" y="-20" xlink:href="#runit" style="fill:#fad390" />
<use x="-70" y="-20" xlink:href="#unit" style="fill:#ecf0f1" />
<use x="-70" y="-100" xlink:href="#runit" style="fill:#fad390" />
<use x="-20" y="-100" xlink:href="#unit" style="fill:#ecf0f1" />
<use x="-20" y="-20" xlink:href="#runit" style="fill:#fad390" />
<use x="30" y="-20" xlink:href="#unit" style="fill:#ecf0f1" />
<use x="30" y="-100" xlink:href="#runit" style="fill:#fad390" />
<use x="80" y="-100" xlink:href="#unit" style="fill:#ecf0f1" />
<use x="80" y="-20" xlink:href="#runit" style="fill:#fad390" />
<use x="130" y="-20" xlink:href="#unit" style="fill:#ecf0f1" />
<use x="130" y="-100" xlink:href="#runit" style="fill:#fad390" />
<use x="180" y="-100" xlink:href="#unit" style="fill:#ecf0f1" />
<use x="180" y="-20" xlink:href="#runit" style="fill:#fad390" />
<use x="230" y="-20" xlink:href="#unit" style="fill:#ecf0f1" />
<use x="230" y="-100" xlink:href="#runit" style="fill:#fad390" />
<use x="280" y="-100" xlink:href="#unit" style="fill:#ecf0f1" />
<use x="280" y="-20" xlink:href="#runit" style="fill:#fad390" />
<use x="330" y="-20" xlink:href="#unit" style="fill:#ecf0f1" />
<use x="330" y="-100" xlink:href="#runit" style="fill:#fad390" />
<use x="380" y="-100" xlink:href="#unit" style="fill:#ecf0f1" />
<use x="380" y="-20" xlink:href="#runit" style="fill:#fad390" />
<use x="430" y="-20" xlink:href="#unit" style="fill:#ecf0f1" />
<use x="430" y="-100" xlink:href="#runit" style="fill:#fad390" />
<use x="480" y="-100" xlink:href="#unit" style="fill:#ecf0f1" />
<use x="480" y="-20" xlink:href="#runit" style="fill:#fad390" />
<use x="530" y="-20" xlink:href="#unit" style="fill:#ecf0f1" />
<use x="530" y="-100" xlink:href="#runit" style="fill:#fad390" />
<use x="580" y="-100" xlink:href="#unit" style="fill:#ecf0f1" />
<use x="580" y="-20" xlink:href="#runit" style="fill:#fad390" />
<use x="630" y="-20" xlink:href="#unit" style="fill:#ecf0f1" />
<use x="630" y="-100" xlink:href="#runit" style="fill:#fad390" />
<use x="680" y="-100" xlink:href="#unit" style="fill:#ecf0f1" />
<use x="680" y="-20" xlink:href="#runit" style="fill:#fad390" />
<use x="-120" y="60" xlink:href="#unit" style="fill:#ecf0f1" />
<use x="-120" y="140" xlink:href="#runit" style="fill:#fad390" />
<use x="-70" y="140" xlink:href="#unit" style="fill:#ecf0f1" />
<use x="-70" y="60" xlink:href="#runit" style="fill:#fad390" />
<use x="-20" y="60" xlink:href="#unit" style="fill:#ecf0f1" />
<use x="-20" y="140" xlink:href="#runit" style="fill:#fad390" />
<use x="30" y="140" xlink:href="#unit" style="fill:#ecf0f1" />
<use x="30" y="60" xlink:href="#runit" style="fill:#fad390" />
<use x="80" y="60" xlink:href="#unit" style="fill:#ecf0f1" />
<use x="80" y="140" xlink:href="#runit" style="fill:#fad390" />
<use x="130" y="140" xlink:href="#unit" style="fill:#ecf0f1" />
<use x="130" y="60" xlink:href="#runit" style="fill:#fad390" />
<use x="180" y="60" xlink:href="#unit" style="fill:#ecf0f1" />
<use x="180" y="140" xlink:href="#runit" style="fill:#fad390" />
<use x="230" y="140" xlink:href="#unit" style="fill:#ecf0f1" />
<use x="230" y="60" xlink:href="#runit" style="fill:#fad390" />
<use x="280" y="60" xlink:href="#unit" style="fill:#ecf0f1" />
<use x="280" y="140" xlink:href="#runit" style="fill:#fad390" />
<use x="330" y="140" xlink:href="#unit" style="fill:#ecf0f1" />
<use x="330" y="60" xlink:href="#runit" style="fill:#fad390" />
<use x="380" y="60" xlink:href="#unit" style="fill:#ecf0f1" />
<use x="380" y="140" xlink:href="#runit" style="fill:#fad390" />
<use x="430" y="140" xlink:href="#unit" style="fill:#ecf0f1" />
<use x="430" y="60" xlink:href="#runit" style="fill:#fad390" />
<use x="480" y="60" xlink:href="#unit" style="fill:#ecf0f1" />
<use x="480" y="140" xlink:href="#runit" style="fill:#fad390" />
<use x="530" y="140" xlink:href="#unit" style="fill:#ecf0f1" />
<use x="530" y="60" xlink:href="#runit" style="fill:#fad390" />
<use x="580" y="60" xlink:href="#unit" style="fill:#ecf0f1" />
<use x="580" y="140" xlink:href="#runit" style="fill:#fad390" />
<use x="630" y="140" xlink:href="#unit" style="fill:#ecf0f1" />
<use x="630" y="60" xlink:href="#runit" style="fill:#fad390" />
<use x="680" y="60" xlink:href="#unit" style="fill:#ecf0f1" />
<use x="680" y="140" xlink:href="#runit" style="fill:#fad390" />
<use x="-120" y="220" xlink:href="#unit" style="fill:#ecf0f1" />
<use x="-120" y="300" xlink:href="#runit" style="fill:#fad390" />
<use x="-70" y="300" xlink:href="#unit" style="fill:#ecf0f1" />
<use x="-70" y="220" xlink:href="#runit" style="fill:#fad390" />
<use x="-20" y="220" xlink:href="#unit" style="fill:#ecf0f1" />
<use x="-20" y="300" xlink:href="#runit" style="fill:#fad390" />
<use x="30" y="300" xlink:href="#unit" style="fill:#ecf0f1" />
<use x="30" y="220" xlink:href="#runit" style="fill:#fad390" />
<use x="80" y="220" xlink:href="#unit" style="fill:#ecf0f1" />
<use x="80" y="300" xlink:href="#runit" style="fill:#fad390" />
<use x="130" y="300" xlink:href="#unit" style="fill:#ecf0f1" />
<use x="130" y="220" xlink:href="#runit" style="fill:#fad390" />
<use x="180" y="220" xlink:href="#unit" style="fill:#ecf0f1" />
<use x="180" y="300" xlink:href="#runit" style="fill:#fad390" />
<use x="230" y="300" xlink:href="#unit" style="fill:#ecf0f1" />
<use x="230" y="220" xlink:href="#runit" style="fill:#fad390" />
<use x="280" y="220" xlink:href="#unit" style="fill:#ecf0f1" />
<use x="280" y="300" xlink:href="#runit" style="fill:#fad390" />
<use x="330" y="300" xlink:href="#unit" style="fill:#ecf0f1" />
<use x="330" y="220" xlink:href="#runit" style="fill:#fad390" />
<use x="380" y="220" xlink:href="#unit" style="fill:#ecf0f1" />
<use x="380" y="300" xlink:href="#runit" style="fill:#fad390" />
<use x="430" y="300" xlink:href="#unit" style="fill:#ecf0f1" />
<use x="430" y="220" xlink:href="#runit" style="fill:#fad390" />
<use x="480" y="220" xlink:href="#unit" style="fill:#ecf0f1" />
<use x="480" y="300" xlink:href="#runit" style="fill:#fad390" />
<use x="530" y="300" xlink:href="#unit" style="fill:#ecf0f1" />
<use x="530" y="220" xlink:href="#runit" style="fill:#fad390" />
<use x="580" y="220" xlink:href="#unit" style="fill:#ecf0f1" />
<use x="580" y="300" xlink:href="#runit" style="fill:#fad390" />
<use x="630" y="300" xlink:href="#unit" style="fill:#ecf0f1" />
<use x="630" y="220" xlink:href="#runit" style="fill:#fad390" />
<use x="680" y="220" xlink:href="#unit" style="fill:#ecf0f1" />
<use x="680" y="300" xlink:href="#runit" style="fill:#fad390" />
<use x="-120" y="380" xlink:href="#unit" style="fill:#ecf0f1" />
<use x="-120" y="460" xlink:href="#runit" style="fill:#fad390" />
<use x="-70" y="460" xlink:href="#unit" style="fill:#ecf0f1" />
<use x="-70" y="380" xlink:href="#runit" style="fill:#fad390" />
<use x="-20" y="380" xlink:href="#unit" style="fill:#ecf0f1" />
<use x="-20" y="460" xlink:href="#runit" style="fill:#fad390" />
<use x="30" y="460" xlink:href="#unit" style="fill:#ecf0f1" />
<use x="30" y="380" xlink:href="#runit" style="fill:#fad390" />
<use x="80" y="380" xlink:href="#unit" style="fill:#ecf0f1" />
<use x="80" y="460" xlink:href="#runit" style="fill:#fad390" />
<use x="130" y="460" xlink:href="#unit" style="fill:#ecf0f1" />
<use x="130" y="380" xlink:href="#runit" style="fill:#fad390" />
<use x="180" y="380" xlink:href="#unit" style="fill:#ecf0f1" />
<use x="180" y="460" xlink:href="#runit" style="fill:#fad390" />
<use x="230" y="460" xlink:href="#unit" style="fill:#ecf0f1" />
<use x="230" y="380" xlink:href="#runit" style="fill:#fad390" />
<use x="280" y="380" xlink:href="#unit" style="fill:#ecf0f1" />
<use x="280" y="460" xlink:href="#runit" style="fill:#fad390" />
<use x="330" y="460" xlink:href="#unit" style="fill:#ecf0f1" />
<use x="330" y="380" xlink:href="#runit" style="fill:#fad390" />
<use x="380" y="380" xlink:href="#unit" style="fill:#ecf0f1" />
<use x="380" y="460" xlink:href="#runit" style="fill:#fad390" />
<use x="430" y="460" xlink:href="#unit" style="fill:#ecf0f1" />
<use x="430" y="380" xlink:href="#runit" style="fill:#fad390" />
<use x="480" y="380" xlink:href="#unit" style="fill:#ecf0f1" />
<use x="480" y="460" xlink:href="#runit" style="fill:#fad390" />
<use x="530" y="460" xlink:href="#unit" style="fill:#ecf0f1" />
<use x="530" y="380" xlink:href="#runit" style="fill:#fad390" />
<use x="580" y="380" xlink:href="#unit" style="fill:#ecf0f1" />
<use x="580" y="460" xlink:href="#runit" style="fill:#fad390" />
<use x="630" y="460" xlink:href="#unit" style="fill:#ecf0f1" />
<use x="630" y="380" xlink:href="#runit" style="fill:#fad390" />
<use x="680" y="380" xlink:href="#unit" style="fill:#ecf0f1" />
<use x="680" y="460" xlink:href="#runit" style="fill:#fad390" />
<use x="-120" y="540" xlink:href="#unit" style="fill:#ecf0f1" />
<use x="-120" y="620" xlink:href="#runit" style="fill:#fad390" />
<use x="-70" y="620" xlink:href="#unit" style="fill:#ecf0f1" />
<use x="-70" y="540" xlink:href="#runit" style="fill:#fad390" />
<use x="-20" y="540" xlink:href="#unit" style="fill:#ecf0f1" />
<use x="-20" y="620" xlink:href="#runit" style="fill:#fad390" />
<use x="30" y="620" xlink:href="#unit" style="fill:#ecf0f1" />
<use x="30" y="540" xlink:href="#runit" style="fill:#fad390" />
<use x="80" y="540" xlink:href="#unit" style="fill:#ecf0f1" />
<use x="80" y="620" xlink:href="#runit" style="fill:#fad390" />
<use x="130" y="620" xlink:href="#unit" style="fill:#ecf0f1" />
<use x="130" y="540" xlink:href="#runit" style="fill:#fad390" />
<use x="180" y="540" xlink:href="#unit" style="fill:#ecf0f1" />
<use x="180" y="620" xlink:href="#runit" style="fill:#fad390" />
<use x="230" y="620" xlink:href="#unit" style="fill:#ecf0f1" />
<use x="230" y="540" xlink:href="#runit" style="fill:#fad390" />
<use x="280" y="540" xlink:href="#unit" style="fill:#ecf0f1" />
<use x="280" y="620" xlink:href="#runit" style="fill:#fad390" />
<use x="330" y="620" xlink:href="#unit" style="fill:#ecf0f1" />
<use x="330" y="540" xlink:href="#runit" style="fill:#fad390" />
<use x="380" y="540" xlink:href="#unit" style="fill:#ecf0f1" />
<use x="380" y="620" xlink:href="#runit" style="fill:#fad390" />
<use x="430" y="620" xlink:href="#unit" style="fill:#ecf0f1" />
<use x="430" y="540" xlink:href="#runit" style="fill:#fad390" />
<use x="480" y="540" xlink:href="#unit" style="fill:#ecf0f1" />
<use x="480" y="620" xlink:href="#runit" style="fill:#fad390" />
<use x="530" y="620" xlink:href="#unit" style="fill:#ecf0f1" />
<use x="530" y="540" xlink:href="#runit" style="fill:#fad390" />
<use x="580" y="540" xlink:href="#unit" style="fill:#ecf0f1" />
<use x="580" y="620" xlink:href="#runit" style="fill:#fad390" />
<use x="630" y="620" xlink:href="#unit" style="fill:#ecf0f1" />
<use x="630" y="540" xlink:href="#runit" style="fill:#fad390" />
<use x="680" y="540" xlink:href="#unit" style="fill:#ecf0f1" />
<use x="680" y="620" xlink:href="#runit" style="fill:#fad390" />
</svg>
