<?xml version="1.0"?>
<!-- Generated by SVGo -->
<svg width="2000" height="400"
     xmlns="http://www.w3.org/2000/svg"
     xmlns:xlink="http://www.w3.org/1999/xlink">
<desc>Generated with https://github.com/marcelmue/konstrukt</desc>
<rect x="0" y="0" width="2000" height="400" style="fill:#95a5a6" />
<defs>
<g id="unit">
<polygon points="40,0 0,40 40,80 80,40" style="fill:#ecf0f1" />
<polyline points="70,10 40,40 70,70" style="stroke:#95a5a6;stroke-width:10;fill:none" />
</g>
<g id="runit">
<g transform="scale(-1,1)">
<use x="0" y="0" xlink:href="#unit" />
</g>
</g>
</defs>
<use x="-200" y="-100" xlink:href="#unit" />
<use x="-100" y="-100" xlink:href="#unit" />
<use x="0" y="-100" xlink:href="#unit" />
<use x="100" y="-100" xlink:href="#unit" />
<use x="200" y="-100" xlink:href="#unit" />
<use x="300" y="-100" xlink:href="#unit" />
<use x="400" y="-100" xlink:href="#unit" />
<use x="500" y="-100" xlink:href="#unit" />
<use x="600" y="-100" xlink:href="#unit" />
<use x="700" y="-100" xlink:href="#unit" />
<use x="800" y="-100" xlink:href="#unit" />
<use x="900" y="-100" xlink:href="#unit" />
<use x="1000" y="-100" xlink:href="#unit" />
<use x="1100" y="-100" xlink:href="#unit" />
<use x="1200" y="-100" xlink:href="#unit" />
<use x="1300" y="-100" xlink:href="#unit" />
<use x="1400" y="-100" xlink:href="#unit" />
<use x="1500" y="-100" xlink:href="#unit" />
<use x="1600" y="-100" xlink:href="#unit" />
<use x="1700" y="-100" xlink:href="#unit" />
<use x="1800" y="-100" xlink:href="#unit" />
<use x="1900" y="-100" xlink:href="#unit" />
<use x="2000" y="-100" xlink:href="#unit" />
<use x="2100" y="-100" xlink:href="#unit" />
<use x="-170" y="-50" xlink:href="#runit" />
<use x="-70" y="-50" xlink:href="#runit" />
<use x="30" y="-50" xlink:href="#runit" />
<use x="130" y="-50" xlink:href="#runit" />
<use x="230" y="-50" xlink:href="#runit" />
<use x="330" y="-50" xlink:href="#runit" />
<use x="430" y="-50" xlink:href="#runit" />
<use x="530" y="-50" xlink:href="#runit" />
<use x="630" y="-50" xlink:href="#runit" />
<use x="730" y="-50" xlink:href="#runit" />
<use x="830" y="-50" xlink:href="#runit" />
<use x="930" y="-50" xlink:href="#runit" />
<use x="1030" y="-50" xlink:href="#runit" />
<use x="1130" y="-50" xlink:href="#runit" />
<use x="1230" y="-50" xlink:href="#runit" />
<use x="1330" y="-50" xlink:href="#runit" />
<use x="1430" y="-50" xlink:href="#runit" />
<use x="1530" y="-50" xlink:href="#runit" />
<use x="1630" y="-50" xlink:href="#runit" />
<use x="1730" y="-50" xlink:href="#runit" />
<use x="1830" y="-50" xlink:href="#runit" />
<use x="1930" y="-50" xlink:href="#runit" />
<use x="2030" y="-50" xlink:href="#runit" />
<use x="2130" y="-50" xlink:href="#runit" />
<use x="-200" y="0" xlink:href="#unit" />
<use x="-100" y="0" xlink:href="#unit" />
<use x="0" y="0" xlink:href="#unit" />
<use x="100" y="0" xlink:href="#unit" />
<use x="200" y="0" xlink:href="#unit" />
<use x="300" y="0" xlink:href="#unit" />
<use x="400" y="0" xlink:href="#unit" />
<use x="500" y="0" xlink:href="#unit" />
<use x="600" y="0" xlink:href="#unit" />
<use x="700" y="0" xlink:href="#unit" />
<use x="800" y="0" xlink:href="#unit" />
<use x="900" y="0" xlink:href="#unit" />
<use x="1000" y="0" xlink:href="#unit" />
<use x="1100" y="0" xlink:href="#unit" />
<use x="1200" y="0" xlink:href="#unit" />
<use x="1300" y="0" xlink:href="#unit" />
<use x="1400" y="0" xlink:href="#unit" />
<use x="1500" y="0" xlink:href="#unit" />
<use x="1600" y="0" xlink:href="#unit" />
<use x="1700" y="0" xlink:href="#unit" />
<use x="1800" y="0" xlink:href="#unit" />
<use x="1900" y="0" xlink:href="#unit" />
<use x="2000" y="0" xlink:href="#unit" />
<use x="2100" y="0" xlink:href="#unit" />
<use x="-170" y="50" xlink:href="#runit" />
<use x="-70" y="50" xlink:href="#runit" />
<use x="30" y="50" xlink:href="#runit" />
<use x="130" y="50" xlink:href="#runit" />
<use x="230" y="50" xlink:href="#runit" />
<use x="330" y="50" xlink:href="#runit" />
<use x="430" y="50" xlink:href="#runit" />
<use x="530" y="50" xlink:href="#runit" />
<use x="630" y="50" xlink:href="#runit" />
<use x="730" y="50" xlink:href="#runit" />
<use x="830" y="50" xlink:href="#runit" />
<use x="930" y="50" xlink:href="#runit" />
<use x="1030" y="50" xlink:href="#runit" />
<use x="1130" y="50" xlink:href="#runit" />
<use x="1230" y="50" xlink:href="#runit" />
<use x="1330" y="50" xlink:href="#runit" />
<use x="1430" y="50" xlink:href="#runit" />
<use x="1530" y="50" xlink:href="#runit" />
<use x="1630" y="50" xlink:href="#runit" />
<use x="1730" y="50" xlink:href="#runit" />
<use x="1830" y="50" xlink:href="#runit" />
<use x="1930" y="50" xlink:href="#runit" />
<use x="2030" y="50" xlink:href="#runit" />
<use x="2130" y="50" xlink:href="#runit" />
<use x="-200" y="100" xlink:href="#unit" />
<use x="-100" y="100" xlink:href="#unit" />
<use x="0" y="100" xlink:href="#unit" />
<use x="100" y="100" xlink:href="#unit" />
<use x="200" y="100" xlink:href="#unit" />
<use x="300" y="100" xlink:href="#unit" />
<use x="400" y="100" xlink:href="#unit" />
<use x="500" y="100" xlink:href="#unit" />
<use x="600" y="100" xlink:href="#unit" />
<use x="700" y="100" xlink:href="#unit" />
<use x="800" y="100" xlink:href="#unit" />
<use x="900" y="100" xlink:href="#unit" />
<use x="1000" y="100" xlink:href="#unit" />
<use x="1100" y="100" xlink:href="#unit" />
<use x="1200" y="100" xlink:href="#unit" />
<use x="1300" y="100" xlink:href="#unit" />
<use x="1400" y="100" xlink:href="#unit" />
<use x="1500" y="100" xlink:href="#unit" />
<use x="1600" y="100" xlink:href="#unit" />
<use x="1700" y="100" xlink:href="#unit" />
<use x="1800" y="100" xlink:href="#unit" />
<use x="1900" y="100" xlink:href="#unit" />
<use x="2000" y="100" xlink:href="#unit" />
<use x="2100" y="100" xlink:href="#unit" />
<use x="-170" y="150" xlink:href="#runit" />
<use x="-70" y="150" xlink:href="#runit" />
<use x="30" y="150" xlink:href="#runit" />
<use x="130" y="150" xlink:href="#runit" />
<use x="230" y="150" xlink:href="#runit" />
<use x="330" y="150" xlink:href="#runit" />
<use x="430" y="150" xlink:href="#runit" />
<use x="530" y="150" xlink:href="#runit" />
<use x="630" y="150" xlink:href="#runit" />
<use x="730" y="150" xlink:href="#runit" />
<use x="830" y="150" xlink:href="#runit" />
<use x="930" y="150" xlink:href="#runit" />
<use x="1030" y="150" xlink:href="#runit" />
<use x="1130" y="150" xlink:href="#runit" />
<use x="1230" y="150" xlink:href="#runit" />
<use x="1330" y="150" xlink:href="#runit" />
<use x="1430" y="150" xlink:href="#runit" />
<use x="1530" y="150" xlink:href="#runit" />
<use x="1630" y="150" xlink:href="#runit" />
<use x="1730" y="150" xlink:href="#runit" />
<use x="1830" y="150" xlink:href="#runit" />
<use x="1930" y="150" xlink:href="#runit" />
<use x="2030" y="150" xlink:href="#runit" />
<use x="2130" y="150" xlink:href="#runit" />
<use x="-200" y="200" xlink:href="#unit" />
<use x="-100" y="200" xlink:href="#unit" />
<use x="0" y="200" xlink:href="#unit" />
<use x="100" y="200" xlink:href="#unit" />
<use x="200" y="200" xlink:href="#unit" />
<use x="300" y="200" xlink:href="#unit" />
<use x="400" y="200" xlink:href="#unit" />
<use x="500" y="200" xlink:href="#unit" />
<use x="600" y="200" xlink:href="#unit" />
<use x="700" y="200" xlink:href="#unit" />
<use x="800" y="200" xlink:href="#unit" />
<use x="900" y="200" xlink:href="#unit" />
<use x="1000" y="200" xlink:href="#unit" />
<use x="1100" y="200" xlink:href="#unit" />
<use x="1200" y="200" xlink:href="#unit" />
<use x="1300" y="200" xlink:href="#unit" />
<use x="1400" y="200" xlink:href="#unit" />
<use x="1500" y="200" xlink:href="#unit" />
<use x="1600" y="200" xlink:href="#unit" />
<use x="1700" y="200" xlink:href="#unit" />
<use x="1800" y="200" xlink:href="#unit" />
<use x="1900" y="200" xlink:href="#unit" />
<use x="2000" y="200" xlink:href="#unit" />
<use x="2100" y="200" xlink:href="#unit" />
<use x="-170" y="250" xlink:href="#runit" />
<use x="-70" y="250" xlink:href="#runit" />
<use x="30" y="250" xlink:href="#runit" />
<use x="130" y="250" xlink:href="#runit" />
<use x="230" y="250" xlink:href="#runit" />
<use x="330" y="250" xlink:href="#runit" />
<use x="430" y="250" xlink:href="#runit" />
<use x="530" y="250" xlink:href="#runit" />
<use x="630" y="250" xlink:href="#runit" />
<use x="730" y="250" xlink:href="#runit" />
<use x="830" y="250" xlink:href="#runit" />
<use x="930" y="250" xlink:href="#runit" />
<use x="1030" y="250" xlink:href="#runit" />
<use x="1130" y="250" xlink:href="#runit" />
<use x="1230" y="250" xlink:href="#runit" />
<use x="1330" y="250" xlink:href="#runit" />
<use x="1430" y="250" xlink:href="#runit" />
<use x="1530" y="250" xlink:href="#runit" />
<use x="1630" y="250" xlink:href="#runit" />
<use x="1730" y="250" xlink:href="#runit" />
<use x="1830" y="250" xlink:href="#runit" />
<use x="1930" y="250" xlink:href="#runit" />
<use x="2030" y="250" xlink:href="#runit" />
<use x="2130" y="250" xlink:href="#runit" />
<use x="-200" y="300" xlink:href="#unit" />
<use x="-100" y="300" xlink:href="#unit" />
<use x="0" y="300" xlink:href="#unit" />
<use x="100" y="300" xlink:href="#unit" />
<use x="200" y="300" xlink:href="#unit" />
<use x="300" y="300" xlink:href="#unit" />
<use x="400" y="300" xlink:href="#unit" />
<use x="500" y="300" xlink:href="#unit" />
<use x="600" y="300" xlink:href="#unit" />
<use x="700" y="300" xlink:href="#unit" />
<use x="800" y="300" xlink:href="#unit" />
<use x="900" y="300" xlink:href="#unit" />
<use x="1000" y="300" xlink:href="#unit" />
<use x="1100" y="300" xlink:href="#unit" />
<use x="1200" y="300" xlink:href="#unit" />
<use x="1300" y="300" xlink:href="#unit" />
<use x="1400" y="300" xlink:href="#unit" />
<use x="1500" y="300" xlink:href="#unit" />
<use x="1600" y="300" xlink:href="#unit" />
<use x="1700" y="300" xlink:href="#unit" />
<use x="1800" y="300" xlink:href="#unit" />
<use x="1900" y="300" xlink:href="#unit" />
<use x="2000" y="300" xlink:href="#unit" />
<use x="2100" y="300" xlink:href="#unit" />
<use x="-170" y="350" xlink:href="#runit" />
<use x="-70" y="350" xlink:href="#runit" />
<use x="30" y="350" xlink:href="#runit" />
<use x="130" y="350" xlink:href="#runit" />
<use x="230" y="350" xlink:href="#runit" />
<use x="330" y="350" xlink:href="#runit" />
<use x="430" y="350" xlink:href="#runit" />
<use x="530" y="350" xlink:href="#runit" />
<use x="630" y="350" xlink:href="#runit" />
<use x="730" y="350" xlink:href="#runit" />
<use x="830" y="350" xlink:href="#runit" />
<use x="930" y="350" xlink:href="#runit" />
<use x="1030" y="350" xlink:href="#runit" />
<use x="1130" y="350" xlink:href="#runit" />
<use x="1230" y="350" xlink:href="#runit" />
<use x="1330" y="350" xlink:href="#runit" />
<use x="1430" y="350" xlink:href="#runit" />
<use x="1530" y="350" xlink:href="#runit" />
<use x="1630" y="350" xlink:href="#runit" />
<use x="1730" y="350" xlink:href="#runit" />
<use x="1830" y="350" xlink:href="#runit" />
<use x="1930" y="350" xlink:href="#runit" />
<use x="2030" y="350" xlink:href="#runit" />
<use x="2130" y="350" xlink:href="#runit" />
<use x="-200" y="400" xlink:href="#unit" />
<use x="-100" y="400" xlink:href="#unit" />
<use x="0" y="400" xlink:href="#unit" />
<use x="100" y="400" xlink:href="#unit" />
<use x="200" y="400" xlink:href="#unit" />
<use x="300" y="400" xlink:href="#unit" />
<use x="400" y="400" xlink:href="#unit" />
<use x="500" y="400" xlink:href="#unit" />
<use x="600" y="400" xlink:href="#unit" />
<use x="700" y="400" xlink:href="#unit" />
<use x="800" y="400" xlink:href="#unit" />
<use x="900" y="400" xlink:href="#unit" />
<use x="1000" y="400" xlink:href="#unit" />
<use x="1100" y="400" xlink:href="#unit" />
<use x="1200" y="400" xlink:href="#unit" />
<use x="1300" y="400" xlink:href="#unit" />
<use x="1400" y="400" xlink:href="#unit" />
<use x="1500" y="400" xlink:href="#unit" />
<use x="1600" y="400" xlink:href="#unit" />
<use x="1700" y="400" xlink:href="#unit" />
<use x="1800" y="400" xlink:href="#unit" />
<use x="1900" y="400" xlink:href="#unit" />
<use x="2000" y="400" xlink:href="#unit" />
<use x="2100" y="400" xlink:href="#unit" />
<use x="-170" y="450" xlink:href="#runit" />
<use x="-70" y="450" xlink:href="#runit" />
<use x="30" y="450" xlink:href="#runit" />
<use x="130" y="450" xlink:href="#runit" />
<use x="230" y="450" xlink:href="#runit" />
<use x="330" y="450" xlink:href="#runit" />
<use x="430" y="450" xlink:href="#runit" />
<use x="530" y="450" xlink:href="#runit" />
<use x="630" y="450" xlink:href="#runit" />
<use x="730" y="450" xlink:href="#runit" />
<use x="830" y="450" xlink:href="#runit" />
<use x="930" y="450" xlink:href="#runit" />
<use x="1030" y="450" xlink:href="#runit" />
<use x="1130" y="450" xlink:href="#runit" />
<use x="1230" y="450" xlink:href="#runit" />
<use x="1330" y="450" xlink:href="#runit" />
<use x="1430" y="450" xlink:href="#runit" />
<use x="1530" y="450" xlink:href="#runit" />
<use x="1630" y="450" xlink:href="#runit" />
<use x="1730" y="450" xlink:href="#runit" />
<use x="1830" y="450" xlink:href="#runit" />
<use x="1930" y="450" xlink:href="#runit" />
<use x="2030" y="450" xlink:href="#runit" />
<use x="2130" y="450" xlink:href="#runit" />
<use x="-200" y="500" xlink:href="#unit" />
<use x="-100" y="500" xlink:href="#unit" />
<use x="0" y="500" xlink:href="#unit" />
<use x="100" y="500" xlink:href="#unit" />
<use x="200" y="500" xlink:href="#unit" />
<use x="300" y="500" xlink:href="#unit" />
<use x="400" y="500" xlink:href="#unit" />
<use x="500" y="500" xlink:href="#unit" />
<use x="600" y="500" xlink:href="#unit" />
<use x="700" y="500" xlink:href="#unit" />
<use x="800" y="500" xlink:href="#unit" />
<use x="900" y="500" xlink:href="#unit" />
<use x="1000" y="500" xlink:href="#unit" />
<use x="1100" y="500" xlink:href="#unit" />
<use x="1200" y="500" xlink:href="#unit" />
<use x="1300" y="500" xlink:href="#unit" />
<use x="1400" y="500" xlink:href="#unit" />
<use x="1500" y="500" xlink:href="#unit" />
<use x="1600" y="500" xlink:href="#unit" />
<use x="1700" y="500" xlink:href="#unit" />
<use x="1800" y="500" xlink:href="#unit" />
<use x="1900" y="500" xlink:href="#unit" />
<use x="2000" y="500" xlink:href="#unit" />
<use x="2100" y="500" xlink:href="#unit" />
<use x="-170" y="550" xlink:href="#runit" />
<use x="-70" y="550" xlink:href="#runit" />
<use x="30" y="550" xlink:href="#runit" />
<use x="130" y="550" xlink:href="#runit" />
<use x="230" y="550" xlink:href="#runit" />
<use x="330" y="550" xlink:href="#runit" />
<use x="430" y="550" xlink:href="#runit" />
<use x="530" y="550" xlink:href="#runit" />
<use x="630" y="550" xlink:href="#runit" />
<use x="730" y="550" xlink:href="#runit" />
<use x="830" y="550" xlink:href="#runit" />
<use x="930" y="550" xlink:href="#runit" />
<use x="1030" y="550" xlink:href="#runit" />
<use x="1130" y="550" xlink:href="#runit" />
<use x="1230" y="550" xlink:href="#runit" />
<use x="1330" y="550" xlink:href="#runit" />
<use x="1430" y="550" xlink:href="#runit" />
<use x="1530" y="550" xlink:href="#runit" />
<use x="1630" y="550" xlink:href="#runit" />
<use x="1730" y="550" xlink:href="#runit" />
<use x="1830" y="550" xlink:href="#runit" />
<use x="1930" y="550" xlink:href="#runit" />
<use x="2030" y="550" xlink:href="#runit" />
<use x="2130" y="550" xlink:href="#runit" />
</svg>
