<?xml version="1.0"?>
<!-- Generated by SVGo -->
<svg width="500" height="500"
     xmlns="http://www.w3.org/2000/svg"
     xmlns:xlink="http://www.w3.org/1999/xlink">
<desc>Generated with https://github.com/marcelmue/konstrukt</desc>
<rect x="0" y="0" width="500" height="500" style="fill:#95a5a6" />
<defs>
<g id="unit">
<polygon points="40,0 0,40 40,80 80,40" style="fill:#ecf0f1" />
<polyline points="70,10 40,40 70,70" style="stroke:#95a5a6;stroke-width:10;fill:none" />
</g>
<g id="runit">
<g transform="scale(-1,1)">
<use x="0" y="0" xlink:href="#unit" />
</g>
</g>
</defs>
<use x="-200" y="-100" xlink:href="#unit" />
<use x="-100" y="-100" xlink:href="#unit" />
<use x="0" y="-100" xlink:href="#unit" />
<use x="100" y="-100" xlink:href="#unit" />
<use x="200" y="-100" xlink:href="#unit" />
<use x="300" y="-100" xlink:href="#unit" />
<use x="400" y="-100" xlink:href="#unit" />
<use x="500" y="-100" xlink:href="#unit" />
<use x="600" y="-100" xlink:href="#unit" />
<use x="-170" y="-50" xlink:href="#runit" />
<use x="-70" y="-50" xlink:href="#runit" />
<use x="30" y="-50" xlink:href="#runit" />
<use x="130" y="-50" xlink:href="#runit" />
<use x="230" y="-50" xlink:href="#runit" />
<use x="330" y="-50" xlink:href="#runit" />
<use x="430" y="-50" xlink:href="#runit" />
<use x="530" y="-50" xlink:href="#runit" />
<use x="630" y="-50" xlink:href="#runit" />
<use x="-200" y="0" xlink:href="#unit" />
<use x="-100" y="0" xlink:href="#unit" />
<use x="0" y="0" xlink:href="#unit" />
<use x="100" y="0" xlink:href="#unit" />
<use x="200" y="0" xlink:href="#unit" />
<use x="300" y="0" xlink:href="#unit" />
<use x="400" y="0" xlink:href="#unit" />
<use x="500" y="0" xlink:href="#unit" />
<use x="600" y="0" xlink:href="#unit" />
<use x="-170" y="50" xlink:href="#runit" />
<use x="-70" y="50" xlink:href="#runit" />
<use x="30" y="50" xlink:href="#runit" />
<use x="130" y="50" xlink:href="#runit" />
<use x="230" y="50" xlink:href="#runit" />
<use x="330" y="50" xlink:href="#runit" />
<use x="430" y="50" xlink:href="#runit" />
<use x="530" y="50" xlink:href="#runit" />
<use x="630" y="50" xlink:href="#runit" />
<use x="-200" y="100" xlink:href="#unit" />
<use x="-100" y="100" xlink:href="#unit" />
<use x="0" y="100" xlink:href="#unit" />
<use x="100" y="100" xlink:href="#unit" />
<use x="200" y="100" xlink:href="#unit" />
<use x="300" y="100" xlink:href="#unit" />
<use x="400" y="100" xlink:href="#unit" />
<use x="500" y="100" xlink:href="#unit" />
<use x="600" y="100" xlink:href="#unit" />
<use x="-170" y="150" xlink:href="#runit" />
<use x="-70" y="150" xlink:href="#runit" />
<use x="30" y="150" xlink:href="#runit" />
<use x="130" y="150" xlink:href="#runit" />
<use x="230" y="150" xlink:href="#runit" />
<use x="330" y="150" xlink:href="#runit" />
<use x="430" y="150" xlink:href="#runit" />
<use x="530" y="150" xlink:href="#runit" />
<use x="630" y="150" xlink:href="#runit" />
<use x="-200" y="200" xlink:href="#unit" />
<use x="-100" y="200" xlink:href="#unit" />
<use x="0" y="200" xlink:href="#unit" />
<use x="100" y="200" xlink:href="#unit" />
<use x="200" y="200" xlink:href="#unit" />
<use x="300" y="200" xlink:href="#unit" />
<use x="400" y="200" xlink:href="#unit" />
<use x="500" y="200" xlink:href="#unit" />
<use x="600" y="200" xlink:href="#unit" />
<use x="-170" y="250" xlink:href="#runit" />
<use x="-70" y="250" xlink:href="#runit" />
<use x="30" y="250" xlink:href="#runit" />
<use x="130" y="250" xlink:href="#runit" />
<use x="230" y="250" xlink:href="#runit" />
<use x="330" y="250" xlink:href="#runit" />
<use x="430" y="250" xlink:href="#runit" />
<use x="530" y="250" xlink:href="#runit" />
<use x="630" y="250" xlink:href="#runit" />
<use x="-200" y="300" xlink:href="#unit" />
<use x="-100" y="300" xlink:href="#unit" />
<use x="0" y="300" xlink:href="#unit" />
<use x="100" y="300" xlink:href="#unit" />
<use x="200" y="300" xlink:href="#unit" />
<use x="300" y="300" xlink:href="#unit" />
<use x="400" y="300" xlink:href="#unit" />
<use x="500" y="300" xlink:href="#unit" />
<use x="600" y="300" xlink:href="#unit" />
<use x="-170" y="350" xlink:href="#runit" />
<use x="-70" y="350" xlink:href="#runit" />
<use x="30" y="350" xlink:href="#runit" />
<use x="130" y="350" xlink:href="#runit" />
<use x="230" y="350" xlink:href="#runit" />
<use x="330" y="350" xlink:href="#runit" />
<use x="430" y="350" xlink:href="#runit" />
<use x="530" y="350" xlink:href="#runit" />
<use x="630" y="350" xlink:href="#runit" />
<use x="-200" y="400" xlink:href="#unit" />
<use x="-100" y="400" xlink:href="#unit" />
<use x="0" y="400" xlink:href="#unit" />
<use x="100" y="400" xlink:href="#unit" />
<use x="200" y="400" xlink:href="#unit" />
<use x="300" y="400" xlink:href="#unit" />
<use x="400" y="400" xlink:href="#unit" />
<use x="500" y="400" xlink:href="#unit" />
<use x="600" y="400" xlink:href="#unit" />
<use x="-170" y="450" xlink:href="#runit" />
<use x="-70" y="450" xlink:href="#runit" />
<use x="30" y="450" xlink:href="#runit" />
<use x="130" y="450" xlink:href="#runit" />
<use x="230" y="450" xlink:href="#runit" />
<use x="330" y="450" xlink:href="#runit" />
<use x="430" y="450" xlink:href="#runit" />
<use x="530" y="450" xlink:href="#runit" />
<use x="630" y="450" xlink:href="#runit" />
<use x="-200" y="500" xlink:href="#unit" />
<use x="-100" y="500" xlink:href="#unit" />
<use x="0" y="500" xlink:href="#unit" />
<use x="100" y="500" xlink:href="#unit" />
<use x="200" y="500" xlink:href="#unit" />
<use x="300" y="500" xlink:href="#unit" />
<use x="400" y="500" xlink:href="#unit" />
<use x="500" y="500" xlink:href="#unit" />
<use x="600" y="500" xlink:href="#unit" />
<use x="-170" y="550" xlink:href="#runit" />
<use x="-70" y="550" xlink:href="#runit" />
<use x="30" y="550" xlink:href="#runit" />
<use x="130" y="550" xlink:href="#runit" />
<use x="230" y="550" xlink:href="#runit" />
<use x="330" y="550" xlink:href="#runit" />
<use x="430" y="550" xlink:href="#runit" />
<use x="530" y="550" xlink:href="#runit" />
<use x="630" y="550" xlink:href="#runit" />
<use x="-200" y="600" xlink:href="#unit" />
<use x="-100" y="600" xlink:href="#unit" />
<use x="0" y="600" xlink:href="#unit" />
<use x="100" y="600" xlink:href="#unit" />
<use x="200" y="600" xlink:href="#unit" />
<use x="300" y="600" xlink:href="#unit" />
<use x="400" y="600" xlink:href="#unit" />
<use x="500" y="600" xlink:href="#unit" />
<use x="600" y="600" xlink:href="#unit" />
<use x="-170" y="650" xlink:href="#runit" />
<use x="-70" y="650" xlink:href="#runit" />
<use x="30" y="650" xlink:href="#runit" />
<use x="130" y="650" xlink:href="#runit" />
<use x="230" y="650" xlink:href="#runit" />
<use x="330" y="650" xlink:href="#runit" />
<use x="430" y="650" xlink:href="#runit" />
<use x="530" y="650" xlink:href="#runit" />
<use x="630" y="650" xlink:href="#runit" />
</svg>
