<?xml version="1.0"?>
<!-- Generated by SVGo -->
<svg width="500" height="500"
     xmlns="http://www.w3.org/2000/svg"
     xmlns:xlink="http://www.w3.org/1999/xlink">
<desc>Generated with https://github.com/marcelmue/konstrukt</desc>
<rect x="0" y="0" width="500" height="500" style="fill:#6a89cc" />
<defs>
<g id="unit">
<polyline points="0,0 0,100 103,100" />
<polyline points="10,-10 10,90 113,90" />
<polyline points="20,-20 20,80 123,80" />
<polyline points="30,-30 30,70 133,70" />
<polyline points="40,-40 40,60 143,60" />
</g>
<g id="runit">
<g transform="scale(-1,-1)">
<use x="0" y="0" xlink:href="#unit" />
</g>
</g>
</defs>
<use x="-30" y="10" xlink:href="#runit" style="stroke:#78e08f;stroke-width:6;fill:none" />
<use x="170" y="10" xlink:href="#runit" style="stroke:#78e08f;stroke-width:6;fill:none" />
<use x="370" y="10" xlink:href="#runit" style="stroke:#78e08f;stroke-width:6;fill:none" />
<use x="570" y="10" xlink:href="#runit" style="stroke:#78e08f;stroke-width:6;fill:none" />
<use x="770" y="10" xlink:href="#runit" style="stroke:#78e08f;stroke-width:6;fill:none" />
<use x="-30" y="210" xlink:href="#runit" style="stroke:#78e08f;stroke-width:6;fill:none" />
<use x="170" y="210" xlink:href="#runit" style="stroke:#78e08f;stroke-width:6;fill:none" />
<use x="370" y="210" xlink:href="#runit" style="stroke:#78e08f;stroke-width:6;fill:none" />
<use x="570" y="210" xlink:href="#runit" style="stroke:#78e08f;stroke-width:6;fill:none" />
<use x="770" y="210" xlink:href="#runit" style="stroke:#78e08f;stroke-width:6;fill:none" />
<use x="-30" y="410" xlink:href="#runit" style="stroke:#78e08f;stroke-width:6;fill:none" />
<use x="170" y="410" xlink:href="#runit" style="stroke:#78e08f;stroke-width:6;fill:none" />
<use x="370" y="410" xlink:href="#runit" style="stroke:#78e08f;stroke-width:6;fill:none" />
<use x="570" y="410" xlink:href="#runit" style="stroke:#78e08f;stroke-width:6;fill:none" />
<use x="770" y="410" xlink:href="#runit" style="stroke:#78e08f;stroke-width:6;fill:none" />
<use x="-30" y="610" xlink:href="#runit" style="stroke:#78e08f;stroke-width:6;fill:none" />
<use x="170" y="610" xlink:href="#runit" style="stroke:#78e08f;stroke-width:6;fill:none" />
<use x="370" y="610" xlink:href="#runit" style="stroke:#78e08f;stroke-width:6;fill:none" />
<use x="570" y="610" xlink:href="#runit" style="stroke:#78e08f;stroke-width:6;fill:none" />
<use x="770" y="610" xlink:href="#runit" style="stroke:#78e08f;stroke-width:6;fill:none" />
<use x="-120" y="-100" xlink:href="#unit" style="stroke:#f1c40f;stroke-width:6;fill:none" />
<use x="70" y="-90" xlink:href="#runit" style="stroke:#78e08f;stroke-width:6;fill:none" />
<use x="80" y="-100" xlink:href="#unit" style="stroke:#f1c40f;stroke-width:6;fill:none" />
<use x="270" y="-90" xlink:href="#runit" style="stroke:#78e08f;stroke-width:6;fill:none" />
<use x="280" y="-100" xlink:href="#unit" style="stroke:#f1c40f;stroke-width:6;fill:none" />
<use x="470" y="-90" xlink:href="#runit" style="stroke:#78e08f;stroke-width:6;fill:none" />
<use x="480" y="-100" xlink:href="#unit" style="stroke:#f1c40f;stroke-width:6;fill:none" />
<use x="670" y="-90" xlink:href="#runit" style="stroke:#78e08f;stroke-width:6;fill:none" />
<use x="680" y="-100" xlink:href="#unit" style="stroke:#f1c40f;stroke-width:6;fill:none" />
<use x="-20" y="0" xlink:href="#unit" style="stroke:#f1c40f;stroke-width:6;fill:none" />
<use x="180" y="0" xlink:href="#unit" style="stroke:#f1c40f;stroke-width:6;fill:none" />
<use x="380" y="0" xlink:href="#unit" style="stroke:#f1c40f;stroke-width:6;fill:none" />
<use x="580" y="0" xlink:href="#unit" style="stroke:#f1c40f;stroke-width:6;fill:none" />
<use x="-120" y="100" xlink:href="#unit" style="stroke:#f1c40f;stroke-width:6;fill:none" />
<use x="70" y="110" xlink:href="#runit" style="stroke:#78e08f;stroke-width:6;fill:none" />
<use x="80" y="100" xlink:href="#unit" style="stroke:#f1c40f;stroke-width:6;fill:none" />
<use x="270" y="110" xlink:href="#runit" style="stroke:#78e08f;stroke-width:6;fill:none" />
<use x="280" y="100" xlink:href="#unit" style="stroke:#f1c40f;stroke-width:6;fill:none" />
<use x="470" y="110" xlink:href="#runit" style="stroke:#78e08f;stroke-width:6;fill:none" />
<use x="480" y="100" xlink:href="#unit" style="stroke:#f1c40f;stroke-width:6;fill:none" />
<use x="670" y="110" xlink:href="#runit" style="stroke:#78e08f;stroke-width:6;fill:none" />
<use x="680" y="100" xlink:href="#unit" style="stroke:#f1c40f;stroke-width:6;fill:none" />
<use x="-20" y="200" xlink:href="#unit" style="stroke:#f1c40f;stroke-width:6;fill:none" />
<use x="180" y="200" xlink:href="#unit" style="stroke:#f1c40f;stroke-width:6;fill:none" />
<use x="380" y="200" xlink:href="#unit" style="stroke:#f1c40f;stroke-width:6;fill:none" />
<use x="580" y="200" xlink:href="#unit" style="stroke:#f1c40f;stroke-width:6;fill:none" />
<use x="-120" y="300" xlink:href="#unit" style="stroke:#f1c40f;stroke-width:6;fill:none" />
<use x="70" y="310" xlink:href="#runit" style="stroke:#78e08f;stroke-width:6;fill:none" />
<use x="80" y="300" xlink:href="#unit" style="stroke:#f1c40f;stroke-width:6;fill:none" />
<use x="270" y="310" xlink:href="#runit" style="stroke:#78e08f;stroke-width:6;fill:none" />
<use x="280" y="300" xlink:href="#unit" style="stroke:#f1c40f;stroke-width:6;fill:none" />
<use x="470" y="310" xlink:href="#runit" style="stroke:#78e08f;stroke-width:6;fill:none" />
<use x="480" y="300" xlink:href="#unit" style="stroke:#f1c40f;stroke-width:6;fill:none" />
<use x="670" y="310" xlink:href="#runit" style="stroke:#78e08f;stroke-width:6;fill:none" />
<use x="680" y="300" xlink:href="#unit" style="stroke:#f1c40f;stroke-width:6;fill:none" />
<use x="-20" y="400" xlink:href="#unit" style="stroke:#f1c40f;stroke-width:6;fill:none" />
<use x="180" y="400" xlink:href="#unit" style="stroke:#f1c40f;stroke-width:6;fill:none" />
<use x="380" y="400" xlink:href="#unit" style="stroke:#f1c40f;stroke-width:6;fill:none" />
<use x="580" y="400" xlink:href="#unit" style="stroke:#f1c40f;stroke-width:6;fill:none" />
<use x="-120" y="500" xlink:href="#unit" style="stroke:#f1c40f;stroke-width:6;fill:none" />
<use x="70" y="510" xlink:href="#runit" style="stroke:#78e08f;stroke-width:6;fill:none" />
<use x="80" y="500" xlink:href="#unit" style="stroke:#f1c40f;stroke-width:6;fill:none" />
<use x="270" y="510" xlink:href="#runit" style="stroke:#78e08f;stroke-width:6;fill:none" />
<use x="280" y="500" xlink:href="#unit" style="stroke:#f1c40f;stroke-width:6;fill:none" />
<use x="470" y="510" xlink:href="#runit" style="stroke:#78e08f;stroke-width:6;fill:none" />
<use x="480" y="500" xlink:href="#unit" style="stroke:#f1c40f;stroke-width:6;fill:none" />
<use x="670" y="510" xlink:href="#runit" style="stroke:#78e08f;stroke-width:6;fill:none" />
<use x="680" y="500" xlink:href="#unit" style="stroke:#f1c40f;stroke-width:6;fill:none" />
<use x="-20" y="600" xlink:href="#unit" style="stroke:#f1c40f;stroke-width:6;fill:none" />
<use x="180" y="600" xlink:href="#unit" style="stroke:#f1c40f;stroke-width:6;fill:none" />
<use x="380" y="600" xlink:href="#unit" style="stroke:#f1c40f;stroke-width:6;fill:none" />
<use x="580" y="600" xlink:href="#unit" style="stroke:#f1c40f;stroke-width:6;fill:none" />
</svg>
